<?xml version="1.0" encoding="UTF-8" standalone="no"?>
<!-- Created with Inkscape (http://www.inkscape.org/) -->

<svg
   width="218.10001mm"
   height="60.100002mm"
   viewBox="0 0 218.10001 60.100002"
   version="1.1"
   id="svg1258"
   inkscape:version="1.2.2 (732a01da63, 2022-12-09)"
   sodipodi:docname="lamp.svg"
   xmlns:inkscape="http://www.inkscape.org/namespaces/inkscape"
   xmlns:sodipodi="http://sodipodi.sourceforge.net/DTD/sodipodi-0.dtd"
   xmlns="http://www.w3.org/2000/svg"
   xmlns:svg="http://www.w3.org/2000/svg">
  <sodipodi:namedview
     id="namedview1260"
     pagecolor="#ffffff"
     bordercolor="#666666"
     borderopacity="1.0"
     inkscape:showpageshadow="2"
     inkscape:pageopacity="0.0"
     inkscape:pagecheckerboard="0"
     inkscape:deskcolor="#d1d1d1"
     inkscape:document-units="mm"
     showgrid="true"
     inkscape:zoom="0.9658795"
     inkscape:cx="218.97141"
     inkscape:cy="19.671191"
     inkscape:window-width="1920"
     inkscape:window-height="1009"
     inkscape:window-x="1912"
     inkscape:window-y="-2"
     inkscape:window-maximized="1"
     inkscape:current-layer="layer2">
    <inkscape:grid
       type="xygrid"
       id="grid1379"
       units="mm"
       spacingx="1"
       spacingy="1"
       originx="-31.949999"
       originy="-59.950001" />
  </sodipodi:namedview>
  <defs
     id="defs1255" />
  <g
     inkscape:groupmode="layer"
     id="layer4"
     inkscape:label="blue"
     transform="translate(-7.0499943,-0.44999918)">
    <path
       style="fill:none;stroke:#00509b;stroke-width:0.6;stroke-linecap:round;stroke-linejoin:round;stroke-dasharray:none;stroke-dashoffset:5.66929;stroke-opacity:1;paint-order:fill markers stroke;stop-color:#000000"
       id="path2178"
       sodipodi:type="arc"
       sodipodi:cx="60.099998"
       sodipodi:cy="30.5"
       sodipodi:rx="2"
       sodipodi:ry="2"
       sodipodi:start="6.1180772"
       sodipodi:end="0.16510815"
       sodipodi:open="true"
       sodipodi:arc-type="arc"
       d="m 62.0728,30.171282 a 2,2 0 0 1 0,0.657436"
       inkscape:label="aperture-blue-0" />
    <path
       style="fill:none;stroke:#00509b;stroke-width:0.6;stroke-linecap:round;stroke-linejoin:round;stroke-dasharray:none;stroke-dashoffset:5.66929;stroke-opacity:1;paint-order:fill markers stroke;stop-color:#000000"
       id="path2178-1"
       sodipodi:type="arc"
       sodipodi:cx="40.200001"
       sodipodi:cy="80"
       sodipodi:rx="2"
       sodipodi:ry="2"
       sodipodi:start="4.712389"
       sodipodi:end="1.5707963"
       sodipodi:arc-type="arc"
       d="m 40.200001,78 a 2,2 0 0 1 2,2 2,2 0 0 1 -2,2"
       sodipodi:open="true"
       inkscape:label="lamp-blue-0"
       transform="translate(-24.9,-59.499997)" />
    <path
       style="fill:none;stroke:#00509b;stroke-width:0.6;stroke-linecap:round;stroke-linejoin:round;stroke-dasharray:none;stroke-dashoffset:5.66929;stroke-opacity:1;paint-order:fill markers stroke;stop-color:#000000"
       id="path2178-1-0"
       sodipodi:type="arc"
       sodipodi:cx="40"
       sodipodi:cy="88"
       sodipodi:rx="3"
       sodipodi:ry="3"
       sodipodi:start="4.712389"
       sodipodi:end="1.5707963"
       sodipodi:arc-type="arc"
       d="m 40,85 a 3,3 0 0 1 3,3 3,3 0 0 1 -3,3"
       sodipodi:open="true"
       inkscape:label="lamp-blue-1"
       transform="translate(-24.9,-59.499997)" />
    <path
       style="fill:none;stroke:#00509b;stroke-width:0.6;stroke-linecap:round;stroke-linejoin:round;stroke-dasharray:none;stroke-dashoffset:5.66929;stroke-opacity:1;paint-order:fill markers stroke;stop-color:#000000"
       id="path2178-1-0-0"
       sodipodi:type="arc"
       sodipodi:cx="40"
       sodipodi:cy="97"
       sodipodi:rx="4"
       sodipodi:ry="4"
       sodipodi:start="4.712389"
       sodipodi:end="1.5707963"
       sodipodi:arc-type="arc"
       d="m 40,93 a 4,4 0 0 1 4,4 4,4 0 0 1 -4,4"
       sodipodi:open="true"
       inkscape:label="lamp-blue-2"
       transform="translate(-24.9,-59.499997)" />
  </g>
  <g
     inkscape:groupmode="layer"
     id="layer3"
     inkscape:label="red"
     transform="translate(-7.0499943,-0.44999918)">
    <path
       style="fill:none;stroke:#c20052;stroke-width:0.6;stroke-linecap:round;stroke-linejoin:round;stroke-dasharray:none;stroke-dashoffset:5.66929;stroke-opacity:1;paint-order:fill markers stroke;stop-color:#000000"
       id="path2178-0"
       sodipodi:type="arc"
       sodipodi:cx="60.099998"
       sodipodi:cy="30.5"
       sodipodi:rx="3"
       sodipodi:ry="3"
       sodipodi:start="6.1180772"
       sodipodi:end="0.16510815"
       sodipodi:open="true"
       sodipodi:arc-type="arc"
       d="m 63.0592,30.006923 a 3,3 0 0 1 0,0.986154"
       inkscape:label="aperture-red-0" />
    <path
       style="fill:none;stroke:#c20052;stroke-width:0.6;stroke-linecap:round;stroke-linejoin:round;stroke-dasharray:none;stroke-dashoffset:5.66929;stroke-opacity:1;paint-order:fill markers stroke;stop-color:#000000"
       id="path2178-0-0"
       sodipodi:type="arc"
       sodipodi:cx="40"
       sodipodi:cy="78"
       sodipodi:rx="3"
       sodipodi:ry="3"
       sodipodi:start="4.712389"
       sodipodi:end="1.5707963"
       sodipodi:arc-type="arc"
       d="m 40,75 a 3,3 0 0 1 3,3 3,3 0 0 1 -3,3"
       sodipodi:open="true"
       inkscape:label="lamp-red-0"
       transform="translate(-24.9,-59.499997)" />
    <path
       style="fill:none;stroke:#c20052;stroke-width:0.6;stroke-linecap:round;stroke-linejoin:round;stroke-dasharray:none;stroke-dashoffset:5.66929;stroke-opacity:1;paint-order:fill markers stroke;stop-color:#000000"
       id="path2178-0-0-8"
       sodipodi:type="arc"
       sodipodi:cx="40"
       sodipodi:cy="90"
       sodipodi:rx="4"
       sodipodi:ry="4"
       sodipodi:start="4.712389"
       sodipodi:end="1.5707963"
       sodipodi:arc-type="arc"
       d="m 40,86 a 4,4 0 0 1 4,4 4,4 0 0 1 -4,4"
       sodipodi:open="true"
       inkscape:label="lamp-red-1"
       transform="translate(-24.9,-59.499997)" />
    <path
       style="fill:none;stroke:#c20052;stroke-width:0.6;stroke-linecap:round;stroke-linejoin:round;stroke-dasharray:none;stroke-dashoffset:5.66929;stroke-opacity:1;paint-order:fill markers stroke;stop-color:#000000"
       id="path2178-0-0-8-8"
       sodipodi:type="arc"
       sodipodi:cx="40"
       sodipodi:cy="100"
       sodipodi:rx="2"
       sodipodi:ry="2"
       sodipodi:start="4.712389"
       sodipodi:end="1.5707963"
       sodipodi:arc-type="arc"
       d="m 40,98 a 2,2 0 0 1 2,2 2,2 0 0 1 -2,2"
       sodipodi:open="true"
       inkscape:label="lamp-red-2"
       transform="translate(-24.9,-59.499997)" />
  </g>
  <g
     inkscape:label="black"
     inkscape:groupmode="layer"
     id="layer1"
     transform="translate(-31.949994,-59.949996)">
    <rect
       style="fill:#808080;fill-opacity:1;stroke:#000000;stroke-width:1;stroke-linecap:round;stroke-linejoin:round;stroke-dasharray:none;stroke-dashoffset:5.66929;stroke-opacity:1;paint-order:fill markers stroke;stop-color:#000000"
       id="rect9555"
       width="6.000001"
       height="4.000001"
       x="31.999994"
       y="67.999992" />
    <rect
       style="fill:#808080;fill-opacity:1;stroke:#000000;stroke-width:1;stroke-linecap:round;stroke-linejoin:round;stroke-dasharray:none;stroke-dashoffset:5.66929;stroke-opacity:1;paint-order:fill markers stroke;stop-color:#000000"
       id="rect9555-3"
       width="6.000001"
       height="4.000001"
       x="31.999994"
       y="107.99999" />
    <path
       style="fill:none;stroke:#000000;stroke-width:1;stroke-linecap:round;stroke-linejoin:round;stroke-dasharray:none;stroke-dashoffset:5.66929;stroke-opacity:1;paint-order:fill markers stroke;stop-color:#000000"
       d="m 32.999994,71.999996 c 2e-6,2.000001 -1.000001,4 -1.000002,5.999998 V 102 c 1e-6,2 1.000004,4 1.000002,6"
       id="path9642"
       sodipodi:nodetypes="czzc" />
    <path
       style="fill:none;stroke:#000000;stroke-width:1;stroke-linecap:round;stroke-linejoin:round;stroke-dasharray:none;stroke-dashoffset:5.66929;stroke-opacity:1;paint-order:fill markers stroke;stop-color:#000000"
       d="m 36.999994,71.999996 c -2e-6,2.000001 0.999997,4 0.999998,5.999998 V 102 c -10e-7,2 -1,4 -0.999998,6"
       id="path9642-8"
       sodipodi:nodetypes="czzc" />
    <path
       style="fill:none;stroke:#000000;stroke-width:0.2;stroke-linecap:round;stroke-linejoin:round;stroke-dasharray:none;stroke-dashoffset:5.66929;stroke-opacity:1;paint-order:fill markers stroke;stop-color:#000000"
       d="m 35.999992,77.999994 c 0,2 -2,2 -2,1 0,-1 2,-1 2,1"
       id="path9715-6"
       sodipodi:nodetypes="czc" />
    <path
       style="fill:none;stroke:#000000;stroke-width:0.2;stroke-linecap:round;stroke-linejoin:round;stroke-dasharray:none;stroke-dashoffset:5.66929;stroke-opacity:1;paint-order:fill markers stroke;stop-color:#000000"
       d="m 35.999992,79.999994 c 0,2 -2,2 -2,1 0,-1 2,-1 2,1"
       id="path9715-6-68"
       sodipodi:nodetypes="czc" />
    <path
       style="fill:none;stroke:#000000;stroke-width:0.2;stroke-linecap:round;stroke-linejoin:round;stroke-dasharray:none;stroke-dashoffset:5.66929;stroke-opacity:1;paint-order:fill markers stroke;stop-color:#000000"
       d="m 35.999992,81.999994 c 0,2 -2,2 -2,1 0,-1 2,-1 2,1"
       id="path9715-6-4"
       sodipodi:nodetypes="czc" />
    <path
       style="fill:none;stroke:#000000;stroke-width:0.2;stroke-linecap:round;stroke-linejoin:round;stroke-dasharray:none;stroke-dashoffset:5.66929;stroke-opacity:1;paint-order:fill markers stroke;stop-color:#000000"
       d="m 35.999992,83.999994 c 0,2 -2,2 -2,1 0,-1 2,-1 2,1"
       id="path9715-6-68-5"
       sodipodi:nodetypes="czc" />
    <path
       style="fill:none;stroke:#000000;stroke-width:0.2;stroke-linecap:round;stroke-linejoin:round;stroke-dasharray:none;stroke-dashoffset:5.66929;stroke-opacity:1;paint-order:fill markers stroke;stop-color:#000000"
       d="m 35.999992,85.999994 c 0,2 -2,2 -2,1 0,-1 2,-1 2,1"
       id="path9715-6-9"
       sodipodi:nodetypes="czc" />
    <path
       style="fill:none;stroke:#000000;stroke-width:0.2;stroke-linecap:round;stroke-linejoin:round;stroke-dasharray:none;stroke-dashoffset:5.66929;stroke-opacity:1;paint-order:fill markers stroke;stop-color:#000000"
       d="m 35.999992,87.999994 c 0,2 -2,2 -2,1 0,-1 2,-1 2,1"
       id="path9715-6-68-7"
       sodipodi:nodetypes="czc" />
    <path
       style="fill:none;stroke:#000000;stroke-width:0.2;stroke-linecap:round;stroke-linejoin:round;stroke-dasharray:none;stroke-dashoffset:5.66929;stroke-opacity:1;paint-order:fill markers stroke;stop-color:#000000"
       d="m 35.999992,89.999994 c 0,2 -2,2 -2,1 0,-1 2,-1 2,1"
       id="path9715-6-8"
       sodipodi:nodetypes="czc" />
    <path
       style="fill:none;stroke:#000000;stroke-width:0.2;stroke-linecap:round;stroke-linejoin:round;stroke-dasharray:none;stroke-dashoffset:5.66929;stroke-opacity:1;paint-order:fill markers stroke;stop-color:#000000"
       d="m 35.999992,91.999994 c 0,2 -2,2 -2,1 0,-1 2,-1 2,1"
       id="path9715-6-68-76"
       sodipodi:nodetypes="czc" />
    <path
       style="fill:none;stroke:#000000;stroke-width:0.2;stroke-linecap:round;stroke-linejoin:round;stroke-dasharray:none;stroke-dashoffset:5.66929;stroke-opacity:1;paint-order:fill markers stroke;stop-color:#000000"
       d="m 35.999992,93.999994 c 0,2 -2,2 -2,1 0,-1 2,-1 2,1"
       id="path9715-6-49"
       sodipodi:nodetypes="czc" />
    <path
       style="fill:none;stroke:#000000;stroke-width:0.2;stroke-linecap:round;stroke-linejoin:round;stroke-dasharray:none;stroke-dashoffset:5.66929;stroke-opacity:1;paint-order:fill markers stroke;stop-color:#000000"
       d="m 35.999992,95.999994 c 0,2 -2,2 -2,1 0,-1 2,-1 2,1"
       id="path9715-6-68-4"
       sodipodi:nodetypes="czc" />
    <path
       style="fill:none;stroke:#000000;stroke-width:0.2;stroke-linecap:round;stroke-linejoin:round;stroke-dasharray:none;stroke-dashoffset:5.66929;stroke-opacity:1;paint-order:fill markers stroke;stop-color:#000000"
       d="m 35.999992,97.999994 c 0,2 -2,2 -2,1 0,-1 2,-1 2,1"
       id="path9715-6-490"
       sodipodi:nodetypes="czc" />
    <path
       style="fill:none;stroke:#000000;stroke-width:0.2;stroke-linecap:round;stroke-linejoin:round;stroke-dasharray:none;stroke-dashoffset:5.66929;stroke-opacity:1;paint-order:fill markers stroke;stop-color:#000000"
       d="m 35.999992,99.999994 c 0,2.000006 -2,2.000006 -2,1.000006 0,-1.000006 2,-1.000006 2,1"
       id="path9715-6-68-8"
       sodipodi:nodetypes="czc" />
    <path
       style="fill:none;stroke:#000000;stroke-width:0.2;stroke-linecap:round;stroke-linejoin:round;stroke-dasharray:none;stroke-dashoffset:5.66929;stroke-opacity:1;paint-order:fill markers stroke;stop-color:#000000"
       d="m 34.999994,108 c -2e-6,-3 0.999998,-3 0.999998,-6"
       id="path15279"
       sodipodi:nodetypes="cc" />
    <path
       style="fill:none;stroke:#000000;stroke-width:0.2;stroke-linecap:round;stroke-linejoin:round;stroke-dasharray:none;stroke-dashoffset:5.66929;stroke-opacity:1;paint-order:fill markers stroke;stop-color:#000000"
       d="m 35.000177,71.935275 c -1.85e-4,3.064719 1.048239,3.144655 0.999815,6.064719"
       id="path15279-7"
       sodipodi:nodetypes="cc" />
    <path
       style="fill:#808080;fill-opacity:1;stroke:#000000;stroke-width:1;stroke-linecap:round;stroke-linejoin:round;stroke-dasharray:none;stroke-dashoffset:5.66929;stroke-opacity:1;paint-order:fill markers stroke;stop-color:#000000"
       d="m 84.999995,59.999997 2e-6,28.999999"
       id="path16306"
       inkscape:label="pinhole-black-0"
       sodipodi:nodetypes="cc" />
    <path
       style="fill:#808080;fill-opacity:1;stroke:#000000;stroke-width:1;stroke-linecap:round;stroke-linejoin:round;stroke-dasharray:none;stroke-dashoffset:5.66929;stroke-opacity:1;paint-order:fill markers stroke;stop-color:#000000"
       d="M 84.999997,90.999996 84.999995,120"
       id="path16306-8"
       inkscape:label="pinhole-black-1"
       sodipodi:nodetypes="cc" />
    <path
       style="display:inline;fill:#808080;fill-opacity:1;stroke:#c20052;stroke-width:1;stroke-linecap:round;stroke-linejoin:round;stroke-dasharray:none;stroke-dashoffset:5.66929;stroke-opacity:1;paint-order:fill markers stroke;stop-color:#000000"
       d="M 83.999995,59.999997 V 120"
       id="path17120"
       inkscape:label="filter-red-0"
       sodipodi:nodetypes="cc" />
  </g>
  <g
     inkscape:groupmode="layer"
     id="layer2"
     inkscape:label="aux"
     transform="translate(-7.0499943,-0.44999918)">
    <rect
       style="fill:none;stroke:#000000;stroke-width:0.1;stroke-linecap:round;stroke-linejoin:round;stroke-dasharray:none;stroke-dashoffset:5.66929;paint-order:fill markers stroke;stop-color:#000000"
       id="bbox"
       width="218"
       height="60.000004"
       x="31.999994"
       y="59.999996"
       inkscape:label="bbox-none-0"
       transform="translate(-24.9,-59.499997)" />
  </g>
</svg>
