<?xml version="1.0" encoding="UTF-8" standalone="no"?>
<!-- Created with Inkscape (http://www.inkscape.org/) -->

<svg
   width="319.2785mm"
   height="91.029152mm"
   viewBox="0 0 319.2785 91.029156"
   version="1.1"
   id="svg1"
   inkscape:version="1.2.2 (732a01da63, 2022-12-09)"
   sodipodi:docname="img_lasercoupling.svg"
   xmlns:inkscape="http://www.inkscape.org/namespaces/inkscape"
   xmlns:sodipodi="http://sodipodi.sourceforge.net/DTD/sodipodi-0.dtd"
   xmlns="http://www.w3.org/2000/svg"
   xmlns:svg="http://www.w3.org/2000/svg"
   xmlns:ns2="http://www.iki.fi/pav/software/textext/">
  <sodipodi:namedview
     id="namedview1"
     pagecolor="#ffffff"
     bordercolor="#000000"
     borderopacity="0.25"
     inkscape:showpageshadow="2"
     inkscape:pageopacity="0.0"
     inkscape:pagecheckerboard="0"
     inkscape:deskcolor="#d1d1d1"
     inkscape:document-units="mm"
     showgrid="true"
     inkscape:zoom="0.70710678"
     inkscape:cx="181.01934"
     inkscape:cy="420.72854"
     inkscape:window-width="1920"
     inkscape:window-height="991"
     inkscape:window-x="-9"
     inkscape:window-y="-9"
     inkscape:window-maximized="1"
     inkscape:current-layer="layer2">
    <inkscape:grid
       id="grid1"
       units="mm"
       originx="-9.5028279"
       originy="-59.47085"
       spacingx="1"
       spacingy="0.99999998"
       empcolor="#0099e5"
       empopacity="0.30196078"
       color="#0099e5"
       opacity="0.14901961"
       empspacing="5"
       enabled="true"
       visible="true" />
  </sodipodi:namedview>
  <defs
     id="defs1">
    <g
       id="id-603a0054-3799-4e04-a2fd-1e52419dd5e8-2">
      <g
         id="id-26bd9ef8-3ef7-46e7-91a3-394df7a945ed-4">
        <path
           d="m 4.96875,-3.03125 c 0.0625,-0.28125 0.0625,-0.359375 0.0625,-0.5 0,-0.609375 -0.296875,-1 -1.09375,-1 -0.625,0 -1.1875,0.296875 -1.609375,0.75 l 0.15625,-0.703125 H 1.765625 L 0.8125,0 H 1.578125 L 2.0625,-2.265625 c 0.234375,-1.09375 0.703125,-1.65625 1.359375,-1.65625 0.46875,0 0.8125,0.15625 0.8125,0.65625 0,0.03125 -0.03125,0.1875 -0.03125,0.203125 L 3.5625,0 h 0.78125 z m 0,0"
           id="id-8e0cd95a-8e83-47e2-9b70-254381a7d6ab-5" />
      </g>
      <g
         id="id-983643d0-cbc5-4537-abf8-23f7436ce934-5">
        <path
           d="m 6.734375,-4.96875 c 0.109375,-0.0625 0.1875,-0.109375 0.1875,-0.21875 0,-0.109375 -0.09375,-0.203125 -0.203125,-0.203125 -0.03125,0 -0.046875,0 -0.171875,0.078125 l -5.53125,2.59375 c -0.109375,0.0625 -0.1875,0.109375 -0.1875,0.21875 0,0.125 0.078125,0.171875 0.1875,0.234375 l 5.53125,2.59375 C 6.671875,0.40625 6.6875,0.40625 6.71875,0.40625 c 0.109375,0 0.203125,-0.09375 0.203125,-0.203125 0,-0.109375 -0.078125,-0.15625 -0.1875,-0.21875 L 1.5,-2.5 Z m 0,0"
           id="id-4156a9a6-04b6-453e-9e15-79034d410195-1" />
      </g>
      <g
         id="id-259af494-99e0-4418-8a38-8bd8e14e9415-7">
        <path
           d="M 1.890625,-2.65625 H 2.6875 l 0.09375,-0.4375 H 1.953125 l 0.1875,-0.828125 c 0.03125,-0.125 0.046875,-0.234375 0.25,-0.375 0.21875,-0.15625 0.453125,-0.15625 0.515625,-0.15625 0.1875,0 0.390625,0.046875 0.578125,0.125 L 3.59375,-4.84375 C 3.421875,-4.875 3.25,-4.90625 3.015625,-4.90625 c -0.734375,0 -1.34375,0.546875 -1.484375,1.171875 L 1.390625,-3.09375 h -0.53125 l -0.09375,0.4375 h 0.53125 L 0.734375,0 h 0.59375 z m 0,0"
           id="id-d5eabc45-9cf5-425e-a772-3f6af234f66e-1" />
      </g>
    </g>
    <g
       id="id-9a496dae-0c0e-42f7-ab24-2f6ad0bf9017-1">
      <g
         id="id-e8ae0916-b4f3-4be2-9dc2-21f82d3dc97f-8">
        <path
           d="m 7.1875,-3.4375 c 0,-2.078125 -1.515625,-3.703125 -3.3125,-3.703125 -1.828125,0 -3.3125,1.65625 -3.3125,3.703125 0,2.109375 1.546875,3.65625 3.3125,3.65625 1.78125,0 3.3125,-1.578125 3.3125,-3.65625 z M 3.875,-0.40625 c -1.328125,0 -2.484375,-1.203125 -2.484375,-3.03125 0,-1.859375 1.1875,-3.09375 2.484375,-3.09375 1.328125,0 2.484375,1.265625 2.484375,3.09375 0,1.859375 -1.203125,3.03125 -2.484375,3.03125 z M 1.953125,-3.875 v 0.828125 h 3.84375 V -3.875 Z m 0,0"
           id="id-6e141f89-865f-43ca-81a8-cac8f6d2437f-9" />
      </g>
      <g
         id="id-a994061f-db48-435d-8479-d1f46f74374c-2">
        <path
           d="m 5.75,-2.078125 c 0.015625,-0.125 0.03125,-0.203125 0.03125,-0.375 0,-0.59375 -0.453125,-0.703125 -0.828125,-0.703125 -0.546875,0 -0.96875,0.28125 -1.234375,0.5625 -0.0625,-0.375 -0.3125,-0.5625 -0.828125,-0.5625 -0.390625,0 -0.8125,0.15625 -1.1875,0.515625 l 0.109375,-0.5 H 1.25 L 0.578125,0 H 1.1875 L 1.484375,-1.453125 C 1.59375,-1.875 1.625,-2.09375 1.859375,-2.375 2.03125,-2.59375 2.25,-2.703125 2.5,-2.703125 c 0.34375,0 0.59375,0.125 0.59375,0.453125 0,0.109375 0,0.125 -0.015625,0.171875 L 2.640625,0 h 0.59375 l 0.3125,-1.453125 C 3.640625,-1.875 3.6875,-2.09375 3.921875,-2.375 c 0.171875,-0.21875 0.375,-0.328125 0.625,-0.328125 0.359375,0 0.609375,0.125 0.609375,0.453125 0,0.109375 -0.015625,0.125 -0.015625,0.171875 L 4.6875,0 h 0.609375 z m 0,0"
           id="id-3d4e8945-d5f8-493b-9a91-5b13d7c80237-7" />
      </g>
    </g>
    <g
       id="id-9a496dae-0c0e-42f7-ab24-2f6ad0bf9017-3">
      <g
         id="id-e8ae0916-b4f3-4be2-9dc2-21f82d3dc97f-87">
        <path
           d="m 7.1875,-3.4375 c 0,-2.078125 -1.515625,-3.703125 -3.3125,-3.703125 -1.828125,0 -3.3125,1.65625 -3.3125,3.703125 0,2.109375 1.546875,3.65625 3.3125,3.65625 1.78125,0 3.3125,-1.578125 3.3125,-3.65625 z M 3.875,-0.40625 c -1.328125,0 -2.484375,-1.203125 -2.484375,-3.03125 0,-1.859375 1.1875,-3.09375 2.484375,-3.09375 1.328125,0 2.484375,1.265625 2.484375,3.09375 0,1.859375 -1.203125,3.03125 -2.484375,3.03125 z M 1.953125,-3.875 v 0.828125 h 3.84375 V -3.875 Z m 0,0"
           id="id-6e141f89-865f-43ca-81a8-cac8f6d2437f-4" />
      </g>
      <g
         id="id-a994061f-db48-435d-8479-d1f46f74374c-27">
        <path
           d="m 5.75,-2.078125 c 0.015625,-0.125 0.03125,-0.203125 0.03125,-0.375 0,-0.59375 -0.453125,-0.703125 -0.828125,-0.703125 -0.546875,0 -0.96875,0.28125 -1.234375,0.5625 -0.0625,-0.375 -0.3125,-0.5625 -0.828125,-0.5625 -0.390625,0 -0.8125,0.15625 -1.1875,0.515625 l 0.109375,-0.5 H 1.25 L 0.578125,0 H 1.1875 L 1.484375,-1.453125 C 1.59375,-1.875 1.625,-2.09375 1.859375,-2.375 2.03125,-2.59375 2.25,-2.703125 2.5,-2.703125 c 0.34375,0 0.59375,0.125 0.59375,0.453125 0,0.109375 0,0.125 -0.015625,0.171875 L 2.640625,0 h 0.59375 l 0.3125,-1.453125 C 3.640625,-1.875 3.6875,-2.09375 3.921875,-2.375 c 0.171875,-0.21875 0.375,-0.328125 0.625,-0.328125 0.359375,0 0.609375,0.125 0.609375,0.453125 0,0.109375 -0.015625,0.125 -0.015625,0.171875 L 4.6875,0 h 0.609375 z m 0,0"
           id="id-3d4e8945-d5f8-493b-9a91-5b13d7c80237-79" />
      </g>
    </g>
    <defs
       id="id-4118e059-7c4a-4b9c-9998-f5d88b8cb537-1">
      <g
         id="g68">
        <g
           id="g66">
          <path
             d="m 7.1875,-3.4375 c 0,-2.078125 -1.515625,-3.703125 -3.3125,-3.703125 -1.828125,0 -3.3125,1.65625 -3.3125,3.703125 0,2.109375 1.546875,3.65625 3.3125,3.65625 1.78125,0 3.3125,-1.578125 3.3125,-3.65625 z M 3.875,-0.40625 c -1.328125,0 -2.484375,-1.203125 -2.484375,-3.03125 0,-1.859375 1.1875,-3.09375 2.484375,-3.09375 1.328125,0 2.484375,1.265625 2.484375,3.09375 0,1.859375 -1.203125,3.03125 -2.484375,3.03125 z M 1.953125,-3.875 v 0.828125 h 3.84375 V -3.875 Z m 0,0"
             id="path65" />
        </g>
        <g
           id="g67">
          <path
             d="m 5.75,-2.078125 c 0.015625,-0.125 0.03125,-0.203125 0.03125,-0.375 0,-0.59375 -0.453125,-0.703125 -0.828125,-0.703125 -0.546875,0 -0.96875,0.28125 -1.234375,0.5625 -0.0625,-0.375 -0.3125,-0.5625 -0.828125,-0.5625 -0.390625,0 -0.8125,0.15625 -1.1875,0.515625 l 0.109375,-0.5 H 1.25 L 0.578125,0 H 1.1875 L 1.484375,-1.453125 C 1.59375,-1.875 1.625,-2.09375 1.859375,-2.375 2.03125,-2.59375 2.25,-2.703125 2.5,-2.703125 c 0.34375,0 0.59375,0.125 0.59375,0.453125 0,0.109375 0,0.125 -0.015625,0.171875 L 2.640625,0 h 0.59375 l 0.3125,-1.453125 C 3.640625,-1.875 3.6875,-2.09375 3.921875,-2.375 c 0.171875,-0.21875 0.375,-0.328125 0.625,-0.328125 0.359375,0 0.609375,0.125 0.609375,0.453125 0,0.109375 -0.015625,0.125 -0.015625,0.171875 L 4.6875,0 h 0.609375 z m 0,0"
             id="path66" />
        </g>
      </g>
    </defs>
    <defs
       id="id-4118e059-7c4a-4b9c-9998-f5d88b8cb537">
      <g
         id="id-9a496dae-0c0e-42f7-ab24-2f6ad0bf9017">
        <g
           id="id-e8ae0916-b4f3-4be2-9dc2-21f82d3dc97f">
          <path
             d="m 7.1875,-3.4375 c 0,-2.078125 -1.515625,-3.703125 -3.3125,-3.703125 -1.828125,0 -3.3125,1.65625 -3.3125,3.703125 0,2.109375 1.546875,3.65625 3.3125,3.65625 1.78125,0 3.3125,-1.578125 3.3125,-3.65625 z M 3.875,-0.40625 c -1.328125,0 -2.484375,-1.203125 -2.484375,-3.03125 0,-1.859375 1.1875,-3.09375 2.484375,-3.09375 1.328125,0 2.484375,1.265625 2.484375,3.09375 0,1.859375 -1.203125,3.03125 -2.484375,3.03125 z M 1.953125,-3.875 v 0.828125 h 3.84375 V -3.875 Z m 0,0"
             id="id-6e141f89-865f-43ca-81a8-cac8f6d2437f" />
        </g>
        <g
           id="id-a994061f-db48-435d-8479-d1f46f74374c">
          <path
             d="m 5.75,-2.078125 c 0.015625,-0.125 0.03125,-0.203125 0.03125,-0.375 0,-0.59375 -0.453125,-0.703125 -0.828125,-0.703125 -0.546875,0 -0.96875,0.28125 -1.234375,0.5625 -0.0625,-0.375 -0.3125,-0.5625 -0.828125,-0.5625 -0.390625,0 -0.8125,0.15625 -1.1875,0.515625 l 0.109375,-0.5 H 1.25 L 0.578125,0 H 1.1875 L 1.484375,-1.453125 C 1.59375,-1.875 1.625,-2.09375 1.859375,-2.375 2.03125,-2.59375 2.25,-2.703125 2.5,-2.703125 c 0.34375,0 0.59375,0.125 0.59375,0.453125 0,0.109375 0,0.125 -0.015625,0.171875 L 2.640625,0 h 0.59375 l 0.3125,-1.453125 C 3.640625,-1.875 3.6875,-2.09375 3.921875,-2.375 c 0.171875,-0.21875 0.375,-0.328125 0.625,-0.328125 0.359375,0 0.609375,0.125 0.609375,0.453125 0,0.109375 -0.015625,0.125 -0.015625,0.171875 L 4.6875,0 h 0.609375 z m 0,0"
             id="id-3d4e8945-d5f8-493b-9a91-5b13d7c80237" />
        </g>
      </g>
    </defs>
    <g
       id="id-a7d0975a-3d1a-4e2d-ad74-bf8eb8a4be9b-2">
      <g
         id="id-8fee4ae3-5662-4680-bb33-812f6ba34e61-6" />
      <g
         id="id-c44acb8d-f6ed-4b55-9d08-63d0170fa783-5">
        <path
           d="m 4.53125,-4.984375 c 0,-0.65625 -0.171875,-2.046875 -1.1875,-2.046875 -1.390625,0 -2.921875,2.8125 -2.921875,5.09375 0,0.9375 0.28125,2.046875 1.1875,2.046875 1.40625,0 2.921875,-2.859375 2.921875,-5.09375 z M 1.46875,-3.625 C 1.640625,-4.25 1.84375,-5.046875 2.25,-5.765625 2.515625,-6.25 2.875,-6.8125 3.328125,-6.8125 c 0.484375,0 0.546875,0.640625 0.546875,1.203125 0,0.5 -0.078125,1 -0.3125,1.984375 z m 2,0.328125 C 3.359375,-2.84375 3.15625,-2 2.765625,-1.28125 c -0.34375,0.6875 -0.71875,1.171875 -1.15625,1.171875 -0.328125,0 -0.53125,-0.296875 -0.53125,-1.21875 0,-0.421875 0.0625,-1 0.3125,-1.96875 z m 0,0"
           id="id-0dc7772d-451f-4608-a30a-e33b8bcda59f-2" />
      </g>
      <g
         id="id-8f54f551-37b8-41b5-893a-104bf1aa5fae-6" />
      <g
         id="id-e5ab7520-0c19-4e48-b34a-75dbe540dc4a-7">
        <path
           d="m 5.75,-2.078125 c 0.015625,-0.125 0.03125,-0.203125 0.03125,-0.375 0,-0.59375 -0.453125,-0.703125 -0.828125,-0.703125 -0.546875,0 -0.96875,0.28125 -1.234375,0.5625 -0.0625,-0.375 -0.3125,-0.5625 -0.828125,-0.5625 -0.390625,0 -0.8125,0.15625 -1.1875,0.515625 l 0.109375,-0.5 H 1.25 L 0.578125,0 H 1.1875 L 1.484375,-1.453125 C 1.59375,-1.875 1.625,-2.09375 1.859375,-2.375 2.03125,-2.59375 2.25,-2.703125 2.5,-2.703125 c 0.34375,0 0.59375,0.125 0.59375,0.453125 0,0.109375 0,0.125 -0.015625,0.171875 L 2.640625,0 h 0.59375 l 0.3125,-1.453125 C 3.640625,-1.875 3.6875,-2.09375 3.921875,-2.375 c 0.171875,-0.21875 0.375,-0.328125 0.625,-0.328125 0.359375,0 0.609375,0.125 0.609375,0.453125 0,0.109375 -0.015625,0.125 -0.015625,0.171875 L 4.6875,0 h 0.609375 z m 0,0"
           id="id-63e0b74d-992b-42fd-809c-2990c27ed5c2-3" />
      </g>
    </g>
    <g
       id="id-a7d0975a-3d1a-4e2d-ad74-bf8eb8a4be9b-9">
      <g
         id="id-8fee4ae3-5662-4680-bb33-812f6ba34e61-8" />
      <g
         id="id-c44acb8d-f6ed-4b55-9d08-63d0170fa783-9">
        <path
           d="m 4.53125,-4.984375 c 0,-0.65625 -0.171875,-2.046875 -1.1875,-2.046875 -1.390625,0 -2.921875,2.8125 -2.921875,5.09375 0,0.9375 0.28125,2.046875 1.1875,2.046875 1.40625,0 2.921875,-2.859375 2.921875,-5.09375 z M 1.46875,-3.625 C 1.640625,-4.25 1.84375,-5.046875 2.25,-5.765625 2.515625,-6.25 2.875,-6.8125 3.328125,-6.8125 c 0.484375,0 0.546875,0.640625 0.546875,1.203125 0,0.5 -0.078125,1 -0.3125,1.984375 z m 2,0.328125 C 3.359375,-2.84375 3.15625,-2 2.765625,-1.28125 c -0.34375,0.6875 -0.71875,1.171875 -1.15625,1.171875 -0.328125,0 -0.53125,-0.296875 -0.53125,-1.21875 0,-0.421875 0.0625,-1 0.3125,-1.96875 z m 0,0"
           id="id-0dc7772d-451f-4608-a30a-e33b8bcda59f-7" />
      </g>
      <g
         id="id-8f54f551-37b8-41b5-893a-104bf1aa5fae-60" />
      <g
         id="id-e5ab7520-0c19-4e48-b34a-75dbe540dc4a-5">
        <path
           d="m 5.75,-2.078125 c 0.015625,-0.125 0.03125,-0.203125 0.03125,-0.375 0,-0.59375 -0.453125,-0.703125 -0.828125,-0.703125 -0.546875,0 -0.96875,0.28125 -1.234375,0.5625 -0.0625,-0.375 -0.3125,-0.5625 -0.828125,-0.5625 -0.390625,0 -0.8125,0.15625 -1.1875,0.515625 l 0.109375,-0.5 H 1.25 L 0.578125,0 H 1.1875 L 1.484375,-1.453125 C 1.59375,-1.875 1.625,-2.09375 1.859375,-2.375 2.03125,-2.59375 2.25,-2.703125 2.5,-2.703125 c 0.34375,0 0.59375,0.125 0.59375,0.453125 0,0.109375 0,0.125 -0.015625,0.171875 L 2.640625,0 h 0.59375 l 0.3125,-1.453125 C 3.640625,-1.875 3.6875,-2.09375 3.921875,-2.375 c 0.171875,-0.21875 0.375,-0.328125 0.625,-0.328125 0.359375,0 0.609375,0.125 0.609375,0.453125 0,0.109375 -0.015625,0.125 -0.015625,0.171875 L 4.6875,0 h 0.609375 z m 0,0"
           id="id-63e0b74d-992b-42fd-809c-2990c27ed5c2-1" />
      </g>
    </g>
    <g
       id="id-a7d0975a-3d1a-4e2d-ad74-bf8eb8a4be9b-7">
      <g
         id="id-8fee4ae3-5662-4680-bb33-812f6ba34e61-1" />
      <g
         id="id-c44acb8d-f6ed-4b55-9d08-63d0170fa783-4">
        <path
           d="m 4.53125,-4.984375 c 0,-0.65625 -0.171875,-2.046875 -1.1875,-2.046875 -1.390625,0 -2.921875,2.8125 -2.921875,5.09375 0,0.9375 0.28125,2.046875 1.1875,2.046875 1.40625,0 2.921875,-2.859375 2.921875,-5.09375 z M 1.46875,-3.625 C 1.640625,-4.25 1.84375,-5.046875 2.25,-5.765625 2.515625,-6.25 2.875,-6.8125 3.328125,-6.8125 c 0.484375,0 0.546875,0.640625 0.546875,1.203125 0,0.5 -0.078125,1 -0.3125,1.984375 z m 2,0.328125 C 3.359375,-2.84375 3.15625,-2 2.765625,-1.28125 c -0.34375,0.6875 -0.71875,1.171875 -1.15625,1.171875 -0.328125,0 -0.53125,-0.296875 -0.53125,-1.21875 0,-0.421875 0.0625,-1 0.3125,-1.96875 z m 0,0"
           id="id-0dc7772d-451f-4608-a30a-e33b8bcda59f-28" />
      </g>
      <g
         id="id-8f54f551-37b8-41b5-893a-104bf1aa5fae-2" />
      <g
         id="id-e5ab7520-0c19-4e48-b34a-75dbe540dc4a-4">
        <path
           d="m 5.75,-2.078125 c 0.015625,-0.125 0.03125,-0.203125 0.03125,-0.375 0,-0.59375 -0.453125,-0.703125 -0.828125,-0.703125 -0.546875,0 -0.96875,0.28125 -1.234375,0.5625 -0.0625,-0.375 -0.3125,-0.5625 -0.828125,-0.5625 -0.390625,0 -0.8125,0.15625 -1.1875,0.515625 l 0.109375,-0.5 H 1.25 L 0.578125,0 H 1.1875 L 1.484375,-1.453125 C 1.59375,-1.875 1.625,-2.09375 1.859375,-2.375 2.03125,-2.59375 2.25,-2.703125 2.5,-2.703125 c 0.34375,0 0.59375,0.125 0.59375,0.453125 0,0.109375 0,0.125 -0.015625,0.171875 L 2.640625,0 h 0.59375 l 0.3125,-1.453125 C 3.640625,-1.875 3.6875,-2.09375 3.921875,-2.375 c 0.171875,-0.21875 0.375,-0.328125 0.625,-0.328125 0.359375,0 0.609375,0.125 0.609375,0.453125 0,0.109375 -0.015625,0.125 -0.015625,0.171875 L 4.6875,0 h 0.609375 z m 0,0"
           id="id-63e0b74d-992b-42fd-809c-2990c27ed5c2-5" />
      </g>
    </g>
    <g
       id="id-d2bfabbd-6f60-45ce-8b9f-4aaaee1227f3-0">
      <g
         id="id-13e29612-b9c0-4625-8cca-dc27d623ad57-9" />
      <g
         id="id-fcdae970-ad38-4579-8e6e-676a85cb8d53-2">
        <path
           d="M 1.6875,1.6875 C 1.65625,1.828125 1.640625,1.84375 1.640625,1.890625 c 0,0.21875 0.1875,0.28125 0.296875,0.28125 0.046875,0 0.265625,-0.03125 0.359375,-0.265625 C 2.328125,1.828125 2.375,1.5 2.65625,0.09375 c 0.078125,0 0.15625,0.015625 0.328125,0.015625 1.65625,0 3.1875,-1.5625 3.1875,-3.140625 0,-0.78125 -0.390625,-1.375 -1.140625,-1.375 -1.4375,0 -2.046875,1.9375 -2.640625,3.875 C 1.3125,-0.734375 0.75,-1.28125 0.75,-2 c 0,-0.28125 0.234375,-1.375 0.828125,-2.0625 0.09375,-0.09375 0.09375,-0.109375 0.09375,-0.140625 0,-0.03125 -0.03125,-0.09375 -0.125,-0.09375 -0.28125,0 -1.046875,1.453125 -1.046875,2.40625 0,0.9375 0.65625,1.65625 1.71875,1.90625 z m 1.390625,-2.15625 c -0.09375,0 -0.109375,0 -0.1875,-0.015625 -0.125,0 -0.125,0 -0.125,-0.03125 0,-0.015625 0.171875,-0.9375 0.1875,-1.078125 0.3125,-1.28125 1.09375,-2.234375 1.984375,-2.234375 0.6875,0 0.953125,0.53125 0.953125,1.015625 0,1.125 -1.28125,2.34375 -2.8125,2.34375 z m 0,0"
           id="id-ea608e8d-a011-47c2-a719-865522173f80-7" />
      </g>
      <g
         id="id-09ecd6b3-be5d-4565-b3a8-8b194437061e-6" />
      <g
         id="id-719bb5b3-dbec-4d17-a66b-212c38d82d6b-3">
        <path
           d="M 2.25,-4.78125 H 1.546875 l -0.15625,0.703125 H 2.09375 Z M 0.578125,0 h 0.59375 l 0.65625,-3.09375 h -0.59375 z m 0,0"
           id="id-79f58338-560d-4a1b-8ed9-850839675bd0-2" />
      </g>
    </g>
    <g
       id="id-7568d65e-15d2-44d0-bbf3-b227f1b1521e-6">
      <g
         id="id-3d6f1402-1a95-4379-9fb4-c11b6a976b75-2" />
      <g
         id="id-d28fb119-75e2-425e-b31d-72bfea53adbe-2">
        <path
           d="m 4.96875,-3.03125 c 0.0625,-0.28125 0.0625,-0.359375 0.0625,-0.5 0,-0.609375 -0.296875,-1 -1.09375,-1 -0.625,0 -1.1875,0.296875 -1.609375,0.75 l 0.15625,-0.703125 H 1.765625 L 0.8125,0 H 1.578125 L 2.0625,-2.265625 c 0.234375,-1.09375 0.703125,-1.65625 1.359375,-1.65625 0.46875,0 0.8125,0.15625 0.8125,0.65625 0,0.03125 -0.03125,0.1875 -0.03125,0.203125 L 3.5625,0 h 0.78125 z m 0,0"
           id="id-b35398e2-5293-4286-b6c2-25bcee0fbb7b-0" />
      </g>
      <g
         id="id-16e1aa42-611f-40c0-9720-7b51a354f85e-6" />
      <g
         id="id-6b09b788-b256-46d4-9735-8788add3dd66-6">
        <path
           d="M 1.890625,-2.65625 H 2.6875 l 0.09375,-0.4375 H 1.953125 l 0.1875,-0.828125 c 0.03125,-0.125 0.046875,-0.234375 0.25,-0.375 0.21875,-0.15625 0.453125,-0.15625 0.515625,-0.15625 0.1875,0 0.390625,0.046875 0.578125,0.125 L 3.59375,-4.84375 C 3.421875,-4.875 3.25,-4.90625 3.015625,-4.90625 c -0.734375,0 -1.34375,0.546875 -1.484375,1.171875 L 1.390625,-3.09375 h -0.53125 l -0.09375,0.4375 h 0.53125 L 0.734375,0 h 0.59375 z m 0,0"
           id="id-d1f4c366-7337-42d7-ab1a-fed199bd7ceb-4" />
      </g>
    </g>
    <g
       id="id-7568d65e-15d2-44d0-bbf3-b227f1b1521e-7">
      <g
         id="id-3d6f1402-1a95-4379-9fb4-c11b6a976b75-4" />
      <g
         id="id-d28fb119-75e2-425e-b31d-72bfea53adbe-3">
        <path
           d="m 4.96875,-3.03125 c 0.0625,-0.28125 0.0625,-0.359375 0.0625,-0.5 0,-0.609375 -0.296875,-1 -1.09375,-1 -0.625,0 -1.1875,0.296875 -1.609375,0.75 l 0.15625,-0.703125 H 1.765625 L 0.8125,0 H 1.578125 L 2.0625,-2.265625 c 0.234375,-1.09375 0.703125,-1.65625 1.359375,-1.65625 0.46875,0 0.8125,0.15625 0.8125,0.65625 0,0.03125 -0.03125,0.1875 -0.03125,0.203125 L 3.5625,0 h 0.78125 z m 0,0"
           id="id-b35398e2-5293-4286-b6c2-25bcee0fbb7b-08" />
      </g>
      <g
         id="id-16e1aa42-611f-40c0-9720-7b51a354f85e-5" />
      <g
         id="id-6b09b788-b256-46d4-9735-8788add3dd66-0">
        <path
           d="M 1.890625,-2.65625 H 2.6875 l 0.09375,-0.4375 H 1.953125 l 0.1875,-0.828125 c 0.03125,-0.125 0.046875,-0.234375 0.25,-0.375 0.21875,-0.15625 0.453125,-0.15625 0.515625,-0.15625 0.1875,0 0.390625,0.046875 0.578125,0.125 L 3.59375,-4.84375 C 3.421875,-4.875 3.25,-4.90625 3.015625,-4.90625 c -0.734375,0 -1.34375,0.546875 -1.484375,1.171875 L 1.390625,-3.09375 h -0.53125 l -0.09375,0.4375 h 0.53125 L 0.734375,0 h 0.59375 z m 0,0"
           id="id-d1f4c366-7337-42d7-ab1a-fed199bd7ceb-1" />
      </g>
    </g>
    <g
       id="id-a7d0975a-3d1a-4e2d-ad74-bf8eb8a4be9b-4">
      <g
         id="id-8fee4ae3-5662-4680-bb33-812f6ba34e61-3" />
      <g
         id="id-c44acb8d-f6ed-4b55-9d08-63d0170fa783-0">
        <path
           d="m 4.53125,-4.984375 c 0,-0.65625 -0.171875,-2.046875 -1.1875,-2.046875 -1.390625,0 -2.921875,2.8125 -2.921875,5.09375 0,0.9375 0.28125,2.046875 1.1875,2.046875 1.40625,0 2.921875,-2.859375 2.921875,-5.09375 z M 1.46875,-3.625 C 1.640625,-4.25 1.84375,-5.046875 2.25,-5.765625 2.515625,-6.25 2.875,-6.8125 3.328125,-6.8125 c 0.484375,0 0.546875,0.640625 0.546875,1.203125 0,0.5 -0.078125,1 -0.3125,1.984375 z m 2,0.328125 C 3.359375,-2.84375 3.15625,-2 2.765625,-1.28125 c -0.34375,0.6875 -0.71875,1.171875 -1.15625,1.171875 -0.328125,0 -0.53125,-0.296875 -0.53125,-1.21875 0,-0.421875 0.0625,-1 0.3125,-1.96875 z m 0,0"
           id="id-0dc7772d-451f-4608-a30a-e33b8bcda59f-8" />
      </g>
      <g
         id="id-8f54f551-37b8-41b5-893a-104bf1aa5fae-5" />
      <g
         id="id-e5ab7520-0c19-4e48-b34a-75dbe540dc4a-50">
        <path
           d="m 5.75,-2.078125 c 0.015625,-0.125 0.03125,-0.203125 0.03125,-0.375 0,-0.59375 -0.453125,-0.703125 -0.828125,-0.703125 -0.546875,0 -0.96875,0.28125 -1.234375,0.5625 -0.0625,-0.375 -0.3125,-0.5625 -0.828125,-0.5625 -0.390625,0 -0.8125,0.15625 -1.1875,0.515625 l 0.109375,-0.5 H 1.25 L 0.578125,0 H 1.1875 L 1.484375,-1.453125 C 1.59375,-1.875 1.625,-2.09375 1.859375,-2.375 2.03125,-2.59375 2.25,-2.703125 2.5,-2.703125 c 0.34375,0 0.59375,0.125 0.59375,0.453125 0,0.109375 0,0.125 -0.015625,0.171875 L 2.640625,0 h 0.59375 l 0.3125,-1.453125 C 3.640625,-1.875 3.6875,-2.09375 3.921875,-2.375 c 0.171875,-0.21875 0.375,-0.328125 0.625,-0.328125 0.359375,0 0.609375,0.125 0.609375,0.453125 0,0.109375 -0.015625,0.125 -0.015625,0.171875 L 4.6875,0 h 0.609375 z m 0,0"
           id="id-63e0b74d-992b-42fd-809c-2990c27ed5c2-2" />
      </g>
    </g>
    <g
       id="id-6e9c6459-b3e2-4e10-a9d3-60f58aa0a8b6-1">
      <g
         id="id-ba93bb9f-fbcc-4f3b-9c7e-d7a0d380042f-6" />
      <g
         id="id-06610b60-f77e-4f3f-970d-ece10d07a14b-7">
        <path
           d="M 1.5625,-2.140625 C 1.5625,-3.125 2.28125,-3.84375 3.265625,-3.875 v -0.65625 c -0.890625,0 -1.4375,0.5 -1.75,0.953125 v -0.90625 H 0.8125 V 0 h 0.75 z m 0,0"
           id="id-3bd25ef4-6db7-4983-81e5-6e3e84a87f6d-6" />
      </g>
      <g
         id="id-e29ddcd5-3114-4691-b6c3-041d84bc8c27-3">
        <path
           d="m 3.984375,-2.875 c 0,-1.015625 -0.734375,-1.71875 -1.65625,-1.71875 -0.640625,0 -1.09375,0.15625 -1.5625,0.421875 l 0.0625,0.65625 C 1.34375,-3.875 1.84375,-4 2.328125,-4 c 0.46875,0 0.875,0.390625 0.875,1.125 v 0.4375 C 1.703125,-2.421875 0.4375,-2 0.4375,-1.125 c 0,0.421875 0.265625,1.234375 1.140625,1.234375 0.140625,0 1.078125,-0.015625 1.65625,-0.46875 V 0 h 0.75 z m -0.78125,1.5625 c 0,0.1875 0,0.4375 -0.34375,0.625 C 2.578125,-0.515625 2.1875,-0.5 2.078125,-0.5 1.609375,-0.5 1.15625,-0.734375 1.15625,-1.140625 c 0,-0.703125 1.609375,-0.765625 2.046875,-0.796875 z m 0,0"
           id="id-6523a8b3-4bdb-42a9-96ed-362071313cf0-2" />
      </g>
      <g
         id="id-c5fdd6db-a66a-4d57-982f-2c50742d8e97-4">
        <path
           d="m 4.328125,-6.921875 h -0.75 v 2.9375 C 3.046875,-4.421875 2.5,-4.53125 2.125,-4.53125 c -0.984375,0 -1.765625,1.03125 -1.765625,2.3125 0,1.3125 0.765625,2.328125 1.71875,2.328125 0.328125,0 0.90625,-0.09375 1.46875,-0.625 V 0 h 0.78125 z m -0.78125,5.53125 C 3.546875,-1.25 3.53125,-1.0625 3.21875,-0.78125 2.984375,-0.578125 2.734375,-0.5 2.484375,-0.5 c -0.625,0 -1.34375,-0.46875 -1.34375,-1.703125 0,-1.3125 0.859375,-1.71875 1.4375,-1.71875 0.453125,0 0.75,0.21875 0.96875,0.546875 z m 0,0"
           id="id-1d7f7565-2c3d-427e-a45e-3f5b7ca7419a-4" />
      </g>
      <g
         id="id-c1d115ce-0194-4c65-b6b1-41e71082ebb7-3">
        <path
           d="M 1.625,-6.78125 H 0.734375 v 0.890625 H 1.625 Z m -0.0625,2.359375 h -0.75 V 0 h 0.75 z m 0,0"
           id="id-a37b9383-1a6b-4fdd-bb0b-a1f8ea337039-6" />
      </g>
      <g
         id="id-c6d49d67-7f08-4877-9c42-d2e6c6e1a82b-9">
        <path
           d="M 1.75,-3.84375 H 3.15625 V -4.421875 H 1.75 V -5.6875 H 1.0625 v 1.265625 h -0.875 v 0.578125 h 0.84375 v 2.65625 c 0,0.59375 0.140625,1.296875 0.828125,1.296875 0.6875,0 1.203125,-0.25 1.453125,-0.375 L 3.15625,-0.859375 C 2.890625,-0.640625 2.578125,-0.53125 2.25,-0.53125 c -0.359375,0 -0.5,-0.296875 -0.5,-0.828125 z m 0,0"
           id="id-6836a21f-a753-4739-a4e7-40dbd0669102-2" />
      </g>
      <g
         id="id-3676cf8a-4d17-4a9d-84aa-aa41c9dbd18a-9">
        <path
           d="m 4.453125,-4.421875 h -0.75 l -0.796875,2.0625 C 2.703125,-1.796875 2.390625,-1 2.3125,-0.53125 H 2.296875 C 2.25,-0.890625 1.984375,-1.578125 1.890625,-1.84375 L 0.921875,-4.421875 H 0.140625 L 1.859375,0 h 0.875 z m 0,0"
           id="id-147a5da0-bc34-4c59-bafd-44b906a9622c-1" />
      </g>
      <g
         id="id-fbfd8e10-4597-47d4-861d-152a922c42ad-3">
        <path
           d="M 4.125,-2.1875 C 4.125,-2.515625 4.109375,-3.265625 3.734375,-3.875 3.3125,-4.484375 2.71875,-4.59375 2.359375,-4.59375 1.25,-4.59375 0.34375,-3.53125 0.34375,-2.25 c 0,1.3125 0.96875,2.359375 2.15625,2.359375 0.625,0 1.203125,-0.234375 1.59375,-0.515625 L 4.03125,-1.0625 C 3.40625,-0.53125 2.734375,-0.5 2.515625,-0.5 1.71875,-0.5 1.078125,-1.203125 1.046875,-2.1875 Z M 1.09375,-2.734375 c 0.15625,-0.75 0.6875,-1.25 1.265625,-1.25 0.515625,0 1.0625,0.328125 1.203125,1.25 z m 0,0"
           id="id-2f7f64aa-6e82-4672-9467-5a1f8b41419e-7" />
      </g>
      <g
         id="id-3f13cfd0-bb8f-4b43-883d-faf7049c9782-6">
        <path
           d="m 7.109375,-2.96875 c 0,-0.671875 -0.15625,-1.5625 -1.375,-1.5625 -0.59375,0 -1.109375,0.28125 -1.484375,0.8125 -0.25,-0.75 -0.953125,-0.8125 -1.265625,-0.8125 -0.71875,0 -1.1875,0.40625 -1.453125,0.765625 v -0.71875 H 0.8125 V 0 h 0.765625 v -2.4375 c 0,-0.6875 0.28125,-1.484375 1.015625,-1.484375 0.921875,0 0.96875,0.640625 0.96875,1.015625 V 0 h 0.78125 v -2.4375 c 0,-0.6875 0.265625,-1.484375 1.015625,-1.484375 0.921875,0 0.96875,0.640625 0.96875,1.015625 V 0 h 0.78125 z m 0,0"
           id="id-25131776-cd7c-4d14-963e-4453e773b06c-9" />
      </g>
      <g
         id="id-b2259e15-7b70-40ec-b03f-5b53e04fb27c-6">
        <path
           d="m 4.671875,-2.1875 c 0,-1.34375 -1,-2.40625 -2.171875,-2.40625 -1.234375,0 -2.203125,1.09375 -2.203125,2.40625 0,1.3125 1.015625,2.296875 2.1875,2.296875 1.1875,0 2.1875,-1 2.1875,-2.296875 z m -2.1875,1.65625 c -0.6875,0 -1.40625,-0.5625 -1.40625,-1.765625 0,-1.203125 0.75,-1.6875 1.40625,-1.6875 0.703125,0 1.40625,0.515625 1.40625,1.6875 0,1.1875 -0.671875,1.765625 -1.40625,1.765625 z m 0,0"
           id="id-6208d1fa-d423-463c-88f2-d86e340bd140-2" />
      </g>
      <g
         id="id-8e03ad43-74dd-4ba9-8a5f-bbac1982219a-4">
        <path
           d="M 3.421875,-4.28125 C 2.90625,-4.515625 2.5,-4.59375 1.984375,-4.59375 c -0.25,0 -1.65625,0 -1.65625,1.296875 0,0.5 0.296875,0.8125 0.546875,1 0.296875,0.21875 0.515625,0.265625 1.0625,0.375 0.359375,0.0625 0.9375,0.1875 0.9375,0.71875 0,0.6875 -0.78125,0.6875 -0.9375,0.6875 -0.796875,0 -1.359375,-0.375 -1.53125,-0.484375 l -0.125,0.671875 c 0.3125,0.15625 0.859375,0.4375 1.671875,0.4375 0.1875,0 0.734375,0 1.15625,-0.3125 0.3125,-0.25 0.484375,-0.640625 0.484375,-1.078125 0,-0.546875 -0.375,-0.875 -0.390625,-0.90625 C 2.8125,-2.546875 2.546875,-2.609375 2.046875,-2.6875 1.5,-2.796875 1.03125,-2.90625 1.03125,-3.390625 1.03125,-4 1.75,-4 1.890625,-4 c 0.3125,0 0.84375,0.03125 1.40625,0.375 z m 0,0"
           id="id-833d5fef-7a24-4858-bfb9-01e3b7b017e7-0" />
      </g>
    </g>
    <g
       id="id-614c176e-a9e1-4af3-8bca-5cc97b8ecc61-3">
      <g
         id="id-4b758a16-62b1-4e07-bafb-12f95c9aa405-4" />
      <g
         id="id-a4a9cb78-f2ba-4d73-ae60-38c3e9288871-7">
        <path
           d="m 4.53125,-4.984375 c 0,-0.65625 -0.171875,-2.046875 -1.1875,-2.046875 -1.390625,0 -2.921875,2.8125 -2.921875,5.09375 0,0.9375 0.28125,2.046875 1.1875,2.046875 1.40625,0 2.921875,-2.859375 2.921875,-5.09375 z M 1.46875,-3.625 C 1.640625,-4.25 1.84375,-5.046875 2.25,-5.765625 2.515625,-6.25 2.875,-6.8125 3.328125,-6.8125 c 0.484375,0 0.546875,0.640625 0.546875,1.203125 0,0.5 -0.078125,1 -0.3125,1.984375 z m 2,0.328125 C 3.359375,-2.84375 3.15625,-2 2.765625,-1.28125 c -0.34375,0.6875 -0.71875,1.171875 -1.15625,1.171875 -0.328125,0 -0.53125,-0.296875 -0.53125,-1.21875 0,-0.421875 0.0625,-1 0.3125,-1.96875 z m 0,0"
           id="id-568e3154-97bb-417a-9553-d8f6f6b67944-3" />
      </g>
      <g
         id="id-6b454a32-dfbb-4d29-b337-0a9a5bdc36f0-9">
        <path
           d="m 6.734375,-4.96875 c 0.109375,-0.0625 0.1875,-0.109375 0.1875,-0.21875 0,-0.109375 -0.09375,-0.203125 -0.203125,-0.203125 -0.03125,0 -0.046875,0 -0.171875,0.078125 l -5.53125,2.59375 c -0.109375,0.0625 -0.1875,0.109375 -0.1875,0.21875 0,0.125 0.078125,0.171875 0.1875,0.234375 l 5.53125,2.59375 C 6.671875,0.40625 6.6875,0.40625 6.71875,0.40625 c 0.109375,0 0.203125,-0.09375 0.203125,-0.203125 0,-0.109375 -0.078125,-0.15625 -0.1875,-0.21875 L 1.5,-2.5 Z m 0,0"
           id="id-c307a2bd-493d-47fb-a7e7-73339946c81b-9" />
      </g>
      <g
         id="id-36b0010e-7ce7-47fc-a02a-25c5a3faf826-9" />
      <g
         id="id-ff7bdc07-2a60-4e90-801d-6e7fdcfd745f-9">
        <path
           d="m 3.1875,-0.765625 c -0.359375,0.21875 -0.765625,0.359375 -1.21875,0.359375 -0.65625,0 -0.8125,-0.5 -0.8125,-0.84375 0,-0.5625 0.390625,-1.46875 1.3125,-1.46875 0.4375,0 0.671875,0.078125 0.984375,0.328125 L 3.65625,-2.90625 c -0.359375,-0.203125 -0.5625,-0.296875 -1.078125,-0.296875 -1.1875,0 -2.03125,1.078125 -2.03125,1.984375 0,0.71875 0.484375,1.28125 1.3125,1.28125 0.609375,0 1.109375,-0.21875 1.265625,-0.3125 z m 0,0"
           id="id-3ffbe640-b77b-4d95-87a7-e9613524cdfa-5" />
      </g>
    </g>
    <g
       id="id-f08b4b5e-ddb9-432b-b062-447b6f68033c">
      <g
         id="id-50c10d6a-5c21-4004-81b5-c3613bc4002e" />
      <g
         id="id-6095afe6-4b1e-4abe-8aa3-a03af9cfdd58">
        <path
           d="m 3.078125,-2.28125 2.28125,-2.140625 H 4.53125 L 2.859375,-2.78125 1.828125,-4.421875 H 1 L 2.421875,-2.28125 0,0 H 0.8125 L 2.65625,-1.875 3.765625,0 h 0.8125 z m 0,0"
           id="id-834a27c0-2ad3-4f88-afed-9d56fe6a9d73" />
      </g>
    </g>
    <g
       id="id-8be418e9-9735-44c6-a52a-03ad316f7c89">
      <g
         id="id-24487a82-3d8f-41c1-b544-0a7dbf695da4" />
      <g
         id="id-19f3fd73-f13c-49b0-80ce-5ed2cce40580">
        <path
           d="m 5.390625,-4.421875 h -0.75 L 3.28125,-2.1875 C 2.96875,-1.640625 2.578125,-0.921875 2.5,-0.578125 H 2.484375 C 2.5,-0.640625 2.5,-0.71875 2.5,-0.828125 2.5,-1.34375 2.3125,-2.34375 2.203125,-2.859375 l -0.34375,-1.5625 h -0.78125 l 0.96875,4.28125 c 0,0.015625 0.03125,0.109375 0.03125,0.125 0,0.0625 -0.46875,0.765625 -0.546875,0.890625 -0.28125,0.4375 -0.4375,0.59375 -0.6875,0.59375 -0.171875,0 -0.5,-0.03125 -0.75,-0.15625 L 0.015625,1.96875 c 0.265625,0.0625 0.53125,0.078125 0.6875,0.078125 C 1,2.046875 1.40625,2 2.109375,0.875 Z m 0,0"
           id="id-251c03c7-efc3-4b64-b531-c8f00b1ed436" />
      </g>
    </g>
    <g
       id="id-977432a4-1e54-44f4-af2a-ca907ed39400">
      <g
         id="id-aa86332f-70ab-4009-b4a4-881987e77f69" />
      <g
         id="id-d6e2737a-c776-4907-9db3-70fffb88f2a6">
        <path
           d="m 4.75,-3.953125 c 0.09375,-0.078125 0.09375,-0.09375 0.125,-0.1875 l 0.046875,-0.28125 h -3.5625 l -0.125,0.578125 H 2.625 c 0.125,0 0.25,0 0.359375,0 h 0.84375 l -3.34375,3.3125 C 0.375,-0.421875 0.375,-0.40625 0.34375,-0.3125 0.328125,-0.265625 0.296875,-0.0625 0.28125,0 H 4 L 4.140625,-0.625 H 2.65625 c -0.109375,0 -0.234375,0.015625 -0.359375,0.015625 h -0.90625 z m 0,0"
           id="id-717c1d33-9490-4cbe-a228-d8720411ed69" />
      </g>
    </g>
  </defs>
  <g
     inkscape:label="Ebene 1"
     inkscape:groupmode="layer"
     id="layer1"
     transform="translate(-9.5027842,-59.470894)"
     style="display:inline">
    <path
       style="fill:none;stroke:#000000;stroke-width:1;stroke-linecap:round;stroke-linejoin:round;stroke-dashoffset:2.26772;stroke-opacity:1;stop-color:#000000"
       d="m 249.99996,60.000057 -135,5e-6 v 89.999978 l 135,10e-6"
       id="path27147"
       sodipodi:nodetypes="cccc" />
    <circle
       style="display:inline;fill:none;fill-opacity:1;stroke:#000000;stroke-width:1;stroke-linecap:round;stroke-linejoin:round;stop-color:#000000"
       id="path9115"
       cx="270"
       cy="105.00008"
       r="4" />
    <g
       transform="matrix(1.41111,0,0,1.41111,275.32061,59.470718)"
       ns2:version="1.8.2"
       ns2:texconverter="pdflatex"
       ns2:pdfconverter="inkscape"
       ns2:text="$x$"
       ns2:preamble="C:\Users\rcaspa\AppData\Roaming\inkscape\extensions\textext\default_packages.tex"
       ns2:scale="4.0"
       ns2:alignment="middle center"
       ns2:stroke-to-path="0"
       ns2:inkscapeversion="1.2.2"
       ns2:jacobian_sqrt="1.41111"
       id="g9778"
       style="display:inline">
      <defs
         id="id-1e1bc1df-cb57-4a05-954c-43dd55556c29">
        <g
           id="g1190">
          <g
             id="g1184" />
          <g
             id="g1188">
            <path
               d="m 3.078125,-2.28125 2.28125,-2.140625 H 4.53125 L 2.859375,-2.78125 1.828125,-4.421875 H 1 L 2.421875,-2.28125 0,0 H 0.8125 L 2.65625,-1.875 3.765625,0 h 0.8125 z m 0,0"
               id="path1186" />
          </g>
        </g>
      </defs>
      <g
         fill="#000000"
         fill-opacity="1"
         id="id-a0093072-da7d-495d-bdf4-bc85c9ebf7de"
         transform="translate(-148.712,-130.343)">
        <g
           transform="translate(148.712,134.765)"
           id="g9775">
          <path
             d="m 3.078125,-2.28125 2.28125,-2.140625 H 4.53125 L 2.859375,-2.78125 1.828125,-4.421875 H 1 L 2.421875,-2.28125 0,0 H 0.8125 L 2.65625,-1.875 3.765625,0 h 0.8125 z m 0,0"
             id="id-4bb8bf7c-a085-4bf2-afd9-2e7425302af5" />
        </g>
      </g>
    </g>
    <g
       transform="matrix(1.41111,0,0,1.41111,258.10433,109.11289)"
       ns2:version="1.8.2"
       ns2:texconverter="pdflatex"
       ns2:pdfconverter="inkscape"
       ns2:text="$y$"
       ns2:preamble="C:\Users\rcaspa\AppData\Roaming\inkscape\extensions\textext\default_packages.tex"
       ns2:scale="4.0"
       ns2:alignment="middle center"
       ns2:stroke-to-path="0"
       ns2:inkscapeversion="1.2.2"
       ns2:jacobian_sqrt="1.41111"
       id="g10460"
       style="display:inline">
      <defs
         id="id-ffede126-678c-4171-ba09-cf6423002609">
        <g
           id="g1203">
          <g
             id="g1197" />
          <g
             id="g1201">
            <path
               d="m 5.390625,-4.421875 h -0.75 L 3.28125,-2.1875 C 2.96875,-1.640625 2.578125,-0.921875 2.5,-0.578125 H 2.484375 C 2.5,-0.640625 2.5,-0.71875 2.5,-0.828125 2.5,-1.34375 2.3125,-2.34375 2.203125,-2.859375 l -0.34375,-1.5625 h -0.78125 l 0.96875,4.28125 c 0,0.015625 0.03125,0.109375 0.03125,0.125 0,0.0625 -0.46875,0.765625 -0.546875,0.890625 -0.28125,0.4375 -0.4375,0.59375 -0.6875,0.59375 -0.171875,0 -0.5,-0.03125 -0.75,-0.15625 L 0.015625,1.96875 c 0.265625,0.0625 0.53125,0.078125 0.6875,0.078125 C 1,2.046875 1.40625,2 2.109375,0.875 Z m 0,0"
               id="path1199" />
          </g>
        </g>
      </defs>
      <g
         fill="#000000"
         fill-opacity="1"
         id="id-73ab918a-a51a-47c0-b702-005344d74fb0"
         transform="translate(-148.728,-130.343)">
        <g
           transform="translate(148.712,134.765)"
           id="g10457">
          <path
             d="m 5.390625,-4.421875 h -0.75 L 3.28125,-2.1875 C 2.96875,-1.640625 2.578125,-0.921875 2.5,-0.578125 H 2.484375 C 2.5,-0.640625 2.5,-0.71875 2.5,-0.828125 2.5,-1.34375 2.3125,-2.34375 2.203125,-2.859375 l -0.34375,-1.5625 h -0.78125 l 0.96875,4.28125 c 0,0.015625 0.03125,0.109375 0.03125,0.125 0,0.0625 -0.46875,0.765625 -0.546875,0.890625 -0.28125,0.4375 -0.4375,0.59375 -0.6875,0.59375 -0.171875,0 -0.5,-0.03125 -0.75,-0.15625 L 0.015625,1.96875 c 0.265625,0.0625 0.53125,0.078125 0.6875,0.078125 C 1,2.046875 1.40625,2 2.109375,0.875 Z m 0,0"
             id="id-9c5c31ab-5f50-4e3d-ac03-87bf89aaefc8" />
        </g>
      </g>
    </g>
    <ellipse
       style="display:inline;fill:#000000;fill-opacity:1;stroke:none;stroke-width:1;stroke-linecap:round;stroke-linejoin:round;stroke-dasharray:none;stroke-opacity:1;stop-color:#000000"
       id="path710"
       cx="269.99997"
       cy="105.00008"
       rx="1"
       ry="0.99999994" />
    <path
       style="fill:none;stroke:#000000;stroke-width:0.7;stroke-linecap:round;stroke-linejoin:round;stroke-dasharray:0.7, 1.4;stroke-dashoffset:0;stop-color:#000000"
       d="M 114.99996,105.00001 14.999952,65.000027"
       id="path1448" />
    <path
       style="display:inline;fill:none;stroke:#000000;stroke-width:0.7;stroke-linecap:round;stroke-linejoin:round;stroke-dasharray:0.7, 1.4;stroke-dashoffset:0;stop-color:#000000"
       d="m 114.99996,105.00001 -100.000008,40"
       id="path1448-0" />
    <g
       transform="matrix(1.41111,0,0,1.41111,169.86926,99.127748)"
       ns2:version="1.8.2"
       ns2:texconverter="pdflatex"
       ns2:pdfconverter="inkscape"
       ns2:text="$2r_{co}$"
       ns2:preamble="C:\Users\rcaspa\AppData\Roaming\inkscape\extensions\textext\default_packages.tex"
       ns2:scale="4.0"
       ns2:alignment="middle center"
       ns2:stroke-to-path="0"
       ns2:inkscapeversion="1.2.2"
       ns2:jacobian_sqrt="1.41111"
       id="g2653">
      <defs
         id="id-ef634810-1703-4cec-9e79-e7123890f6c9">
        <g
           id="id-b8f3014d-2a6c-4d99-9c7c-0a2cb49b43b3">
          <g
             id="id-d7fc2a2f-5f04-4116-bd57-b62660951e37" />
          <g
             id="id-7251af1a-ca4f-4351-9790-233a0f9b3670">
            <path
               d="M 1.734375,-1.875 0.5,-0.640625 V 0 h 3.96875 v -0.703125 h -1.8125 c -0.109375,0 -0.234375,0 -0.359375,0 H 1.21875 c 0.3125,-0.28125 1.078125,-1.015625 1.390625,-1.3125 0.1875,-0.171875 0.6875,-0.59375 0.875,-0.78125 0.453125,-0.4375 0.984375,-0.96875 0.984375,-1.8125 0,-1.15625 -0.796875,-2.15625 -2.109375,-2.15625 -1.140625,0 -1.703125,0.78125 -1.9375,1.640625 0.109375,0.171875 0.171875,0.234375 0.1875,0.265625 0.015625,0.015625 0.125,0.140625 0.21875,0.28125 C 1.03125,-5.34375 1.3125,-6.125 2.21875,-6.125 c 0.9375,0 1.4375,0.75 1.4375,1.53125 0,0.84375 -0.5625,1.40625 -1.15625,2.015625 z m 0,0"
               id="id-e15c7409-0add-4f60-91c5-ddc9862fb76d" />
          </g>
          <g
             id="id-2c272208-1f14-45b0-abed-b7a64c5e78c2" />
          <g
             id="id-38559530-ef6a-45e9-be64-35fbd7ab1e75">
            <path
               d="M 4.234375,-4.53125 C 3.046875,-4.515625 2.3125,-3.625 2.296875,-3.609375 H 2.28125 l 0.1875,-0.875 H 1.78125 L 0.8125,0 h 0.75 c 0.265625,-1.21875 0.46875,-2.1875 0.5,-2.328125 C 2.25,-2.984375 2.984375,-3.84375 4.078125,-3.875 Z m 0,0"
               id="id-ee484880-cc31-4c56-a580-8126f071ca76" />
          </g>
          <g
             id="id-fa3882cb-cb81-45ff-b035-92899675e482" />
          <g
             id="id-30894692-68a2-4b62-baeb-83d2d3bb3f60">
            <path
               d="m 3.1875,-0.765625 c -0.359375,0.21875 -0.765625,0.359375 -1.21875,0.359375 -0.65625,0 -0.8125,-0.5 -0.8125,-0.84375 0,-0.5625 0.390625,-1.46875 1.3125,-1.46875 0.4375,0 0.671875,0.078125 0.984375,0.328125 L 3.65625,-2.90625 c -0.359375,-0.203125 -0.5625,-0.296875 -1.078125,-0.296875 -1.1875,0 -2.03125,1.078125 -2.03125,1.984375 0,0.71875 0.484375,1.28125 1.3125,1.28125 0.609375,0 1.109375,-0.21875 1.265625,-0.3125 z m 0,0"
               id="id-3d946b67-2b70-4c38-a2d7-e8587ea49f7f" />
          </g>
          <g
             id="id-6d4febde-8cdc-4330-a418-2740cc33263a">
            <path
               d="m 3.84375,-1.875 c 0,-0.765625 -0.546875,-1.328125 -1.328125,-1.328125 -1.046875,0 -2.015625,1.015625 -2.015625,2 0,0.75 0.5625,1.265625 1.328125,1.265625 1.015625,0 2.015625,-0.90625 2.015625,-1.9375 z M 1.9375,-0.40625 c -0.46875,0 -0.828125,-0.296875 -0.828125,-0.859375 0,-0.765625 0.546875,-1.46875 1.3125,-1.46875 0.375,0 0.828125,0.1875 0.828125,0.828125 0,0.6875 -0.5,1.5 -1.3125,1.5 z m 0,0"
               id="id-5acba4b1-e78b-4fb4-8480-aeb31afc99da" />
          </g>
        </g>
      </defs>
      <g
         fill="#000000"
         fill-opacity="1"
         id="id-cc26f357-088c-4bf6-9688-eb9707d1c42a"
         transform="translate(-149.134,-127.999)">
        <g
           transform="translate(148.712,134.765)"
           id="g3983">
          <path
             d="M 1.734375,-1.875 0.5,-0.640625 V 0 h 3.96875 v -0.703125 h -1.8125 c -0.109375,0 -0.234375,0 -0.359375,0 H 1.21875 c 0.3125,-0.28125 1.078125,-1.015625 1.390625,-1.3125 0.1875,-0.171875 0.6875,-0.59375 0.875,-0.78125 0.453125,-0.4375 0.984375,-0.96875 0.984375,-1.8125 0,-1.15625 -0.796875,-2.15625 -2.109375,-2.15625 -1.140625,0 -1.703125,0.78125 -1.9375,1.640625 0.109375,0.171875 0.171875,0.234375 0.1875,0.265625 0.015625,0.015625 0.125,0.140625 0.21875,0.28125 C 1.03125,-5.34375 1.3125,-6.125 2.21875,-6.125 c 0.9375,0 1.4375,0.75 1.4375,1.53125 0,0.84375 -0.5625,1.40625 -1.15625,2.015625 z m 0,0"
             id="id-f2b040b2-c6b1-4217-b3bd-1f8c9a321ad5" />
        </g>
      </g>
      <g
         fill="#000000"
         fill-opacity="1"
         id="id-3fab2a40-9907-481b-9dfc-9a9e7dd102fe"
         transform="translate(-149.134,-127.999)">
        <g
           transform="translate(153.694,134.765)"
           id="g3987">
          <path
             d="M 4.234375,-4.53125 C 3.046875,-4.515625 2.3125,-3.625 2.296875,-3.609375 H 2.28125 l 0.1875,-0.875 H 1.78125 L 0.8125,0 h 0.75 c 0.265625,-1.21875 0.46875,-2.1875 0.5,-2.328125 C 2.25,-2.984375 2.984375,-3.84375 4.078125,-3.875 Z m 0,0"
             id="id-c2dedb6c-c06e-4ad2-9989-1b56be2e8b66" />
        </g>
      </g>
      <g
         fill="#000000"
         fill-opacity="1"
         id="id-b44fbda4-dd42-48b1-bfa8-a3e40f07d448"
         transform="translate(-149.134,-127.999)">
        <g
           transform="translate(157.098,136.259)"
           id="g3991">
          <path
             d="m 3.1875,-0.765625 c -0.359375,0.21875 -0.765625,0.359375 -1.21875,0.359375 -0.65625,0 -0.8125,-0.5 -0.8125,-0.84375 0,-0.5625 0.390625,-1.46875 1.3125,-1.46875 0.4375,0 0.671875,0.078125 0.984375,0.328125 L 3.65625,-2.90625 c -0.359375,-0.203125 -0.5625,-0.296875 -1.078125,-0.296875 -1.1875,0 -2.03125,1.078125 -2.03125,1.984375 0,0.71875 0.484375,1.28125 1.3125,1.28125 0.609375,0 1.109375,-0.21875 1.265625,-0.3125 z m 0,0"
             id="id-2a6b2bd6-c312-4b4d-9a34-8cf05ec4fc4a" />
        </g>
        <g
           transform="translate(160.391,136.259)"
           id="g3994">
          <path
             d="m 3.84375,-1.875 c 0,-0.765625 -0.546875,-1.328125 -1.328125,-1.328125 -1.046875,0 -2.015625,1.015625 -2.015625,2 0,0.75 0.5625,1.265625 1.328125,1.265625 1.015625,0 2.015625,-0.90625 2.015625,-1.9375 z M 1.9375,-0.40625 c -0.46875,0 -0.828125,-0.296875 -0.828125,-0.859375 0,-0.765625 0.546875,-1.46875 1.3125,-1.46875 0.375,0 0.828125,0.1875 0.828125,0.828125 0,0.6875 -0.5,1.5 -1.3125,1.5 z m 0,0"
             id="id-725fbabf-be28-4c9f-921e-1d44084e0861" />
        </g>
      </g>
    </g>
    <path
       style="display:inline;fill:none;stroke:#000000;stroke-width:1;stroke-linecap:round;stroke-linejoin:round;stroke-dashoffset:2.26772;stroke-opacity:1;stop-color:#000000"
       d="m 114.99996,95.000061 135,-5e-6"
       id="path27149"
       sodipodi:nodetypes="cc" />
    <path
       style="display:inline;fill:none;stroke:#000000;stroke-width:1;stroke-linecap:round;stroke-linejoin:round;stroke-dashoffset:2.26772;stroke-opacity:1;stop-color:#000000"
       d="m 114.99996,115.00005 h 135"
       id="path27151"
       sodipodi:nodetypes="cc" />
    <path
       style="display:inline;fill:#000000;fill-opacity:1;stroke:#000000;stroke-width:0.7;stroke-linecap:round;stroke-linejoin:round;stroke-dasharray:none;stop-color:#000000"
       d="m 164.99996,114.99998 2,-4 h -4 l 2,4 V 94.999994 l -2,4 h 4 l -2,-4"
       id="path2668-6"
       sodipodi:nodetypes="cccccccc" />
    <path
       style="fill:#000000;fill-opacity:1;stroke:#000000;stroke-width:1;stroke-linecap:round;stroke-linejoin:round;stroke-dasharray:none;stroke-dashoffset:0;stroke-opacity:1;stop-color:#000000"
       d="m 273.99996,105.00005 h 40.99999 l -6,-3.00001 v 6 l 6,-2.99999"
       id="path5060"
       sodipodi:nodetypes="ccccc" />
    <path
       style="fill:#000000;fill-opacity:1;stroke:#000000;stroke-width:1;stroke-linecap:round;stroke-linejoin:round;stroke-dasharray:none;stroke-dashoffset:0.349999;stroke-opacity:1;stop-color:#000000"
       d="m 269.99996,145.00005 v -36"
       id="path7372"
       sodipodi:nodetypes="cc" />
    <path
       style="fill:#000000;fill-opacity:1;stroke:#000000;stroke-width:1;stroke-linecap:round;stroke-linejoin:round;stroke-dasharray:none;stroke-dashoffset:1.32283;stroke-opacity:1;stop-color:#000000"
       d="m 269.99996,101.00005 -10e-6,-40.999989 -3,6.000001 h 6 l -3,-6.000001"
       id="path7374"
       sodipodi:nodetypes="ccccc" />
  </g>
  <g
     inkscape:groupmode="layer"
     id="layer2"
     inkscape:label="Ebene 2"
     style="display:inline"
     transform="translate(-28.109524,-49.060194)">
    <g
       transform="matrix(1.41111,0,0,1.41111,148.64594,88.761177)"
       ns2:version="1.8.2"
       ns2:texconverter="pdflatex"
       ns2:pdfconverter="inkscape"
       ns2:text="$2\\omega_M$"
       ns2:preamble="C:\Users\rcaspa\AppData\Roaming\inkscape\extensions\textext\default_packages.tex"
       ns2:scale="4.0"
       ns2:alignment="middle center"
       ns2:stroke-to-path="0"
       ns2:inkscapeversion="1.2.2"
       ns2:jacobian_sqrt="1.41111"
       id="g1820"
       style="display:inline;fill:#c20052;fill-opacity:1">
      <defs
         id="id-d0df47b6-b029-42e4-8345-731cccc0e448">
        <g
           id="id-3f0225e2-da2f-49f4-aab0-d531f0dcef4b">
          <g
             id="id-3f41e469-8bf8-4002-b753-034dc98cff41" />
          <g
             id="id-77feea6c-d6d5-4b61-b9d8-d9b3000364a3">
            <path
               d="M 1.734375,-1.875 0.5,-0.640625 V 0 h 3.96875 v -0.703125 h -1.8125 c -0.109375,0 -0.234375,0 -0.359375,0 H 1.21875 c 0.3125,-0.28125 1.078125,-1.015625 1.390625,-1.3125 0.1875,-0.171875 0.6875,-0.59375 0.875,-0.78125 0.453125,-0.4375 0.984375,-0.96875 0.984375,-1.8125 0,-1.15625 -0.796875,-2.15625 -2.109375,-2.15625 -1.140625,0 -1.703125,0.78125 -1.9375,1.640625 0.109375,0.171875 0.171875,0.234375 0.1875,0.265625 0.015625,0.015625 0.125,0.140625 0.21875,0.28125 C 1.03125,-5.34375 1.3125,-6.125 2.21875,-6.125 c 0.9375,0 1.4375,0.75 1.4375,1.53125 0,0.84375 -0.5625,1.40625 -1.15625,2.015625 z m 0,0"
               id="id-2b9a525a-ac0b-4358-b1f0-81fef30303a7" />
          </g>
          <g
             id="id-b1d5c1bc-723a-4fb4-b414-a67a4e75811c" />
          <g
             id="id-58695b83-7a8e-435f-825d-390d99d82352">
            <path
               d="m 6.03125,-3.703125 c 0,-0.453125 -0.171875,-0.703125 -0.40625,-0.703125 -0.25,0 -0.515625,0.234375 -0.515625,0.46875 0,0.09375 0.046875,0.203125 0.140625,0.296875 0.171875,0.15625 0.359375,0.421875 0.359375,0.84375 0,0.390625 -0.203125,0.96875 -0.5,1.421875 C 4.8125,-0.953125 4.4375,-0.609375 3.96875,-0.609375 3.40625,-0.609375 3.09375,-0.96875 3,-1.5 c 0.109375,-0.265625 0.34375,-0.90625 0.34375,-1.1875 0,-0.109375 -0.046875,-0.21875 -0.1875,-0.21875 -0.078125,0 -0.1875,0.03125 -0.265625,0.171875 C 2.78125,-2.53125 2.65625,-1.890625 2.65625,-1.53125 2.328125,-1.0625 1.9375,-0.609375 1.3125,-0.609375 c -0.671875,0 -0.875,-0.59375 -0.875,-1.140625 0,-1.25 1.015625,-2.296875 1.015625,-2.421875 0,-0.109375 -0.078125,-0.1875 -0.1875,-0.1875 -0.125,0 -0.203125,0.125 -0.265625,0.21875 -0.5,0.734375 -0.875,1.921875 -0.875,2.828125 0,0.6875 0.21875,1.421875 1.046875,1.421875 0.703125,0 1.171875,-0.5 1.53125,-1.046875 0.09375,0.578125 0.484375,1.046875 1.09375,1.046875 0.78125,0 1.25,-0.609375 1.609375,-1.359375 0.25,-0.484375 0.625,-1.84375 0.625,-2.453125 z m 0,0"
               id="id-4c32489b-2e82-48e7-a624-b59999cf042d" />
          </g>
          <g
             id="id-98e23769-16b3-43e1-af26-36a55af99336" />
          <g
             id="id-ccb224a0-8fb5-4dd7-b2e3-116eb7329932">
            <path
               d="M 6.75,-4.84375 H 5.890625 l -1.53125,2.5 C 3.9375,-1.65625 3.5,-0.953125 3.375,-0.6875 3.359375,-0.765625 3.34375,-1 3.09375,-2.28125 L 2.609375,-4.84375 H 1.765625 L 0.734375,0 H 1.3125 l 0.921875,-4.28125 c 0.015625,0.328125 0.171875,1.1875 0.25,1.59375 l 0.484375,2.546875 h 0.546875 l 1.5625,-2.515625 C 5.375,-3.140625 5.921875,-4.015625 6.03125,-4.28125 H 6.046875 L 5.140625,0 H 5.71875 Z m 0,0"
               id="id-a1edbb2a-1ec6-426e-9816-06d816424780" />
          </g>
        </g>
      </defs>
      <g
         fill="#000000"
         fill-opacity="1"
         id="id-763c6858-b46c-4585-b31f-33da2f8ae655"
         transform="translate(-149.134,-127.999)"
         style="fill:#c20052;fill-opacity:1">
        <g
           transform="translate(148.712,134.765)"
           id="g1809"
           style="fill:#c20052;fill-opacity:1">
          <path
             d="M 1.734375,-1.875 0.5,-0.640625 V 0 h 3.96875 v -0.703125 h -1.8125 c -0.109375,0 -0.234375,0 -0.359375,0 H 1.21875 c 0.3125,-0.28125 1.078125,-1.015625 1.390625,-1.3125 0.1875,-0.171875 0.6875,-0.59375 0.875,-0.78125 0.453125,-0.4375 0.984375,-0.96875 0.984375,-1.8125 0,-1.15625 -0.796875,-2.15625 -2.109375,-2.15625 -1.140625,0 -1.703125,0.78125 -1.9375,1.640625 0.109375,0.171875 0.171875,0.234375 0.1875,0.265625 0.015625,0.015625 0.125,0.140625 0.21875,0.28125 C 1.03125,-5.34375 1.3125,-6.125 2.21875,-6.125 c 0.9375,0 1.4375,0.75 1.4375,1.53125 0,0.84375 -0.5625,1.40625 -1.15625,2.015625 z m 0,0"
             id="id-1fb00a1a-6b31-4d76-94d7-77506a980e03"
             style="fill:#c20052;fill-opacity:1" />
        </g>
      </g>
      <g
         fill="#000000"
         fill-opacity="1"
         id="id-cb0e7d6b-6929-486c-8a9a-ec51961bbbab"
         transform="translate(-149.134,-127.999)"
         style="fill:#c20052;fill-opacity:1">
        <g
           transform="translate(153.694,134.765)"
           id="g1813"
           style="fill:#c20052;fill-opacity:1">
          <path
             d="m 6.03125,-3.703125 c 0,-0.453125 -0.171875,-0.703125 -0.40625,-0.703125 -0.25,0 -0.515625,0.234375 -0.515625,0.46875 0,0.09375 0.046875,0.203125 0.140625,0.296875 0.171875,0.15625 0.359375,0.421875 0.359375,0.84375 0,0.390625 -0.203125,0.96875 -0.5,1.421875 C 4.8125,-0.953125 4.4375,-0.609375 3.96875,-0.609375 3.40625,-0.609375 3.09375,-0.96875 3,-1.5 c 0.109375,-0.265625 0.34375,-0.90625 0.34375,-1.1875 0,-0.109375 -0.046875,-0.21875 -0.1875,-0.21875 -0.078125,0 -0.1875,0.03125 -0.265625,0.171875 C 2.78125,-2.53125 2.65625,-1.890625 2.65625,-1.53125 2.328125,-1.0625 1.9375,-0.609375 1.3125,-0.609375 c -0.671875,0 -0.875,-0.59375 -0.875,-1.140625 0,-1.25 1.015625,-2.296875 1.015625,-2.421875 0,-0.109375 -0.078125,-0.1875 -0.1875,-0.1875 -0.125,0 -0.203125,0.125 -0.265625,0.21875 -0.5,0.734375 -0.875,1.921875 -0.875,2.828125 0,0.6875 0.21875,1.421875 1.046875,1.421875 0.703125,0 1.171875,-0.5 1.53125,-1.046875 0.09375,0.578125 0.484375,1.046875 1.09375,1.046875 0.78125,0 1.25,-0.609375 1.609375,-1.359375 0.25,-0.484375 0.625,-1.84375 0.625,-2.453125 z m 0,0"
             id="id-7b3edac5-d893-4ebe-b9a7-a71782b544c4"
             style="fill:#c20052;fill-opacity:1" />
        </g>
      </g>
      <g
         fill="#000000"
         fill-opacity="1"
         id="id-6b81c158-7315-4a17-b916-25c7818b1b46"
         transform="translate(-149.134,-127.999)"
         style="fill:#c20052;fill-opacity:1">
        <g
           transform="translate(159.895,136.259)"
           id="g1817"
           style="fill:#c20052;fill-opacity:1">
          <path
             d="M 6.75,-4.84375 H 5.890625 l -1.53125,2.5 C 3.9375,-1.65625 3.5,-0.953125 3.375,-0.6875 3.359375,-0.765625 3.34375,-1 3.09375,-2.28125 L 2.609375,-4.84375 H 1.765625 L 0.734375,0 H 1.3125 l 0.921875,-4.28125 c 0.015625,0.328125 0.171875,1.1875 0.25,1.59375 l 0.484375,2.546875 h 0.546875 l 1.5625,-2.515625 C 5.375,-3.140625 5.921875,-4.015625 6.03125,-4.28125 H 6.046875 L 5.140625,0 H 5.71875 Z m 0,0"
             id="id-25a2af5f-4253-4c04-a556-996694770021"
             style="fill:#c20052;fill-opacity:1" />
        </g>
      </g>
    </g>
    <path
       style="display:inline;fill:#c20052;fill-opacity:1;stroke:#c20052;stroke-width:0.7;stroke-linecap:round;stroke-linejoin:round;stroke-dasharray:none;stroke-opacity:1;stop-color:#000000"
       d="m 143.60666,109.58931 2,-4 h -4 l 2,4 V 79.589326 l -2,4 h 4 l -2,-4"
       id="path2668" />
    <path
       style="display:inline;fill:none;stroke:#c20052;stroke-width:1;stroke-linecap:round;stroke-linejoin:round;stroke-dasharray:4, 3;stroke-dashoffset:0;stroke-opacity:1;stop-color:#000000"
       d="M 133.60666,79.589391 H 303.60667"
       id="path27149-5"
       sodipodi:nodetypes="cc" />
    <path
       style="display:inline;fill:none;stroke:#c20052;stroke-width:1;stroke-linecap:round;stroke-linejoin:round;stroke-dasharray:4, 3;stroke-dashoffset:0;stroke-opacity:1;stop-color:#000000"
       d="m 133.60666,109.58938 h 170"
       id="path27149-5-7"
       sodipodi:nodetypes="cc" />
    <path
       style="fill:none;fill-opacity:1;stroke:#c20052;stroke-width:1;stroke-linecap:round;stroke-linejoin:round;stroke-dasharray:none;stroke-dashoffset:0;stroke-opacity:1;stop-color:#000000"
       d="m 133.60666,79.589389 c -30,2e-6 -50.000004,-4.999998 -100.000004,-24.999997"
       id="path4971"
       sodipodi:nodetypes="cc" />
    <path
       style="display:inline;fill:none;fill-opacity:1;stroke:#c20052;stroke-width:1;stroke-linecap:round;stroke-linejoin:round;stroke-dasharray:none;stroke-dashoffset:0;stroke-opacity:1;stop-color:#000000"
       d="m 133.60666,109.58938 c -30,-1e-5 -50.000004,4.99999 -100.000004,24.99999"
       id="path4971-8"
       sodipodi:nodetypes="cc" />
    <path
       style="fill:none;fill-opacity:1;stroke:#c20052;stroke-width:1;stroke-linecap:round;stroke-linejoin:round;stroke-dasharray:none;stroke-dashoffset:0;stroke-opacity:1;stop-color:#000000"
       d="m 288.60666,59.58939 c 0,25.000001 30.76188,24.702895 30,35.000001 -0.76188,10.297089 -30,9.999989 -30,34.999979"
       id="path5058"
       sodipodi:nodetypes="czc" />
    <path
       style="fill:#000000;fill-opacity:1;stroke:#000000;stroke-width:1;stroke-linecap:round;stroke-linejoin:round;stroke-dasharray:none;stroke-dashoffset:0;stroke-opacity:1;stop-color:#000000"
       d="M 298.60666,91.589389 V 97.58939"
       id="path5328" />
    <path
       style="display:inline;fill:#000000;fill-opacity:1;stroke:#000000;stroke-width:1;stroke-linecap:round;stroke-linejoin:round;stroke-dasharray:none;stroke-dashoffset:0;stroke-opacity:1;stop-color:#000000"
       d="m 318.60666,91.589389 v 6.000004"
       id="path5328-9" />
    <g
       transform="matrix(1.41111,0,0,1.41111,296.92497,116.25965)"
       ns2:version="1.8.2"
       ns2:texconverter="pdflatex"
       ns2:pdfconverter="inkscape"
       ns2:text="$\\frac{1}{\\mathrm{e}}$"
       ns2:preamble="C:\Users\rcaspa\AppData\Roaming\inkscape\extensions\textext\default_packages.tex"
       ns2:scale="4.0"
       ns2:alignment="middle center"
       ns2:stroke-to-path="0"
       ns2:inkscapeversion="1.2.2"
       ns2:jacobian_sqrt="1.41111"
       id="g5814">
      <defs
         id="id-e68ae88e-e4f6-47d5-8eb1-ef4bed90ca83">
        <g
           id="id-cbbdf178-2223-45bf-b0d1-c56d62696b3d">
          <g
             id="id-9226ab4f-ecf2-4f86-908f-77249d79a1b4" />
          <g
             id="id-2f7a0f7d-3a11-4ba5-ab3a-c2d72f83d56f">
            <path
               d="M 2.234375,-4.71875 H 2.078125 C 1.625,-4.296875 1.0625,-4.265625 0.640625,-4.265625 V -3.8125 c 0.265625,-0.015625 0.625,-0.03125 0.96875,-0.171875 V -0.4375 H 0.6875 V 0 H 3.15625 V -0.4375 H 2.234375 Z m 0,0"
               id="id-89e6d478-9eb3-4458-8fc1-48c8cdd9c80e" />
          </g>
          <g
             id="id-05050287-f9bf-404b-af43-8de76dbe1f9c">
            <path
               d="m 3,-0.765625 c -0.390625,0.28125 -0.828125,0.375 -1.125,0.375 -0.609375,0 -1.078125,-0.5 -1.09375,-1.140625 H 3.0625 c 0,-0.3125 -0.03125,-0.78125 -0.296875,-1.171875 -0.25,-0.359375 -0.671875,-0.5 -1.015625,-0.5 -0.84375,0 -1.5,0.75 -1.5,1.640625 0,0.890625 0.6875,1.625 1.609375,1.625 0.40625,0 0.828125,-0.109375 1.171875,-0.328125 z M 0.828125,-1.9375 C 0.984375,-2.5 1.40625,-2.734375 1.75,-2.734375 c 0.3125,0 0.765625,0.140625 0.890625,0.796875 z m 0,0"
               id="id-7749f06c-c239-4f47-9926-d7f2cb8b725a" />
          </g>
        </g>
      </defs>
      <g
         fill="#000000"
         fill-opacity="1"
         id="id-7b186ce6-fdb3-4b36-b75f-bb13748c351c"
         transform="translate(-149.906,-126.123)">
        <g
           transform="translate(149.908,130.842)"
           id="g6337">
          <path
             d="M 2.234375,-4.71875 H 2.078125 C 1.625,-4.296875 1.0625,-4.265625 0.640625,-4.265625 V -3.8125 c 0.265625,-0.015625 0.625,-0.03125 0.96875,-0.171875 V -0.4375 H 0.6875 V 0 H 3.15625 V -0.4375 H 2.234375 Z m 0,0"
             id="id-4ae3b9ea-b057-4f7e-863d-49fd14243ac1" />
        </g>
      </g>
      <path
         fill="none"
         stroke-width="0.398"
         stroke-linecap="butt"
         stroke-linejoin="miter"
         stroke="#000000"
         stroke-opacity="1"
         stroke-miterlimit="10"
         d="M 0,6.1501923 H 3.707031"
         id="id-c1ca845a-aff4-4b8f-9630-355a300cafae" />
      <g
         fill="#000000"
         fill-opacity="1"
         id="id-dc082715-ff3c-4f25-b70a-e3e069bf366d"
         transform="translate(-149.906,-126.123)">
        <g
           transform="translate(150.114,138.2)"
           id="g6342">
          <path
             d="m 3,-0.765625 c -0.390625,0.28125 -0.828125,0.375 -1.125,0.375 -0.609375,0 -1.078125,-0.5 -1.09375,-1.140625 H 3.0625 c 0,-0.3125 -0.03125,-0.78125 -0.296875,-1.171875 -0.25,-0.359375 -0.671875,-0.5 -1.015625,-0.5 -0.84375,0 -1.5,0.75 -1.5,1.640625 0,0.890625 0.6875,1.625 1.609375,1.625 0.40625,0 0.828125,-0.109375 1.171875,-0.328125 z M 0.828125,-1.9375 C 0.984375,-2.5 1.40625,-2.734375 1.75,-2.734375 c 0.3125,0 0.765625,0.140625 0.890625,0.796875 z m 0,0"
             id="id-92c23f24-e4e8-4a98-97b4-9a871621d48d" />
        </g>
      </g>
    </g>
    <g
       transform="matrix(1.41111,0,0,1.41111,318.24803,100.8153)"
       ns2:version="1.8.2"
       ns2:texconverter="pdflatex"
       ns2:pdfconverter="inkscape"
       ns2:text="$1$"
       ns2:preamble="C:\Users\rcaspa\AppData\Roaming\inkscape\extensions\textext\default_packages.tex"
       ns2:scale="4.0"
       ns2:alignment="middle center"
       ns2:stroke-to-path="0"
       ns2:inkscapeversion="1.2.2"
       ns2:jacobian_sqrt="1.41111"
       id="g6843">
      <defs
         id="id-9d8c0545-9331-4d01-8f73-157a5b4c0ff8">
        <g
           id="id-21288f09-fa5c-43f2-ac00-af2d918416c4">
          <g
             id="id-a8d914b0-efad-420a-916c-33f3a32e34b9" />
          <g
             id="id-60d88a6e-5ce4-4ce2-87b4-a68dc43b3f3d">
            <path
               d="M 2.984375,-6.765625 H 2.78125 C 2.1875,-6.15625 1.359375,-6.125 0.890625,-6.09375 v 0.578125 C 1.21875,-5.53125 1.6875,-5.546875 2.1875,-5.765625 v 5.1875 H 0.953125 V 0 h 3.28125 v -0.578125 h -1.25 z m 0,0"
               id="id-679b8214-4763-441e-88db-5329afed4193" />
          </g>
        </g>
      </defs>
      <g
         fill="#000000"
         fill-opacity="1"
         id="id-06a6ac3b-889b-48c4-b6f8-ae671e900a2e"
         transform="translate(-149.603,-127.999)">
        <g
           transform="translate(148.712,134.765)"
           id="g6840">
          <path
             d="M 2.984375,-6.765625 H 2.78125 C 2.1875,-6.15625 1.359375,-6.125 0.890625,-6.09375 v 0.578125 C 1.21875,-5.53125 1.6875,-5.546875 2.1875,-5.765625 v 5.1875 H 0.953125 V 0 h 3.28125 v -0.578125 h -1.25 z m 0,0"
             id="id-6a8dbeed-6719-4672-a24d-276d680a4ce2" />
        </g>
      </g>
    </g>
    <path
       style="fill:#000000;fill-opacity:1;stroke:#000000;stroke-width:0.7;stroke-linecap:round;stroke-linejoin:round;stroke-dasharray:0.7, 1.4;stroke-dashoffset:0.35;stroke-opacity:1;stop-color:#000000"
       d="M 298.60669,74.589361 V 114.58935"
       id="path6857" />
    <g
       transform="matrix(1.41111,0,0,1.41111,339.05437,89.495607)"
       ns2:version="1.8.2"
       ns2:texconverter="pdflatex"
       ns2:pdfconverter="inkscape"
       ns2:text="$E$"
       ns2:preamble="C:\Users\rcaspa\AppData\Roaming\inkscape\extensions\textext\default_packages.tex"
       ns2:scale="4.0"
       ns2:alignment="middle center"
       ns2:stroke-to-path="0"
       ns2:inkscapeversion="1.2.2"
       ns2:jacobian_sqrt="1.41111"
       id="g7358">
      <defs
         id="id-04df6382-0308-45f4-b5e4-a4dfcf0b5aa6">
        <g
           id="id-fbceda80-db7a-45d1-a7fc-16c2316fdf1c">
          <g
             id="id-afd0b1c5-d24f-40d1-9729-d0aa68cf4bb5" />
          <g
             id="id-4e38fb1a-223d-4116-94d8-bba274fa9904">
            <path
               d="M 2.515625,-3.28125 H 5.8125 l 0.125,-0.609375 H 2.65625 l 0.5,-2.359375 h 1.375 c 0.109375,0 0.234375,0.015625 0.359375,0.015625 h 1.8125 L 6.84375,-6.890625 H 2.40625 L 0.9375,0 h 4.578125 l 0.15625,-0.703125 h -1.25 c -0.125,0 -0.25,0 -0.359375,0 H 1.96875 Z m 0,0"
               id="id-73055be8-d7bb-4cba-8afd-378de33b30d9" />
          </g>
        </g>
      </defs>
      <g
         fill="#000000"
         fill-opacity="1"
         id="id-368435d9-11d1-4286-bd7f-e08c9132215f"
         transform="translate(-149.65,-127.874)">
        <g
           transform="translate(148.712,134.765)"
           id="g7355">
          <path
             d="M 2.515625,-3.28125 H 5.8125 l 0.125,-0.609375 H 2.65625 l 0.5,-2.359375 h 1.375 c 0.109375,0 0.234375,0.015625 0.359375,0.015625 h 1.8125 L 6.84375,-6.890625 H 2.40625 L 0.9375,0 h 4.578125 l 0.15625,-0.703125 h -1.25 c -0.125,0 -0.25,0 -0.359375,0 H 1.96875 Z m 0,0"
             id="id-fae136b4-ed11-4ef1-ae8c-6a0697a67644" />
        </g>
      </g>
    </g>
    <path
       style="fill:none;fill-opacity:1;stroke:#c20052;stroke-width:1;stroke-linecap:round;stroke-linejoin:round;stroke-dasharray:none;stroke-dashoffset:1.32283;stroke-opacity:1;stop-color:#000000"
       d="m 38.606689,139.58934 c -12.138186,-26.98516 -14.49149,-55.028694 0,-89.999979"
       id="path7435"
       sodipodi:nodetypes="cc" />
    <path
       style="fill:none;fill-opacity:1;stroke:#c20052;stroke-width:1;stroke-linecap:round;stroke-linejoin:round;stroke-dasharray:none;stroke-dashoffset:1.32283;stroke-opacity:1;stop-color:#000000"
       d="m 58.606688,130.58934 c -10.240967,-23.06527 -11.084054,-46.96215 0,-71.999978"
       id="path7437"
       sodipodi:nodetypes="cc" />
    <path
       style="fill:none;fill-opacity:1;stroke:#c20052;stroke-width:1;stroke-linecap:round;stroke-linejoin:round;stroke-dasharray:none;stroke-dashoffset:1.32283;stroke-opacity:1;stop-color:#000000"
       d="m 78.606688,123.58934 c -5.395591,-19.46496 -5.270777,-38.79523 0,-57.999979"
       id="path7439"
       sodipodi:nodetypes="cc" />
    <path
       style="fill:none;fill-opacity:1;stroke:#c20052;stroke-width:1;stroke-linecap:round;stroke-linejoin:round;stroke-dasharray:none;stroke-dashoffset:1.32283;stroke-opacity:1;stop-color:#000000"
       d="m 98.606688,118.58935 c -2.704209,-16.13194 -2.628906,-32.128253 0,-47.999989"
       id="path7441"
       sodipodi:nodetypes="cc" />
    <path
       style="fill:none;fill-opacity:1;stroke:#c20052;stroke-width:1;stroke-linecap:round;stroke-linejoin:round;stroke-dasharray:none;stroke-dashoffset:1.32283;stroke-opacity:1;stop-color:#000000"
       d="m 118.6067,115.58935 c -1.3538,-14.79877 -1.31275,-27.461423 0,-41.999989"
       id="path7443"
       sodipodi:nodetypes="cc" />
  </g>
</svg>
