<?xml version="1.0" encoding="UTF-8" standalone="no"?>
<!-- Created with Inkscape (http://www.inkscape.org/) -->

<svg
   sodipodi:docname="img_continuity.svg"
   inkscape:version="1.2.2 (732a01da63, 2022-12-09)"
   id="svg1"
   version="1.1"
   viewBox="0 0 95.835566 86.651323"
   height="86.651329mm"
   width="95.835564mm"
   xmlns:inkscape="http://www.inkscape.org/namespaces/inkscape"
   xmlns:sodipodi="http://sodipodi.sourceforge.net/DTD/sodipodi-0.dtd"
   xmlns="http://www.w3.org/2000/svg"
   xmlns:svg="http://www.w3.org/2000/svg"
   xmlns:ns1="http://www.iki.fi/pav/software/textext/">
  <sodipodi:namedview
     id="namedview1"
     pagecolor="#ffffff"
     bordercolor="#000000"
     borderopacity="0.25"
     inkscape:showpageshadow="2"
     inkscape:pageopacity="0.0"
     inkscape:pagecheckerboard="0"
     inkscape:deskcolor="#d1d1d1"
     inkscape:document-units="mm"
     inkscape:zoom="2.1543544"
     inkscape:cx="226.0538"
     inkscape:cy="161.53331"
     inkscape:window-width="1920"
     inkscape:window-height="1009"
     inkscape:window-x="1912"
     inkscape:window-y="-2"
     inkscape:window-maximized="1"
     inkscape:current-layer="layer1"
     showgrid="true">
    <inkscape:grid
       type="xygrid"
       id="grid9698"
       units="mm"
       spacingx="0.99999996"
       spacingy="0.99999996"
       originx="2.2250003e-07"
       originy="-5.2810251e-08" />
  </sodipodi:namedview>
  <defs
     id="defs1">
    <rect
       x="359.73145"
       y="483.14297"
       width="98.466637"
       height="60.392872"
       id="rect8" />
    <defs
       id="id-d8af254f-ff3c-4808-865c-c745555cf0f8" />
  </defs>
  <g
     inkscape:label="Ebene 1"
     inkscape:groupmode="layer"
     id="layer1"
     transform="translate(-56.292249,-93.020661)">
    <path
       style="fill:none;fill-opacity:1;fill-rule:nonzero;stroke:#000000;stroke-width:1.5;stroke-dasharray:none;stroke-dashoffset:0;stroke-opacity:1"
       d="m 88.880557,108.21611 c -11.296508,9.33721 -28.329306,5.4189 -27.750756,21.40041 0.57855,15.98152 32.553369,42.76938 48.930979,44.85457 16.37761,2.0852 32.76571,-6.68805 33.44017,-18.91048 0.67446,-12.22243 -12.52756,-17.06006 -16.26372,-31.06226 -3.73616,-14.0022 -0.90007,-25.18901 -8.57202,-29.538944 -7.67196,-4.349934 -18.48815,3.919496 -29.784653,13.256704 z"
       id="path1"
       sodipodi:nodetypes="zzzzzzz" />
    <text
       xml:space="preserve"
       transform="scale(0.26458333)"
       id="text8"
       style="text-align:start;writing-mode:lr-tb;direction:ltr;white-space:pre;shape-inside:url(#rect8);display:inline;fill:none;fill-opacity:1;fill-rule:nonzero;stroke:#000000;stroke-width:7.55906;stroke-dasharray:none;stroke-dashoffset:0;stroke-opacity:1" />
    <path
       style="fill:#000000;fill-opacity:1;fill-rule:nonzero;stroke:#000000;stroke-width:0.7;stroke-linecap:round;stroke-linejoin:round;stroke-dasharray:none;stroke-dashoffset:0;stroke-opacity:1"
       d="m 77.810525,172.81578 9.552632,-9.55263"
       id="path12"
       sodipodi:nodetypes="cc" />
    <g
       transform="matrix(0.352778,0,0,0.352778,94.0442,134.981)"
       ns1:version="1.8.2"
       ns1:texconverter="pdflatex"
       ns1:pdfconverter="inkscape"
       ns1:text="$\\rho$"
       ns1:preamble="C:\Users\rcaspa\AppData\Roaming\inkscape\extensions\textext\default_packages.tex"
       ns1:scale="1.0"
       ns1:alignment="middle center"
       ns1:stroke-to-path="0"
       ns1:inkscapeversion="1.2.2"
       ns1:jacobian_sqrt="0.352778"
       id="g393">
      <defs
         id="id-dbf9a2a4-8848-4e9d-9f5b-870638fb2647" />
    </g>
    <g
       transform="matrix(1.41111,0,0,1.41111,121.53154,158.13168)"
       ns1:version="1.8.2"
       ns1:texconverter="pdflatex"
       ns1:pdfconverter="inkscape"
       ns1:text="$V$"
       ns1:preamble="C:\Users\rcaspa\AppData\Roaming\inkscape\extensions\textext\default_packages.tex"
       ns1:scale="4.0"
       ns1:alignment="middle center"
       ns1:stroke-to-path="0"
       ns1:inkscapeversion="1.2.2"
       ns1:jacobian_sqrt="1.0"
       id="g9137">
      <defs
         id="id-0530a3ae-8ed8-4b2b-8436-4a57fd3ccb64">
        <g
           id="id-b0e0db26-4edc-4a29-8cec-dd5386b52311">
          <g
             id="id-82b09b53-47ee-4631-b7aa-1a9e0552d68a" />
          <g
             id="id-516e54c0-554f-42b3-b124-203fc28125cb">
            <path
               d="M 7.96875,-6.921875 H 7.203125 L 5.15625,-3.53125 c -1.453125,2.4375 -1.5625,2.71875 -1.609375,2.8125 H 3.53125 c 0,-0.21875 0,-0.265625 -0.125,-1.140625 C 3.34375,-2.25 3.296875,-2.65625 3.21875,-3.0625 L 2.53125,-6.921875 H 1.609375 L 2.859375,0 H 3.78125 Z m 0,0"
               id="id-69bcd444-fe13-4d8f-940c-b60e56a5eeb3" />
          </g>
        </g>
      </defs>
      <g
         fill="#000000"
         fill-opacity="1"
         id="id-62d21a51-bcba-4947-ab5b-c9d40c770947"
         transform="translate(-150.321,-127.843)">
        <g
           transform="translate(148.712,134.765)"
           id="g9134">
          <path
             d="M 7.96875,-6.921875 H 7.203125 L 5.15625,-3.53125 c -1.453125,2.4375 -1.5625,2.71875 -1.609375,2.8125 H 3.53125 c 0,-0.21875 0,-0.265625 -0.125,-1.140625 C 3.34375,-2.25 3.296875,-2.65625 3.21875,-3.0625 L 2.53125,-6.921875 H 1.609375 L 2.859375,0 H 3.78125 Z m 0,0"
             id="id-10d20b1c-5f61-4773-ab29-89791176e04c" />
        </g>
      </g>
    </g>
    <g
       transform="matrix(1.41111,0,0,1.41111,139.75112,118.65057)"
       ns1:version="1.8.2"
       ns1:texconverter="pdflatex"
       ns1:pdfconverter="inkscape"
       ns1:text="$\\mathbf{j}$"
       ns1:preamble="C:\Users\rcaspa\AppData\Roaming\inkscape\extensions\textext\default_packages.tex"
       ns1:scale="4.0"
       ns1:alignment="middle center"
       ns1:stroke-to-path="0"
       ns1:inkscapeversion="1.2.2"
       ns1:jacobian_sqrt="1.0"
       id="g9345">
      <defs
         id="id-94aad3a4-d4b5-4df4-bcfa-3eace9bab088">
        <g
           id="id-eea70713-43cb-4e58-9ea1-4fbecd71d857">
          <g
             id="id-02505605-3b88-47fd-9e55-b83c081b0b86" />
          <g
             id="id-317eb8fe-5b4d-45bf-91c8-c87eff64f1ec">
            <path
               d="m 2.234375,-6.453125 c 0,-0.3125 -0.078125,-0.46875 -0.484375,-0.46875 h -0.5 c -0.375,0 -0.484375,0.125 -0.484375,0.46875 v 0.40625 c 0,0.328125 0.078125,0.484375 0.484375,0.484375 h 0.5 c 0.390625,0 0.484375,-0.125 0.484375,-0.484375 z m -1.328125,7 c 0,0.265625 0,0.65625 -0.609375,0.65625 -0.125,0 -0.390625,-0.03125 -0.609375,-0.140625 C -0.40625,0.984375 -0.421875,0.984375 -0.453125,0.984375 -0.5625,0.984375 -0.5625,1.0625 -0.625,1.25 c -0.0625,0.21875 -0.078125,0.296875 -0.078125,0.328125 0,0.1875 0.828125,0.46875 1.453125,0.46875 1.09375,0 1.484375,-0.734375 1.484375,-1.734375 V -4.09375 C 2.234375,-4.40625 2.15625,-4.5625 1.75,-4.5625 H 1.390625 C 1,-4.5625 0.90625,-4.4375 0.90625,-4.09375 Z m 0,0"
               id="id-dc87af40-0120-41f2-a7c0-5de39af8bfd6" />
          </g>
        </g>
      </defs>
      <g
         fill="#000000"
         fill-opacity="1"
         id="id-b31bd019-68a8-4bdb-9343-3bd110bea880"
         transform="translate(-148.009,-127.843)">
        <g
           transform="translate(148.712,134.765)"
           id="g9342">
          <path
             d="m 2.234375,-6.453125 c 0,-0.3125 -0.078125,-0.46875 -0.484375,-0.46875 h -0.5 c -0.375,0 -0.484375,0.125 -0.484375,0.46875 v 0.40625 c 0,0.328125 0.078125,0.484375 0.484375,0.484375 h 0.5 c 0.390625,0 0.484375,-0.125 0.484375,-0.484375 z m -1.328125,7 c 0,0.265625 0,0.65625 -0.609375,0.65625 -0.125,0 -0.390625,-0.03125 -0.609375,-0.140625 C -0.40625,0.984375 -0.421875,0.984375 -0.453125,0.984375 -0.5625,0.984375 -0.5625,1.0625 -0.625,1.25 c -0.0625,0.21875 -0.078125,0.296875 -0.078125,0.328125 0,0.1875 0.828125,0.46875 1.453125,0.46875 1.09375,0 1.484375,-0.734375 1.484375,-1.734375 V -4.09375 C 2.234375,-4.40625 2.15625,-4.5625 1.75,-4.5625 H 1.390625 C 1,-4.5625 0.90625,-4.4375 0.90625,-4.09375 Z m 0,0"
             id="id-3549f293-04b0-4296-9f1b-34bb6dd883e3" />
        </g>
      </g>
    </g>
    <g
       transform="matrix(1.41111,0,0,1.41111,92.131895,133.72226)"
       ns1:version="1.8.2"
       ns1:texconverter="pdflatex"
       ns1:pdfconverter="inkscape"
       ns1:text="$\\rho$"
       ns1:preamble="C:\Users\rcaspa\AppData\Roaming\inkscape\extensions\textext\default_packages.tex"
       ns1:scale="4.0"
       ns1:alignment="middle center"
       ns1:stroke-to-path="0"
       ns1:inkscapeversion="1.2.2"
       ns1:jacobian_sqrt="1.41111"
       id="g9490">
      <defs
         id="id-25b3d330-9da1-454a-b8bf-10198c063bef">
        <g
           id="id-022251a3-d2eb-403c-bf72-f58f66ce5455">
          <g
             id="id-1a89a305-2aab-4c56-8e9b-1f2286627fb0" />
          <g
             id="id-56594bcd-1339-4c52-aaf7-bc5dd520b496">
            <path
               d="m 0.328125,1.71875 c -0.03125,0.125 -0.03125,0.140625 -0.03125,0.171875 0,0.140625 0.109375,0.265625 0.28125,0.265625 0.203125,0 0.328125,-0.1875 0.34375,-0.21875 0.0625,-0.078125 0.375,-1.421875 0.640625,-2.5 0.203125,0.40625 0.515625,0.671875 0.984375,0.671875 C 3.71875,0.109375 5,-1.296875 5,-2.78125 c 0,-1.0625 -0.65625,-1.625 -1.375,-1.625 -0.96875,0 -2.015625,1 -2.3125,2.21875 z m 2.21875,-1.828125 C 1.84375,-0.109375 1.6875,-0.90625 1.6875,-1 c 0,-0.03125 0.046875,-0.234375 0.078125,-0.359375 0.28125,-1.125 0.375,-1.484375 0.59375,-1.875 0.4375,-0.734375 0.9375,-0.953125 1.234375,-0.953125 0.375,0 0.6875,0.296875 0.6875,0.984375 0,0.546875 -0.28125,1.65625 -0.546875,2.140625 -0.328125,0.640625 -0.8125,0.953125 -1.1875,0.953125 z m 0,0"
               id="id-f78e1b4a-abcd-497b-9f7f-c0ef624706e6" />
          </g>
        </g>
      </defs>
      <g
         fill="#000000"
         fill-opacity="1"
         id="id-28485594-136f-465c-bc3c-a94e9da58092"
         transform="translate(-149.009,-130.359)">
        <g
           transform="translate(148.712,134.765)"
           id="g9487">
          <path
             d="m 0.328125,1.71875 c -0.03125,0.125 -0.03125,0.140625 -0.03125,0.171875 0,0.140625 0.109375,0.265625 0.28125,0.265625 0.203125,0 0.328125,-0.1875 0.34375,-0.21875 0.0625,-0.078125 0.375,-1.421875 0.640625,-2.5 0.203125,0.40625 0.515625,0.671875 0.984375,0.671875 C 3.71875,0.109375 5,-1.296875 5,-2.78125 c 0,-1.0625 -0.65625,-1.625 -1.375,-1.625 -0.96875,0 -2.015625,1 -2.3125,2.21875 z m 2.21875,-1.828125 C 1.84375,-0.109375 1.6875,-0.90625 1.6875,-1 c 0,-0.03125 0.046875,-0.234375 0.078125,-0.359375 0.28125,-1.125 0.375,-1.484375 0.59375,-1.875 0.4375,-0.734375 0.9375,-0.953125 1.234375,-0.953125 0.375,0 0.6875,0.296875 0.6875,0.984375 0,0.546875 -0.28125,1.65625 -0.546875,2.140625 -0.328125,0.640625 -0.8125,0.953125 -1.1875,0.953125 z m 0,0"
             id="id-5491b885-8852-4c08-95f2-1b96502e370d" />
        </g>
      </g>
    </g>
    <g
       transform="matrix(1.41111,0,0,1.41111,56.291896,169.28657)"
       ns1:version="1.8.2"
       ns1:texconverter="pdflatex"
       ns1:pdfconverter="inkscape"
       ns1:text="$\\partial V$"
       ns1:preamble="C:\Users\rcaspa\AppData\Roaming\inkscape\extensions\textext\default_packages.tex"
       ns1:scale="4.0"
       ns1:alignment="middle center"
       ns1:stroke-to-path="0"
       ns1:inkscapeversion="1.2.2"
       ns1:jacobian_sqrt="1.41111"
       id="g9605">
      <defs
         id="id-e8f12f33-13df-4acc-9a60-9d117670dff2">
        <g
           id="id-8ff9fef9-5fb0-4aa5-a116-460a65d7a63c">
          <g
             id="id-293bcaa6-815c-4ab1-b25e-d9f4d53543d7" />
          <g
             id="id-f7bb4851-678b-4f13-9446-756c2c87f145">
            <path
               d="m 4.609375,-3.375 c -0.09375,-0.625 -0.5,-1.1875 -1.28125,-1.1875 -0.609375,0 -1.25,0.171875 -2.03125,0.9375 -0.828125,0.828125 -0.890625,1.765625 -0.890625,2.0625 0,0.625 0.4375,1.78125 1.828125,1.78125 2.375,0 3.40625,-3.34375 3.40625,-4.78125 0,-1.578125 -0.921875,-2.578125 -2.15625,-2.578125 -1.4375,0 -1.90625,1.296875 -1.90625,1.578125 0,0.140625 0.09375,0.34375 0.390625,0.34375 0.328125,0 0.53125,-0.296875 0.53125,-0.515625 0,-0.359375 -0.3125,-0.359375 -0.46875,-0.359375 0.4375,-0.734375 1.15625,-0.796875 1.4375,-0.796875 0.734375,0 1.421875,0.515625 1.421875,1.8125 0,0.390625 -0.0625,0.890625 -0.265625,1.703125 z m -2.34375,3.3125 c -1.09375,0 -1.09375,-1.03125 -1.09375,-1.125 0,-0.265625 0.25,-1.65625 0.65625,-2.265625 0.390625,-0.5625 0.890625,-0.890625 1.5,-0.890625 1.09375,0 1.109375,1.125 1.109375,1.328125 0,0.71875 -0.640625,2.953125 -2.171875,2.953125 z m 0,0"
               id="id-ecc43867-59f6-4aad-9218-6007ff28241d" />
          </g>
          <g
             id="id-a9eea302-b981-4bbf-b6bb-60c223cbac2b" />
          <g
             id="id-0438ab5e-759b-4580-8bb5-a3aa01c712f8">
            <path
               d="M 7.96875,-6.921875 H 7.203125 L 5.15625,-3.53125 c -1.453125,2.4375 -1.5625,2.71875 -1.609375,2.8125 H 3.53125 c 0,-0.21875 0,-0.265625 -0.125,-1.140625 C 3.34375,-2.25 3.296875,-2.65625 3.21875,-3.0625 L 2.53125,-6.921875 H 1.609375 L 2.859375,0 H 3.78125 Z m 0,0"
               id="id-52143f06-f04b-41a4-9e3c-56d2789d764f" />
          </g>
        </g>
      </defs>
      <g
         fill="#000000"
         fill-opacity="1"
         id="id-66002da0-d627-4f52-b65c-89f10a359468"
         transform="translate(-149.118,-127.624)">
        <g
           transform="translate(148.712,134.765)"
           id="g9598">
          <path
             d="m 4.609375,-3.375 c -0.09375,-0.625 -0.5,-1.1875 -1.28125,-1.1875 -0.609375,0 -1.25,0.171875 -2.03125,0.9375 -0.828125,0.828125 -0.890625,1.765625 -0.890625,2.0625 0,0.625 0.4375,1.78125 1.828125,1.78125 2.375,0 3.40625,-3.34375 3.40625,-4.78125 0,-1.578125 -0.921875,-2.578125 -2.15625,-2.578125 -1.4375,0 -1.90625,1.296875 -1.90625,1.578125 0,0.140625 0.09375,0.34375 0.390625,0.34375 0.328125,0 0.53125,-0.296875 0.53125,-0.515625 0,-0.359375 -0.3125,-0.359375 -0.46875,-0.359375 0.4375,-0.734375 1.15625,-0.796875 1.4375,-0.796875 0.734375,0 1.421875,0.515625 1.421875,1.8125 0,0.390625 -0.0625,0.890625 -0.265625,1.703125 z m -2.34375,3.3125 c -1.09375,0 -1.09375,-1.03125 -1.09375,-1.125 0,-0.265625 0.25,-1.65625 0.65625,-2.265625 0.390625,-0.5625 0.890625,-0.890625 1.5,-0.890625 1.09375,0 1.109375,1.125 1.109375,1.328125 0,0.71875 -0.640625,2.953125 -2.171875,2.953125 z m 0,0"
             id="id-42a77567-b5e0-48df-80a7-b3a6441b07f2" />
        </g>
      </g>
      <g
         fill="#000000"
         fill-opacity="1"
         id="id-73ff3646-63f2-4acb-bf01-b9a4ce542aa3"
         transform="translate(-149.118,-127.624)">
        <g
           transform="translate(154.555,134.765)"
           id="g9602">
          <path
             d="M 7.96875,-6.921875 H 7.203125 L 5.15625,-3.53125 c -1.453125,2.4375 -1.5625,2.71875 -1.609375,2.8125 H 3.53125 c 0,-0.21875 0,-0.265625 -0.125,-1.140625 C 3.34375,-2.25 3.296875,-2.65625 3.21875,-3.0625 L 2.53125,-6.921875 H 1.609375 L 2.859375,0 H 3.78125 Z m 0,0"
             id="id-a91576d9-fc34-4d5a-8919-7074f036c707" />
        </g>
      </g>
    </g>
    <path
       style="fill:#000000;fill-opacity:1;fill-rule:evenodd;stroke:#000000;stroke-width:0.7;stroke-linecap:round;stroke-linejoin:round;stroke-dasharray:none;stop-color:#000000"
       d="m 112.80668,131.27066 38.97113,-22.5 -4.46409,0.26795 2,3.4641 2.46409,-3.73205"
       id="path9763"
       sodipodi:nodetypes="ccccc" />
  </g>
</svg>
