<?xml version="1.0" encoding="utf-8" standalone="no"?>
<!DOCTYPE svg PUBLIC "-//W3C//DTD SVG 1.1//EN"
  "http://www.w3.org/Graphics/SVG/1.1/DTD/svg11.dtd">
<svg xmlns:xlink="http://www.w3.org/1999/xlink" width="1152pt" height="432pt" viewBox="0 0 1152 432" xmlns="http://www.w3.org/2000/svg" version="1.1">
 <metadata>
  <rdf:RDF xmlns:dc="http://purl.org/dc/elements/1.1/" xmlns:cc="http://creativecommons.org/ns#" xmlns:rdf="http://www.w3.org/1999/02/22-rdf-syntax-ns#">
   <cc:Work>
    <dc:type rdf:resource="http://purl.org/dc/dcmitype/StillImage"/>
    <dc:date>2025-07-02T23:34:21.307115</dc:date>
    <dc:format>image/svg+xml</dc:format>
    <dc:creator>
     <cc:Agent>
      <dc:title>Matplotlib v3.9.0, https://matplotlib.org/</dc:title>
     </cc:Agent>
    </dc:creator>
   </cc:Work>
  </rdf:RDF>
 </metadata>
 <defs>
  <style type="text/css">*{stroke-linejoin: round; stroke-linecap: butt}</style>
 </defs>
 <g id="figure_1">
  <g id="patch_1">
   <path d="M 0 432 
L 1152 432 
L 1152 0 
L 0 0 
z
" style="fill: #ffffff"/>
  </g>
  <g id="axes_1">
   <g id="patch_2">
    <path d="M 144 384.48 
L 1036.8 384.48 
L 1036.8 51.84 
L 144 51.84 
z
" style="fill: #ffffff"/>
   </g>
   <g id="matplotlib.axis_1">
    <g id="xtick_1">
     <g id="line2d_1">
      <defs>
       <path id="m9431445afe" d="M 0 0 
L 0 3.5 
" style="stroke: #000000; stroke-width: 0.8"/>
      </defs>
      <g>
       <use xlink:href="#m9431445afe" x="319.944787" y="384.48" style="stroke: #000000; stroke-width: 0.8"/>
      </g>
     </g>
    </g>
    <g id="xtick_2">
     <g id="line2d_2">
      <g>
       <use xlink:href="#m9431445afe" x="590.670726" y="384.48" style="stroke: #000000; stroke-width: 0.8"/>
      </g>
     </g>
    </g>
    <g id="xtick_3">
     <g id="line2d_3">
      <g>
       <use xlink:href="#m9431445afe" x="861.396664" y="384.48" style="stroke: #000000; stroke-width: 0.8"/>
      </g>
     </g>
    </g>
   </g>
   <g id="matplotlib.axis_2">
    <g id="ytick_1">
     <g id="line2d_4">
      <defs>
       <path id="m34805f9312" d="M 0 0 
L -3.5 0 
" style="stroke: #000000; stroke-width: 0.8"/>
      </defs>
      <g>
       <use xlink:href="#m34805f9312" x="144" y="384.48" style="stroke: #000000; stroke-width: 0.8"/>
      </g>
     </g>
    </g>
    <g id="ytick_2">
     <g id="line2d_5">
      <g>
       <use xlink:href="#m34805f9312" x="144" y="273.6" style="stroke: #000000; stroke-width: 0.8"/>
      </g>
     </g>
    </g>
    <g id="ytick_3">
     <g id="line2d_6">
      <g>
       <use xlink:href="#m34805f9312" x="144" y="162.72" style="stroke: #000000; stroke-width: 0.8"/>
      </g>
     </g>
    </g>
   </g>
   <g id="line2d_7">
    <path d="M 184.581818 162.72 
L 996.218182 162.72 
L 996.218182 162.72 
" clip-path="url(#p67d3c35ea5)" style="fill: none; stroke: #000000; stroke-width: 1.5; stroke-linecap: square"/>
   </g>
   <g id="line2d_8">
    <path d="M 184.581818 377.573979 
L 996.218182 377.573979 
L 996.218182 377.573979 
" clip-path="url(#p67d3c35ea5)" style="fill: none; stroke: #000000; stroke-width: 1.5; stroke-linecap: square"/>
   </g>
   <g id="line2d_9">
    <path d="M 184.581818 377.573979 
L 195.410856 377.467251 
L 205.698441 377.156375 
L 215.444575 376.640732 
L 224.107805 375.954786 
L 231.688131 375.124844 
L 238.185554 374.188563 
L 243.600073 373.201481 
L 248.47314 372.106471 
L 252.804755 370.925057 
L 256.594918 369.690452 
L 260.385081 368.222812 
L 263.633792 366.736391 
L 266.882503 364.990377 
L 269.589763 363.294468 
L 272.297022 361.333479 
L 275.004282 359.052939 
L 277.170089 356.952992 
L 279.335897 354.561876 
L 281.501704 351.827264 
L 283.667512 348.685533 
L 285.833319 345.059118 
L 287.457675 341.965018 
L 289.08203 338.497996 
L 290.706386 334.60305 
L 292.330742 330.216644 
L 293.955097 325.265813 
L 295.579453 319.667564 
L 297.203809 313.328889 
L 298.828164 306.147957 
L 300.45252 298.017361 
L 302.076875 288.830741 
L 303.701231 278.494707 
L 305.325587 266.948535 
L 307.491394 249.689239 
L 310.198654 225.654421 
L 313.988817 191.372823 
L 315.613172 178.86866 
L 316.696076 172.105851 
L 317.77898 166.993041 
L 318.320432 165.144241 
L 318.861884 163.804095 
L 319.403336 162.992032 
L 319.944787 162.72 
L 320.486239 162.992032 
L 321.027691 163.804095 
L 321.569143 165.144241 
L 322.110595 166.993041 
L 323.193499 172.105851 
L 324.276402 178.86866 
L 325.359306 186.949171 
L 326.983662 200.768115 
L 333.481084 258.576079 
L 335.646892 274.781984 
L 337.271247 285.51702 
L 338.895603 295.077519 
L 340.519959 303.548638 
L 342.144314 311.034065 
L 343.76867 317.64181 
L 345.393026 323.476058 
L 347.017381 328.632969 
L 348.641737 333.198923 
L 350.266093 337.250181 
L 352.4319 341.965018 
L 354.597708 346.016013 
L 356.763515 349.513109 
L 358.929323 352.546383 
L 361.09513 355.189639 
L 363.260938 357.503447 
L 365.426745 359.537666 
L 368.134004 361.749319 
L 370.841264 363.65332 
L 373.548523 365.301751 
L 376.797235 367.000754 
L 380.045946 368.448741 
L 383.836109 369.879943 
L 387.626272 371.085101 
L 391.957887 372.239386 
L 396.830954 373.31015 
L 402.245473 374.276044 
L 408.742895 375.192641 
L 415.78177 375.954786 
L 423.903548 376.604744 
L 433.10823 377.110538 
L 443.395815 377.444563 
L 454.224853 377.572923 
L 465.05389 377.487695 
L 475.882928 377.1783 
L 485.629062 376.675883 
L 494.292292 376.005108 
L 501.872618 375.192641 
L 508.370041 374.276044 
L 514.326011 373.201481 
L 519.199078 372.106471 
L 523.530693 370.925057 
L 527.320856 369.690452 
L 531.111019 368.222812 
L 534.359731 366.736391 
L 537.608442 364.990377 
L 540.315701 363.294468 
L 543.022961 361.333479 
L 545.73022 359.052939 
L 547.896028 356.952992 
L 550.061835 354.561876 
L 552.227643 351.827264 
L 554.39345 348.685533 
L 556.559258 345.059118 
L 558.183613 341.965018 
L 559.807969 338.497996 
L 561.432325 334.60305 
L 563.05668 330.216644 
L 564.681036 325.265813 
L 566.305391 319.667564 
L 567.929747 313.328889 
L 569.554103 306.147957 
L 571.178458 298.017361 
L 572.802814 288.830741 
L 574.42717 278.494707 
L 576.051525 266.948535 
L 578.217333 249.689239 
L 580.924592 225.654421 
L 584.714755 191.372823 
L 586.339111 178.86866 
L 587.422015 172.105851 
L 588.504918 166.993041 
L 589.04637 165.144241 
L 589.587822 163.804095 
L 590.129274 162.992032 
L 590.670726 162.72 
L 591.212178 162.992032 
L 591.75363 163.804095 
L 592.295082 165.144241 
L 592.836533 166.993041 
L 593.919437 172.105851 
L 595.002341 178.86866 
L 596.085245 186.949171 
L 597.7096 200.768115 
L 604.207023 258.576079 
L 606.37283 274.781984 
L 607.997186 285.51702 
L 609.621542 295.077519 
L 611.245897 303.548638 
L 612.870253 311.034065 
L 614.494609 317.64181 
L 616.118964 323.476058 
L 617.74332 328.632969 
L 619.367675 333.198923 
L 620.992031 337.250181 
L 623.157839 341.965018 
L 625.323646 346.016013 
L 627.489454 349.513109 
L 629.655261 352.546383 
L 631.821069 355.189639 
L 633.986876 357.503447 
L 636.152684 359.537666 
L 638.859943 361.749319 
L 641.567202 363.65332 
L 644.274462 365.301751 
L 647.523173 367.000754 
L 650.771884 368.448741 
L 654.562047 369.879943 
L 658.352211 371.085101 
L 662.683826 372.239386 
L 667.556892 373.31015 
L 672.971411 374.276044 
L 679.468834 375.192641 
L 686.507708 375.954786 
L 694.629486 376.604744 
L 703.834168 377.110538 
L 714.121754 377.444563 
L 724.950791 377.572923 
L 735.779829 377.487695 
L 746.608867 377.1783 
L 756.355 376.675883 
L 765.01823 376.005108 
L 772.598557 375.192641 
L 779.095979 374.276044 
L 785.05195 373.201481 
L 789.925017 372.106471 
L 794.256632 370.925057 
L 798.046795 369.690452 
L 801.836958 368.222812 
L 805.085669 366.736391 
L 808.33438 364.990377 
L 811.04164 363.294468 
L 813.748899 361.333479 
L 816.456159 359.052939 
L 818.621966 356.952992 
L 820.787774 354.561876 
L 822.953581 351.827264 
L 825.119389 348.685533 
L 827.285196 345.059118 
L 828.909552 341.965018 
L 830.533907 338.497996 
L 832.158263 334.60305 
L 833.782619 330.216644 
L 835.406974 325.265813 
L 837.03133 319.667564 
L 838.655686 313.328889 
L 840.280041 306.147957 
L 841.904397 298.017361 
L 843.528753 288.830741 
L 845.153108 278.494707 
L 846.777464 266.948535 
L 848.943271 249.689239 
L 851.650531 225.654421 
L 855.440694 191.372823 
L 857.065049 178.86866 
L 858.147953 172.105851 
L 859.230857 166.993041 
L 859.772309 165.144241 
L 860.313761 163.804095 
L 860.855213 162.992032 
L 861.396664 162.72 
L 861.938116 162.992032 
L 862.479568 163.804095 
L 863.02102 165.144241 
L 863.562472 166.993041 
L 864.645376 172.105851 
L 865.728279 178.86866 
L 866.811183 186.949171 
L 868.435539 200.768115 
L 874.932961 258.576079 
L 877.098769 274.781984 
L 878.723125 285.51702 
L 880.34748 295.077519 
L 881.971836 303.548638 
L 883.596191 311.034065 
L 885.220547 317.64181 
L 886.844903 323.476058 
L 888.469258 328.632969 
L 890.093614 333.198923 
L 891.71797 337.250181 
L 893.883777 341.965018 
L 896.049585 346.016013 
L 898.215392 349.513109 
L 900.3812 352.546383 
L 902.547007 355.189639 
L 904.712815 357.503447 
L 906.878622 359.537666 
L 909.585881 361.749319 
L 912.293141 363.65332 
L 915.0004 365.301751 
L 918.249112 367.000754 
L 921.497823 368.448741 
L 925.287986 369.879943 
L 929.078149 371.085101 
L 933.409764 372.239386 
L 938.282831 373.31015 
L 943.69735 374.276044 
L 950.194772 375.192641 
L 957.233647 375.954786 
L 965.355425 376.604744 
L 974.560107 377.110538 
L 984.847692 377.444563 
L 995.67673 377.572923 
L 996.218182 377.573715 
L 996.218182 377.573715 
" clip-path="url(#p67d3c35ea5)" style="fill: none; stroke: #0000ff; stroke-width: 1.5; stroke-linecap: square"/>
   </g>
   <g id="line2d_10">
    <path d="M 184.581818 377.352 
L 195.410856 377.238243 
L 205.698441 376.906252 
L 214.903123 376.391226 
L 223.024901 375.721583 
L 230.063776 374.929696 
L 236.561198 373.969918 
L 241.975717 372.950674 
L 246.848784 371.811752 
L 251.180399 370.573472 
L 254.970562 369.268886 
L 258.219273 367.945739 
L 261.467985 366.388466 
L 264.175244 364.871943 
L 266.882503 363.112468 
L 269.589763 361.056761 
L 271.75557 359.1533 
L 273.921378 356.971846 
L 276.087185 354.45633 
L 278.252993 351.53575 
L 279.877349 349.025693 
L 281.501704 346.189188 
L 283.12606 342.967453 
L 284.750415 339.287833 
L 286.374771 335.059677 
L 287.999127 330.168715 
L 289.623482 324.469263 
L 291.247838 317.773269 
L 292.872194 309.834615 
L 294.496549 300.326193 
L 295.579453 292.902882 
L 296.662357 284.419177 
L 297.74526 274.663236 
L 298.828164 263.367533 
L 299.911068 250.190331 
L 300.993972 234.689536 
L 302.076875 216.285129 
L 303.159779 194.204125 
L 304.242683 167.398069 
L 305.325587 134.416257 
L 306.408491 93.20527 
L 307.491394 40.781473 
L 308.182431 -1 
M 331.707144 -1 
L 332.398181 40.781473 
L 333.481084 93.20527 
L 334.563988 134.416257 
L 335.646892 167.398069 
L 336.729796 194.204125 
L 337.812699 216.285129 
L 338.895603 234.689536 
L 339.978507 250.190331 
L 341.061411 263.367533 
L 342.144314 274.663236 
L 343.76867 288.805691 
L 345.393026 300.326193 
L 347.017381 309.834615 
L 348.641737 317.773269 
L 350.266093 324.469263 
L 351.890448 330.168715 
L 353.514804 335.059677 
L 355.139159 339.287833 
L 356.763515 342.967453 
L 358.387871 346.189188 
L 360.012226 349.025693 
L 362.178034 352.308446 
L 364.343841 355.120114 
L 366.509649 357.546114 
L 368.675456 359.653309 
L 370.841264 361.494641 
L 373.548523 363.486162 
L 376.255783 365.193203 
L 379.504494 366.936716 
L 382.753205 368.410449 
L 386.543368 369.85651 
L 390.333531 371.066256 
L 394.665146 372.218221 
L 399.538213 373.280834 
L 404.952732 374.23401 
L 411.450155 375.132874 
L 418.489029 375.874348 
L 426.610807 376.499206 
L 435.815489 376.974493 
L 446.103075 377.270052 
L 456.932112 377.349467 
L 467.76115 377.201041 
L 478.048736 376.831617 
L 487.253417 376.27517 
L 495.375196 375.558318 
L 502.41407 374.712806 
L 508.370041 373.783878 
L 513.784559 372.717693 
L 518.657626 371.52426 
L 522.989241 370.224 
L 526.779404 368.850971 
L 530.028116 367.455122 
L 533.276827 365.808119 
L 535.984086 364.199995 
L 538.691346 362.329187 
L 540.857153 360.604345 
L 543.022961 358.635971 
L 545.188768 356.37677 
L 547.354576 353.767327 
L 549.520383 350.732181 
L 551.144739 348.119118 
L 552.769095 345.161348 
L 554.39345 341.795849 
L 556.017806 337.944489 
L 557.642161 333.50946 
L 559.266517 328.367018 
L 560.890873 322.358768 
L 562.515228 315.279342 
L 564.139584 306.858624 
L 565.76394 296.735629 
L 566.846843 288.805691 
L 567.929747 279.715464 
L 569.012651 269.227212 
L 570.095555 257.039025 
L 571.178458 242.76286 
L 572.261362 225.893272 
L 573.344266 205.762059 
L 574.42717 181.471077 
L 575.510073 151.790305 
L 576.592977 114.999032 
L 577.675881 68.630743 
L 578.758785 9.048716 
L 578.90837 -1 
M 602.433082 -1 
L 603.124119 40.781473 
L 604.207023 93.20527 
L 605.289927 134.416257 
L 606.37283 167.398069 
L 607.455734 194.204125 
L 608.538638 216.285129 
L 609.621542 234.689536 
L 610.704445 250.190331 
L 611.787349 263.367533 
L 612.870253 274.663236 
L 614.494609 288.805691 
L 616.118964 300.326193 
L 617.74332 309.834615 
L 619.367675 317.773269 
L 620.992031 324.469263 
L 622.616387 330.168715 
L 624.240742 335.059677 
L 625.865098 339.287833 
L 627.489454 342.967453 
L 629.113809 346.189188 
L 630.738165 349.025693 
L 632.903972 352.308446 
L 635.06978 355.120114 
L 637.235587 357.546114 
L 639.401395 359.653309 
L 641.567202 361.494641 
L 644.274462 363.486162 
L 646.981721 365.193203 
L 650.230432 366.936716 
L 653.479144 368.410449 
L 657.269307 369.85651 
L 661.05947 371.066256 
L 665.391085 372.218221 
L 670.264152 373.280834 
L 675.678671 374.23401 
L 682.176093 375.132874 
L 689.214968 375.874348 
L 697.336746 376.499206 
L 706.541428 376.974493 
L 716.829013 377.270052 
L 727.658051 377.349467 
L 738.487088 377.201041 
L 748.774674 376.831617 
L 757.979356 376.27517 
L 766.101134 375.558318 
L 773.140008 374.712806 
L 779.095979 373.783878 
L 784.510498 372.717693 
L 789.383565 371.52426 
L 793.71518 370.224 
L 797.505343 368.850971 
L 800.754054 367.455122 
L 804.002765 365.808119 
L 806.710025 364.199995 
L 809.417284 362.329187 
L 811.583092 360.604345 
L 813.748899 358.635971 
L 815.914707 356.37677 
L 818.080514 353.767327 
L 820.246322 350.732181 
L 821.870677 348.119118 
L 823.495033 345.161348 
L 825.119389 341.795849 
L 826.743744 337.944489 
L 828.3681 333.50946 
L 829.992456 328.367018 
L 831.616811 322.358768 
L 833.241167 315.279342 
L 834.865522 306.858624 
L 836.489878 296.735629 
L 837.572782 288.805691 
L 838.655686 279.715464 
L 839.738589 269.227212 
L 840.821493 257.039025 
L 841.904397 242.76286 
L 842.987301 225.893272 
L 844.070204 205.762059 
L 845.153108 181.471077 
L 846.236012 151.790305 
L 847.318916 114.999032 
L 848.401819 68.630743 
L 849.484723 9.048716 
L 849.634308 -1 
M 873.159021 -1 
L 873.850058 40.781473 
L 874.932961 93.20527 
L 876.015865 134.416257 
L 877.098769 167.398069 
L 878.181673 194.204125 
L 879.264576 216.285129 
L 880.34748 234.689536 
L 881.430384 250.190331 
L 882.513288 263.367533 
L 883.596191 274.663236 
L 885.220547 288.805691 
L 886.844903 300.326193 
L 888.469258 309.834615 
L 890.093614 317.773269 
L 891.71797 324.469263 
L 893.342325 330.168715 
L 894.966681 335.059677 
L 896.591036 339.287833 
L 898.215392 342.967453 
L 899.839748 346.189188 
L 901.464103 349.025693 
L 903.629911 352.308446 
L 905.795718 355.120114 
L 907.961526 357.546114 
L 910.127333 359.653309 
L 912.293141 361.494641 
L 915.0004 363.486162 
L 917.70766 365.193203 
L 920.956371 366.936716 
L 924.205082 368.410449 
L 927.995245 369.85651 
L 931.785408 371.066256 
L 936.117023 372.218221 
L 940.99009 373.280834 
L 946.404609 374.23401 
L 952.902032 375.132874 
L 959.940906 375.874348 
L 968.062684 376.499206 
L 977.267366 376.974493 
L 987.554952 377.270052 
L 996.218182 377.351719 
L 996.218182 377.351719 
" clip-path="url(#p67d3c35ea5)" style="fill: none; stroke: #ff0000; stroke-width: 1.5; stroke-linecap: square"/>
   </g>
   <g id="patch_3">
    <path d="M 144 384.48 
L 144 51.84 
" style="fill: none; stroke: #000000; stroke-width: 0.8; stroke-linejoin: miter; stroke-linecap: square"/>
   </g>
   <g id="patch_4">
    <path d="M 1036.8 384.48 
L 1036.8 51.84 
" style="fill: none; stroke: #000000; stroke-width: 0.8; stroke-linejoin: miter; stroke-linecap: square"/>
   </g>
   <g id="patch_5">
    <path d="M 144 384.48 
L 1036.8 384.48 
" style="fill: none; stroke: #000000; stroke-width: 0.8; stroke-linejoin: miter; stroke-linecap: square"/>
   </g>
   <g id="patch_6">
    <path d="M 144 51.84 
L 1036.8 51.84 
" style="fill: none; stroke: #000000; stroke-width: 0.8; stroke-linejoin: miter; stroke-linecap: square"/>
   </g>
  </g>
 </g>
 <defs>
  <clipPath id="p67d3c35ea5">
   <rect x="144" y="51.84" width="892.8" height="332.64"/>
  </clipPath>
 </defs>
</svg>
