<?xml version="1.0" encoding="utf-8" standalone="no"?>
<!DOCTYPE svg PUBLIC "-//W3C//DTD SVG 1.1//EN"
  "http://www.w3.org/Graphics/SVG/1.1/DTD/svg11.dtd">
<svg xmlns:xlink="http://www.w3.org/1999/xlink" width="1152pt" height="864pt" viewBox="0 0 1152 864" xmlns="http://www.w3.org/2000/svg" version="1.1">
 <metadata>
  <rdf:RDF xmlns:dc="http://purl.org/dc/elements/1.1/" xmlns:cc="http://creativecommons.org/ns#" xmlns:rdf="http://www.w3.org/1999/02/22-rdf-syntax-ns#">
   <cc:Work>
    <dc:type rdf:resource="http://purl.org/dc/dcmitype/StillImage"/>
    <dc:date>2025-06-19T09:05:24.240701</dc:date>
    <dc:format>image/svg+xml</dc:format>
    <dc:creator>
     <cc:Agent>
      <dc:title>Matplotlib v3.9.0, https://matplotlib.org/</dc:title>
     </cc:Agent>
    </dc:creator>
   </cc:Work>
  </rdf:RDF>
 </metadata>
 <defs>
  <style type="text/css">*{stroke-linejoin: round; stroke-linecap: butt}</style>
 </defs>
 <g id="figure_1">
  <g id="patch_1">
   <path d="M 0 864 
L 1152 864 
L 1152 0 
L 0 0 
z
" style="fill: #ffffff"/>
  </g>
  <g id="axes_1">
   <g id="patch_2">
    <path d="M 144 768.96 
L 1036.8 768.96 
L 1036.8 103.68 
L 144 103.68 
z
" style="fill: #ffffff"/>
   </g>
   <g id="matplotlib.axis_1">
    <g id="xtick_1">
     <g id="line2d_1">
      <defs>
       <path id="mb0fd11c81c" d="M 0 0 
L 0 3.5 
" style="stroke: #000000; stroke-width: 0.8"/>
      </defs>
      <g>
       <use xlink:href="#mb0fd11c81c" x="144" y="768.96" style="stroke: #000000; stroke-width: 0.8"/>
      </g>
     </g>
    </g>
    <g id="xtick_2">
     <g id="line2d_2">
      <g>
       <use xlink:href="#mb0fd11c81c" x="203.52" y="768.96" style="stroke: #000000; stroke-width: 0.8"/>
      </g>
     </g>
    </g>
    <g id="xtick_3">
     <g id="line2d_3">
      <g>
       <use xlink:href="#mb0fd11c81c" x="263.04" y="768.96" style="stroke: #000000; stroke-width: 0.8"/>
      </g>
     </g>
    </g>
    <g id="xtick_4">
     <g id="line2d_4">
      <g>
       <use xlink:href="#mb0fd11c81c" x="322.56" y="768.96" style="stroke: #000000; stroke-width: 0.8"/>
      </g>
     </g>
    </g>
    <g id="xtick_5">
     <g id="line2d_5">
      <g>
       <use xlink:href="#mb0fd11c81c" x="382.08" y="768.96" style="stroke: #000000; stroke-width: 0.8"/>
      </g>
     </g>
    </g>
    <g id="xtick_6">
     <g id="line2d_6">
      <g>
       <use xlink:href="#mb0fd11c81c" x="441.6" y="768.96" style="stroke: #000000; stroke-width: 0.8"/>
      </g>
     </g>
    </g>
    <g id="xtick_7">
     <g id="line2d_7">
      <g>
       <use xlink:href="#mb0fd11c81c" x="501.12" y="768.96" style="stroke: #000000; stroke-width: 0.8"/>
      </g>
     </g>
    </g>
    <g id="xtick_8">
     <g id="line2d_8">
      <g>
       <use xlink:href="#mb0fd11c81c" x="560.64" y="768.96" style="stroke: #000000; stroke-width: 0.8"/>
      </g>
     </g>
    </g>
    <g id="xtick_9">
     <g id="line2d_9">
      <g>
       <use xlink:href="#mb0fd11c81c" x="620.16" y="768.96" style="stroke: #000000; stroke-width: 0.8"/>
      </g>
     </g>
    </g>
    <g id="xtick_10">
     <g id="line2d_10">
      <g>
       <use xlink:href="#mb0fd11c81c" x="679.68" y="768.96" style="stroke: #000000; stroke-width: 0.8"/>
      </g>
     </g>
    </g>
    <g id="xtick_11">
     <g id="line2d_11">
      <g>
       <use xlink:href="#mb0fd11c81c" x="739.2" y="768.96" style="stroke: #000000; stroke-width: 0.8"/>
      </g>
     </g>
    </g>
    <g id="xtick_12">
     <g id="line2d_12">
      <g>
       <use xlink:href="#mb0fd11c81c" x="798.72" y="768.96" style="stroke: #000000; stroke-width: 0.8"/>
      </g>
     </g>
    </g>
    <g id="xtick_13">
     <g id="line2d_13">
      <g>
       <use xlink:href="#mb0fd11c81c" x="858.24" y="768.96" style="stroke: #000000; stroke-width: 0.8"/>
      </g>
     </g>
    </g>
    <g id="xtick_14">
     <g id="line2d_14">
      <g>
       <use xlink:href="#mb0fd11c81c" x="917.76" y="768.96" style="stroke: #000000; stroke-width: 0.8"/>
      </g>
     </g>
    </g>
    <g id="xtick_15">
     <g id="line2d_15">
      <g>
       <use xlink:href="#mb0fd11c81c" x="977.28" y="768.96" style="stroke: #000000; stroke-width: 0.8"/>
      </g>
     </g>
    </g>
   </g>
   <g id="matplotlib.axis_2">
    <g id="ytick_1">
     <g id="line2d_16">
      <defs>
       <path id="mb87d3516d4" d="M 0 0 
L -3.5 0 
" style="stroke: #000000; stroke-width: 0.8"/>
      </defs>
      <g>
       <use xlink:href="#mb87d3516d4" x="144" y="739.841956" style="stroke: #000000; stroke-width: 0.8"/>
      </g>
     </g>
    </g>
    <g id="ytick_2">
     <g id="line2d_17">
      <g>
       <use xlink:href="#mb87d3516d4" x="144" y="588.361467" style="stroke: #000000; stroke-width: 0.8"/>
      </g>
     </g>
    </g>
    <g id="ytick_3">
     <g id="line2d_18">
      <g>
       <use xlink:href="#mb87d3516d4" x="144" y="436.880978" style="stroke: #000000; stroke-width: 0.8"/>
      </g>
     </g>
    </g>
    <g id="ytick_4">
     <g id="line2d_19">
      <g>
       <use xlink:href="#mb87d3516d4" x="144" y="285.400489" style="stroke: #000000; stroke-width: 0.8"/>
      </g>
     </g>
    </g>
    <g id="ytick_5">
     <g id="line2d_20">
      <g>
       <use xlink:href="#mb87d3516d4" x="144" y="133.92" style="stroke: #000000; stroke-width: 0.8"/>
      </g>
     </g>
    </g>
   </g>
   <g id="line2d_21">
    <path d="M 144 436.880978 
L 1035.0144 436.880978 
L 1035.0144 436.880978 
" clip-path="url(#p54e16e1afc)" style="fill: none; stroke: #000000; stroke-width: 1.5; stroke-linecap: square"/>
   </g>
   <g id="line2d_22">
    <path d="M 144 325.427863 
L 1035.0144 325.427863 
L 1035.0144 325.427863 
" clip-path="url(#p54e16e1afc)" style="fill: none; stroke: #000000; stroke-width: 1.5; stroke-linecap: square"/>
   </g>
   <g id="line2d_23">
    <path d="M 144 133.92 
L 145.7856 139.289506 
L 147.5712 155.204596 
L 149.3568 181.100535 
L 151.1424 216.058455 
L 152.928 258.838003 
L 154.7136 307.921408 
L 158.2848 417.873078 
L 160.0704 398.92048 
L 163.6416 291.027289 
L 165.4272 243.926904 
L 167.2128 203.676872 
L 168.9984 171.702237 
L 170.784 149.133996 
L 172.5696 136.769035 
L 174.3552 135.041956 
L 176.1408 144.009782 
L 177.9264 163.350081 
L 179.712 192.37257 
L 181.4976 230.043789 
L 183.2832 275.023942 
L 185.0688 325.714616 
L 188.64 436.87278 
L 192.2112 325.832852 
L 193.9968 275.301527 
L 195.7824 230.528247 
L 197.568 193.096254 
L 199.3536 164.327266 
L 201.1392 145.234755 
L 202.9248 136.488187 
L 204.7104 138.389529 
L 206.496 150.862807 
L 208.2816 173.457112 
L 210.0672 205.362915 
L 211.8528 245.441102 
L 213.6384 292.263701 
L 215.424 344.164819 
L 217.2096 399.299998 
L 218.9952 418.050116 
L 222.5664 309.371715 
L 224.352 260.95354 
L 226.1376 218.81901 
L 227.9232 184.454589 
L 229.7088 159.069517 
L 231.4944 143.553201 
L 233.28 138.444012 
L 235.0656 143.910595 
L 236.8512 159.746319 
L 238.6368 185.377068 
L 240.4224 219.882069 
L 242.208 262.027013 
L 243.9936 310.308256 
L 247.5648 418.248291 
L 249.3504 399.689643 
L 252.9216 294.158794 
L 254.7072 248.184784 
L 256.4928 208.961923 
L 258.2784 177.86989 
L 260.064 155.997933 
L 261.8496 144.10667 
L 263.6352 142.601605 
L 265.4208 151.519305 
L 267.2064 170.526695 
L 268.992 198.933484 
L 270.7776 235.717247 
L 272.5632 279.560264 
L 274.3488 328.896785 
L 277.92 436.872143 
L 281.4912 329.274831 
L 283.2768 280.406604 
L 285.0624 237.171407 
L 286.848 201.090278 
L 288.6336 173.427677 
L 290.4192 155.147119 
L 292.2048 146.877585 
L 293.9904 148.891861 
L 295.776 161.097584 
L 297.5616 183.041258 
L 299.3472 213.925089 
L 301.1328 252.636009 
L 302.9184 297.785831 
L 306.4896 400.780757 
L 308.2752 418.802136 
L 311.8464 314.622116 
L 313.632 268.303878 
L 315.4176 228.061329 
L 317.2032 195.305731 
L 318.9888 171.179605 
L 320.7744 156.516835 
L 322.56 151.813828 
L 324.3456 157.212722 
L 326.1312 172.497207 
L 327.9168 197.10109 
L 329.7024 230.129254 
L 331.488 270.390238 
L 333.2736 316.439264 
L 336.8448 419.174173 
L 338.6304 401.557948 
L 340.416 349.921893 
L 342.2016 301.504716 
L 343.9872 258.012437 
L 345.7728 220.971814 
L 347.5584 191.676677 
L 349.344 171.142687 
L 351.1296 160.072096 
L 352.9152 158.829724 
L 354.7008 167.430993 
L 356.4864 185.542388 
L 358.272 212.494313 
L 360.0576 247.30583 
L 361.8432 288.720381 
L 363.6288 335.251187 
L 367.2 436.871902 
L 370.7712 335.872107 
L 372.5568 290.09756 
L 374.3424 249.664547 
L 376.128 215.987593 
L 377.9136 190.237201 
L 379.6992 173.299123 
L 381.4848 165.743889 
L 383.2704 167.807607 
L 385.056 179.384712 
L 386.8416 200.032859 
L 388.6272 228.989751 
L 390.4128 265.201274 
L 392.1984 307.359887 
L 395.7696 403.311777 
L 397.5552 420.080013 
L 401.1264 323.423416 
L 402.912 280.547227 
L 404.6976 243.360788 
L 406.4832 213.159558 
L 408.2688 190.986643 
L 410.0544 177.596744 
L 411.84 173.430478 
L 413.6256 178.599947 
L 415.4112 192.886017 
L 417.1968 215.747366 
L 418.9824 246.340935 
L 420.768 283.553006 
L 422.5536 326.039761 
L 426.1248 420.609245 
L 427.9104 404.441696 
L 429.696 357.079066 
L 431.4816 312.735957 
L 433.2672 272.969584 
L 435.0528 239.168499 
L 436.8384 212.504052 
L 438.624 193.88977 
L 440.4096 183.950059 
L 442.1952 182.999292 
L 443.9808 191.032 
L 445.7664 207.724454 
L 447.552 232.44753 
L 449.3376 264.290369 
L 451.1232 302.093919 
L 452.9088 344.493144 
L 456.48 436.872068 
L 460.0512 345.32912 
L 461.8368 303.940239 
L 463.6224 267.447971 
L 465.408 237.120797 
L 467.1936 214.00277 
L 468.9792 198.877554 
L 470.7648 192.241886 
L 472.5504 194.289338 
L 474.336 204.904927 
L 476.1216 223.670691 
L 477.9072 249.882002 
L 479.6928 282.573971 
L 481.4784 320.55695 
L 485.0496 406.779668 
L 486.8352 421.826498 
L 490.4064 335.381313 
L 492.192 297.135085 
L 493.9776 264.031969 
L 495.7632 237.216216 
L 497.5488 217.603275 
L 499.3344 205.848546 
L 501.12 202.325535 
L 502.9056 207.114122 
L 504.6912 219.999327 
L 506.4768 240.480538 
L 508.2624 267.790827 
L 510.048 300.925622 
L 511.8336 338.679643 
L 515.4048 422.489215 
L 517.1904 408.211693 
L 518.976 366.413317 
L 520.7616 327.349356 
L 522.5472 292.386142 
L 524.3328 262.736764 
L 526.1184 239.418946 
L 527.904 223.220111 
L 529.6896 214.670825 
L 531.4752 214.027509 
L 533.2608 221.265 
L 535.0464 236.079133 
L 536.832 257.899229 
L 538.6176 285.909955 
L 540.4032 319.081741 
L 542.1888 356.208614 
L 545.76 436.872633 
L 549.3312 357.222195 
L 551.1168 321.314486 
L 552.9024 289.72498 
L 554.688 263.54312 
L 556.4736 243.659683 
L 558.2592 230.736494 
L 560.0448 225.184463 
L 561.8304 227.150671 
L 563.616 236.514918 
L 565.4016 252.895775 
L 567.1872 275.665868 
L 568.9728 303.975801 
L 570.7584 336.785789 
L 574.3296 411.029068 
L 576.1152 423.963349 
L 579.6864 349.960094 
L 581.472 317.324312 
L 583.2576 289.1488 
L 585.0432 266.397964 
L 586.8288 249.837072 
L 588.6144 240.006557 
L 590.4 237.204494 
L 592.1856 241.477807 
L 593.9712 252.62246 
L 595.7568 270.192558 
L 597.5424 293.517973 
L 599.328 321.729792 
L 601.1136 353.792643 
L 604.6848 424.72986 
L 606.4704 412.699045 
L 608.256 377.506471 
L 610.0416 344.69023 
L 611.8272 315.392247 
L 613.6128 290.620748 
L 615.3984 271.215569 
L 617.184 257.819707 
L 618.9696 250.858098 
L 620.7552 250.524308 
L 622.5408 256.775549 
L 624.3264 269.336133 
L 626.112 287.70917 
L 627.8976 311.196026 
L 629.6832 338.92279 
L 631.4688 369.872744 
L 635.04 436.873572 
L 638.6112 371.018521 
L 640.3968 341.441935 
L 642.1824 315.497562 
L 643.968 294.070837 
L 645.7536 277.879307 
L 647.5392 267.44866 
L 649.3248 263.095788 
L 651.1104 264.919412 
L 652.896 272.798555 
L 654.6816 286.398824 
L 656.4672 305.186228 
L 658.2528 328.447961 
L 660.0384 355.31935 
L 663.6096 415.869602 
L 665.3952 426.394833 
L 668.9664 366.506626 
L 670.752 340.210429 
L 672.5376 317.586044 
L 674.3232 299.397456 
L 676.1088 286.243955 
L 677.8944 278.540493 
L 679.68 276.504776 
L 681.4656 280.151505 
L 683.2512 289.293893 
L 685.0368 303.552324 
L 686.8224 322.369792 
L 688.608 345.033485 
L 690.3936 370.701696 
L 693.9648 427.230799 
L 695.7504 417.702716 
L 697.536 389.861552 
L 699.3216 363.981708 
L 701.1072 340.957222 
L 702.8928 321.571245 
L 704.6784 306.469428 
L 706.464 296.138491 
L 708.2496 290.890685 
L 710.0352 290.854626 
L 711.8208 295.972771 
L 713.6064 306.005536 
L 715.392 320.541864 
L 717.1776 339.015765 
L 718.9632 360.728187 
L 720.7488 384.873378 
L 724.32 436.874842 
L 727.8912 386.100021 
L 729.6768 363.420871 
L 731.4624 343.611102 
L 733.248 327.336305 
L 735.0336 315.128599 
L 736.8192 307.369342 
L 738.6048 304.277429 
L 740.3904 305.903519 
L 742.176 312.130326 
L 743.9616 322.678897 
L 745.7472 337.120565 
L 747.5328 354.894093 
L 749.3184 375.327328 
L 752.8896 421.084415 
L 754.6752 429.01202 
L 758.2464 384.279623 
L 760.032 364.768135 
L 761.8176 348.06971 
L 763.6032 334.73631 
L 765.3888 325.192892 
L 767.1744 319.724029 
L 768.96 318.465722 
L 770.7456 321.40263 
L 772.5312 328.370742 
L 774.3168 339.065313 
L 776.1024 353.053719 
L 777.888 369.792694 
L 779.6736 388.649274 
L 783.2448 429.87999 
L 785.0304 422.998542 
L 786.816 402.925052 
L 788.6016 384.359527 
L 790.3872 367.935754 
L 792.1728 354.20167 
L 793.9584 343.601145 
L 795.744 336.459776 
L 797.5296 332.97512 
L 799.3152 333.211662 
L 801.1008 337.100624 
L 802.8864 344.444548 
L 804.672 354.926403 
L 806.4576 368.122843 
L 808.2432 383.521045 
L 811.8144 418.544901 
L 813.6 436.876388 
L 817.1712 401.791042 
L 818.9568 386.266637 
L 820.7424 372.806109 
L 822.528 361.849225 
L 824.3136 353.738786 
L 826.0992 348.710088 
L 827.8848 346.884444 
L 829.6704 348.266897 
L 831.456 352.748163 
L 833.2416 360.110643 
L 835.0272 370.038218 
L 836.8128 382.129409 
L 838.5984 395.913362 
L 842.1696 426.439882 
L 843.9552 431.69766 
L 845.7408 416.575889 
L 847.5264 402.482853 
L 849.312 389.897242 
L 851.0976 379.234125 
L 852.8832 370.831342 
L 854.6688 364.938966 
L 856.4544 361.712138 
L 858.24 361.207477 
L 860.0256 363.383126 
L 861.8112 368.10236 
L 863.5968 375.140541 
L 865.3824 384.195112 
L 867.168 394.898203 
L 868.9536 406.831324 
L 872.5248 432.558749 
L 874.3104 428.34927 
L 876.096 416.111724 
L 877.8816 404.910759 
L 879.6672 395.119201 
L 881.4528 387.050175 
L 883.2384 380.947216 
L 885.024 376.977166 
L 886.8096 375.226016 
L 888.5952 375.697813 
L 890.3808 378.316577 
L 892.1664 382.931096 
L 893.952 389.322355 
L 895.7376 397.213259 
L 897.5232 406.280242 
L 901.0944 426.49476 
L 902.88 436.878139 
L 904.6656 426.801627 
L 906.4512 417.388623 
L 908.2368 408.955739 
L 910.0224 401.774644 
L 911.808 396.063415 
L 913.5936 391.980126 
L 915.3792 389.618828 
L 917.1648 389.008033 
L 918.9504 390.111662 
L 920.736 392.832382 
L 922.5216 397.017115 
L 924.3072 402.464472 
L 926.0928 408.933762 
L 927.8784 416.155197 
L 931.4496 431.696078 
L 933.2352 434.331437 
L 935.0208 426.992964 
L 936.8064 420.300808 
L 938.592 414.471963 
L 940.3776 409.683119 
L 942.1632 406.065489 
L 943.9488 403.701547 
L 945.7344 402.623747 
L 947.52 402.815204 
L 949.3056 404.212262 
L 951.0912 406.708765 
L 952.8768 410.161831 
L 954.6624 414.398831 
L 956.448 419.225282 
L 961.8048 435.147067 
L 963.5904 433.515185 
L 965.376 428.830803 
L 967.1616 424.714706 
L 968.9472 421.289742 
L 970.7328 418.645142 
L 972.5184 416.834532 
L 974.304 415.875474 
L 976.0896 415.750527 
L 977.8752 416.409696 
L 979.6608 417.77415 
L 981.4464 419.740979 
L 983.232 422.188776 
L 985.0176 424.98376 
L 992.16 436.880017 
L 993.9456 434.350214 
L 995.7312 432.193992 
L 997.5168 430.471703 
L 999.3024 429.218912 
L 1001.088 428.446074 
L 1002.8736 428.139402 
L 1004.6592 428.262845 
L 1006.4448 428.761054 
L 1008.2304 429.563164 
L 1010.016 430.587204 
L 1017.1584 435.145994 
L 1018.944 435.999847 
L 1020.7296 436.617524 
L 1022.5152 436.795355 
L 1024.3008 436.727898 
L 1026.0864 436.826714 
L 1027.872 436.37061 
L 1029.6576 435.709383 
L 1033.2288 434.017888 
L 1035.0144 433.135946 
L 1035.0144 433.135946 
" clip-path="url(#p54e16e1afc)" style="fill: none; stroke: #ff0000; stroke-width: 1.5; stroke-linecap: square"/>
   </g>
   <g id="line2d_24">
    <path d="M 144 133.92 
L 145.7856 139.289506 
L 147.5712 155.204596 
L 149.3568 181.100535 
L 151.1424 216.058455 
L 152.928 258.838003 
L 154.7136 307.921408 
L 158.2848 417.873078 
L 161.856 530.452505 
L 163.6416 582.734668 
L 165.4272 629.835052 
L 167.2128 670.085085 
L 168.9984 702.059719 
L 170.784 724.62796 
L 172.5696 736.992921 
L 174.3552 738.72 
L 176.1408 729.752174 
L 177.9264 710.411876 
L 179.712 681.389386 
L 181.4976 643.718167 
L 183.2832 598.738014 
L 185.0688 548.04734 
L 188.64 436.87278 
L 192.2112 325.832852 
L 193.9968 275.301527 
L 195.7824 230.528247 
L 197.568 193.096254 
L 199.3536 164.327266 
L 201.1392 145.234755 
L 202.9248 136.488187 
L 204.7104 138.389529 
L 206.496 150.862807 
L 208.2816 173.457112 
L 210.0672 205.362915 
L 211.8528 245.441102 
L 213.6384 292.263701 
L 215.424 344.164819 
L 222.5664 564.390242 
L 224.352 612.808416 
L 226.1376 654.942947 
L 227.9232 689.307367 
L 229.7088 714.692439 
L 231.4944 730.208756 
L 233.28 735.317944 
L 235.0656 729.851361 
L 236.8512 714.015637 
L 238.6368 688.384889 
L 240.4224 653.879887 
L 242.208 611.734944 
L 243.9936 563.4537 
L 247.5648 455.513665 
L 251.136 345.26244 
L 252.9216 294.158794 
L 254.7072 248.184784 
L 256.4928 208.961923 
L 258.2784 177.86989 
L 260.064 155.997933 
L 261.8496 144.10667 
L 263.6352 142.601605 
L 265.4208 151.519305 
L 267.2064 170.526695 
L 268.992 198.933484 
L 270.7776 235.717247 
L 272.5632 279.560264 
L 274.3488 328.896785 
L 277.92 436.889813 
L 281.4912 544.487125 
L 283.2768 593.355352 
L 285.0624 636.590549 
L 286.848 672.671678 
L 288.6336 700.33428 
L 290.4192 718.614837 
L 292.2048 726.884371 
L 293.9904 724.870095 
L 295.776 712.664372 
L 297.5616 690.720699 
L 299.3472 659.836868 
L 301.1328 621.125947 
L 302.9184 575.976125 
L 306.4896 472.981199 
L 310.0608 365.385594 
L 311.8464 314.622116 
L 313.632 268.303878 
L 315.4176 228.061329 
L 317.2032 195.305731 
L 318.9888 171.179605 
L 320.7744 156.516835 
L 322.56 151.813828 
L 324.3456 157.212722 
L 326.1312 172.497207 
L 327.9168 197.10109 
L 329.7024 230.129254 
L 331.488 270.390238 
L 333.2736 316.439264 
L 336.8448 419.174173 
L 340.416 523.840063 
L 342.2016 572.25724 
L 343.9872 615.749519 
L 345.7728 652.790142 
L 347.5584 682.08528 
L 349.344 702.619269 
L 351.1296 713.68986 
L 352.9152 714.932232 
L 354.7008 706.330964 
L 356.4864 688.219568 
L 358.272 661.267643 
L 360.0576 626.456126 
L 361.8432 585.041575 
L 363.6288 538.510769 
L 367.2 436.871902 
L 370.7712 335.872107 
L 372.5568 290.09756 
L 374.3424 249.664547 
L 376.128 215.987593 
L 377.9136 190.237201 
L 379.6992 173.299123 
L 381.4848 165.743889 
L 383.2704 167.807607 
L 385.056 179.384712 
L 386.8416 200.032859 
L 388.6272 228.989751 
L 390.4128 265.201274 
L 392.1984 307.359887 
L 395.7696 403.311777 
L 399.3408 503.275245 
L 401.1264 550.338541 
L 402.912 593.214729 
L 404.6976 630.401168 
L 406.4832 660.602398 
L 408.2688 682.775313 
L 410.0544 696.165212 
L 411.84 700.331478 
L 413.6256 695.162009 
L 415.4112 680.87594 
L 417.1968 658.014591 
L 418.9824 627.421021 
L 420.768 590.208951 
L 422.5536 547.722195 
L 426.1248 453.152711 
L 429.696 357.079066 
L 431.4816 312.735957 
L 433.2672 272.969584 
L 435.0528 239.168499 
L 436.8384 212.504052 
L 438.624 193.88977 
L 440.4096 183.950059 
L 442.1952 182.999292 
L 443.9808 191.032 
L 445.7664 207.724454 
L 447.552 232.44753 
L 449.3376 264.290369 
L 451.1232 302.093919 
L 452.9088 344.493144 
L 461.8368 569.821718 
L 463.6224 606.313986 
L 465.408 636.641159 
L 467.1936 659.759187 
L 468.9792 674.884402 
L 470.7648 681.520071 
L 472.5504 679.472618 
L 474.336 668.85703 
L 476.1216 650.091266 
L 477.9072 623.879954 
L 479.6928 591.187986 
L 481.4784 553.205006 
L 485.0496 466.982288 
L 488.6208 377.437175 
L 490.4064 335.381313 
L 492.192 297.135085 
L 493.9776 264.031969 
L 495.7632 237.216216 
L 497.5488 217.603275 
L 499.3344 205.848546 
L 501.12 202.325535 
L 502.9056 207.114122 
L 504.6912 219.999327 
L 506.4768 240.480538 
L 508.2624 267.790827 
L 510.048 300.925622 
L 511.8336 338.679643 
L 515.4048 422.489215 
L 518.976 507.348639 
L 520.7616 546.412601 
L 522.5472 581.375815 
L 524.3328 611.025193 
L 526.1184 634.34301 
L 527.904 650.541845 
L 529.6896 659.091132 
L 531.4752 659.734447 
L 533.2608 652.496956 
L 535.0464 637.682823 
L 536.832 615.862727 
L 538.6176 587.852001 
L 540.4032 554.680216 
L 542.1888 517.553342 
L 549.3312 357.222195 
L 551.1168 321.314486 
L 552.9024 289.72498 
L 554.688 263.54312 
L 556.4736 243.659683 
L 558.2592 230.736494 
L 560.0448 225.184463 
L 561.8304 227.150671 
L 563.616 236.514918 
L 565.4016 252.895775 
L 567.1872 275.665868 
L 568.9728 303.975801 
L 570.7584 336.785789 
L 574.3296 411.029068 
L 577.9008 487.836353 
L 579.6864 523.801863 
L 581.472 556.437644 
L 583.2576 584.613156 
L 585.0432 607.363992 
L 586.8288 623.924884 
L 588.6144 633.755399 
L 590.4 636.557462 
L 592.1856 632.284149 
L 593.9712 621.139497 
L 595.7568 603.569398 
L 597.5424 580.243984 
L 599.328 552.032165 
L 601.1136 519.969313 
L 604.6848 449.032096 
L 608.256 377.506471 
L 610.0416 344.69023 
L 611.8272 315.392247 
L 613.6128 290.620748 
L 615.3984 271.215569 
L 617.184 257.819707 
L 618.9696 250.858098 
L 620.7552 250.524308 
L 622.5408 256.775549 
L 624.3264 269.336133 
L 626.112 287.70917 
L 627.8976 311.196026 
L 629.6832 338.92279 
L 631.4688 369.872744 
L 638.6112 502.743435 
L 640.3968 532.320022 
L 642.1824 558.264394 
L 643.968 579.691119 
L 645.7536 595.882649 
L 647.5392 606.313296 
L 649.3248 610.666168 
L 651.1104 608.842544 
L 652.896 600.963401 
L 654.6816 587.363132 
L 656.4672 568.575729 
L 658.2528 545.313995 
L 660.0384 518.442606 
L 663.6096 457.892354 
L 667.1808 395.571714 
L 668.9664 366.506626 
L 670.752 340.210429 
L 672.5376 317.586044 
L 674.3232 299.397456 
L 676.1088 286.243955 
L 677.8944 278.540493 
L 679.68 276.504776 
L 681.4656 280.151505 
L 683.2512 289.293893 
L 685.0368 303.552324 
L 686.8224 322.369792 
L 688.608 345.033485 
L 690.3936 370.701696 
L 693.9648 427.230799 
L 697.536 483.900404 
L 699.3216 509.780249 
L 701.1072 532.804734 
L 702.8928 552.190711 
L 704.6784 567.292529 
L 706.464 577.623466 
L 708.2496 582.871272 
L 710.0352 582.90733 
L 711.8208 577.789186 
L 713.6064 567.75642 
L 715.392 553.220092 
L 717.1776 534.746191 
L 718.9632 513.03377 
L 720.7488 488.888578 
L 727.8912 386.100021 
L 729.6768 363.420871 
L 731.4624 343.611102 
L 733.248 327.336305 
L 735.0336 315.128599 
L 736.8192 307.369342 
L 738.6048 304.277429 
L 740.3904 305.903519 
L 742.176 312.130326 
L 743.9616 322.678897 
L 745.7472 337.120565 
L 747.5328 354.894093 
L 749.3184 375.327328 
L 752.8896 421.084415 
L 756.4608 467.818597 
L 758.2464 489.482333 
L 760.032 508.993821 
L 761.8176 525.692246 
L 763.6032 539.025646 
L 765.3888 548.569064 
L 767.1744 554.037927 
L 768.96 555.296234 
L 770.7456 552.359326 
L 772.5312 545.391214 
L 774.3168 534.696643 
L 776.1024 520.708237 
L 777.888 503.969262 
L 779.6736 485.112682 
L 783.2448 443.881966 
L 786.816 402.925052 
L 788.6016 384.359527 
L 790.3872 367.935754 
L 792.1728 354.20167 
L 793.9584 343.601145 
L 795.744 336.459776 
L 797.5296 332.97512 
L 799.3152 333.211662 
L 801.1008 337.100624 
L 802.8864 344.444548 
L 804.672 354.926403 
L 806.4576 368.122843 
L 808.2432 383.521045 
L 811.8144 418.544901 
L 815.3856 454.905112 
L 817.1712 471.970915 
L 818.9568 487.495319 
L 820.7424 500.955847 
L 822.528 511.912731 
L 824.3136 520.023171 
L 826.0992 525.051868 
L 827.8848 526.877512 
L 829.6704 525.495059 
L 831.456 521.013793 
L 833.2416 513.651313 
L 835.0272 503.723738 
L 836.8128 491.632547 
L 838.5984 477.848594 
L 842.1696 447.322074 
L 845.7408 416.575889 
L 847.5264 402.482853 
L 849.312 389.897242 
L 851.0976 379.234125 
L 852.8832 370.831342 
L 854.6688 364.938966 
L 856.4544 361.712138 
L 858.24 361.207477 
L 860.0256 363.383126 
L 861.8112 368.10236 
L 863.5968 375.140541 
L 865.3824 384.195112 
L 867.168 394.898203 
L 868.9536 406.831324 
L 876.096 457.650233 
L 877.8816 468.851198 
L 879.6672 478.642755 
L 881.4528 486.711782 
L 883.2384 492.81474 
L 885.024 496.784791 
L 886.8096 498.53594 
L 888.5952 498.064143 
L 890.3808 495.445379 
L 892.1664 490.83086 
L 893.952 484.439601 
L 895.7376 476.548697 
L 897.5232 467.481714 
L 901.0944 447.267196 
L 904.6656 426.801627 
L 906.4512 417.388623 
L 908.2368 408.955739 
L 910.0224 401.774644 
L 911.808 396.063415 
L 913.5936 391.980126 
L 915.3792 389.618828 
L 917.1648 389.008033 
L 918.9504 390.111662 
L 920.736 392.832382 
L 922.5216 397.017115 
L 924.3072 402.464472 
L 926.0928 408.933762 
L 927.8784 416.155197 
L 935.0208 446.768993 
L 936.8064 453.461148 
L 938.592 459.289993 
L 940.3776 464.078837 
L 942.1632 467.696467 
L 943.9488 470.060409 
L 945.7344 471.138209 
L 947.52 470.946752 
L 949.3056 469.549694 
L 951.0912 467.053191 
L 952.8768 463.600126 
L 954.6624 459.363125 
L 956.448 454.536674 
L 965.376 428.830803 
L 967.1616 424.714706 
L 968.9472 421.289742 
L 970.7328 418.645142 
L 972.5184 416.834532 
L 974.304 415.875474 
L 976.0896 415.750527 
L 977.8752 416.409696 
L 979.6608 417.77415 
L 981.4464 419.740979 
L 983.232 422.188776 
L 985.0176 424.98376 
L 992.16 436.881939 
L 993.9456 439.411742 
L 995.7312 441.567965 
L 997.5168 443.290253 
L 999.3024 444.543044 
L 1001.088 445.315882 
L 1002.8736 445.622554 
L 1004.6592 445.499111 
L 1006.4448 445.000902 
L 1008.2304 444.198792 
L 1010.016 443.174752 
L 1017.1584 438.615962 
L 1018.944 437.762109 
L 1020.7296 437.144432 
L 1022.5152 436.795355 
L 1024.3008 436.727898 
L 1026.0864 436.935243 
L 1027.872 437.391347 
L 1029.6576 438.052574 
L 1033.2288 439.744068 
L 1035.0144 440.626011 
L 1035.0144 440.626011 
" clip-path="url(#p54e16e1afc)" style="fill: none; stroke: #0000ff; stroke-width: 1.5; stroke-linecap: square"/>
   </g>
   <g id="patch_3">
    <path d="M 144 768.96 
L 144 103.68 
" style="fill: none; stroke: #000000; stroke-width: 0.8; stroke-linejoin: miter; stroke-linecap: square"/>
   </g>
   <g id="patch_4">
    <path d="M 1036.8 768.96 
L 1036.8 103.68 
" style="fill: none; stroke: #000000; stroke-width: 0.8; stroke-linejoin: miter; stroke-linecap: square"/>
   </g>
   <g id="patch_5">
    <path d="M 144 768.96 
L 1036.8 768.96 
" style="fill: none; stroke: #000000; stroke-width: 0.8; stroke-linejoin: miter; stroke-linecap: square"/>
   </g>
   <g id="patch_6">
    <path d="M 144 103.68 
L 1036.8 103.68 
" style="fill: none; stroke: #000000; stroke-width: 0.8; stroke-linejoin: miter; stroke-linecap: square"/>
   </g>
  </g>
 </g>
 <defs>
  <clipPath id="p54e16e1afc">
   <rect x="144" y="103.68" width="892.8" height="665.28"/>
  </clipPath>
 </defs>
</svg>
