<?xml version="1.0" encoding="utf-8" standalone="no"?>
<!DOCTYPE svg PUBLIC "-//W3C//DTD SVG 1.1//EN"
  "http://www.w3.org/Graphics/SVG/1.1/DTD/svg11.dtd">
<svg xmlns:xlink="http://www.w3.org/1999/xlink" width="1152pt" height="432pt" viewBox="0 0 1152 432" xmlns="http://www.w3.org/2000/svg" version="1.1">
 <metadata>
  <rdf:RDF xmlns:dc="http://purl.org/dc/elements/1.1/" xmlns:cc="http://creativecommons.org/ns#" xmlns:rdf="http://www.w3.org/1999/02/22-rdf-syntax-ns#">
   <cc:Work>
    <dc:type rdf:resource="http://purl.org/dc/dcmitype/StillImage"/>
    <dc:date>2025-06-19T09:05:24.191111</dc:date>
    <dc:format>image/svg+xml</dc:format>
    <dc:creator>
     <cc:Agent>
      <dc:title>Matplotlib v3.9.0, https://matplotlib.org/</dc:title>
     </cc:Agent>
    </dc:creator>
   </cc:Work>
  </rdf:RDF>
 </metadata>
 <defs>
  <style type="text/css">*{stroke-linejoin: round; stroke-linecap: butt}</style>
 </defs>
 <g id="figure_1">
  <g id="patch_1">
   <path d="M 0 432 
L 1152 432 
L 1152 0 
L 0 0 
z
" style="fill: #ffffff"/>
  </g>
  <g id="axes_1">
   <g id="patch_2">
    <path d="M 144 384.48 
L 1036.8 384.48 
L 1036.8 51.84 
L 144 51.84 
z
" style="fill: #ffffff"/>
   </g>
   <g id="matplotlib.axis_1">
    <g id="xtick_1">
     <g id="line2d_1">
      <defs>
       <path id="m5b64dae7a3" d="M 0 0 
L 0 3.5 
" style="stroke: #000000; stroke-width: 0.8"/>
      </defs>
      <g>
       <use xlink:href="#m5b64dae7a3" x="144" y="384.48" style="stroke: #000000; stroke-width: 0.8"/>
      </g>
     </g>
    </g>
    <g id="xtick_2">
     <g id="line2d_2">
      <g>
       <use xlink:href="#m5b64dae7a3" x="203.52" y="384.48" style="stroke: #000000; stroke-width: 0.8"/>
      </g>
     </g>
    </g>
    <g id="xtick_3">
     <g id="line2d_3">
      <g>
       <use xlink:href="#m5b64dae7a3" x="263.04" y="384.48" style="stroke: #000000; stroke-width: 0.8"/>
      </g>
     </g>
    </g>
    <g id="xtick_4">
     <g id="line2d_4">
      <g>
       <use xlink:href="#m5b64dae7a3" x="322.56" y="384.48" style="stroke: #000000; stroke-width: 0.8"/>
      </g>
     </g>
    </g>
    <g id="xtick_5">
     <g id="line2d_5">
      <g>
       <use xlink:href="#m5b64dae7a3" x="382.08" y="384.48" style="stroke: #000000; stroke-width: 0.8"/>
      </g>
     </g>
    </g>
    <g id="xtick_6">
     <g id="line2d_6">
      <g>
       <use xlink:href="#m5b64dae7a3" x="441.6" y="384.48" style="stroke: #000000; stroke-width: 0.8"/>
      </g>
     </g>
    </g>
    <g id="xtick_7">
     <g id="line2d_7">
      <g>
       <use xlink:href="#m5b64dae7a3" x="501.12" y="384.48" style="stroke: #000000; stroke-width: 0.8"/>
      </g>
     </g>
    </g>
    <g id="xtick_8">
     <g id="line2d_8">
      <g>
       <use xlink:href="#m5b64dae7a3" x="560.64" y="384.48" style="stroke: #000000; stroke-width: 0.8"/>
      </g>
     </g>
    </g>
    <g id="xtick_9">
     <g id="line2d_9">
      <g>
       <use xlink:href="#m5b64dae7a3" x="620.16" y="384.48" style="stroke: #000000; stroke-width: 0.8"/>
      </g>
     </g>
    </g>
    <g id="xtick_10">
     <g id="line2d_10">
      <g>
       <use xlink:href="#m5b64dae7a3" x="679.68" y="384.48" style="stroke: #000000; stroke-width: 0.8"/>
      </g>
     </g>
    </g>
    <g id="xtick_11">
     <g id="line2d_11">
      <g>
       <use xlink:href="#m5b64dae7a3" x="739.2" y="384.48" style="stroke: #000000; stroke-width: 0.8"/>
      </g>
     </g>
    </g>
    <g id="xtick_12">
     <g id="line2d_12">
      <g>
       <use xlink:href="#m5b64dae7a3" x="798.72" y="384.48" style="stroke: #000000; stroke-width: 0.8"/>
      </g>
     </g>
    </g>
    <g id="xtick_13">
     <g id="line2d_13">
      <g>
       <use xlink:href="#m5b64dae7a3" x="858.24" y="384.48" style="stroke: #000000; stroke-width: 0.8"/>
      </g>
     </g>
    </g>
    <g id="xtick_14">
     <g id="line2d_14">
      <g>
       <use xlink:href="#m5b64dae7a3" x="917.76" y="384.48" style="stroke: #000000; stroke-width: 0.8"/>
      </g>
     </g>
    </g>
    <g id="xtick_15">
     <g id="line2d_15">
      <g>
       <use xlink:href="#m5b64dae7a3" x="977.28" y="384.48" style="stroke: #000000; stroke-width: 0.8"/>
      </g>
     </g>
    </g>
   </g>
   <g id="matplotlib.axis_2">
    <g id="ytick_1">
     <g id="line2d_16">
      <defs>
       <path id="m9d87f54203" d="M 0 0 
L -3.5 0 
" style="stroke: #000000; stroke-width: 0.8"/>
      </defs>
      <g>
       <use xlink:href="#m9d87f54203" x="144" y="369.36" style="stroke: #000000; stroke-width: 0.8"/>
      </g>
     </g>
    </g>
    <g id="ytick_2">
     <g id="line2d_17">
      <g>
       <use xlink:href="#m9d87f54203" x="144" y="293.76" style="stroke: #000000; stroke-width: 0.8"/>
      </g>
     </g>
    </g>
    <g id="ytick_3">
     <g id="line2d_18">
      <g>
       <use xlink:href="#m9d87f54203" x="144" y="218.16" style="stroke: #000000; stroke-width: 0.8"/>
      </g>
     </g>
    </g>
    <g id="ytick_4">
     <g id="line2d_19">
      <g>
       <use xlink:href="#m9d87f54203" x="144" y="142.56" style="stroke: #000000; stroke-width: 0.8"/>
      </g>
     </g>
    </g>
    <g id="ytick_5">
     <g id="line2d_20">
      <g>
       <use xlink:href="#m9d87f54203" x="144" y="66.96" style="stroke: #000000; stroke-width: 0.8"/>
      </g>
     </g>
    </g>
   </g>
   <g id="line2d_21">
    <path d="M 144 218.16 
L 1038.5856 218.16 
L 1038.5856 218.16 
" clip-path="url(#p5175483058)" style="fill: none; stroke: #000000; stroke-width: 1.5; stroke-linecap: square"/>
   </g>
   <g id="line2d_22">
    <path d="M 144 66.96 
L 145.7856 69.639058 
L 147.5712 77.581167 
L 149.3568 90.504506 
L 151.1424 107.950517 
L 152.928 129.300191 
L 154.7136 153.796066 
L 158.2848 208.669716 
L 161.856 264.855359 
L 163.6416 290.94832 
L 165.4272 314.455313 
L 167.2128 334.543583 
L 168.9984 350.501908 
L 170.784 361.765817 
L 172.5696 367.937581 
L 174.3552 368.800275 
L 176.1408 364.325414 
L 177.9264 354.673889 
L 179.712 340.190176 
L 181.4976 321.390025 
L 183.2832 298.942074 
L 185.0688 273.64403 
L 188.64 218.16 
L 192.2112 162.74259 
L 193.9968 137.523378 
L 195.7824 115.177732 
L 197.568 96.495823 
L 199.3536 82.137306 
L 201.1392 72.608002 
L 202.9248 68.24205 
L 204.7104 69.19018 
L 206.496 75.414502 
L 208.2816 86.690009 
L 210.0672 102.612709 
L 211.8528 122.614125 
L 213.6384 145.981613 
L 217.2096 199.400134 
L 220.7808 255.346202 
L 222.5664 281.792707 
L 224.352 305.957352 
L 226.1376 326.986115 
L 227.9232 344.137125 
L 229.7088 356.806859 
L 231.4944 364.551414 
L 233.28 367.102074 
L 235.0656 364.374645 
L 236.8512 356.472224 
L 238.6368 343.68131 
L 240.4224 326.461409 
L 242.208 305.428512 
L 243.9936 281.333026 
L 247.5648 227.463399 
L 251.136 172.439716 
L 252.9216 146.93491 
L 254.7072 123.990035 
L 256.4928 104.414363 
L 258.2784 88.896473 
L 260.064 77.980006 
L 261.8496 72.044591 
L 263.6352 71.292632 
L 265.4208 75.74241 
L 267.2064 85.227723 
L 268.992 99.404093 
L 270.7776 117.761279 
L 272.5632 139.641664 
L 274.3488 164.263843 
L 277.92 218.16 
L 281.4912 271.859282 
L 283.2768 296.248498 
L 285.0624 317.826549 
L 286.848 335.83431 
L 288.6336 349.640698 
L 290.4192 358.764824 
L 292.2048 362.892753 
L 293.9904 361.888315 
L 295.776 355.797577 
L 297.5616 344.846838 
L 299.3472 329.434229 
L 301.1328 310.115227 
L 302.9184 287.582619 
L 306.4896 236.181099 
L 310.0608 182.482883 
L 311.8464 157.147894 
L 313.632 134.031262 
L 315.4176 113.946718 
L 317.2032 97.598604 
L 318.9888 85.557144 
L 320.7744 78.238535 
L 322.56 75.89055 
L 324.3456 78.584153 
L 326.1312 86.211422 
L 327.9168 98.489813 
L 329.7024 114.972623 
L 331.488 135.06525 
L 333.2736 158.046663 
L 336.8448 209.318502 
L 340.416 261.554672 
L 342.2016 285.718733 
L 343.9872 307.425047 
L 345.7728 325.911635 
L 347.5584 340.532759 
L 349.344 350.781505 
L 351.1296 356.307371 
L 352.9152 356.928255 
L 354.7008 352.63643 
L 356.4864 343.598316 
L 358.272 330.14806 
L 360.0576 312.775199 
L 361.8432 292.106824 
L 363.6288 268.884927 
L 367.2 218.16 
L 370.7712 167.753383 
L 372.5568 144.908144 
L 374.3424 124.728586 
L 376.128 107.920681 
L 377.9136 95.068616 
L 379.6992 86.614474 
L 381.4848 82.843019 
L 383.2704 83.872115 
L 385.056 89.649108 
L 386.8416 99.953265 
L 388.6272 114.404171 
L 390.4128 132.475771 
L 392.1984 153.515528 
L 395.7696 201.402023 
L 399.3408 251.291216 
L 401.1264 274.779533 
L 402.912 296.178321 
L 404.6976 314.737637 
L 406.4832 329.810932 
L 408.2688 340.877595 
L 410.0544 347.560948 
L 411.84 349.641064 
L 413.6256 347.061965 
L 415.4112 339.932985 
L 417.1968 328.524254 
L 418.9824 313.256494 
L 420.768 294.685509 
L 422.5536 273.481942 
L 426.1248 226.285273 
L 429.696 178.337289 
L 431.4816 156.206501 
L 433.2672 136.3597 
L 435.0528 119.489892 
L 436.8384 106.181687 
L 438.624 96.891028 
L 440.4096 91.929565 
L 442.1952 91.454223 
L 443.9808 95.462301 
L 445.7664 103.792265 
L 447.552 116.130165 
L 449.3376 132.021439 
L 451.1232 150.887658 
L 452.9088 172.047588 
L 461.8368 284.50338 
L 463.6224 302.716196 
L 465.408 317.852294 
L 467.1936 329.390593 
L 468.9792 336.939961 
L 470.7648 340.252463 
L 472.5504 339.231463 
L 474.336 333.934318 
L 476.1216 324.569592 
L 477.9072 311.488918 
L 479.6928 295.173824 
L 481.4784 276.21801 
L 485.0496 233.187089 
L 488.6208 188.497444 
L 490.4064 167.508224 
L 492.192 148.420149 
L 493.9776 131.89874 
L 495.7632 118.515078 
L 497.5488 108.726063 
L 499.3344 102.858814 
L 501.12 101.099764 
L 502.9056 103.488809 
L 504.6912 109.918686 
L 506.4768 120.139581 
L 508.2624 133.768766 
L 510.048 150.304909 
L 511.8336 169.146506 
L 515.4048 210.97319 
L 518.976 253.324425 
L 520.7616 272.820506 
L 522.5472 290.270146 
L 524.3328 305.067911 
L 526.1184 316.70586 
L 527.904 324.790989 
L 529.6896 329.058482 
L 531.4752 329.380336 
L 533.2608 325.769085 
L 535.0464 318.376498 
L 536.832 307.487361 
L 538.6176 293.508562 
L 540.4032 276.953909 
L 542.1888 258.425253 
L 551.1168 160.487431 
L 552.9024 144.721493 
L 554.688 131.654258 
L 556.4736 121.73031 
L 558.2592 115.279972 
L 560.0448 112.508342 
L 561.8304 113.488854 
L 563.616 118.161544 
L 565.4016 126.336079 
L 567.1872 137.699379 
L 568.9728 151.827554 
L 570.7584 168.201695 
L 574.3296 205.254021 
L 577.9008 243.586533 
L 579.6864 261.536192 
L 581.472 277.824201 
L 583.2576 291.886326 
L 585.0432 303.241237 
L 586.8288 311.506991 
L 588.6144 316.413848 
L 590.4 317.813021 
L 592.1856 315.681066 
L 593.9712 310.119785 
L 595.7568 301.351688 
L 597.5424 289.711194 
L 599.328 275.631933 
L 601.1136 259.630615 
L 604.6848 224.228155 
L 608.256 188.531494 
L 610.0416 172.153521 
L 611.8272 157.531295 
L 613.6128 145.16801 
L 615.3984 135.482824 
L 617.184 128.79666 
L 618.9696 125.321616 
L 620.7552 125.154319 
L 622.5408 128.273441 
L 624.3264 134.541418 
L 626.112 143.710289 
L 627.8976 155.431406 
L 629.6832 169.268642 
L 631.4688 184.714596 
L 638.6112 251.026703 
L 640.3968 265.787877 
L 642.1824 278.736421 
L 643.968 289.430423 
L 645.7536 297.511758 
L 647.5392 302.718047 
L 649.3248 304.891116 
L 651.1104 303.981671 
L 652.896 300.050066 
L 654.6816 293.263163 
L 656.4672 283.887441 
L 658.2528 272.278623 
L 660.0384 258.868227 
L 663.6096 228.649673 
L 667.1808 197.547078 
L 668.9664 183.041273 
L 670.752 169.917236 
L 672.5376 158.6256 
L 674.3232 149.547667 
L 676.1088 142.982544 
L 677.8944 139.137342 
L 679.68 138.120735 
L 681.4656 139.940083 
L 683.2512 144.502186 
L 685.0368 151.617611 
L 686.8224 161.008392 
L 688.608 172.318799 
L 690.3936 185.128775 
L 693.9648 213.340579 
L 697.536 241.622964 
L 699.3216 254.539121 
L 701.1072 266.030347 
L 702.8928 275.705781 
L 704.6784 283.24318 
L 706.464 288.399618 
L 708.2496 291.019238 
L 710.0352 291.037831 
L 711.8208 288.484094 
L 713.6064 283.477577 
L 715.392 276.223406 
L 717.1776 267.004035 
L 718.9632 256.168326 
L 720.7488 244.118395 
L 727.8912 192.819484 
L 729.6768 181.500692 
L 731.4624 171.61384 
L 733.248 163.491119 
L 735.0336 157.39811 
L 736.8192 153.525156 
L 738.6048 151.98152 
L 740.3904 152.792504 
L 742.176 155.899594 
L 743.9616 161.16359 
L 745.7472 168.370575 
L 747.5328 177.240465 
L 749.3184 187.437821 
L 752.8896 210.273579 
L 756.4608 233.597372 
L 758.2464 244.409317 
L 760.032 254.147221 
L 761.8176 262.481283 
L 763.6032 269.136018 
L 765.3888 273.899328 
L 767.1744 276.629175 
L 768.96 277.257666 
L 770.7456 275.792439 
L 772.5312 272.31533 
L 774.3168 266.978412 
L 776.1024 259.997581 
L 777.888 251.643952 
L 779.6736 242.23341 
L 783.2448 221.656553 
L 786.816 201.215984 
L 788.6016 191.950262 
L 790.3872 183.753352 
L 792.1728 176.898724 
L 793.9584 171.607914 
L 795.744 168.043433 
L 797.5296 166.30389 
L 799.3152 166.421485 
L 801.1008 168.361909 
L 802.8864 172.026632 
L 804.672 177.257447 
L 806.4576 183.843086 
L 808.2432 191.527626 
L 811.8144 209.006729 
L 815.3856 227.153088 
L 817.1712 235.670269 
L 818.9568 243.418255 
L 820.7424 250.136283 
L 822.528 255.604867 
L 824.3136 259.652915 
L 826.0992 262.162982 
L 827.8848 263.074511 
L 829.6704 262.384971 
L 831.456 260.148888 
L 833.2416 256.474846 
L 835.0272 251.520599 
L 836.8128 245.486503 
L 838.5984 238.607538 
L 842.1696 223.37285 
L 845.7408 208.02825 
L 847.5264 200.994688 
L 849.312 194.713378 
L 851.0976 189.391476 
L 852.8832 185.197599 
L 854.6688 182.256562 
L 856.4544 180.645802 
L 858.24 180.39359 
L 860.0256 181.479048 
L 861.8112 183.833953 
L 863.5968 187.346205 
L 865.3824 191.864817 
L 867.168 197.206205 
L 868.9536 203.161518 
L 876.096 228.523711 
L 877.8816 234.11392 
L 879.6672 239.000783 
L 881.4528 243.028023 
L 883.2384 246.074088 
L 885.024 248.055704 
L 886.8096 248.929944 
L 888.5952 248.694778 
L 890.3808 247.388116 
L 892.1664 245.085412 
L 893.952 241.895962 
L 895.7376 237.958047 
L 897.5232 233.433145 
L 901.0944 223.344856 
L 904.6656 213.131076 
L 906.4512 208.433242 
L 908.2368 204.224514 
L 910.0224 200.640479 
L 911.808 197.789981 
L 913.5936 195.751915 
L 915.3792 194.573231 
L 917.1648 194.268163 
L 918.9504 194.818717 
L 920.736 196.176322 
L 922.5216 198.264591 
L 924.3072 200.983024 
L 926.0928 204.211503 
L 929.664 211.651004 
L 933.2352 219.431296 
L 935.0208 223.093748 
L 936.8064 226.433678 
L 938.592 229.342787 
L 940.3776 231.732889 
L 942.1632 233.538495 
L 943.9488 234.718436 
L 945.7344 235.256512 
L 947.52 235.161141 
L 949.3056 234.464086 
L 951.0912 233.21832 
L 952.8768 231.495146 
L 954.6624 229.380714 
L 956.448 226.97208 
L 965.376 214.143152 
L 967.1616 212.088872 
L 968.9472 210.379496 
L 970.7328 209.059559 
L 972.5184 208.155829 
L 974.304 207.677075 
L 976.0896 207.614597 
L 977.8752 207.94345 
L 979.6608 208.624293 
L 981.4464 209.605774 
L 983.232 210.827303 
L 986.8032 213.720465 
L 990.3744 216.752747 
L 992.16 218.16 
L 993.9456 219.422556 
L 995.7312 220.498685 
L 997.5168 221.358263 
L 999.3024 221.983539 
L 1001.088 222.369293 
L 1002.8736 222.522402 
L 1004.6592 222.460856 
L 1006.4448 222.212276 
L 1010.016 221.301012 
L 1017.1584 219.026005 
L 1018.944 218.599891 
L 1020.7296 218.291638 
L 1022.5152 218.117429 
L 1024.3008 218.083764 
L 1026.0864 218.18724 
L 1029.6576 218.744855 
L 1038.5856 220.745273 
L 1038.5856 220.745273 
" clip-path="url(#p5175483058)" style="fill: none; stroke: #ff0000; stroke-width: 3; stroke-linecap: square"/>
   </g>
   <g id="line2d_23">
    <path d="M 144 66.96 
L 145.7856 69.519343 
L 147.5712 77.11073 
L 149.3568 89.477163 
L 151.1424 106.199992 
L 152.928 126.713087 
L 154.7136 150.322003 
L 158.2848 203.552548 
L 161.856 258.74442 
L 163.6416 284.742781 
L 165.4272 308.487065 
L 167.2128 329.17344 
L 168.9984 346.101594 
L 170.784 358.698446 
L 172.5696 366.537544 
L 174.3552 369.353507 
L 176.1408 367.051003 
L 177.9264 359.70798 
L 179.712 347.573028 
L 181.4976 331.05696 
L 183.2832 310.718906 
L 185.0688 287.247387 
L 188.64 234.161526 
L 192.2112 178.927158 
L 193.9968 152.838154 
L 195.7824 128.96054 
L 197.568 108.102662 
L 199.3536 90.970638 
L 201.1392 78.144449 
L 202.9248 70.058312 
L 204.7104 66.985972 
L 206.496 69.03144 
L 208.2816 76.125468 
L 210.0672 88.027897 
L 211.8528 104.335786 
L 213.6384 124.49705 
L 215.424 147.829157 
L 218.9952 200.765774 
L 222.5664 256.037895 
L 224.352 282.2153 
L 226.1376 306.224192 
L 227.9232 327.251782 
L 229.7088 344.586206 
L 231.4944 357.640629 
L 233.28 365.973111 
L 235.0656 369.301564 
L 236.8512 367.513309 
L 238.6368 360.668885 
L 240.4224 349.000001 
L 242.208 332.901693 
L 243.9936 312.918948 
L 245.7792 289.728258 
L 249.3504 236.945431 
L 252.9216 181.640305 
L 254.7072 155.376747 
L 256.4928 131.238638 
L 258.2784 110.043143 
L 260.064 92.507809 
L 261.8496 79.226272 
L 263.6352 70.648162 
L 265.4208 67.063881 
L 267.2064 68.59477 
L 268.992 75.189002 
L 270.7776 86.623338 
L 272.5632 102.510684 
L 274.3488 122.313192 
L 276.1344 145.360473 
L 277.92 170.872292 
L 285.0624 279.665813 
L 286.848 303.931065 
L 288.6336 325.292646 
L 290.4192 343.027384 
L 292.2048 356.534894 
L 293.9904 365.357896 
L 295.776 369.197697 
L 297.5616 367.924305 
L 299.3472 361.580831 
L 301.1328 350.382024 
L 302.9184 334.707007 
L 304.704 315.086436 
L 306.4896 292.184542 
L 308.2752 266.77664 
L 315.4176 157.93691 
L 317.2032 133.546598 
L 318.9888 112.020767 
L 320.7744 94.088147 
L 322.56 80.355825 
L 324.3456 71.288689 
L 326.1312 67.193699 
L 327.9168 68.209483 
L 329.7024 74.301654 
L 331.488 85.263969 
L 333.2736 100.725313 
L 335.0592 120.162261 
L 336.8448 142.9168 
L 338.6304 168.218603 
L 347.5584 301.608471 
L 349.344 323.296703 
L 351.1296 341.425664 
L 352.9152 355.381621 
L 354.7008 364.692111 
L 356.4864 369.04194 
L 358.272 368.28385 
L 360.0576 362.443505 
L 361.8432 351.718623 
L 363.6288 336.472281 
L 365.4144 317.220624 
L 367.2 294.615395 
L 368.9856 269.421864 
L 377.9136 135.883627 
L 379.6992 114.034856 
L 381.4848 95.711111 
L 383.2704 81.53272 
L 385.056 71.979675 
L 386.8416 67.375381 
L 388.6272 67.875712 
L 390.4128 73.463729 
L 392.1984 83.950257 
L 393.984 98.980287 
L 395.7696 118.044998 
L 397.5552 140.498977 
L 399.3408 165.582072 
L 408.2688 299.257208 
L 410.0544 321.264641 
L 411.84 339.781596 
L 413.6256 354.181204 
L 415.4112 363.975984 
L 417.1968 368.834347 
L 418.9824 368.591819 
L 420.768 363.25661 
L 422.5536 353.009337 
L 424.3392 338.196908 
L 426.1248 319.32078 
L 427.9104 297.019981 
L 429.696 272.049476 
L 433.2672 217.54249 
L 436.8384 163.118417 
L 438.624 138.248922 
L 440.4096 116.084717 
L 442.1952 97.376143 
L 443.9808 82.756554 
L 445.7664 72.72088 
L 447.552 67.608866 
L 449.3376 67.593571 
L 451.1232 72.675514 
L 452.9088 82.682652 
L 454.6944 97.276206 
L 456.48 115.96213 
L 458.2656 138.107834 
L 460.0512 162.963604 
L 463.6224 217.376239 
L 467.1936 271.894108 
L 468.9792 296.878084 
L 470.7648 319.197158 
L 472.5504 338.095745 
L 474.336 352.934057 
L 476.1216 363.209763 
L 477.9072 368.574991 
L 479.6928 368.848107 
L 481.4784 364.019867 
L 483.264 354.253723 
L 485.0496 339.880297 
L 486.8352 321.386183 
L 488.6208 299.397475 
L 490.4064 274.658575 
L 493.9776 220.344964 
L 497.5488 165.737981 
L 499.3344 140.641671 
L 501.12 118.169646 
L 502.9056 99.082669 
L 504.6912 84.026907 
L 506.4768 73.512052 
L 508.2624 67.894072 
L 510.048 67.363157 
L 511.8336 71.93728 
L 513.6192 81.461591 
L 515.4048 95.613654 
L 517.1904 113.914371 
L 518.976 135.744193 
L 520.7616 160.364099 
L 524.3328 214.57402 
L 527.904 269.265426 
L 529.6896 294.471916 
L 531.4752 317.094962 
L 533.2608 336.368689 
L 535.0464 351.640609 
L 536.832 362.39371 
L 538.6176 368.263959 
L 540.4032 369.052627 
L 542.1888 364.733013 
L 543.9744 355.451354 
L 545.76 341.521869 
L 547.5456 323.416121 
L 549.3312 301.74706 
L 551.1168 277.248263 
L 554.688 223.146688 
L 558.2592 168.375556 
L 560.0448 143.061051 
L 561.8304 120.288927 
L 563.616 100.830105 
L 565.4016 85.34334 
L 567.1872 74.352917 
L 568.9728 68.230903 
L 570.7584 67.18455 
L 572.544 71.249282 
L 574.3296 80.287492 
L 576.1152 93.993204 
L 577.9008 111.902427 
L 579.6864 133.408866 
L 581.472 157.78445 
L 585.0432 211.773032 
L 588.6144 266.619186 
L 590.4 292.039532 
L 592.1856 314.958778 
L 593.9712 334.601023 
L 595.7568 350.301303 
L 597.5424 361.528104 
L 599.328 367.901358 
L 601.1136 369.205306 
L 602.8992 365.395805 
L 604.6848 356.601819 
L 606.4704 343.121059 
L 608.256 325.409899 
L 610.0416 304.067928 
L 611.8272 279.817652 
L 615.3984 225.946698 
L 618.9696 171.030234 
L 620.7552 145.506231 
L 622.5408 122.441831 
L 624.3264 102.61785 
L 626.112 86.705403 
L 627.8976 75.243188 
L 629.6832 68.619242 
L 631.4688 67.057811 
L 633.2544 70.611755 
L 635.04 79.16076 
L 636.8256 92.415411 
L 638.6112 109.926987 
L 640.3968 131.102656 
L 642.1824 155.225543 
L 645.7536 208.974239 
L 649.3248 263.956299 
L 651.1104 289.581766 
L 652.896 312.789338 
L 654.6816 332.793353 
L 656.4672 348.9166 
L 658.2528 360.613245 
L 660.0384 367.487314 
L 661.824 369.306094 
L 663.6096 366.008013 
L 665.3952 357.704722 
L 667.1808 344.677319 
L 668.9664 327.366831 
L 670.752 306.359283 
L 672.5376 282.365858 
L 676.1088 228.744034 
L 679.68 173.701103 
L 681.4656 147.976372 
L 683.2512 124.62762 
L 685.0368 104.445289 
L 686.8224 88.112628 
L 688.608 76.182557 
L 690.3936 69.058955 
L 692.1792 66.982982 
L 693.9648 70.024918 
L 695.7504 78.081781 
L 697.536 90.880817 
L 699.3216 107.988731 
L 701.1072 128.826354 
L 702.8928 152.688257 
L 706.464 206.178602 
L 710.0352 261.277677 
L 711.8208 287.099463 
L 713.6064 310.587389 
L 715.392 330.946301 
L 717.1776 347.486975 
L 718.9632 359.649446 
L 720.7488 367.021969 
L 722.5344 369.354956 
L 724.32 366.569428 
L 726.1056 358.759684 
L 727.8912 346.190114 
L 729.6768 329.286245 
L 731.4624 308.620336 
L 733.248 284.892006 
L 736.8192 231.537733 
L 740.3904 176.387246 
L 742.176 150.470624 
L 743.9616 126.845542 
L 745.7472 106.311795 
L 747.5328 89.56453 
L 749.3184 77.170704 
L 751.104 69.549893 
L 752.8896 66.960091 
L 754.6752 69.488973 
L 756.4608 77.050927 
L 758.2464 89.389951 
L 760.032 106.088324 
L 761.8176 126.580743 
L 763.6032 150.173463 
L 767.1744 203.387081 
L 770.7456 258.584243 
L 772.5312 284.593475 
L 774.3168 308.353685 
L 776.1024 329.060501 
L 777.888 346.01292 
L 779.6736 358.637038 
L 781.4592 366.505481 
L 783.2448 369.351875 
L 785.0304 367.079856 
L 786.816 359.766343 
L 788.6016 347.658924 
L 790.3872 331.167481 
L 792.1728 310.850312 
L 793.9584 287.395228 
L 797.5296 234.326836 
L 801.1008 179.08774 
L 802.8864 152.988131 
L 804.672 129.094834 
L 806.4576 108.216727 
L 808.2432 91.060612 
L 810.0288 78.207287 
L 811.8144 70.091886 
L 813.6 66.989145 
L 815.3856 69.004105 
L 817.1712 76.06855 
L 818.9568 87.943324 
L 820.7424 104.22642 
L 822.528 124.366594 
L 824.3136 147.682027 
L 827.8848 200.600636 
L 831.456 255.876921 
L 833.2416 282.064665 
L 835.0272 306.088996 
L 836.8128 327.136601 
L 838.5984 344.49494 
L 840.384 357.576368 
L 842.1696 365.93803 
L 843.9552 369.296851 
L 845.7408 367.539123 
L 847.5264 360.724353 
L 849.312 349.083245 
L 851.0976 333.009894 
L 852.8832 313.048444 
L 854.6688 289.874664 
L 858.24 237.110385 
L 861.8112 181.801658 
L 863.5968 155.528028 
L 865.3824 131.374726 
L 867.168 110.15943 
L 868.9536 92.600358 
L 870.7392 79.291951 
L 872.5248 70.684748 
L 874.3104 67.070134 
L 876.096 68.570479 
L 877.8816 75.134989 
L 879.6672 86.541432 
L 881.4528 102.403657 
L 883.2384 122.184668 
L 885.024 145.214804 
L 886.8096 170.714407 
L 893.952 279.513899 
L 895.7376 303.794098 
L 897.5232 325.175262 
L 899.3088 342.933559 
L 901.0944 356.467802 
L 902.88 365.319809 
L 904.6656 369.189904 
L 906.4512 367.947071 
L 908.2368 361.633385 
L 910.0224 350.462586 
L 911.808 334.81285 
L 913.5936 315.213977 
L 915.3792 292.329463 
L 917.1648 266.934035 
L 924.3072 158.089443 
L 926.0928 133.684432 
L 927.8784 112.139237 
L 929.664 94.183241 
L 931.4496 80.424323 
L 933.2352 71.328275 
L 935.0208 67.20303 
L 936.8064 68.188244 
L 938.592 74.250565 
L 940.3776 85.184759 
L 942.1632 100.620663 
L 943.9488 120.035714 
L 945.7344 142.772641 
L 947.52 168.061711 
L 956.448 301.469781 
L 958.2336 323.177158 
L 960.0192 341.329311 
L 961.8048 355.311721 
L 963.5904 364.651031 
L 965.376 369.031071 
L 967.1616 368.303559 
L 968.9472 362.493126 
L 970.7328 351.796475 
L 972.5184 336.575729 
L 974.304 317.346167 
L 976.0896 294.758781 
L 977.8752 269.578239 
L 986.8032 136.023161 
L 988.5888 114.155467 
L 990.3744 95.808716 
L 992.16 81.604015 
L 993.9456 72.022246 
L 995.7312 67.387787 
L 997.5168 67.857533 
L 999.3024 73.41558 
L 1001.088 83.873769 
L 1002.8736 98.87805 
L 1004.6592 117.920471 
L 1006.4448 140.356377 
L 1008.2304 165.426226 
L 1011.8016 220.012488 
L 1015.3728 274.350018 
L 1017.1584 299.116843 
L 1018.944 321.142975 
L 1020.7296 339.682748 
L 1022.5152 354.10852 
L 1024.3008 363.931926 
L 1026.0864 368.820405 
L 1027.872 368.608466 
L 1029.6576 363.303281 
L 1031.4432 353.084453 
L 1033.2288 338.297927 
L 1035.0144 319.444281 
L 1036.8 297.161783 
L 1038.5856 272.204779 
L 1038.5856 272.204779 
" clip-path="url(#p5175483058)" style="fill: none; stroke: #bf00bf; stroke-width: 1.5; stroke-linecap: square"/>
   </g>
   <g id="line2d_24">
    <path d="M 144 66.96 
L 145.7856 69.638168 
L 147.5712 77.577795 
L 149.3568 90.497618 
L 151.1424 107.939944 
L 152.928 129.28687 
L 154.7136 153.782171 
L 158.2848 208.666073 
L 161.856 264.88337 
L 163.6416 291.001156 
L 165.4272 314.538507 
L 167.2128 334.661602 
L 168.9984 350.65757 
L 170.784 361.959745 
L 172.5696 368.167743 
L 174.3552 369.061641 
L 176.1408 364.609774 
L 177.9264 354.96985 
L 179.712 340.48337 
L 181.4976 321.663522 
L 183.2832 299.177011 
L 185.0688 273.820432 
L 188.64 218.16 
L 192.2112 162.499568 
L 193.9968 137.142989 
L 195.7824 114.656478 
L 197.568 95.83663 
L 199.3536 81.35015 
L 201.1392 71.710226 
L 202.9248 67.258359 
L 204.7104 68.152257 
L 206.496 74.360255 
L 208.2816 85.66243 
L 210.0672 101.658398 
L 211.8528 121.781493 
L 213.6384 145.318844 
L 215.424 171.43663 
L 222.5664 282.537829 
L 224.352 307.03313 
L 226.1376 328.380056 
L 227.9232 345.822382 
L 229.7088 358.742205 
L 231.4944 366.681832 
L 233.28 369.36 
L 235.0656 366.681832 
L 236.8512 358.742205 
L 238.6368 345.822382 
L 240.4224 328.380056 
L 242.208 307.03313 
L 243.9936 282.537829 
L 247.5648 227.653927 
L 251.136 171.43663 
L 252.9216 145.318844 
L 254.7072 121.781493 
L 256.4928 101.658398 
L 258.2784 85.66243 
L 260.064 74.360255 
L 261.8496 68.152257 
L 263.6352 67.258359 
L 265.4208 71.710226 
L 267.2064 81.35015 
L 268.992 95.83663 
L 270.7776 114.656478 
L 272.5632 137.142989 
L 274.3488 162.499568 
L 277.92 218.16 
L 281.4912 273.820432 
L 283.2768 299.177011 
L 285.0624 321.663522 
L 286.848 340.48337 
L 288.6336 354.96985 
L 290.4192 364.609774 
L 292.2048 369.061641 
L 293.9904 368.167743 
L 295.776 361.959745 
L 297.5616 350.65757 
L 299.3472 334.661602 
L 301.1328 314.538507 
L 302.9184 291.001156 
L 304.704 264.88337 
L 311.8464 153.782171 
L 313.632 129.28687 
L 315.4176 107.939944 
L 317.2032 90.497618 
L 318.9888 77.577795 
L 320.7744 69.638168 
L 322.56 66.96 
L 324.3456 69.638168 
L 326.1312 77.577795 
L 327.9168 90.497618 
L 329.7024 107.939944 
L 331.488 129.28687 
L 333.2736 153.782171 
L 336.8448 208.666073 
L 340.416 264.88337 
L 342.2016 291.001156 
L 343.9872 314.538507 
L 345.7728 334.661602 
L 347.5584 350.65757 
L 349.344 361.959745 
L 351.1296 368.167743 
L 352.9152 369.061641 
L 354.7008 364.609774 
L 356.4864 354.96985 
L 358.272 340.48337 
L 360.0576 321.663522 
L 361.8432 299.177011 
L 363.6288 273.820432 
L 367.2 218.16 
L 370.7712 162.499568 
L 372.5568 137.142989 
L 374.3424 114.656478 
L 376.128 95.83663 
L 377.9136 81.35015 
L 379.6992 71.710226 
L 381.4848 67.258359 
L 383.2704 68.152257 
L 385.056 74.360255 
L 386.8416 85.66243 
L 388.6272 101.658398 
L 390.4128 121.781493 
L 392.1984 145.318844 
L 393.984 171.43663 
L 401.1264 282.537829 
L 402.912 307.03313 
L 404.6976 328.380056 
L 406.4832 345.822382 
L 408.2688 358.742205 
L 410.0544 366.681832 
L 411.84 369.36 
L 413.6256 366.681832 
L 415.4112 358.742205 
L 417.1968 345.822382 
L 418.9824 328.380056 
L 420.768 307.03313 
L 422.5536 282.537829 
L 426.1248 227.653927 
L 429.696 171.43663 
L 431.4816 145.318844 
L 433.2672 121.781493 
L 435.0528 101.658398 
L 436.8384 85.66243 
L 438.624 74.360255 
L 440.4096 68.152257 
L 442.1952 67.258359 
L 443.9808 71.710226 
L 445.7664 81.35015 
L 447.552 95.83663 
L 449.3376 114.656478 
L 451.1232 137.142989 
L 452.9088 162.499568 
L 456.48 218.16 
L 460.0512 273.820432 
L 461.8368 299.177011 
L 463.6224 321.663522 
L 465.408 340.48337 
L 467.1936 354.96985 
L 468.9792 364.609774 
L 470.7648 369.061641 
L 472.5504 368.167743 
L 474.336 361.959745 
L 476.1216 350.65757 
L 477.9072 334.661602 
L 479.6928 314.538507 
L 481.4784 291.001156 
L 483.264 264.88337 
L 490.4064 153.782171 
L 492.192 129.28687 
L 493.9776 107.939944 
L 495.7632 90.497618 
L 497.5488 77.577795 
L 499.3344 69.638168 
L 501.12 66.96 
L 502.9056 69.638168 
L 504.6912 77.577795 
L 506.4768 90.497618 
L 508.2624 107.939944 
L 510.048 129.28687 
L 511.8336 153.782171 
L 515.4048 208.666073 
L 518.976 264.88337 
L 520.7616 291.001156 
L 522.5472 314.538507 
L 524.3328 334.661602 
L 526.1184 350.65757 
L 527.904 361.959745 
L 529.6896 368.167743 
L 531.4752 369.061641 
L 533.2608 364.609774 
L 535.0464 354.96985 
L 536.832 340.48337 
L 538.6176 321.663522 
L 540.4032 299.177011 
L 542.1888 273.820432 
L 545.76 218.16 
L 549.3312 162.499568 
L 551.1168 137.142989 
L 552.9024 114.656478 
L 554.688 95.83663 
L 556.4736 81.35015 
L 558.2592 71.710226 
L 560.0448 67.258359 
L 561.8304 68.152257 
L 563.616 74.360255 
L 565.4016 85.66243 
L 567.1872 101.658398 
L 568.9728 121.781493 
L 570.7584 145.318844 
L 572.544 171.43663 
L 579.6864 282.537829 
L 581.472 307.03313 
L 583.2576 328.380056 
L 585.0432 345.822382 
L 586.8288 358.742205 
L 588.6144 366.681832 
L 590.4 369.36 
L 592.1856 366.681832 
L 593.9712 358.742205 
L 595.7568 345.822382 
L 597.5424 328.380056 
L 599.328 307.03313 
L 601.1136 282.537829 
L 604.6848 227.653927 
L 608.256 171.43663 
L 610.0416 145.318844 
L 611.8272 121.781493 
L 613.6128 101.658398 
L 615.3984 85.66243 
L 617.184 74.360255 
L 618.9696 68.152257 
L 620.7552 67.258359 
L 622.5408 71.710226 
L 624.3264 81.35015 
L 626.112 95.83663 
L 627.8976 114.656478 
L 629.6832 137.142989 
L 631.4688 162.499568 
L 635.04 218.16 
L 638.6112 273.820432 
L 640.3968 299.177011 
L 642.1824 321.663522 
L 643.968 340.48337 
L 645.7536 354.96985 
L 647.5392 364.609774 
L 649.3248 369.061641 
L 651.1104 368.167743 
L 652.896 361.959745 
L 654.6816 350.65757 
L 656.4672 334.661602 
L 658.2528 314.538507 
L 660.0384 291.001156 
L 661.824 264.88337 
L 668.9664 153.782171 
L 670.752 129.28687 
L 672.5376 107.939944 
L 674.3232 90.497618 
L 676.1088 77.577795 
L 677.8944 69.638168 
L 679.68 66.96 
L 681.4656 69.638168 
L 683.2512 77.577795 
L 685.0368 90.497618 
L 686.8224 107.939944 
L 688.608 129.28687 
L 690.3936 153.782171 
L 693.9648 208.666073 
L 697.536 264.88337 
L 699.3216 291.001156 
L 701.1072 314.538507 
L 702.8928 334.661602 
L 704.6784 350.65757 
L 706.464 361.959745 
L 708.2496 368.167743 
L 710.0352 369.061641 
L 711.8208 364.609774 
L 713.6064 354.96985 
L 715.392 340.48337 
L 717.1776 321.663522 
L 718.9632 299.177011 
L 720.7488 273.820432 
L 724.32 218.16 
L 727.8912 162.499568 
L 729.6768 137.142989 
L 731.4624 114.656478 
L 733.248 95.83663 
L 735.0336 81.35015 
L 736.8192 71.710226 
L 738.6048 67.258359 
L 740.3904 68.152257 
L 742.176 74.360255 
L 743.9616 85.66243 
L 745.7472 101.658398 
L 747.5328 121.781493 
L 749.3184 145.318844 
L 751.104 171.43663 
L 758.2464 282.537829 
L 760.032 307.03313 
L 761.8176 328.380056 
L 763.6032 345.822382 
L 765.3888 358.742205 
L 767.1744 366.681832 
L 768.96 369.36 
L 770.7456 366.681832 
L 772.5312 358.742205 
L 774.3168 345.822382 
L 776.1024 328.380056 
L 777.888 307.03313 
L 779.6736 282.537829 
L 783.2448 227.653927 
L 786.816 171.43663 
L 788.6016 145.318844 
L 790.3872 121.781493 
L 792.1728 101.658398 
L 793.9584 85.66243 
L 795.744 74.360255 
L 797.5296 68.152257 
L 799.3152 67.258359 
L 801.1008 71.710226 
L 802.8864 81.35015 
L 804.672 95.83663 
L 806.4576 114.656478 
L 808.2432 137.142989 
L 810.0288 162.499568 
L 813.6 218.16 
L 817.1712 273.820432 
L 818.9568 299.177011 
L 820.7424 321.663522 
L 822.528 340.48337 
L 824.3136 354.96985 
L 826.0992 364.609774 
L 827.8848 369.061641 
L 829.6704 368.167743 
L 831.456 361.959745 
L 833.2416 350.65757 
L 835.0272 334.661602 
L 836.8128 314.538507 
L 838.5984 291.001156 
L 840.384 264.88337 
L 847.5264 153.782171 
L 849.312 129.28687 
L 851.0976 107.939944 
L 852.8832 90.497618 
L 854.6688 77.577795 
L 856.4544 69.638168 
L 858.24 66.96 
L 860.0256 69.638168 
L 861.8112 77.577795 
L 863.5968 90.497618 
L 865.3824 107.939944 
L 867.168 129.28687 
L 868.9536 153.782171 
L 872.5248 208.666073 
L 876.096 264.88337 
L 877.8816 291.001156 
L 879.6672 314.538507 
L 881.4528 334.661602 
L 883.2384 350.65757 
L 885.024 361.959745 
L 886.8096 368.167743 
L 888.5952 369.061641 
L 890.3808 364.609774 
L 892.1664 354.96985 
L 893.952 340.48337 
L 895.7376 321.663522 
L 897.5232 299.177011 
L 899.3088 273.820432 
L 902.88 218.16 
L 906.4512 162.499568 
L 908.2368 137.142989 
L 910.0224 114.656478 
L 911.808 95.83663 
L 913.5936 81.35015 
L 915.3792 71.710226 
L 917.1648 67.258359 
L 918.9504 68.152257 
L 920.736 74.360255 
L 922.5216 85.66243 
L 924.3072 101.658398 
L 926.0928 121.781493 
L 927.8784 145.318844 
L 929.664 171.43663 
L 936.8064 282.537829 
L 938.592 307.03313 
L 940.3776 328.380056 
L 942.1632 345.822382 
L 943.9488 358.742205 
L 945.7344 366.681832 
L 947.52 369.36 
L 949.3056 366.681832 
L 951.0912 358.742205 
L 952.8768 345.822382 
L 954.6624 328.380056 
L 956.448 307.03313 
L 958.2336 282.537829 
L 961.8048 227.653927 
L 965.376 171.43663 
L 967.1616 145.318844 
L 968.9472 121.781493 
L 970.7328 101.658398 
L 972.5184 85.66243 
L 974.304 74.360255 
L 976.0896 68.152257 
L 977.8752 67.258359 
L 979.6608 71.710226 
L 981.4464 81.35015 
L 983.232 95.83663 
L 985.0176 114.656478 
L 986.8032 137.142989 
L 988.5888 162.499568 
L 992.16 218.16 
L 995.7312 273.820432 
L 997.5168 299.177011 
L 999.3024 321.663522 
L 1001.088 340.48337 
L 1002.8736 354.96985 
L 1004.6592 364.609774 
L 1006.4448 369.061641 
L 1008.2304 368.167743 
L 1010.016 361.959745 
L 1011.8016 350.65757 
L 1013.5872 334.661602 
L 1015.3728 314.538507 
L 1017.1584 291.001156 
L 1018.944 264.88337 
L 1026.0864 153.782171 
L 1027.872 129.28687 
L 1029.6576 107.939944 
L 1031.4432 90.497618 
L 1033.2288 77.577795 
L 1035.0144 69.638168 
L 1036.8 66.96 
L 1038.5856 69.638168 
L 1038.5856 69.638168 
" clip-path="url(#p5175483058)" style="fill: none; stroke: #ffa500; stroke-width: 1.5; stroke-linecap: square"/>
   </g>
   <g id="line2d_25">
    <path d="M 144 66.96 
L 145.7856 69.759664 
L 147.5712 78.054976 
L 149.3568 91.538739 
L 151.1424 109.711615 
L 152.928 131.900616 
L 154.7136 157.284025 
L 158.2848 213.790527 
L 161.856 270.938289 
L 163.6416 297.101022 
L 165.4272 320.340365 
L 167.2128 339.795705 
L 168.9984 354.74656 
L 170.784 364.639261 
L 172.5696 369.107456 
L 174.3552 367.985677 
L 176.1408 361.315465 
L 177.9264 349.343836 
L 179.712 332.514129 
L 181.4976 311.449594 
L 183.2832 286.930304 
L 186.8544 231.253822 
L 190.4256 173.655704 
L 192.2112 146.801043 
L 193.9968 122.58899 
L 195.7824 101.916177 
L 197.568 85.548175 
L 199.3536 74.091131 
L 201.1392 67.969331 
L 202.9248 67.409479 
L 204.7104 72.432309 
L 206.496 82.851812 
L 208.2816 98.282128 
L 210.0672 118.151832 
L 211.8528 141.725096 
L 213.6384 168.128943 
L 220.7808 281.698515 
L 222.5664 306.802398 
L 224.352 328.623625 
L 226.1376 346.354097 
L 227.9232 359.337211 
L 229.7088 367.092167 
L 231.4944 369.33178 
L 233.28 365.973111 
L 235.0656 357.140539 
L 236.8512 343.161159 
L 238.6368 324.552663 
L 240.4224 302.004171 
L 242.208 276.350712 
L 245.7792 219.608755 
L 249.3504 162.654179 
L 251.136 136.742326 
L 252.9216 113.845579 
L 254.7072 94.811866 
L 256.4928 80.346053 
L 258.2784 70.983847 
L 260.064 67.071954 
L 261.8496 68.755243 
L 263.6352 75.971376 
L 265.4208 88.453123 
L 267.2064 105.73825 
L 268.992 127.186645 
L 270.7776 152.00402 
L 274.3488 207.978771 
L 277.92 265.447708 
L 279.7056 292.080972 
L 281.4912 315.976752 
L 283.2768 336.250124 
L 285.0624 352.150313 
L 286.848 363.088494 
L 288.6336 368.659599 
L 290.4192 368.657313 
L 292.2048 363.081723 
L 293.9904 352.139307 
L 295.776 336.23529 
L 297.5616 315.95864 
L 299.3472 292.060253 
L 301.1328 265.425149 
L 308.2752 151.982664 
L 310.0608 127.167676 
L 311.8464 105.722369 
L 313.632 88.440919 
L 315.4176 75.963301 
L 317.2032 68.751596 
L 318.9888 67.07287 
L 320.7744 70.989291 
L 322.56 80.355825 
L 324.3456 94.825603 
L 326.1312 113.862773 
L 327.9168 136.76234 
L 329.7024 162.676272 
L 333.2736 219.632504 
L 336.8448 276.372633 
L 338.6304 302.023934 
L 340.416 324.569537 
L 342.2016 343.17452 
L 343.9872 357.149891 
L 345.7728 365.978108 
L 347.5584 369.332237 
L 349.344 367.088067 
L 351.1296 359.328706 
L 352.9152 346.341502 
L 354.7008 328.607406 
L 356.4864 306.783156 
L 358.272 281.676962 
L 361.8432 225.424837 
L 365.4144 168.106531 
L 367.2 141.704605 
L 368.9856 118.13402 
L 370.7712 98.267656 
L 372.5568 82.841215 
L 374.3424 72.425979 
L 376.128 67.407651 
L 377.9136 67.972072 
L 379.6992 74.098341 
L 381.4848 85.559586 
L 383.2704 101.931367 
L 385.056 122.607395 
L 386.8416 146.821983 
L 390.4128 202.182091 
L 393.984 259.8871 
L 395.7696 286.951455 
L 397.5552 311.468284 
L 399.3408 332.529666 
L 401.1264 349.355643 
L 402.912 361.323107 
L 404.6976 367.98887 
L 406.4832 369.106082 
L 408.2688 364.633371 
L 410.0544 354.736372 
L 411.84 339.781596 
L 413.6256 320.322858 
L 415.4112 297.080765 
L 417.1968 270.916032 
L 426.1248 131.881111 
L 427.9104 109.695067 
L 429.696 91.52576 
L 431.4816 78.046047 
L 433.2672 69.755116 
L 435.0528 66.960002 
L 436.8384 69.764215 
L 438.624 78.063907 
L 440.4096 91.551721 
L 442.1952 109.728166 
L 443.9808 131.920123 
L 445.7664 157.305766 
L 449.3376 213.814268 
L 452.9088 270.960545 
L 454.6944 297.121278 
L 456.48 320.35787 
L 458.2656 339.809811 
L 460.0512 354.756745 
L 461.8368 364.645148 
L 463.6224 369.108827 
L 465.408 367.98248 
L 467.1936 361.307819 
L 468.9792 349.332024 
L 470.7648 332.49859 
L 472.5504 311.430902 
L 474.336 286.909151 
L 477.9072 231.23016 
L 481.4784 173.633006 
L 483.264 146.780105 
L 485.0496 122.570587 
L 486.8352 101.900991 
L 488.6208 85.536767 
L 490.4064 74.083925 
L 492.192 67.966593 
L 493.9776 67.411311 
L 495.7632 72.438643 
L 497.5488 82.862413 
L 499.3344 98.296604 
L 501.12 118.169646 
L 502.9056 141.74559 
L 504.6912 168.151356 
L 511.8336 281.720065 
L 513.6192 306.821638 
L 515.4048 328.639841 
L 517.1904 346.366689 
L 518.976 359.345712 
L 520.7616 367.096263 
L 522.5472 369.331319 
L 524.3328 365.96811 
L 526.1184 357.131184 
L 527.904 343.147796 
L 529.6896 324.535786 
L 531.4752 301.984405 
L 533.2608 276.32879 
L 536.832 219.585005 
L 540.4032 162.632088 
L 542.1888 136.722314 
L 543.9744 113.828388 
L 545.76 94.798131 
L 547.5456 80.336284 
L 549.3312 70.978406 
L 551.1168 67.071042 
L 552.9024 68.758894 
L 554.688 75.979455 
L 556.4736 88.465329 
L 558.2592 105.754133 
L 560.0448 127.205617 
L 561.8304 152.025377 
L 565.4016 208.002467 
L 568.9728 265.470267 
L 570.7584 292.10169 
L 572.544 315.994861 
L 574.3296 336.264955 
L 576.1152 352.161316 
L 577.9008 363.095262 
L 579.6864 368.66188 
L 581.472 368.655025 
L 583.2576 363.074949 
L 585.0432 352.128297 
L 586.8288 336.220453 
L 588.6144 315.940525 
L 590.4 292.039532 
L 592.1856 265.402588 
L 599.328 151.96131 
L 601.1136 127.148709 
L 602.8992 105.706491 
L 604.6848 88.428718 
L 606.4704 75.95523 
L 608.256 68.747952 
L 610.0416 67.073789 
L 611.8272 70.994739 
L 613.6128 80.3656 
L 615.3984 94.839344 
L 617.184 113.87997 
L 618.9696 136.782356 
L 620.7552 162.698367 
L 624.3264 219.656253 
L 627.8976 276.394552 
L 629.6832 302.043695 
L 631.4688 324.586409 
L 633.2544 343.187877 
L 635.04 357.15924 
L 636.8256 365.983101 
L 638.6112 369.33269 
L 640.3968 367.083964 
L 642.1824 359.320197 
L 643.968 346.328904 
L 645.7536 328.591184 
L 647.5392 306.763912 
L 649.3248 281.655408 
L 652.896 225.401114 
L 656.4672 168.084121 
L 658.2528 141.684116 
L 660.0384 118.116211 
L 661.824 98.253186 
L 663.6096 82.830621 
L 665.3952 72.419652 
L 667.1808 67.405826 
L 668.9664 67.974817 
L 670.752 74.105554 
L 672.5376 85.571 
L 674.3232 101.946559 
L 676.1088 122.625803 
L 677.8944 146.842925 
L 681.4656 202.205709 
L 685.0368 259.909927 
L 686.8224 286.972604 
L 688.608 311.486971 
L 690.3936 332.5452 
L 692.1792 349.367448 
L 693.9648 361.330745 
L 695.7504 367.992059 
L 697.536 369.104705 
L 699.3216 364.627477 
L 701.1072 354.72618 
L 702.8928 339.767484 
L 704.6784 320.305348 
L 706.464 297.060506 
L 708.2496 270.893774 
L 717.1776 131.861608 
L 718.9632 109.678521 
L 720.7488 91.512785 
L 722.5344 78.037122 
L 724.32 69.750572 
L 726.1056 66.960007 
L 727.8912 69.768769 
L 729.6768 78.072843 
L 731.4624 91.564706 
L 733.248 109.74472 
L 735.0336 131.939633 
L 736.8192 157.327508 
L 740.3904 213.838009 
L 743.9616 270.9828 
L 745.7472 297.141531 
L 747.5328 320.375373 
L 749.3184 339.823914 
L 751.104 354.766927 
L 752.8896 364.651031 
L 754.6752 369.110193 
L 756.4608 367.97928 
L 758.2464 361.30017 
L 760.032 349.32021 
L 761.8176 332.483048 
L 763.6032 311.412208 
L 765.3888 286.887997 
L 768.96 231.206499 
L 772.5312 173.61031 
L 774.3168 146.759169 
L 776.1024 122.552186 
L 777.888 101.885807 
L 779.6736 85.525363 
L 781.4592 74.076723 
L 783.2448 67.963859 
L 785.0304 67.413146 
L 786.816 72.44498 
L 788.6016 82.873018 
L 790.3872 98.311082 
L 792.1728 118.187463 
L 793.9584 141.766085 
L 795.744 168.173771 
L 802.8864 281.741615 
L 804.672 306.840875 
L 806.4576 328.656054 
L 808.2432 346.379278 
L 810.0288 359.354211 
L 811.8144 367.100356 
L 813.6 369.330855 
L 815.3856 365.963106 
L 817.1712 357.121825 
L 818.9568 343.134429 
L 820.7424 324.518906 
L 822.528 301.964638 
L 824.3136 276.306867 
L 827.8848 219.561256 
L 831.456 162.609998 
L 833.2416 136.702304 
L 835.0272 113.811199 
L 836.8128 94.7844 
L 838.5984 80.326519 
L 840.384 70.972968 
L 842.1696 67.070134 
L 843.9552 68.762548 
L 845.7408 75.987537 
L 847.5264 88.47754 
L 849.312 105.770019 
L 851.0976 127.224591 
L 852.8832 152.046736 
L 856.4544 208.026164 
L 860.0256 265.492824 
L 861.8112 292.122406 
L 863.5968 316.012969 
L 865.3824 336.279783 
L 867.168 352.172316 
L 868.9536 363.102026 
L 870.7392 368.664158 
L 872.5248 368.652732 
L 874.3104 363.06817 
L 876.096 352.117285 
L 877.8816 336.205614 
L 879.6672 315.922409 
L 881.4528 292.018809 
L 883.2384 265.380026 
L 890.3808 151.939958 
L 892.1664 127.129744 
L 893.952 105.690616 
L 895.7376 88.416521 
L 897.5232 75.947162 
L 899.3088 68.744312 
L 901.0944 67.074712 
L 902.88 71.000191 
L 904.6656 80.375379 
L 906.4512 94.853087 
L 908.2368 113.897169 
L 910.0224 136.802374 
L 911.808 162.720462 
L 915.3792 219.680003 
L 918.9504 276.416469 
L 920.736 302.063454 
L 922.5216 324.603278 
L 924.3072 343.201232 
L 926.0928 357.168585 
L 927.8784 365.988091 
L 929.664 369.33314 
L 931.4496 367.079856 
L 933.2352 359.311685 
L 935.0208 346.316302 
L 936.8064 328.57496 
L 938.592 306.744666 
L 940.3776 281.633853 
L 943.9488 225.37739 
L 947.52 168.061711 
L 949.3056 141.663628 
L 951.0912 118.098404 
L 952.8768 98.238719 
L 954.6624 82.82003 
L 956.448 72.41333 
L 958.2336 67.404006 
L 960.0192 67.977566 
L 961.8048 74.112771 
L 963.5904 85.582417 
L 965.376 101.961754 
L 967.1616 122.644213 
L 968.9472 146.863868 
L 972.5184 202.229327 
L 976.0896 259.932754 
L 977.8752 286.993751 
L 979.6608 311.505656 
L 981.4464 332.56073 
L 983.232 349.379249 
L 985.0176 361.33838 
L 986.8032 367.995245 
L 988.5888 369.103323 
L 990.3744 364.62158 
L 992.16 354.715985 
L 993.9456 339.753369 
L 995.7312 320.287836 
L 997.5168 297.040244 
L 999.3024 270.871514 
L 1008.2304 131.842107 
L 1010.016 109.661978 
L 1011.8016 91.499812 
L 1013.5872 78.028201 
L 1015.3728 69.746032 
L 1017.1584 66.960017 
L 1018.944 69.773328 
L 1020.7296 78.081781 
L 1022.5152 91.577694 
L 1024.3008 109.761276 
L 1026.0864 131.959144 
L 1027.872 157.349253 
L 1031.4432 213.861749 
L 1035.0144 271.005053 
L 1036.8 297.161783 
L 1038.5856 320.392873 
L 1038.5856 320.392873 
" clip-path="url(#p5175483058)" style="fill: none; stroke: #0000ff; stroke-width: 1.5; stroke-linecap: square"/>
   </g>
   <g id="patch_3">
    <path d="M 144 384.48 
L 144 51.84 
" style="fill: none; stroke: #000000; stroke-width: 0.8; stroke-linejoin: miter; stroke-linecap: square"/>
   </g>
   <g id="patch_4">
    <path d="M 1036.8 384.48 
L 1036.8 51.84 
" style="fill: none; stroke: #000000; stroke-width: 0.8; stroke-linejoin: miter; stroke-linecap: square"/>
   </g>
   <g id="patch_5">
    <path d="M 144 384.48 
L 1036.8 384.48 
" style="fill: none; stroke: #000000; stroke-width: 0.8; stroke-linejoin: miter; stroke-linecap: square"/>
   </g>
   <g id="patch_6">
    <path d="M 144 51.84 
L 1036.8 51.84 
" style="fill: none; stroke: #000000; stroke-width: 0.8; stroke-linejoin: miter; stroke-linecap: square"/>
   </g>
  </g>
 </g>
 <defs>
  <clipPath id="p5175483058">
   <rect x="144" y="51.84" width="892.8" height="332.64"/>
  </clipPath>
 </defs>
</svg>
