<?xml version="1.0" encoding="UTF-8" standalone="no"?>
<svg
   width="344.00012mm"
   height="101mm"
   viewBox="0 0 975.11847 286.29921"
   version="1.1"
   id="svg176"
   sodipodi:docname="img_fields.svg"
   inkscape:version="1.2.2 (732a01da63, 2022-12-09)"
   xmlns:inkscape="http://www.inkscape.org/namespaces/inkscape"
   xmlns:sodipodi="http://sodipodi.sourceforge.net/DTD/sodipodi-0.dtd"
   xmlns="http://www.w3.org/2000/svg"
   xmlns:svg="http://www.w3.org/2000/svg"
   xmlns:rdf="http://www.w3.org/1999/02/22-rdf-syntax-ns#"
   xmlns:cc="http://creativecommons.org/ns#"
   xmlns:dc="http://purl.org/dc/elements/1.1/"
   xmlns:ns1="http://www.iki.fi/pav/software/textext/">
  <sodipodi:namedview
     id="namedview178"
     pagecolor="#ffffff"
     bordercolor="#666666"
     borderopacity="1.0"
     inkscape:showpageshadow="2"
     inkscape:pageopacity="0.0"
     inkscape:pagecheckerboard="0"
     inkscape:deskcolor="#d1d1d1"
     inkscape:document-units="mm"
     showgrid="true"
     inkscape:zoom="0.5"
     inkscape:cx="216"
     inkscape:cy="556"
     inkscape:window-width="1920"
     inkscape:window-height="1009"
     inkscape:window-x="1912"
     inkscape:window-y="-2"
     inkscape:window-maximized="1"
     inkscape:current-layer="layer3">
    <inkscape:grid
       type="xygrid"
       id="grid716"
       units="mm"
       spacingx="2.8346457"
       spacingy="2.8346457"
       originx="-130.39335"
       originy="-55.275582" />
  </sodipodi:namedview>
  <metadata
     id="metadata2">
    <rdf:RDF>
      <cc:Work>
        <dc:type
           rdf:resource="http://purl.org/dc/dcmitype/StillImage" />
        <dc:date>2025-06-18T12:08:02.966605</dc:date>
        <dc:format>image/svg+xml</dc:format>
        <dc:creator>
          <cc:Agent>
            <dc:title>Matplotlib v3.9.0, https://matplotlib.org/</dc:title>
          </cc:Agent>
        </dc:creator>
      </cc:Work>
    </rdf:RDF>
  </metadata>
  <defs
     id="defs6">
    <style
       type="text/css"
       id="style4">*{stroke-linejoin: round; stroke-linecap: butt}</style>
  </defs>
  <g
     inkscape:groupmode="layer"
     id="layer1"
     inkscape:label="Layer 1"
     transform="translate(-130.39335,-55.275578)">
    <g
       id="line2d_23"
       transform="matrix(1,0,0,0.74990624,-2.267715,48.998875)"
       style="stroke:#ffcd09;stroke-width:2.29136;stroke-dasharray:none;stroke-opacity:1;stroke-linecap:round">
      <path
         d="m 144,66.96 1.7856,2.559343 1.7856,7.591387 1.7856,12.366433 1.7856,16.722827 1.7856,20.5131 1.7856,23.60891 3.5712,53.23055 3.5712,55.19187 1.7856,25.99836 1.7856,23.74428 1.7856,20.68638 1.7856,16.92815 1.7856,12.59686 1.7856,7.83909 1.7856,2.81597 1.7856,-2.30251 1.7856,-7.34302 1.7856,-12.13495 1.7856,-16.51607 1.7856,-20.33805 1.7856,-23.47152 3.5712,-53.08586 3.5712,-55.23437 1.7856,-26.08901 1.7856,-23.87761 1.7856,-20.85788 1.7856,-17.132022 1.7856,-12.826189 1.7856,-8.086137 1.7856,-3.07234 1.7856,2.045468 1.7856,7.094028 1.7856,11.902429 1.7856,16.307893 1.7856,20.16126 1.7856,23.33211 3.5712,52.93661 3.5712,55.27212 1.7856,26.17741 1.7856,24.00889 1.7856,21.02759 1.7856,17.33443 1.7856,13.05442 1.7856,8.33248 1.7856,3.32845 1.7856,-1.78825 1.7856,-6.84443 1.7856,-11.66888 1.7856,-16.09831 1.7856,-19.98274 1.7856,-23.19069 3.5712,-52.78283 3.5712,-55.30513 1.7856,-26.26355 1.7856,-24.13811 1.7856,-21.1955 1.7856,-17.535331 1.7856,-13.281537 1.7856,-8.57811 1.7856,-3.584281 1.7856,1.530889 1.7856,6.594232 1.7856,11.434336 1.7856,15.887342 1.7856,19.80251 1.7856,23.04728 1.7856,25.51182 7.1424,108.79352 1.7856,24.26525 1.7856,21.36159 1.7856,17.73473 1.7856,13.50751 1.7856,8.82301 1.7856,3.8398 1.7856,-1.2734 1.7856,-6.34347 1.7856,-11.19881 1.7856,-15.67501 1.7856,-19.62057 1.7856,-22.9019 1.7856,-25.4079 7.1424,-108.83973 1.7856,-24.39031 1.7856,-21.52583 1.7856,-17.932623 1.7856,-13.732322 1.7856,-9.067136 1.7856,-4.09499 1.7856,1.015784 1.7856,6.092171 1.7856,10.962315 1.7856,15.461341 1.7856,19.43695 1.7856,22.75454 1.7856,25.3018 8.928,133.38987 1.7856,21.68823 1.7856,18.12896 1.7856,13.95596 1.7856,9.31049 1.7856,4.34983 1.7856,-0.75809 1.7856,-5.84034 1.7856,-10.72489 1.7856,-15.24634 1.7856,-19.25166 1.7856,-22.60523 1.7856,-25.19353 8.928,-133.53823 1.7856,-21.84877 1.7856,-18.323749 1.7856,-14.178391 1.7856,-9.553045 1.7856,-4.604294 1.7856,0.500331 1.7856,5.588017 1.7856,10.486528 1.7856,15.03003 1.7856,19.064713 1.7856,22.45398 1.7856,25.08309 8.928,133.67514 1.7856,22.00743 1.7856,18.51696 1.7856,14.3996 1.7856,9.79478 1.7856,4.85837 1.7856,-0.24253 1.7856,-5.33521 1.7856,-10.24727 1.7856,-14.81243 1.7856,-18.87613 1.7856,-22.3008 1.7856,-24.9705 3.5712,-54.50699 3.5712,-54.42407 1.7856,-24.8695 1.7856,-22.1642 1.7856,-18.708577 1.7856,-14.619589 1.7856,-10.035674 1.7856,-5.112014 1.7856,-0.0153 1.7856,5.081943 1.7856,10.007138 1.7856,14.593554 1.7856,18.685919 1.7856,22.1457 1.7856,24.85577 3.5712,54.41264 3.5712,54.51787 1.7856,24.98397 1.7856,22.31908 1.7856,18.89859 1.7856,14.83831 1.7856,10.2757 1.7856,5.36523 1.7856,0.27312 1.7856,-4.82824 1.7856,-9.76615 1.7856,-14.37342 1.7856,-18.49412 1.7856,-21.98871 1.7856,-24.7389 3.5712,-54.31361 3.5712,-54.60698 1.7856,-25.09631 1.7856,-22.47202 1.7856,-19.086976 1.7856,-15.055762 1.7856,-10.514855 1.7856,-5.61798 1.7856,-0.530915 1.7856,4.574123 1.7856,9.524311 1.7856,14.152063 1.7856,18.300711 1.7856,21.82982 1.7856,24.61991 3.5712,54.20992 3.5712,54.69141 1.7856,25.20649 1.7856,22.62304 1.7856,19.27373 1.7856,15.27192 1.7856,10.7531 1.7856,5.87025 1.7856,0.78867 1.7856,-4.31962 1.7856,-9.28166 1.7856,-13.92948 1.7856,-18.10575 1.7856,-21.66906 1.7856,-24.4988 3.5712,-54.10157 3.5712,-54.77113 1.7856,-25.31451 1.7856,-22.77212 1.7856,-19.45882 1.7856,-15.486765 1.7856,-10.990423 1.7856,-6.122014 1.7856,-1.046353 1.7856,4.064732 1.7856,9.03821 1.7856,13.705712 1.7856,17.909221 1.7856,21.50644 1.7856,24.37558 3.5712,53.98859 3.5712,54.84616 1.7856,25.42034 1.7856,22.91924 1.7856,19.64225 1.7856,15.70028 1.7856,11.2268 1.7856,6.37326 1.7856,1.30395 1.7856,-3.80951 1.7856,-8.79398 1.7856,-13.48076 1.7856,-17.71116 1.7856,-21.34197 1.7856,-24.25028 3.5712,-53.87095 3.5712,-54.91647 1.7856,-25.524 1.7856,-23.0644 1.7856,-19.82398 1.7856,-15.912452 1.7856,-11.462215 1.7856,-6.623946 1.7856,-1.561431 1.7856,3.553944 1.7856,8.549005 1.7856,13.254651 1.7856,17.511584 1.7856,21.17567 1.7856,24.12288 3.5712,53.7487 3.5712,54.98206 1.7856,25.62547 1.7856,23.20757 1.7856,20.00401 1.7856,16.12325 1.7856,11.69664 1.7856,6.87407 1.7856,1.81878 1.7856,-3.29808 1.7856,-8.30329 1.7856,-13.0274 1.7856,-17.31049 1.7856,-21.00755 1.7856,-23.99342 3.5712,-53.62183 3.5712,-55.04293 1.7856,-25.72473 1.7856,-23.34875 1.7856,-20.18233 1.7856,-16.332667 1.7856,-11.930071 1.7856,-7.123602 1.7856,-2.075973 1.7856,3.041936 1.7856,8.056863 1.7856,12.799036 1.7856,17.107918 1.7856,20.83762 1.7856,23.86191 3.5712,53.49034 3.5712,55.09908 1.7856,25.82178 1.7856,23.48793 1.7856,20.35891 1.7856,16.54066 1.7856,12.16249 1.7856,7.37252 1.7856,2.33299 1.7856,-2.78553 1.7856,-7.80975 1.7856,-12.56957 1.7856,-16.90387 1.7856,-20.66591 1.7856,-23.72832 3.5712,-53.35428 3.5712,-55.15049 1.7856,-25.91663 1.7856,-23.62507 1.7856,-20.53374 1.7856,-16.747275 1.7856,-12.393826 1.7856,-7.620811 1.7856,-2.589802 1.7856,2.528882 1.7856,7.561954 1.7856,12.339024 1.7856,16.698364 1.7856,20.49242 1.7856,23.59272 3.5712,53.21362 3.5712,55.19716 1.7856,26.00923 1.7856,23.76021 1.7856,20.70682 1.7856,16.95242 1.7856,12.62412 1.7856,7.86844 1.7856,2.84639 1.7856,-2.27201 1.7856,-7.31352 1.7856,-12.10742 1.7856,-16.49144 1.7856,-20.31717 1.7856,-23.45508 3.5712,-53.06839 3.5712,-55.2391 1.7856,-26.09961 1.7856,-23.8933 1.7856,-20.8781 1.7856,-17.156113 1.7856,-12.853325 1.7856,-8.115401 1.7856,-3.102741 1.7856,2.01496 1.7856,7.064445 1.7856,11.874774 1.7856,16.283091 1.7856,20.14017 1.7856,23.31544 3.5712,52.91861 3.5712,55.27628 1.7856,26.18774 1.7856,24.02434 1.7856,21.0476 1.7856,17.35834 1.7856,13.08143 1.7856,8.36166 1.7856,3.35882 1.7856,-1.75773 1.7856,-6.81477 1.7856,-11.64111 1.7856,-16.07335 1.7856,-19.96145 1.7856,-23.17378 3.5712,-52.76428 3.5712,-55.30872 1.7856,-26.27363 1.7856,-24.1533 1.7856,-21.2153 1.7856,-17.559067 1.7856,-13.308407 1.7856,-8.607203 1.7856,-3.614614 1.7856,1.500345 1.7856,6.56451 1.7856,11.406443 1.7856,15.862223 1.7856,19.78101 1.7856,23.03013 1.7856,25.49961 7.1424,108.79949 1.7856,24.2802 1.7856,21.38116 1.7856,17.7583 1.7856,13.53424 1.7856,8.85201 1.7856,3.87009 1.7856,-1.24283 1.7856,-6.31369 1.7856,-11.17079 1.7856,-15.64974 1.7856,-19.59887 1.7856,-22.88452 1.7856,-25.39543 7.1424,-108.84459 1.7856,-24.40501 1.7856,-21.54519 1.7856,-17.955994 1.7856,-13.758918 1.7856,-9.096048 1.7856,-4.125245 1.7856,0.985214 1.7856,6.062321 1.7856,10.934194 1.7856,15.435896 1.7856,19.41505 1.7856,22.73693 1.7856,25.28907 8.928,133.40807 1.7856,21.70738 1.7856,18.15215 1.7856,13.98241 1.7856,9.33931 1.7856,4.38004 1.7856,-0.72751 1.7856,-5.81043 1.7856,-10.69666 1.7856,-15.22074 1.7856,-19.22956 1.7856,-22.58738 1.7856,-25.18055 8.928,-133.55508 1.7856,-21.86768 1.7856,-18.346759 1.7856,-14.204701 1.7856,-9.581769 1.7856,-4.634459 1.7856,0.469746 1.7856,5.558047 1.7856,10.458189 1.7856,15.004281 1.7856,19.042425 1.7856,22.43591 1.7856,25.06985 3.5712,54.58626 3.5712,54.33753 1.7856,24.76682 1.7856,22.02613 1.7856,18.53978 1.7856,14.42577 1.7856,9.82341 1.7856,4.88847 1.7856,-0.21193 1.7856,-5.30519 1.7856,-10.21883 1.7856,-14.78652 1.7856,-18.85365 1.7856,-22.2825 1.7856,-24.957 v 0"
         style="fill:none;stroke:#ffcd09;stroke-width:2.29136;stroke-linecap:round;stroke-dasharray:none;stroke-opacity:1"
         id="path148" />
    </g>
    <g
       id="line2d_24"
       transform="matrix(1,0,0,0.74990624,-2.267715,48.998875)"
       style="stroke:#c20052;stroke-width:2.29136;stroke-dasharray:none;stroke-opacity:1;stroke-linecap:round">
      <path
         d="m 144,66.96 1.7856,2.678168 1.7856,7.939627 1.7856,12.919823 1.7856,17.442322 1.7856,21.34693 1.7856,24.4953 3.5712,54.8839 3.5712,56.2173 1.7856,26.11779 1.7856,23.53735 1.7856,20.12309 1.7856,15.99597 1.7856,11.30217 1.7856,6.208 1.7856,0.8939 1.7856,-4.45187 1.7856,-9.63992 1.7856,-14.48648 1.7856,-18.81985 1.7856,-22.48651 1.7856,-25.35658 3.5712,-55.66043 3.5712,-55.66043 1.7856,-25.35658 1.7856,-22.48651 1.7856,-18.81985 1.7856,-14.48648 1.7856,-9.639924 1.7856,-4.451867 1.7856,0.893898 1.7856,6.207998 1.7856,11.302175 1.7856,15.99597 1.7856,20.12309 1.7856,23.53735 1.7856,26.11779 7.1424,111.1012 1.7856,24.4953 1.7856,21.34693 1.7856,17.44232 1.7856,12.91983 1.7856,7.93962 1.7856,2.67817 1.7856,-2.67817 1.7856,-7.93962 1.7856,-12.91983 1.7856,-17.44232 1.7856,-21.34693 1.7856,-24.4953 3.5712,-54.8839 3.5712,-56.2173 1.7856,-26.11779 1.7856,-23.53735 1.7856,-20.12309 1.7856,-15.99597 1.7856,-11.302175 1.7856,-6.207998 1.7856,-0.893898 1.7856,4.451867 1.7856,9.639924 1.7856,14.48648 1.7856,18.81985 1.7856,22.48651 1.7856,25.35658 3.5712,55.66043 3.5712,55.66043 1.7856,25.35658 1.7856,22.48651 1.7856,18.81985 1.7856,14.48648 1.7856,9.63992 1.7856,4.45187 1.7856,-0.8939 1.7856,-6.208 1.7856,-11.30217 1.7856,-15.99597 1.7856,-20.12309 1.7856,-23.53735 1.7856,-26.11779 7.1424,-111.1012 1.7856,-24.4953 1.7856,-21.34693 1.7856,-17.442322 1.7856,-12.919823 1.7856,-7.939627 1.7856,-2.678168 1.7856,2.678168 1.7856,7.939627 1.7856,12.919823 1.7856,17.442322 1.7856,21.34693 1.7856,24.4953 3.5712,54.8839 3.5712,56.2173 1.7856,26.11779 1.7856,23.53735 1.7856,20.12309 1.7856,15.99597 1.7856,11.30217 1.7856,6.208 1.7856,0.8939 1.7856,-4.45187 1.7856,-9.63992 1.7856,-14.48648 1.7856,-18.81985 1.7856,-22.48651 1.7856,-25.35658 3.5712,-55.66043 3.5712,-55.66043 1.7856,-25.35658 1.7856,-22.48651 1.7856,-18.81985 1.7856,-14.48648 1.7856,-9.639924 1.7856,-4.451867 1.7856,0.893898 1.7856,6.207998 1.7856,11.302175 1.7856,15.99597 1.7856,20.12309 1.7856,23.53735 1.7856,26.11779 7.1424,111.1012 1.7856,24.4953 1.7856,21.34693 1.7856,17.44232 1.7856,12.91983 1.7856,7.93962 1.7856,2.67817 1.7856,-2.67817 1.7856,-7.93962 1.7856,-12.91983 1.7856,-17.44232 1.7856,-21.34693 1.7856,-24.4953 3.5712,-54.8839 3.5712,-56.2173 1.7856,-26.11779 1.7856,-23.53735 1.7856,-20.12309 1.7856,-15.99597 1.7856,-11.302175 1.7856,-6.207998 1.7856,-0.893898 1.7856,4.451867 1.7856,9.639924 1.7856,14.48648 1.7856,18.81985 1.7856,22.48651 1.7856,25.35658 3.5712,55.66043 3.5712,55.66043 1.7856,25.35658 1.7856,22.48651 1.7856,18.81985 1.7856,14.48648 1.7856,9.63992 1.7856,4.45187 1.7856,-0.8939 1.7856,-6.208 1.7856,-11.30217 1.7856,-15.99597 1.7856,-20.12309 1.7856,-23.53735 1.7856,-26.11779 7.1424,-111.1012 1.7856,-24.4953 1.7856,-21.34693 1.7856,-17.442322 1.7856,-12.919823 1.7856,-7.939627 1.7856,-2.678168 1.7856,2.678168 1.7856,7.939627 1.7856,12.919823 1.7856,17.442322 1.7856,21.34693 1.7856,24.4953 3.5712,54.8839 3.5712,56.2173 1.7856,26.11779 1.7856,23.53735 1.7856,20.12309 1.7856,15.99597 1.7856,11.30217 1.7856,6.208 1.7856,0.8939 1.7856,-4.45187 1.7856,-9.63992 1.7856,-14.48648 1.7856,-18.81985 1.7856,-22.48651 1.7856,-25.35658 3.5712,-55.66043 3.5712,-55.66043 1.7856,-25.35658 1.7856,-22.48651 1.7856,-18.81985 1.7856,-14.48648 1.7856,-9.639924 1.7856,-4.451867 1.7856,0.893898 1.7856,6.207998 1.7856,11.302175 1.7856,15.99597 1.7856,20.12309 1.7856,23.53735 1.7856,26.11779 7.1424,111.1012 1.7856,24.4953 1.7856,21.34693 1.7856,17.44232 1.7856,12.91983 1.7856,7.93962 1.7856,2.67817 1.7856,-2.67817 1.7856,-7.93962 1.7856,-12.91983 1.7856,-17.44232 1.7856,-21.34693 1.7856,-24.4953 3.5712,-54.8839 3.5712,-56.2173 1.7856,-26.11779 1.7856,-23.53735 1.7856,-20.12309 1.7856,-15.99597 1.7856,-11.302175 1.7856,-6.207998 1.7856,-0.893898 1.7856,4.451867 1.7856,9.639924 1.7856,14.48648 1.7856,18.81985 1.7856,22.48651 1.7856,25.35658 3.5712,55.66043 3.5712,55.66043 1.7856,25.35658 1.7856,22.48651 1.7856,18.81985 1.7856,14.48648 1.7856,9.63992 1.7856,4.45187 1.7856,-0.8939 1.7856,-6.208 1.7856,-11.30217 1.7856,-15.99597 1.7856,-20.12309 1.7856,-23.53735 1.7856,-26.11779 7.1424,-111.1012 1.7856,-24.4953 1.7856,-21.34693 1.7856,-17.442322 1.7856,-12.919823 1.7856,-7.939627 1.7856,-2.678168 1.7856,2.678168 1.7856,7.939627 1.7856,12.919823 1.7856,17.442322 1.7856,21.34693 1.7856,24.4953 3.5712,54.8839 3.5712,56.2173 1.7856,26.11779 1.7856,23.53735 1.7856,20.12309 1.7856,15.99597 1.7856,11.30217 1.7856,6.208 1.7856,0.8939 1.7856,-4.45187 1.7856,-9.63992 1.7856,-14.48648 1.7856,-18.81985 1.7856,-22.48651 1.7856,-25.35658 3.5712,-55.66043 3.5712,-55.66043 1.7856,-25.35658 1.7856,-22.48651 1.7856,-18.81985 1.7856,-14.48648 1.7856,-9.639924 1.7856,-4.451867 1.7856,0.893898 1.7856,6.207998 1.7856,11.302175 1.7856,15.99597 1.7856,20.12309 1.7856,23.53735 1.7856,26.11779 7.1424,111.1012 1.7856,24.4953 1.7856,21.34693 1.7856,17.44232 1.7856,12.91983 1.7856,7.93962 1.7856,2.67817 1.7856,-2.67817 1.7856,-7.93962 1.7856,-12.91983 1.7856,-17.44232 1.7856,-21.34693 1.7856,-24.4953 3.5712,-54.8839 3.5712,-56.2173 1.7856,-26.11779 1.7856,-23.53735 1.7856,-20.12309 1.7856,-15.99597 1.7856,-11.302175 1.7856,-6.207998 1.7856,-0.893898 1.7856,4.451867 1.7856,9.639924 1.7856,14.48648 1.7856,18.81985 1.7856,22.48651 1.7856,25.35658 3.5712,55.66043 3.5712,55.66043 1.7856,25.35658 1.7856,22.48651 1.7856,18.81985 1.7856,14.48648 1.7856,9.63992 1.7856,4.45187 1.7856,-0.8939 1.7856,-6.208 1.7856,-11.30217 1.7856,-15.99597 1.7856,-20.12309 1.7856,-23.53735 1.7856,-26.11779 7.1424,-111.1012 1.7856,-24.4953 1.7856,-21.34693 1.7856,-17.442322 1.7856,-12.919823 1.7856,-7.939627 1.7856,-2.678168 1.7856,2.678168 1.7856,7.939627 1.7856,12.919823 1.7856,17.442322 1.7856,21.34693 1.7856,24.4953 3.5712,54.8839 3.5712,56.2173 1.7856,26.11779 1.7856,23.53735 1.7856,20.12309 1.7856,15.99597 1.7856,11.30217 1.7856,6.208 1.7856,0.8939 1.7856,-4.45187 1.7856,-9.63992 1.7856,-14.48648 1.7856,-18.81985 1.7856,-22.48651 1.7856,-25.35658 3.5712,-55.66043 3.5712,-55.66043 1.7856,-25.35658 1.7856,-22.48651 1.7856,-18.81985 1.7856,-14.48648 1.7856,-9.639924 1.7856,-4.451867 1.7856,0.893898 1.7856,6.207998 1.7856,11.302175 1.7856,15.99597 1.7856,20.12309 1.7856,23.53735 1.7856,26.11779 7.1424,111.1012 1.7856,24.4953 1.7856,21.34693 1.7856,17.44232 1.7856,12.91983 1.7856,7.93962 1.7856,2.67817 1.7856,-2.67817 1.7856,-7.93962 1.7856,-12.91983 1.7856,-17.44232 1.7856,-21.34693 1.7856,-24.4953 3.5712,-54.8839 3.5712,-56.2173 1.7856,-26.11779 1.7856,-23.53735 1.7856,-20.12309 1.7856,-15.99597 1.7856,-11.302175 1.7856,-6.207998 1.7856,-0.893898 1.7856,4.451867 1.7856,9.639924 1.7856,14.48648 1.7856,18.81985 1.7856,22.48651 1.7856,25.35658 3.5712,55.66043 3.5712,55.66043 1.7856,25.35658 1.7856,22.48651 1.7856,18.81985 1.7856,14.48648 1.7856,9.63992 1.7856,4.45187 1.7856,-0.8939 1.7856,-6.208 1.7856,-11.30217 1.7856,-15.99597 1.7856,-20.12309 1.7856,-23.53735 1.7856,-26.11779 7.1424,-111.1012 1.7856,-24.4953 1.7856,-21.34693 1.7856,-17.442322 1.7856,-12.919823 1.7856,-7.939627 1.7856,-2.678168 1.7856,2.678168 v 0"
         style="fill:none;stroke:#c20052;stroke-width:2.29136;stroke-linecap:round;stroke-dasharray:none;stroke-opacity:1"
         id="path151" />
    </g>
    <g
       id="line2d_25"
       transform="matrix(1,0,0,0.74990624,-2.267715,48.998875)"
       style="stroke:#00509b;stroke-width:2.29136;stroke-dasharray:none;stroke-opacity:1;stroke-linecap:round">
      <path
         d="m 144,66.96 1.7856,2.799664 1.7856,8.295312 1.7856,13.483763 1.7856,18.172871 1.7856,22.18901 1.7856,25.38341 3.5712,56.5065 3.5712,57.14776 1.7856,26.16273 1.7856,23.23935 1.7856,19.45533 1.7856,14.95086 1.7856,9.8927 1.7856,4.4682 1.7856,-1.12178 1.7856,-6.67021 1.7856,-11.97163 1.7856,-16.82971 1.7856,-21.06454 1.7856,-24.51929 3.5712,-55.67648 3.5712,-57.59812 1.7856,-26.85466 1.7856,-24.21205 1.7856,-20.67281 1.7856,-16.368005 1.7856,-11.457044 1.7856,-6.1218 1.7856,-0.559852 1.7856,5.02283 1.7856,10.419503 1.7856,15.430316 1.7856,19.869702 1.7856,23.57327 1.7856,26.40384 7.1424,113.56957 1.7856,25.10389 1.7856,21.82122 1.7856,17.73048 1.7856,12.98311 1.7856,7.75496 1.7856,2.23961 1.7856,-3.35867 1.7856,-8.83257 1.7856,-13.97938 1.7856,-18.6085 1.7856,-22.54849 1.7856,-25.65346 3.5712,-56.74196 3.5712,-56.95457 1.7856,-25.91185 1.7856,-22.89675 1.7856,-19.033714 1.7856,-14.465813 1.7856,-9.362206 1.7856,-3.911893 1.7856,1.683289 1.7856,7.216133 1.7856,12.481747 1.7856,17.285127 1.7856,21.4484 1.7856,24.81737 3.5712,55.97475 3.5712,57.46894 1.7856,26.63326 1.7856,23.89578 1.7856,20.27337 1.7856,15.90019 1.7856,10.93818 1.7856,5.57111 1.7856,-0.002 1.7856,-5.57559 1.7856,-10.94241 1.7856,-15.90402 1.7856,-20.27665 1.7856,-23.89839 1.7856,-26.6351 7.1424,-113.44249 1.7856,-24.81498 1.7856,-21.44531 1.7856,-17.281451 1.7856,-12.477618 1.7856,-7.211705 1.7856,-1.678726 1.7856,3.916421 1.7856,9.366534 1.7856,14.469778 1.7856,19.037167 1.7856,22.89957 1.7856,25.91393 3.5712,56.95623 3.5712,56.74013 1.7856,25.6513 1.7856,22.54561 1.7856,18.60498 1.7856,13.97537 1.7856,8.82822 1.7856,3.35413 1.7856,-2.24417 1.7856,-7.75936 1.7856,-12.98721 1.7856,-17.73409 1.7856,-21.82425 1.7856,-25.1062 3.5712,-56.25212 3.5712,-57.31831 1.7856,-26.40193 1.7856,-23.57058 1.7856,-19.866364 1.7856,-15.426441 1.7856,-10.415236 1.7856,-5.018328 1.7856,0.564421 1.7856,6.126269 1.7856,11.461245 1.7856,16.371784 1.7856,20.67602 1.7856,24.21459 3.5712,55.36011 3.5712,57.70501 1.7856,27.06435 1.7856,24.51683 1.7856,21.06139 1.7856,16.82597 1.7856,11.96747 1.7856,6.66576 1.7856,1.11721 1.7856,-4.47271 1.7856,-9.897 1.7856,-14.95477 1.7856,-19.45874 1.7856,-23.2421 1.7856,-26.16473 8.928,-139.03492 1.7856,-22.18604 1.7856,-18.16931 1.7856,-13.479713 1.7856,-8.290931 1.7856,-2.795114 1.7856,2.804213 1.7856,8.299692 1.7856,13.487814 1.7856,18.176449 1.7856,22.19195 1.7856,25.38565 3.5712,56.5085 3.5712,57.14628 1.7856,26.16073 1.7856,23.23659 1.7856,19.45194 1.7856,14.94694 1.7856,9.8884 1.7856,4.46368 1.7856,-1.12635 1.7856,-6.67466 1.7856,-11.9758 1.7856,-16.83343 1.7856,-21.06769 1.7856,-24.52175 3.5712,-55.67899 3.5712,-57.59715 1.7856,-26.85291 1.7856,-24.20951 1.7856,-20.6696 1.7856,-16.364223 1.7856,-11.452842 1.7856,-6.117332 1.7856,-0.555282 1.7856,5.027332 1.7856,10.42377 1.7856,15.434191 1.7856,19.873046 1.7856,23.57594 1.7856,26.40577 7.1424,113.5687 1.7856,25.10158 1.7856,21.8182 1.7856,17.72685 1.7856,12.97902 1.7856,7.75055 1.7856,2.23506 1.7856,-3.36321 1.7856,-8.83693 1.7856,-13.98338 1.7856,-18.61201 1.7856,-22.55139 1.7856,-25.65561 3.5712,-56.74379 3.5712,-56.95291 1.7856,-25.90978 1.7856,-22.89392 1.7856,-19.030259 1.7856,-14.461847 1.7856,-9.357878 1.7856,-3.907364 1.7856,1.687852 1.7856,7.220561 1.7856,12.485874 1.7856,17.288801 1.7856,21.45149 1.7856,24.81976 3.5712,55.97709 3.5712,57.4678 1.7856,26.63142 1.7856,23.89317 1.7856,20.27009 1.7856,15.89637 1.7856,10.93394 1.7856,5.56662 1.7856,-0.007 1.7856,-5.58008 1.7856,-10.94665 1.7856,-15.90785 1.7856,-20.27993 1.7856,-23.90099 1.7856,-26.63694 7.1424,-113.44128 1.7856,-24.8126 1.7856,-21.44222 1.7856,-17.277772 1.7856,-12.473488 1.7856,-7.207278 1.7856,-1.674163 1.7856,3.92095 1.7856,9.370861 1.7856,14.473744 1.7856,19.040626 1.7856,22.90239 1.7856,25.91601 3.5712,56.95788 3.5712,56.7383 1.7856,25.64915 1.7856,22.54271 1.7856,18.60147 1.7856,13.97136 1.7856,8.82386 1.7856,3.34959 1.7856,-2.24873 1.7856,-7.76376 1.7856,-12.9913 1.7856,-17.73772 1.7856,-21.82727 1.7856,-25.1085 3.5712,-56.2543 3.5712,-57.31699 1.7856,-26.4 1.7856,-23.56791 1.7856,-19.863024 1.7856,-15.422565 1.7856,-10.410969 1.7856,-5.013826 1.7856,0.568991 1.7856,6.130737 1.7856,11.465446 1.7856,16.37556 1.7856,20.67924 1.7856,24.21712 3.5712,55.36279 3.5712,57.70422 1.7856,27.06267 1.7856,24.51437 1.7856,21.05823 1.7856,16.82225 1.7856,11.96329 1.7856,6.66132 1.7856,1.11265 1.7856,-4.47723 1.7856,-9.9013 1.7856,-14.9587 1.7856,-19.46213 1.7856,-23.24484 1.7856,-26.16674 8.928,-139.03216 1.7856,-22.18309 1.7856,-18.165735 1.7856,-13.475663 1.7856,-8.28655 1.7856,-2.790565 1.7856,2.808762 1.7856,8.304074 1.7856,13.491863 1.7856,18.180014 1.7856,22.19491 1.7856,25.38788 3.5712,56.5105 3.5712,57.14479 1.7856,26.15873 1.7856,23.23384 1.7856,19.44854 1.7856,14.94302 1.7856,9.8841 1.7856,4.45916 1.7856,-1.13091 1.7856,-6.67911 1.7856,-11.97996 1.7856,-16.83716 1.7856,-21.07084 1.7856,-24.52421 3.5712,-55.6815 3.5712,-57.59619 1.7856,-26.85114 1.7856,-24.20698 1.7856,-20.66638 1.7856,-16.360447 1.7856,-11.44864 1.7856,-6.112864 1.7856,-0.550713 1.7856,5.031834 1.7856,10.428038 1.7856,15.438064 1.7856,19.876378 1.7856,23.57862 1.7856,26.40769 7.1424,113.56785 1.7856,25.09925 1.7856,21.81518 1.7856,17.72323 1.7856,12.97493 1.7856,7.74615 1.7856,2.23049 1.7856,-3.36774 1.7856,-8.84129 1.7856,-13.98739 1.7856,-18.61552 1.7856,-22.55427 1.7856,-25.65777 3.5712,-56.74561 3.5712,-56.95126 1.7856,-25.9077 1.7856,-22.8911 1.7856,-19.0268 1.7856,-14.457881 1.7856,-9.353551 1.7856,-3.902834 1.7856,1.692414 1.7856,7.224989 1.7856,12.490003 1.7856,17.29248 1.7856,21.45457 1.7856,24.82215 3.5712,55.97942 3.5712,57.46666 1.7856,26.62959 1.7856,23.89056 1.7856,20.26681 1.7856,15.89254 1.7856,10.92971 1.7856,5.56213 1.7856,-0.0114 1.7856,-5.58456 1.7856,-10.95089 1.7856,-15.91167 1.7856,-20.2832 1.7856,-23.9036 1.7856,-26.63878 7.1424,-113.44007 1.7856,-24.81022 1.7856,-21.43912 1.7856,-17.274099 1.7856,-12.469359 1.7856,-7.20285 1.7856,-1.6696 1.7856,3.925479 1.7856,9.375188 1.7856,14.477708 1.7856,19.044083 1.7856,22.9052 1.7856,25.91809 3.5712,56.95954 3.5712,56.73647 1.7856,25.64698 1.7856,22.53983 1.7856,18.59795 1.7856,13.96735 1.7856,8.81951 1.7856,3.34505 1.7856,-2.25328 1.7856,-7.76818 1.7856,-12.99538 1.7856,-17.74134 1.7856,-21.83029 1.7856,-25.11082 3.5712,-56.25646 3.5712,-57.31568 1.7856,-26.39808 1.7856,-23.56523 1.7856,-19.859681 1.7856,-15.418689 1.7856,-10.4067 1.7856,-5.009324 1.7856,0.57356 1.7856,6.135205 1.7856,11.469646 1.7856,16.379333 1.7856,20.68246 1.7856,24.21966 3.5712,55.36546 3.5712,57.70342 1.7856,27.061 1.7856,24.51191 1.7856,21.05507 1.7856,16.81852 1.7856,11.95913 1.7856,6.65686 1.7856,1.10808 1.7856,-4.48174 1.7856,-9.9056 1.7856,-14.96261 1.7856,-19.46553 1.7856,-23.2476 1.7856,-26.16873 8.928,-139.0294 1.7856,-22.18013 1.7856,-18.162168 1.7856,-13.471611 1.7856,-8.282169 1.7856,-2.786015 1.7856,2.813311 1.7856,8.308453 1.7856,13.495913 1.7856,18.183586 1.7856,22.19786 1.7856,25.39011 3.5712,56.5125 3.5712,57.1433 1.7856,26.15673 1.7856,23.23109 v 0"
         style="fill:none;stroke:#00509b;stroke-width:2.29136;stroke-linecap:round;stroke-dasharray:none;stroke-opacity:1"
         id="path154" />
    </g>
    <path
       style="fill:none;stroke:#000000;stroke-width:2.83465;stroke-linecap:round;stroke-linejoin:round;stroke-dasharray:none;stroke-dashoffset:5.66929;stop-color:#000000"
       d="m 201.25985,212.59842 v 8.50395"
       id="path2549" />
    <path
       style="fill:none;stroke:#000000;stroke-width:2.83465;stroke-linecap:round;stroke-linejoin:round;stroke-dasharray:none;stroke-dashoffset:5.66929;stop-color:#000000"
       d="m 260.7874,212.59842 v 8.50395"
       id="path2549-7" />
    <path
       style="fill:none;stroke:#000000;stroke-width:2.83465;stroke-linecap:round;stroke-linejoin:round;stroke-dasharray:none;stroke-dashoffset:5.66929;stop-color:#000000"
       d="m 320.31497,212.59842 v 8.50395"
       id="path2549-5" />
    <path
       style="fill:none;stroke:#000000;stroke-width:2.83465;stroke-linecap:round;stroke-linejoin:round;stroke-dasharray:none;stroke-dashoffset:5.66929;stop-color:#000000"
       d="m 379.84253,212.59842 v 8.50395"
       id="path2549-1" />
    <path
       style="fill:none;stroke:#000000;stroke-width:2.83465;stroke-linecap:round;stroke-linejoin:round;stroke-dasharray:none;stroke-dashoffset:5.66929;stop-color:#000000"
       d="m 439.37009,212.59842 v 8.50395"
       id="path2549-8" />
    <path
       style="fill:none;stroke:#000000;stroke-width:2.83465;stroke-linecap:round;stroke-linejoin:round;stroke-dasharray:none;stroke-dashoffset:5.66929;stop-color:#000000"
       d="m 498.89763,212.59842 v 8.50395"
       id="path2549-51" />
    <path
       style="fill:none;stroke:#000000;stroke-width:2.83465;stroke-linecap:round;stroke-linejoin:round;stroke-dasharray:none;stroke-dashoffset:5.66929;stop-color:#000000"
       d="m 558.42519,212.59842 v 8.50395"
       id="path2549-12" />
    <path
       style="fill:none;stroke:#000000;stroke-width:2.83465;stroke-linecap:round;stroke-linejoin:round;stroke-dasharray:none;stroke-dashoffset:5.66929;stop-color:#000000"
       d="m 617.95275,212.59842 v 8.50395"
       id="path2549-6" />
    <path
       style="fill:none;stroke:#000000;stroke-width:2.83465;stroke-linecap:round;stroke-linejoin:round;stroke-dasharray:none;stroke-dashoffset:5.66929;stop-color:#000000"
       d="m 677.48031,212.59842 v 8.50395"
       id="path2549-9" />
    <path
       style="fill:none;stroke:#000000;stroke-width:2.83465;stroke-linecap:round;stroke-linejoin:round;stroke-dasharray:none;stroke-dashoffset:5.66929;stop-color:#000000"
       d="m 737.00787,212.59842 v 8.50395"
       id="path2549-80" />
    <path
       style="fill:none;stroke:#000000;stroke-width:2.83465;stroke-linecap:round;stroke-linejoin:round;stroke-dasharray:none;stroke-dashoffset:5.66929;stop-color:#000000"
       d="m 796.53543,212.59842 v 8.50395"
       id="path2549-58" />
    <path
       style="fill:none;stroke:#000000;stroke-width:2.83465;stroke-linecap:round;stroke-linejoin:round;stroke-dasharray:none;stroke-dashoffset:5.66929;stop-color:#000000"
       d="m 856.06299,212.59842 v 8.50395"
       id="path2549-513" />
    <path
       style="fill:none;stroke:#000000;stroke-width:2.83465;stroke-linecap:round;stroke-linejoin:round;stroke-dasharray:none;stroke-dashoffset:5.66929;stop-color:#000000"
       d="m 915.59055,212.59842 v 8.50395"
       id="path2549-0" />
    <path
       style="fill:none;stroke:#000000;stroke-width:2.83465;stroke-linecap:round;stroke-linejoin:round;stroke-dasharray:none;stroke-dashoffset:5.66929;stop-color:#000000"
       d="m 975.11811,212.59842 v 8.50395"
       id="path2549-17" />
    <path
       style="fill:none;stroke:#000000;stroke-width:2.83465;stroke-linecap:round;stroke-linejoin:round;stroke-dasharray:none;stroke-dashoffset:5.66929;stop-color:#000000"
       d="m 1034.6456,212.59842 v 8.50395"
       id="path2549-17-8" />
    <path
       style="fill:#000000;fill-opacity:1;stroke:#000000;stroke-width:2.83465;stroke-linecap:round;stroke-linejoin:round;stroke-dasharray:none;stroke-dashoffset:5.66929;stop-color:#000000"
       d="m 133.22834,212.59843 h 943.93696 l -17.0078,-8.50394 v 17.00787 l 17.0078,-8.50393"
       id="path2747" />
    <path
       style="fill:#000000;fill-opacity:1;stroke:#000000;stroke-width:2.83465;stroke-linecap:round;stroke-linejoin:round;stroke-dasharray:none;stroke-dashoffset:5.66929;stop-color:#000000"
       d="M 141.73228,340.15748 V 56.692913 l -8.50394,17.00786 h 17.00787 l -8.50393,-17.00787"
       id="path2950"
       sodipodi:nodetypes="ccccc" />
    <path
       style="fill:#00509b;stroke:#000000;stroke-width:2.835;stroke-linecap:round;stroke-linejoin:round;stroke-dasharray:none;stroke-dashoffset:2.835;paint-order:fill markers stroke;stop-color:#000000"
       d="m 133.22835,99.212597 h 8.50393"
       id="path1136" />
    <path
       style="fill:#00509b;stroke:#000000;stroke-width:2.835;stroke-linecap:round;stroke-linejoin:round;stroke-dasharray:none;stroke-dashoffset:2.835;paint-order:fill markers stroke;stop-color:#000000"
       d="m 133.22835,155.90551 h 8.50393"
       id="path1136-9" />
    <path
       style="fill:#00509b;stroke:#000000;stroke-width:2.835;stroke-linecap:round;stroke-linejoin:round;stroke-dasharray:none;stroke-dashoffset:2.835;paint-order:fill markers stroke;stop-color:#000000"
       d="m 131.81085,269.29134 h 8.50393"
       id="path1136-2" />
    <path
       style="fill:#00509b;stroke:#000000;stroke-width:2.835;stroke-linecap:round;stroke-linejoin:round;stroke-dasharray:none;stroke-dashoffset:2.835;paint-order:fill markers stroke;stop-color:#000000"
       d="m 133.22835,325.98425 h 8.50393"
       id="path1136-1" />
    <g
       ns1:version="1.8.2"
       ns1:texconverter="pdflatex"
       ns1:pdfconverter="inkscape"
       ns1:text="$E$"
       ns1:preamble="C:\Users\rcaspa\AppData\Roaming\inkscape\extensions\textext\default_packages.tex"
       ns1:scale="4.0"
       ns1:alignment="middle center"
       ns1:stroke-to-path="0"
       ns1:inkscapeversion="1.2.2"
       transform="matrix(4,0,0,4,165.58074,55.583393)"
       ns1:jacobian_sqrt="4.0"
       id="g2776">
      <defs
         id="id-ff663039-26a2-4096-ad40-6913171db94e">
        <g
           id="id-d81b6ffa-09b0-4a7c-87f5-45f8e8054106">
          <g
             id="id-b3b4ffe2-35fd-454a-80e8-1cb75feec304" />
          <g
             id="id-cd625d9e-a4e4-4368-bd46-d4c081922e8e">
            <path
               d="M 2.515625,-3.28125 H 5.8125 l 0.125,-0.609375 H 2.65625 l 0.5,-2.359375 h 1.375 c 0.109375,0 0.234375,0.015625 0.359375,0.015625 h 1.8125 L 6.84375,-6.890625 H 2.40625 L 0.9375,0 h 4.578125 l 0.15625,-0.703125 h -1.25 c -0.125,0 -0.25,0 -0.359375,0 H 1.96875 Z m 0,0"
               id="id-20cd9e23-d237-41f9-b555-f2cd8b82d5b1" />
          </g>
        </g>
      </defs>
      <g
         fill="#000000"
         fill-opacity="1"
         id="id-a13eec7a-3fcb-4b68-96ac-ea0f37b3d1da"
         transform="translate(-149.65,-127.874)">
        <g
           transform="translate(148.712,134.765)"
           id="g2773">
          <path
             d="M 2.515625,-3.28125 H 5.8125 l 0.125,-0.609375 H 2.65625 l 0.5,-2.359375 h 1.375 c 0.109375,0 0.234375,0.015625 0.359375,0.015625 h 1.8125 L 6.84375,-6.890625 H 2.40625 L 0.9375,0 h 4.578125 l 0.15625,-0.703125 h -1.25 c -0.125,0 -0.25,0 -0.359375,0 H 1.96875 Z m 0,0"
             id="id-80277380-ea3e-422c-8f60-61eb8e0d274f" />
        </g>
      </g>
    </g>
    <g
       ns1:version="1.8.2"
       ns1:texconverter="pdflatex"
       ns1:pdfconverter="inkscape"
       ns1:text="$t$"
       ns1:preamble="C:\Users\rcaspa\AppData\Roaming\inkscape\extensions\textext\default_packages.tex"
       ns1:scale="4.0"
       ns1:alignment="middle center"
       ns1:stroke-to-path="0"
       ns1:inkscapeversion="1.2.2"
       transform="matrix(4,0,0,4,1093.1368,201.00268)"
       ns1:jacobian_sqrt="4.0"
       id="g2895">
      <defs
         id="id-b3f0879f-7ef2-45c5-b612-0cd66c8a45d6">
        <g
           id="id-a47ff994-bc63-4b88-b0d2-9a56050f953c">
          <g
             id="id-c6236192-e127-4d10-a8f1-5fc0856b021f" />
          <g
             id="id-48eac312-82d9-49f9-8ecc-1c531ec9ec9d">
            <path
               d="m 2.5625,-3.84375 h 1.40625 l 0.125,-0.578125 H 2.6875 L 2.953125,-5.6875 h -0.6875 L 2,-4.421875 H 1.125 L 1,-3.84375 h 0.84375 c -0.125,0.5625 -0.625,2.8125 -0.625,3.1875 0,0.5625 0.234375,0.765625 0.609375,0.765625 0.53125,0 1.046875,-0.15625 1.546875,-0.375 l -0.046875,-0.59375 c -0.359375,0.25 -0.703125,0.328125 -0.96875,0.328125 -0.109375,0 -0.375,0 -0.375,-0.46875 0,-0.09375 0.015625,-0.171875 0.03125,-0.234375 z m 0,0"
               id="id-eb2ecf4b-e8f9-416a-a8f2-0d81387b3714" />
          </g>
        </g>
      </defs>
      <g
         fill="#000000"
         fill-opacity="1"
         id="id-08c14e2c-cf48-4b42-ac4f-18c32d28971d"
         transform="translate(-149.712,-129.077)">
        <g
           transform="translate(148.712,134.765)"
           id="g2892">
          <path
             d="m 2.5625,-3.84375 h 1.40625 l 0.125,-0.578125 H 2.6875 L 2.953125,-5.6875 h -0.6875 L 2,-4.421875 H 1.125 L 1,-3.84375 h 0.84375 c -0.125,0.5625 -0.625,2.8125 -0.625,3.1875 0,0.5625 0.234375,0.765625 0.609375,0.765625 0.53125,0 1.046875,-0.15625 1.546875,-0.375 l -0.046875,-0.59375 c -0.359375,0.25 -0.703125,0.328125 -0.96875,0.328125 -0.109375,0 -0.375,0 -0.375,-0.46875 0,-0.09375 0.015625,-0.171875 0.03125,-0.234375 z m 0,0"
             id="id-11d70e22-fa7f-4533-8dbf-d412ff728c17" />
        </g>
      </g>
    </g>
  </g>
  <g
     inkscape:groupmode="layer"
     id="layer2"
     inkscape:label="Layer 2"
     transform="translate(-130.39335,-55.275578)" />
  <g
     inkscape:groupmode="layer"
     id="layer3"
     inkscape:label="Layer 3"
     transform="translate(-130.39335,-55.275578)">
    <g
       id="line2d_22"
       transform="matrix(1,0,0,0.74990624,-2.267715,48.998875)"
       style="stroke:#c20052;stroke-width:4.91006;stroke-dasharray:none;stroke-opacity:1;stroke-linecap:round">
      <path
         d="m 144,66.96 1.7856,2.679058 1.7856,7.942109 1.7856,12.923339 1.7856,17.446014 1.7856,21.34967 1.7856,24.49588 3.5712,54.87365 3.5712,56.18564 1.7856,26.09296 1.7856,23.50699 1.7856,20.08827 1.7856,15.95833 1.7856,11.26391 1.7856,6.17176 1.7856,0.86269 1.7856,-4.47486 1.7856,-9.65152 1.7856,-14.48371 1.7856,-18.80016 1.7856,-22.44795 1.7856,-25.29804 3.5712,-55.48403 3.5712,-55.41741 1.7856,-25.21921 1.7856,-22.34565 1.7856,-18.681907 1.7856,-14.358517 1.7856,-9.529304 1.7856,-4.365952 1.7856,0.94813 1.7856,6.224322 1.7856,11.275507 1.7856,15.922701 1.7856,20.00142 1.7856,23.36748 3.5712,53.41852 3.5712,55.94607 1.7856,26.44651 1.7856,24.16464 1.7856,21.02876 1.7856,17.15102 1.7856,12.66973 1.7856,7.74455 1.7856,2.55066 1.7856,-2.72743 1.7856,-7.90242 1.7856,-12.79091 1.7856,-17.2199 1.7856,-21.0329 1.7856,-24.09548 3.5712,-53.86963 3.5712,-55.02368 1.7856,-25.50481 1.7856,-22.94487 1.7856,-19.57568 1.7856,-15.517887 1.7856,-10.916467 1.7856,-5.935415 1.7856,-0.751959 1.7856,4.449778 1.7856,9.485313 1.7856,14.17637 1.7856,18.357187 1.7856,21.88038 1.7856,24.62218 3.5712,53.89616 3.5712,53.69928 1.7856,24.38922 1.7856,21.57805 1.7856,18.00776 1.7856,13.80639 1.7856,9.12412 1.7856,4.12793 1.7856,-1.00444 1.7856,-6.09073 1.7856,-10.95074 1.7856,-15.41261 1.7856,-19.319 1.7856,-22.53261 3.5712,-51.40152 3.5712,-53.69822 1.7856,-25.33499 1.7856,-23.11663 1.7856,-20.08454 1.7856,-16.348116 1.7856,-12.04146 1.7856,-7.318609 1.7856,-2.347985 1.7856,2.693603 1.7856,7.627269 1.7856,12.278391 1.7856,16.482807 1.7856,20.09263 1.7856,22.98141 3.5712,51.27184 3.5712,52.23617 1.7856,24.16406 1.7856,21.70632 1.7856,18.48658 1.7856,14.62113 1.7856,10.24874 1.7856,5.52587 1.7856,0.62088 1.7856,-4.29182 1.7856,-9.03811 1.7856,-13.45026 1.7856,-17.37286 1.7856,-20.66838 1.7856,-23.22189 3.5712,-50.72493 3.5712,-50.40662 1.7856,-22.84524 1.7856,-20.17955 1.7856,-16.80791 1.7856,-12.852064 1.7856,-8.454142 1.7856,-3.771455 1.7856,1.029096 1.7856,5.776993 1.7856,10.304157 1.7856,14.450905 1.7856,18.0716 1.7856,21.03976 3.5712,47.88649 3.5712,49.8892 1.7856,23.48831 1.7856,21.39879 1.7856,18.55932 1.7856,15.07329 1.7856,11.06666 1.7856,6.68336 1.7856,2.08011 1.7856,-2.5791 1.7856,-7.12898 1.7856,-11.40873 1.7856,-15.26776 1.7856,-18.57098 1.7856,-21.20357 3.5712,-47.19667 3.5712,-47.94798 1.7856,-22.13079 1.7856,-19.8468 1.7856,-16.86981 1.7856,-13.3082 1.7856,-9.290662 1.7856,-4.961463 1.7856,-0.475342 1.7856,4.008078 1.7856,8.329969 1.7856,12.3379 1.7856,15.89127 1.7856,18.86622 1.7856,21.15993 8.928,112.45579 1.7856,18.21282 1.7856,15.13609 1.7856,11.5383 1.7856,7.54937 1.7856,3.3125 1.7856,-1.021 1.7856,-5.29714 1.7856,-9.36473 1.7856,-13.08067 1.7856,-16.3151 1.7856,-18.95581 3.5712,-43.03092 3.5712,-44.68965 1.7856,-20.98922 1.7856,-19.08807 1.7856,-16.52141 1.7856,-13.38366 1.7856,-9.78902 1.7856,-5.86725 1.7856,-1.75905 1.7856,2.38905 1.7856,6.42988 1.7856,10.22089 1.7856,13.62919 1.7856,16.53614 1.7856,18.8416 3.5712,41.82668 3.5712,42.35123 1.7856,19.49609 1.7856,17.44964 1.7856,14.79776 1.7856,11.63795 1.7856,8.08513 1.7856,4.26749 1.7856,0.32186 1.7856,-3.61125 1.7856,-7.39259 1.7856,-10.88914 1.7856,-13.9788 1.7856,-16.55465 1.7856,-18.52866 8.928,-97.93782 1.7856,-15.76594 1.7856,-13.06723 1.7856,-9.92395 1.7856,-6.45034 1.7856,-2.77163 1.7856,0.98051 1.7856,4.67269 1.7856,8.17454 1.7856,11.3633 1.7856,14.12817 1.7856,16.37414 3.5712,37.05233 3.5712,38.33251 1.7856,17.94966 1.7856,16.28801 1.7856,14.06213 1.7856,11.35491 1.7856,8.26575 1.7856,4.90686 1.7856,1.39917 1.7856,-2.13195 1.7856,-5.56129 1.7856,-8.76809 1.7856,-11.6405 1.7856,-14.07926 1.7856,-16.00132 3.5712,-35.40246 3.5712,-35.69666 1.7856,-16.37797 1.7856,-14.62223 1.7856,-12.36328 1.7856,-9.68519 1.7856,-6.68616 1.7856,-3.47504 1.7856,-0.1673 1.7856,3.11912 1.7856,6.26798 1.7856,9.16887 1.7856,11.72112 1.7856,13.83723 1.7856,15.44596 7.1424,66.3121 1.7856,14.76118 1.7856,12.94854 1.7856,10.694 1.7856,8.08134 1.7856,5.20629 1.7856,2.17307 1.7856,-0.90945 1.7856,-3.9316 1.7856,-6.78691 1.7856,-9.37572 1.7856,-11.60882 1.7856,-13.41039 3.5712,-30.21856 3.5712,-31.10259 1.7856,-14.50581 1.7856,-13.12403 1.7856,-11.29164 1.7856,-9.07793 1.7856,-6.56513 1.7856,-3.8452 1.7856,-1.01661 1.7856,1.81935 1.7856,4.56211 1.7856,7.11542 1.7856,9.39078 1.7856,11.31041 1.7856,12.80997 3.5712,28.21181 3.5712,28.28238 1.7856,12.91616 1.7856,11.49123 1.7856,9.67543 1.7856,7.5374 1.7856,5.15644 1.7856,2.61962 1.7856,0.0186 1.7856,-2.55374 1.7856,-5.00651 1.7856,-7.25417 1.7856,-9.21938 1.7856,-10.8357 1.7856,-12.04994 7.1424,-51.29891 1.7856,-11.31879 1.7856,-9.88685 1.7856,-8.12272 1.7856,-6.09301 1.7856,-3.87295 1.7856,-1.54364 1.7856,0.81098 1.7856,3.10709 1.7856,5.264 1.7856,7.20698 1.7856,8.86989 1.7856,10.19736 3.5712,22.83576 3.5712,23.32379 1.7856,10.81195 1.7856,9.7379 1.7856,8.33406 1.7856,6.65474 1.7856,4.76331 1.7856,2.72984 1.7856,0.6285 1.7856,-1.46523 1.7856,-3.47711 1.7856,-5.33692 1.7856,-6.98083 1.7856,-8.35363 1.7856,-9.41054 3.5712,-20.57686 3.5712,-20.44057 1.7856,-9.26572 1.7856,-8.19691 1.7856,-6.85463 1.7856,-5.29081 1.7856,-3.56448 1.7856,-1.73954 1.7856,0.11759 1.7856,1.94043 1.7856,3.66472 1.7856,5.23082 1.7856,6.58564 1.7856,7.68454 3.5712,17.4791 3.5712,18.14636 1.7856,8.51718 1.7856,7.74798 1.7856,6.71803 1.7856,5.46859 1.7856,4.04804 1.7856,2.51007 1.7856,0.91153 1.7856,-0.68954 1.7856,-2.23608 1.7856,-3.67404 1.7856,-4.95425 1.7856,-6.0341 1.7856,-6.87896 3.5712,-15.23469 3.5712,-15.3446 1.7856,-7.03356 1.7856,-6.28131 1.7856,-5.3219 1.7856,-4.19388 1.7856,-2.94104 1.7856,-1.61076 1.7856,-0.25221 1.7856,1.08546 1.7856,2.3549 1.7856,3.51225 1.7856,4.51862 1.7856,5.34138 1.7856,5.95532 7.1424,25.36219 1.7856,5.59021 1.7856,4.88686 1.7856,4.02724 1.7856,3.04607 1.7856,1.98161 1.7856,0.87424 1.7856,-0.23516 1.7856,-1.30666 1.7856,-2.30271 1.7856,-3.18945 1.7856,-3.93791 1.7856,-4.52491 3.5712,-10.08828 3.5712,-10.21378 1.7856,-4.69784 1.7856,-4.20873 1.7856,-3.58403 1.7856,-2.8505 1.7856,-2.03807 1.7856,-1.17868 1.7856,-0.30507 1.7856,0.55056 1.7856,1.3576 1.7856,2.08827 1.7856,2.71843 1.7856,3.22848 3.5712,7.4395 3.5712,7.7803 1.7856,3.66245 1.7856,3.33993 1.7856,2.90911 1.7856,2.3901 1.7856,1.8056 1.7856,1.17995 1.7856,0.53807 1.7856,-0.0954 1.7856,-0.69705 1.7856,-1.24577 1.7856,-1.72317 1.7856,-2.11444 1.7856,-2.40863 8.928,-12.82893 1.7856,-2.05428 1.7856,-1.70937 1.7856,-1.31994 1.7856,-0.90373 1.7856,-0.47876 1.7856,-0.0625 1.7856,0.32885 1.7856,0.68084 1.7856,0.98148 1.7856,1.22153 3.5712,2.89316 3.5712,3.03229 1.7856,1.40725 1.7856,1.26256 1.7856,1.07612 1.7856,0.85958 1.7856,0.62528 1.7856,0.38575 1.7856,0.15311 1.7856,-0.0615 1.7856,-0.24858 3.5712,-0.91127 7.1424,-2.27501 1.7856,-0.42611 1.7856,-0.30825 1.7856,-0.17421 1.7856,-0.0337 1.7856,0.10348 3.5712,0.55761 8.928,2.00042 v 0"
         style="fill:none;stroke:#c20052;stroke-width:4.91006;stroke-linecap:round;stroke-dasharray:none;stroke-opacity:1"
         id="path145" />
    </g>
  </g>
</svg>
