<?xml version="1.0" encoding="UTF-8" standalone="no"?>
<!-- Created with Inkscape (http://www.inkscape.org/) -->

<svg
   sodipodi:docname="img_michelson.svg"
   inkscape:version="1.2.2 (732a01da63, 2022-12-09)"
   id="svg1"
   version="1.1"
   viewBox="0 0 284.69949 131.67361"
   height="131.67361mm"
   width="284.69949mm"
   xmlns:inkscape="http://www.inkscape.org/namespaces/inkscape"
   xmlns:sodipodi="http://sodipodi.sourceforge.net/DTD/sodipodi-0.dtd"
   xmlns="http://www.w3.org/2000/svg"
   xmlns:svg="http://www.w3.org/2000/svg"
   xmlns:ns15="http://www.iki.fi/pav/software/textext/">
  <sodipodi:namedview
     id="namedview1"
     pagecolor="#ffffff"
     bordercolor="#000000"
     borderopacity="0.25"
     inkscape:showpageshadow="2"
     inkscape:pageopacity="0.0"
     inkscape:pagecheckerboard="0"
     inkscape:deskcolor="#d1d1d1"
     inkscape:document-units="mm"
     showgrid="true"
     inkscape:zoom="0.70710678"
     inkscape:cx="312.5412"
     inkscape:cy="318.19805"
     inkscape:window-width="1920"
     inkscape:window-height="1009"
     inkscape:window-x="1912"
     inkscape:window-y="-2"
     inkscape:window-maximized="1"
     inkscape:current-layer="layer1">
    <inkscape:grid
       id="grid1"
       units="mm"
       originx="-124.5"
       originy="11.173608"
       spacingx="1"
       spacingy="0.99999998"
       empcolor="#0099e5"
       empopacity="0.30196078"
       color="#0099e5"
       opacity="0.14901961"
       empspacing="5"
       enabled="true"
       visible="true" />
  </sodipodi:namedview>
  <defs
     id="defs1">
    <defs
       id="id-15775824-969a-4fc9-9024-f45acb72688f">
      <g
         id="id-9abdb558-9233-4509-80f0-a60182b618d9">
        <g
           id="id-a9dbd4aa-1dec-4dd1-b894-91d3415dbaa2">
          <path
             d="M 3.296875,-6.921875 H 2.40625 L 0.9375,0 h 0.890625 z m 0,0"
             id="id-ecdde3e8-aabc-43f5-abbe-971fb00cd418" />
        </g>
      </g>
    </defs>
    <defs
       id="id-1a5ebf48-ecd4-4cc3-a820-5c8b258dc742">
      <g
         id="id-a46ee70c-903e-4d3d-89c6-a00ce115f7dd">
        <g
           id="id-fd505280-3d57-4069-ba09-0ca809f06f9d">
          <path
             d="M 2.984375,-6.765625 H 2.78125 C 2.1875,-6.15625 1.359375,-6.125 0.890625,-6.09375 v 0.578125 C 1.21875,-5.53125 1.6875,-5.546875 2.1875,-5.765625 v 5.1875 H 0.953125 V 0 h 3.28125 v -0.578125 h -1.25 z m 0,0"
             id="id-220fa69c-41ce-440e-91ee-a1c4b5f47d5e" />
        </g>
      </g>
    </defs>
  </defs>
  <g
     inkscape:label="Ebene 1"
     inkscape:groupmode="layer"
     id="layer1"
     transform="translate(-124.50001,11.173609)">
    <path
       style="fill:none;stroke:#c20052;stroke-width:1;stroke-linecap:round;stroke-linejoin:round;stroke-dasharray:none;stroke-opacity:1;paint-order:stroke fill markers"
       d="M 160,64.999999 H 320"
       id="path27"
       sodipodi:nodetypes="cc" />
    <path
       style="fill:none;stroke:#c20052;stroke-width:0.996899;stroke-linecap:round;stroke-linejoin:round;stroke-dasharray:none;stroke-opacity:1;paint-order:stroke fill markers"
       d="M 250,115 V -4.9999999"
       id="path28"
       sodipodi:nodetypes="cc" />
    <rect
       style="fill:none;stroke:#000000;stroke-width:1;stroke-linecap:round;stroke-linejoin:round;stroke-dasharray:none;stroke-opacity:1;paint-order:stroke fill markers"
       id="rect31"
       width="10.000001"
       height="4.9999971"
       x="245"
       y="115" />
    <path
       style="fill:#000000;fill-opacity:1;stroke:#000000;stroke-width:1;stroke-linecap:round;stroke-linejoin:round;stroke-dasharray:none;stroke-opacity:1"
       d="m 315,49.999999 5.2408,2.51693 -0.0279,-5.25675 z"
       id="path5-6-2-7-4-0-4-3-0-0-3-2-7-2-19-2-9-4-3-9-22-4"
       sodipodi:nodetypes="cccc"
       inkscape:transform-center-x="0.1587924"
       inkscape:transform-center-y="-2.6560078" />
    <path
       style="fill:#000000;fill-opacity:1;stroke:#000000;stroke-width:1;stroke-linecap:round;stroke-linejoin:round;stroke-dasharray:none;stroke-opacity:1"
       d="m 331,49.999999 -5.2408,2.51693 0.0279,-5.25675 z"
       id="path5-6-2-7-4-0-4-3-0-0-3-2-7-2-19-2-9-4-3-9-2-9-91"
       sodipodi:nodetypes="cccc"
       inkscape:transform-center-x="0.1587924"
       inkscape:transform-center-y="2.6560082" />
    <path
       style="fill:#c20052;fill-opacity:1;stroke:#c20052;stroke-width:1;stroke-linecap:round;stroke-linejoin:round;stroke-dasharray:none;stroke-opacity:1"
       d="m 215,64.999999 -6,2.999999 v -5.999999 z"
       id="path5-6-2-7-4-0-4-3-0-0-3-2-7-2-19-2-9-4-3-9-2-9-9"
       sodipodi:nodetypes="cccc"
       inkscape:transform-center-x="0.1587924"
       inkscape:transform-center-y="2.6560082" />
    <path
       style="fill:#c20052;fill-opacity:1;stroke:#c20052;stroke-width:1;stroke-linecap:round;stroke-linejoin:round;stroke-dasharray:none;stroke-opacity:1"
       d="m 305,64.999999 -6,2.999999 v -5.999999 z"
       id="path5-6-2-7-4-0-4-3-0-0-3-2-7-2-19-2-9-4-3-9-2-9-9-3"
       sodipodi:nodetypes="cccc"
       inkscape:transform-center-x="0.1587924"
       inkscape:transform-center-y="2.6560082" />
    <path
       style="fill:#c20052;fill-opacity:1;stroke:#c20052;stroke-width:1;stroke-linecap:round;stroke-linejoin:round;stroke-dasharray:none;stroke-opacity:1"
       d="m 285,64.999999 6,2.999999 v -5.999999 z"
       id="path5-6-2-7-4-0-4-3-0-0-3-2-7-2-19-2-9-4-3-9-2-9-9-3-7"
       sodipodi:nodetypes="cccc"
       inkscape:transform-center-x="-0.1587876"
       inkscape:transform-center-y="2.6560082" />
    <path
       style="fill:#c20052;fill-opacity:1;stroke:#c20052;stroke-width:1;stroke-linecap:round;stroke-linejoin:round;stroke-dasharray:none;stroke-opacity:1"
       d="M 250,9.9999998 253,16 h -6 z"
       id="path5-6-2-7-4-0-4-3-0-0-3-2-7-2-19-2-9-4-3-9-2-9-9-3-9"
       sodipodi:nodetypes="cccc"
       inkscape:transform-center-x="-2.6560076"
       inkscape:transform-center-y="0.15879269" />
    <path
       style="fill:#c20052;fill-opacity:1;stroke:#c20052;stroke-width:1;stroke-linecap:round;stroke-linejoin:round;stroke-dasharray:none;stroke-opacity:1"
       d="m 250,29.999999 3,-6 h -6 z"
       id="path5-6-2-7-4-0-4-3-0-0-3-2-7-2-19-2-9-4-3-9-2-9-9-3-9-1"
       sodipodi:nodetypes="cccc"
       inkscape:transform-center-x="-2.6560076"
       inkscape:transform-center-y="-0.15879231" />
    <path
       style="fill:#c20052;fill-opacity:1;stroke:#c20052;stroke-width:1;stroke-linecap:round;stroke-linejoin:round;stroke-dasharray:none;stroke-opacity:1"
       d="m 250,105 3,-6.000006 h -6 z"
       id="path5-6-2-7-4-0-4-3-0-0-3-2-7-2-19-2-9-4-3-9-2-9-9-3-9-1-5"
       sodipodi:nodetypes="cccc"
       inkscape:transform-center-x="-2.6560076"
       inkscape:transform-center-y="-0.15879231" />
    <path
       style="fill:#000000;fill-opacity:1;stroke:#000000;stroke-width:1;stroke-linecap:round;stroke-linejoin:round;stroke-dasharray:none;stroke-opacity:1;paint-order:stroke fill markers"
       d="m 315,49.999999 h 16"
       id="path34"
       sodipodi:nodetypes="cc" />
    <g
       transform="matrix(1.41111,0,0,1.41111,129.89447,74.906795)"
       ns15:version="1.8.2"
       ns15:texconverter="pdflatex"
       ns15:pdfconverter="inkscape"
       ns15:text="laser"
       ns15:preamble="C:\Users\rcaspa\AppData\Roaming\inkscape\extensions\textext\default_packages.tex"
       ns15:scale="4.0"
       ns15:alignment="middle center"
       ns15:stroke-to-path="0"
       ns15:inkscapeversion="1.4"
       ns15:jacobian_sqrt="1.41111"
       id="g6">
      <defs
         id="id-168f43c8-02a2-451a-9bc5-5252785606be">
        <g
           id="id-3f7c1dd4-1ce1-4e61-b378-1182a73d92cb">
          <g
             id="id-e36fb020-3d63-484e-8bf8-9a2a23c10a04" />
          <g
             id="id-7165ce33-63fd-42e4-b79e-4dbf17ce274a">
            <path
               d="m 1.5625,-6.921875 h -0.75 V 0 h 0.75 z m 0,0"
               id="id-1e9b1b1d-b5df-492c-802b-6b4fa6a16ccd" />
          </g>
          <g
             id="id-13a37caf-d013-44b9-b594-619e36743463">
            <path
               d="m 3.984375,-2.875 c 0,-1.015625 -0.734375,-1.71875 -1.65625,-1.71875 -0.640625,0 -1.09375,0.15625 -1.5625,0.421875 l 0.0625,0.65625 C 1.34375,-3.875 1.84375,-4 2.328125,-4 c 0.46875,0 0.875,0.390625 0.875,1.125 v 0.4375 C 1.703125,-2.421875 0.4375,-2 0.4375,-1.125 c 0,0.421875 0.265625,1.234375 1.140625,1.234375 0.140625,0 1.078125,-0.015625 1.65625,-0.46875 V 0 h 0.75 z m -0.78125,1.5625 c 0,0.1875 0,0.4375 -0.34375,0.625 C 2.578125,-0.515625 2.1875,-0.5 2.078125,-0.5 1.609375,-0.5 1.15625,-0.734375 1.15625,-1.140625 c 0,-0.703125 1.609375,-0.765625 2.046875,-0.796875 z m 0,0"
               id="id-9dfef199-c729-41e3-9af8-120927a0e8c7" />
          </g>
          <g
             id="id-10ee9993-f50d-4e2a-807b-f7893ee02942">
            <path
               d="M 3.421875,-4.28125 C 2.90625,-4.515625 2.5,-4.59375 1.984375,-4.59375 c -0.25,0 -1.65625,0 -1.65625,1.296875 0,0.5 0.296875,0.8125 0.546875,1 0.296875,0.21875 0.515625,0.265625 1.0625,0.375 0.359375,0.0625 0.9375,0.1875 0.9375,0.71875 0,0.6875 -0.78125,0.6875 -0.9375,0.6875 -0.796875,0 -1.359375,-0.375 -1.53125,-0.484375 l -0.125,0.671875 c 0.3125,0.15625 0.859375,0.4375 1.671875,0.4375 0.1875,0 0.734375,0 1.15625,-0.3125 0.3125,-0.25 0.484375,-0.640625 0.484375,-1.078125 0,-0.546875 -0.375,-0.875 -0.390625,-0.90625 C 2.8125,-2.546875 2.546875,-2.609375 2.046875,-2.6875 1.5,-2.796875 1.03125,-2.90625 1.03125,-3.390625 1.03125,-4 1.75,-4 1.890625,-4 c 0.3125,0 0.84375,0.03125 1.40625,0.375 z m 0,0"
               id="id-47c13cc3-c6a1-4133-a4e5-ded0913ce750" />
          </g>
          <g
             id="id-8502ece5-451b-4164-a1c0-bf590f3055d2">
            <path
               d="M 4.125,-2.1875 C 4.125,-2.515625 4.109375,-3.265625 3.734375,-3.875 3.3125,-4.484375 2.71875,-4.59375 2.359375,-4.59375 1.25,-4.59375 0.34375,-3.53125 0.34375,-2.25 c 0,1.3125 0.96875,2.359375 2.15625,2.359375 0.625,0 1.203125,-0.234375 1.59375,-0.515625 L 4.03125,-1.0625 C 3.40625,-0.53125 2.734375,-0.5 2.515625,-0.5 1.71875,-0.5 1.078125,-1.203125 1.046875,-2.1875 Z M 1.09375,-2.734375 c 0.15625,-0.75 0.6875,-1.25 1.265625,-1.25 0.515625,0 1.0625,0.328125 1.203125,1.25 z m 0,0"
               id="id-8e5fc63b-8254-4ce9-ad48-dadc471813e8" />
          </g>
          <g
             id="id-e50fb532-f4e7-4177-bbe2-18bd5ba02457">
            <path
               d="M 1.5625,-2.140625 C 1.5625,-3.125 2.28125,-3.84375 3.265625,-3.875 v -0.65625 c -0.890625,0 -1.4375,0.5 -1.75,0.953125 v -0.90625 H 0.8125 V 0 h 0.75 z m 0,0"
               id="id-4d70f897-4d5a-476d-9e53-a88913a5411e" />
          </g>
        </g>
      </defs>
      <g
         fill="#000000"
         fill-opacity="1"
         id="id-7978b807-e525-4d16-9873-0dd18eb2c487"
         transform="translate(-149.525,-127.843)">
        <g
           transform="translate(148.712,134.765)"
           id="g26413">
          <path
             d="m 1.5625,-6.921875 h -0.75 V 0 h 0.75 z m 0,0"
             id="id-e82a47f7-f534-4027-9e44-17e00e984faa" />
        </g>
        <g
           transform="translate(151.092,134.765)"
           id="g26416">
          <path
             d="m 3.984375,-2.875 c 0,-1.015625 -0.734375,-1.71875 -1.65625,-1.71875 -0.640625,0 -1.09375,0.15625 -1.5625,0.421875 l 0.0625,0.65625 C 1.34375,-3.875 1.84375,-4 2.328125,-4 c 0.46875,0 0.875,0.390625 0.875,1.125 v 0.4375 C 1.703125,-2.421875 0.4375,-2 0.4375,-1.125 c 0,0.421875 0.265625,1.234375 1.140625,1.234375 0.140625,0 1.078125,-0.015625 1.65625,-0.46875 V 0 h 0.75 z m -0.78125,1.5625 c 0,0.1875 0,0.4375 -0.34375,0.625 C 2.578125,-0.515625 2.1875,-0.5 2.078125,-0.5 1.609375,-0.5 1.15625,-0.734375 1.15625,-1.140625 c 0,-0.703125 1.609375,-0.765625 2.046875,-0.796875 z m 0,0"
             id="id-13b48141-0bc4-4527-965a-9d1be27677d5" />
        </g>
        <g
           transform="translate(155.88,134.765)"
           id="g26419">
          <path
             d="M 3.421875,-4.28125 C 2.90625,-4.515625 2.5,-4.59375 1.984375,-4.59375 c -0.25,0 -1.65625,0 -1.65625,1.296875 0,0.5 0.296875,0.8125 0.546875,1 0.296875,0.21875 0.515625,0.265625 1.0625,0.375 0.359375,0.0625 0.9375,0.1875 0.9375,0.71875 0,0.6875 -0.78125,0.6875 -0.9375,0.6875 -0.796875,0 -1.359375,-0.375 -1.53125,-0.484375 l -0.125,0.671875 c 0.3125,0.15625 0.859375,0.4375 1.671875,0.4375 0.1875,0 0.734375,0 1.15625,-0.3125 0.3125,-0.25 0.484375,-0.640625 0.484375,-1.078125 0,-0.546875 -0.375,-0.875 -0.390625,-0.90625 C 2.8125,-2.546875 2.546875,-2.609375 2.046875,-2.6875 1.5,-2.796875 1.03125,-2.90625 1.03125,-3.390625 1.03125,-4 1.75,-4 1.890625,-4 c 0.3125,0 0.84375,0.03125 1.40625,0.375 z m 0,0"
             id="id-5f76e328-f3bd-4982-88d8-db9126a14e33" />
        </g>
        <g
           transform="translate(159.699,134.765)"
           id="g26422">
          <path
             d="M 4.125,-2.1875 C 4.125,-2.515625 4.109375,-3.265625 3.734375,-3.875 3.3125,-4.484375 2.71875,-4.59375 2.359375,-4.59375 1.25,-4.59375 0.34375,-3.53125 0.34375,-2.25 c 0,1.3125 0.96875,2.359375 2.15625,2.359375 0.625,0 1.203125,-0.234375 1.59375,-0.515625 L 4.03125,-1.0625 C 3.40625,-0.53125 2.734375,-0.5 2.515625,-0.5 1.71875,-0.5 1.078125,-1.203125 1.046875,-2.1875 Z M 1.09375,-2.734375 c 0.15625,-0.75 0.6875,-1.25 1.265625,-1.25 0.515625,0 1.0625,0.328125 1.203125,1.25 z m 0,0"
             id="id-84662316-60b2-4144-ad55-28894bce3b1b" />
        </g>
        <g
           transform="translate(164.126,134.765)"
           id="g26425">
          <path
             d="M 1.5625,-2.140625 C 1.5625,-3.125 2.28125,-3.84375 3.265625,-3.875 v -0.65625 c -0.890625,0 -1.4375,0.5 -1.75,0.953125 v -0.90625 H 0.8125 V 0 h 0.75 z m 0,0"
             id="id-7be572e3-09a8-44b0-8205-49c9844497b8" />
        </g>
      </g>
    </g>
    <g
       transform="matrix(1.41111,0,0,1.41111,192.92729,110.57796)"
       ns15:version="1.8.2"
       ns15:texconverter="pdflatex"
       ns15:pdfconverter="inkscape"
       ns15:text="detector"
       ns15:preamble="C:\Users\rcaspa\AppData\Roaming\inkscape\extensions\textext\default_packages.tex"
       ns15:scale="4.0"
       ns15:alignment="middle center"
       ns15:stroke-to-path="0"
       ns15:inkscapeversion="1.4"
       ns15:jacobian_sqrt="1.41111"
       id="g15">
      <defs
         id="id-d55b6105-8a9b-4b68-9811-91d0b10aeddc">
        <g
           id="id-13e13863-5ab7-4ccb-846c-9dc1014652f7">
          <g
             id="id-cb5535a0-67b8-47cf-8be0-2a1fa2a1a844" />
          <g
             id="id-a6a88e55-b6bf-49b8-b00b-8f5520887975">
            <path
               d="m 4.328125,-6.921875 h -0.75 v 2.9375 C 3.046875,-4.421875 2.5,-4.53125 2.125,-4.53125 c -0.984375,0 -1.765625,1.03125 -1.765625,2.3125 0,1.3125 0.765625,2.328125 1.71875,2.328125 0.328125,0 0.90625,-0.09375 1.46875,-0.625 V 0 h 0.78125 z m -0.78125,5.53125 C 3.546875,-1.25 3.53125,-1.0625 3.21875,-0.78125 2.984375,-0.578125 2.734375,-0.5 2.484375,-0.5 c -0.625,0 -1.34375,-0.46875 -1.34375,-1.703125 0,-1.3125 0.859375,-1.71875 1.4375,-1.71875 0.453125,0 0.75,0.21875 0.96875,0.546875 z m 0,0"
               id="id-77f67531-2f30-48f6-8c4c-f5692a6b2596" />
          </g>
          <g
             id="id-d3e8a7d3-9205-485f-8b90-4589ad2b9679">
            <path
               d="M 4.125,-2.1875 C 4.125,-2.515625 4.109375,-3.265625 3.734375,-3.875 3.3125,-4.484375 2.71875,-4.59375 2.359375,-4.59375 1.25,-4.59375 0.34375,-3.53125 0.34375,-2.25 c 0,1.3125 0.96875,2.359375 2.15625,2.359375 0.625,0 1.203125,-0.234375 1.59375,-0.515625 L 4.03125,-1.0625 C 3.40625,-0.53125 2.734375,-0.5 2.515625,-0.5 1.71875,-0.5 1.078125,-1.203125 1.046875,-2.1875 Z M 1.09375,-2.734375 c 0.15625,-0.75 0.6875,-1.25 1.265625,-1.25 0.515625,0 1.0625,0.328125 1.203125,1.25 z m 0,0"
               id="id-1c78b3d4-19ff-4278-a916-45b6c15a7e4f" />
          </g>
          <g
             id="id-7bd0996b-00c2-4791-8dc5-fdb60e318b27">
            <path
               d="M 1.75,-3.84375 H 3.15625 V -4.421875 H 1.75 V -5.6875 H 1.0625 v 1.265625 h -0.875 v 0.578125 h 0.84375 v 2.65625 c 0,0.59375 0.140625,1.296875 0.828125,1.296875 0.6875,0 1.203125,-0.25 1.453125,-0.375 L 3.15625,-0.859375 C 2.890625,-0.640625 2.578125,-0.53125 2.25,-0.53125 c -0.359375,0 -0.5,-0.296875 -0.5,-0.828125 z m 0,0"
               id="id-a76f9340-328e-4252-8620-f20a42bcf1b6" />
          </g>
          <g
             id="id-ff20ba69-f372-42b8-8748-1d58b5125234">
            <path
               d="M 4.09375,-4.171875 C 3.5,-4.5 3.15625,-4.59375 2.546875,-4.59375 c -1.375,0 -2.1875,1.203125 -2.1875,2.375 0,1.234375 0.90625,2.328125 2.15625,2.328125 0.53125,0 1.078125,-0.140625 1.625,-0.515625 l -0.0625,-0.65625 c -0.515625,0.390625 -1.046875,0.53125 -1.5625,0.53125 -0.828125,0 -1.375,-0.71875 -1.375,-1.6875 C 1.140625,-3 1.5,-3.953125 2.5625,-3.953125 c 0.515625,0 0.859375,0.078125 1.40625,0.4375 z m 0,0"
               id="id-726e9871-a049-4577-85aa-0ece90074a39" />
          </g>
          <g
             id="id-ee27b9aa-4fee-45d2-a97d-e904d4039409">
            <path
               d="m 4.671875,-2.1875 c 0,-1.34375 -1,-2.40625 -2.171875,-2.40625 -1.234375,0 -2.203125,1.09375 -2.203125,2.40625 0,1.3125 1.015625,2.296875 2.1875,2.296875 1.1875,0 2.1875,-1 2.1875,-2.296875 z m -2.1875,1.65625 c -0.6875,0 -1.40625,-0.5625 -1.40625,-1.765625 0,-1.203125 0.75,-1.6875 1.40625,-1.6875 0.703125,0 1.40625,0.515625 1.40625,1.6875 0,1.1875 -0.671875,1.765625 -1.40625,1.765625 z m 0,0"
               id="id-233128a2-387d-4fd5-b313-699aebbab9f3" />
          </g>
          <g
             id="id-ce58158c-d46e-4687-bdda-0280b1855be6">
            <path
               d="M 1.5625,-2.140625 C 1.5625,-3.125 2.28125,-3.84375 3.265625,-3.875 v -0.65625 c -0.890625,0 -1.4375,0.5 -1.75,0.953125 v -0.90625 H 0.8125 V 0 h 0.75 z m 0,0"
               id="id-39629285-60f3-4122-baad-58e27c4447b4" />
          </g>
        </g>
      </defs>
      <g
         fill="#000000"
         fill-opacity="1"
         id="id-40e256df-650c-4733-88d3-7c07c5816d50"
         transform="translate(-149.071,-127.843)">
        <g
           transform="translate(148.712,134.765)"
           id="g26732">
          <path
             d="m 4.328125,-6.921875 h -0.75 v 2.9375 C 3.046875,-4.421875 2.5,-4.53125 2.125,-4.53125 c -0.984375,0 -1.765625,1.03125 -1.765625,2.3125 0,1.3125 0.765625,2.328125 1.71875,2.328125 0.328125,0 0.90625,-0.09375 1.46875,-0.625 V 0 h 0.78125 z m -0.78125,5.53125 C 3.546875,-1.25 3.53125,-1.0625 3.21875,-0.78125 2.984375,-0.578125 2.734375,-0.5 2.484375,-0.5 c -0.625,0 -1.34375,-0.46875 -1.34375,-1.703125 0,-1.3125 0.859375,-1.71875 1.4375,-1.71875 0.453125,0 0.75,0.21875 0.96875,0.546875 z m 0,0"
             id="id-11e09377-10fc-4f14-be66-7b6098b770e6" />
        </g>
        <g
           transform="translate(153.86,134.765)"
           id="g26735">
          <path
             d="M 4.125,-2.1875 C 4.125,-2.515625 4.109375,-3.265625 3.734375,-3.875 3.3125,-4.484375 2.71875,-4.59375 2.359375,-4.59375 1.25,-4.59375 0.34375,-3.53125 0.34375,-2.25 c 0,1.3125 0.96875,2.359375 2.15625,2.359375 0.625,0 1.203125,-0.234375 1.59375,-0.515625 L 4.03125,-1.0625 C 3.40625,-0.53125 2.734375,-0.5 2.515625,-0.5 1.71875,-0.5 1.078125,-1.203125 1.046875,-2.1875 Z M 1.09375,-2.734375 c 0.15625,-0.75 0.6875,-1.25 1.265625,-1.25 0.515625,0 1.0625,0.328125 1.203125,1.25 z m 0,0"
             id="id-1ec6bd0c-c861-460b-966e-2016a08a4e82" />
        </g>
        <g
           transform="translate(158.287,134.765)"
           id="g26738">
          <path
             d="M 1.75,-3.84375 H 3.15625 V -4.421875 H 1.75 V -5.6875 H 1.0625 v 1.265625 h -0.875 v 0.578125 h 0.84375 v 2.65625 c 0,0.59375 0.140625,1.296875 0.828125,1.296875 0.6875,0 1.203125,-0.25 1.453125,-0.375 L 3.15625,-0.859375 C 2.890625,-0.640625 2.578125,-0.53125 2.25,-0.53125 c -0.359375,0 -0.5,-0.296875 -0.5,-0.828125 z m 0,0"
             id="id-80729660-876e-4c07-b0ae-dd84e2a6c826" />
        </g>
        <g
           transform="translate(161.885,134.765)"
           id="g26741">
          <path
             d="M 4.125,-2.1875 C 4.125,-2.515625 4.109375,-3.265625 3.734375,-3.875 3.3125,-4.484375 2.71875,-4.59375 2.359375,-4.59375 1.25,-4.59375 0.34375,-3.53125 0.34375,-2.25 c 0,1.3125 0.96875,2.359375 2.15625,2.359375 0.625,0 1.203125,-0.234375 1.59375,-0.515625 L 4.03125,-1.0625 C 3.40625,-0.53125 2.734375,-0.5 2.515625,-0.5 1.71875,-0.5 1.078125,-1.203125 1.046875,-2.1875 Z M 1.09375,-2.734375 c 0.15625,-0.75 0.6875,-1.25 1.265625,-1.25 0.515625,0 1.0625,0.328125 1.203125,1.25 z m 0,0"
             id="id-7a1ed528-1ebf-4b6a-867b-b793af3ed9c8" />
        </g>
        <g
           transform="translate(166.312,134.765)"
           id="g26744">
          <path
             d="M 4.09375,-4.171875 C 3.5,-4.5 3.15625,-4.59375 2.546875,-4.59375 c -1.375,0 -2.1875,1.203125 -2.1875,2.375 0,1.234375 0.90625,2.328125 2.15625,2.328125 0.53125,0 1.078125,-0.140625 1.625,-0.515625 l -0.0625,-0.65625 c -0.515625,0.390625 -1.046875,0.53125 -1.5625,0.53125 -0.828125,0 -1.375,-0.71875 -1.375,-1.6875 C 1.140625,-3 1.5,-3.953125 2.5625,-3.953125 c 0.515625,0 0.859375,0.078125 1.40625,0.4375 z m 0,0"
             id="id-ca164f0f-9f23-44cd-b721-279d986fc156" />
        </g>
        <g
           transform="translate(170.739,134.765)"
           id="g26747">
          <path
             d="M 1.75,-3.84375 H 3.15625 V -4.421875 H 1.75 V -5.6875 H 1.0625 v 1.265625 h -0.875 v 0.578125 h 0.84375 v 2.65625 c 0,0.59375 0.140625,1.296875 0.828125,1.296875 0.6875,0 1.203125,-0.25 1.453125,-0.375 L 3.15625,-0.859375 C 2.890625,-0.640625 2.578125,-0.53125 2.25,-0.53125 c -0.359375,0 -0.5,-0.296875 -0.5,-0.828125 z m 0,0"
             id="id-68671c8a-322f-4ada-a038-1aa1862a99b8" />
        </g>
        <g
           transform="translate(174.337,134.765)"
           id="g26750">
          <path
             d="m 4.671875,-2.1875 c 0,-1.34375 -1,-2.40625 -2.171875,-2.40625 -1.234375,0 -2.203125,1.09375 -2.203125,2.40625 0,1.3125 1.015625,2.296875 2.1875,2.296875 1.1875,0 2.1875,-1 2.1875,-2.296875 z m -2.1875,1.65625 c -0.6875,0 -1.40625,-0.5625 -1.40625,-1.765625 0,-1.203125 0.75,-1.6875 1.40625,-1.6875 0.703125,0 1.40625,0.515625 1.40625,1.6875 0,1.1875 -0.671875,1.765625 -1.40625,1.765625 z m 0,0"
             id="id-a4bc6030-b0e1-4716-b623-bcc41236a834" />
        </g>
      </g>
      <g
         fill="#000000"
         fill-opacity="1"
         id="id-ae7b38d1-21b1-4bce-b2b5-564eaba1444d"
         transform="translate(-149.071,-127.843)">
        <g
           transform="translate(179.039,134.765)"
           id="g26754">
          <path
             d="M 1.5625,-2.140625 C 1.5625,-3.125 2.28125,-3.84375 3.265625,-3.875 v -0.65625 c -0.890625,0 -1.4375,0.5 -1.75,0.953125 v -0.90625 H 0.8125 V 0 h 0.75 z m 0,0"
             id="id-65ebb142-68d4-4afe-9ee2-be198c8a5fbc" />
        </g>
      </g>
    </g>
    <g
       transform="matrix(1.41111,0,0,1.41111,268.598,93.3524)"
       ns15:version="1.8.2"
       ns15:texconverter="pdflatex"
       ns15:pdfconverter="inkscape"
       ns15:text="$z_m = z_r + \\Delta z$"
       ns15:preamble="C:\Users\rcaspa\AppData\Roaming\inkscape\extensions\textext\default_packages.tex"
       ns15:scale="4.0"
       ns15:alignment="middle center"
       ns15:stroke-to-path="0"
       ns15:inkscapeversion="1.4"
       ns15:jacobian_sqrt="1.41111"
       id="g24">
      <defs
         id="id-d8b3c1a2-7213-4a6b-92b7-11d9fa19336b">
        <g
           id="id-8fb3aebb-343c-435d-b6b4-6bbd881d5c78">
          <g
             id="id-28109d75-f26d-404d-94db-d235254002ad" />
          <g
             id="id-d930deee-a825-443c-a2f1-d5cd4af0502b">
            <path
               d="m 4.75,-3.953125 c 0.09375,-0.078125 0.09375,-0.09375 0.125,-0.1875 l 0.046875,-0.28125 h -3.5625 l -0.125,0.578125 H 2.625 c 0.125,0 0.25,0 0.359375,0 h 0.84375 l -3.34375,3.3125 C 0.375,-0.421875 0.375,-0.40625 0.34375,-0.3125 0.328125,-0.265625 0.296875,-0.0625 0.28125,0 H 4 L 4.140625,-0.625 H 2.65625 c -0.109375,0 -0.234375,0.015625 -0.359375,0.015625 h -0.90625 z m 0,0"
               id="id-8322406b-aa51-48b4-8b42-f6ce5f0f8c38" />
          </g>
          <g
             id="id-018b74ff-0845-462c-8103-82d29df9217e" />
          <g
             id="id-7f2cdfd4-4943-46c4-9a1e-e8425979be4f">
            <path
               d="m 5.75,-2.078125 c 0.015625,-0.125 0.03125,-0.203125 0.03125,-0.375 0,-0.59375 -0.453125,-0.703125 -0.828125,-0.703125 -0.546875,0 -0.96875,0.28125 -1.234375,0.5625 -0.0625,-0.375 -0.3125,-0.5625 -0.828125,-0.5625 -0.390625,0 -0.8125,0.15625 -1.1875,0.515625 l 0.109375,-0.5 H 1.25 L 0.578125,0 H 1.1875 L 1.484375,-1.453125 C 1.59375,-1.875 1.625,-2.09375 1.859375,-2.375 2.03125,-2.59375 2.25,-2.703125 2.5,-2.703125 c 0.34375,0 0.59375,0.125 0.59375,0.453125 0,0.109375 0,0.125 -0.015625,0.171875 L 2.640625,0 h 0.59375 l 0.3125,-1.453125 C 3.640625,-1.875 3.6875,-2.09375 3.921875,-2.375 c 0.171875,-0.21875 0.375,-0.328125 0.625,-0.328125 0.359375,0 0.609375,0.125 0.609375,0.453125 0,0.109375 -0.015625,0.125 -0.015625,0.171875 L 4.6875,0 h 0.609375 z m 0,0"
               id="id-62eda592-e413-477a-a5c9-cbcb1ea16e25" />
          </g>
          <g
             id="id-89770469-4194-4367-b8a4-62f087eb8b54">
            <path
               d="m 3.09375,-3.15625 c -0.8125,0 -1.328125,0.53125 -1.421875,0.640625 l 0.125,-0.625 H 1.265625 L 0.59375,0 H 1.171875 C 1.21875,-0.234375 1.484375,-1.4375 1.5,-1.546875 1.625,-2.09375 2.21875,-2.640625 2.984375,-2.640625 Z m 0,0"
               id="id-d2d8ea88-8452-425f-bf84-3be654dec2e5" />
          </g>
          <g
             id="id-abf4912a-602a-4036-970a-2e8cf6c3e783" />
          <g
             id="id-3df6e613-6632-447a-832d-139d9fac98b9">
            <path
               d="m 6.84375,-3.296875 c 0.15625,0 0.34375,0 0.34375,-0.1875 C 7.1875,-3.6875 7,-3.6875 6.859375,-3.6875 h -5.96875 c -0.140625,0 -0.328125,0 -0.328125,0.203125 0,0.1875 0.1875,0.1875 0.328125,0.1875 z m 0.015625,2 C 7,-1.296875 7.1875,-1.296875 7.1875,-1.5 7.1875,-1.6875 7,-1.6875 6.84375,-1.6875 H 0.890625 c -0.140625,0 -0.328125,0 -0.328125,0.1875 0,0.203125 0.1875,0.203125 0.328125,0.203125 z m 0,0"
               id="id-0eb1ef58-7540-49ef-861f-4089a80d773a" />
          </g>
          <g
             id="id-43c72ad4-408f-4d29-b522-fb6861632311">
            <path
               d="m 4.078125,-2.296875 h 2.78125 C 7,-2.296875 7.1875,-2.296875 7.1875,-2.5 7.1875,-2.6875 7,-2.6875 6.859375,-2.6875 h -2.78125 v -2.796875 c 0,-0.140625 0,-0.328125 -0.203125,-0.328125 -0.203125,0 -0.203125,0.1875 -0.203125,0.328125 V -2.6875 h -2.78125 c -0.140625,0 -0.328125,0 -0.328125,0.1875 0,0.203125 0.1875,0.203125 0.328125,0.203125 h 2.78125 V 0.5 c 0,0.140625 0,0.328125 0.203125,0.328125 0.203125,0 0.203125,-0.1875 0.203125,-0.328125 z m 0,0"
               id="id-11db5087-52d7-493a-b99d-7caa0636a7ef" />
          </g>
          <g
             id="id-33453a67-d9e6-475a-ae22-f3c4c6ffe435">
            <path
               d="M 4.59375,-6.921875 H 3.703125 L 0.421875,0 H 7.875 Z M 3,-3.875 c 0.5625,-1.1875 0.921875,-1.953125 1.03125,-2.359375 0.046875,0.140625 0.109375,0.34375 0.65625,1.515625 L 6.5,-0.828125 H 1.578125 Z m 0,0"
               id="id-c5698f48-7402-40d2-81af-2cbb7c2e1878" />
          </g>
        </g>
      </defs>
      <g
         fill="#000000"
         fill-opacity="1"
         id="id-4012e0ed-e6f1-4450-a44a-fb22117f9fa2"
         transform="translate(-148.993,-127.843)">
        <g
           transform="translate(148.712,134.765)"
           id="g28011">
          <path
             d="m 4.75,-3.953125 c 0.09375,-0.078125 0.09375,-0.09375 0.125,-0.1875 l 0.046875,-0.28125 h -3.5625 l -0.125,0.578125 H 2.625 c 0.125,0 0.25,0 0.359375,0 h 0.84375 l -3.34375,3.3125 C 0.375,-0.421875 0.375,-0.40625 0.34375,-0.3125 0.328125,-0.265625 0.296875,-0.0625 0.28125,0 H 4 L 4.140625,-0.625 H 2.65625 c -0.109375,0 -0.234375,0.015625 -0.359375,0.015625 h -0.90625 z m 0,0"
             id="id-5d4b7275-9bba-40a7-bcca-864e3c9aa9e4" />
        </g>
      </g>
      <g
         fill="#000000"
         fill-opacity="1"
         id="id-f87f6144-5ff3-493c-9c99-d4158b3279b5"
         transform="translate(-148.993,-127.843)">
        <g
           transform="translate(153.043,136.259)"
           id="g28015">
          <path
             d="m 5.75,-2.078125 c 0.015625,-0.125 0.03125,-0.203125 0.03125,-0.375 0,-0.59375 -0.453125,-0.703125 -0.828125,-0.703125 -0.546875,0 -0.96875,0.28125 -1.234375,0.5625 -0.0625,-0.375 -0.3125,-0.5625 -0.828125,-0.5625 -0.390625,0 -0.8125,0.15625 -1.1875,0.515625 l 0.109375,-0.5 H 1.25 L 0.578125,0 H 1.1875 L 1.484375,-1.453125 C 1.59375,-1.875 1.625,-2.09375 1.859375,-2.375 2.03125,-2.59375 2.25,-2.703125 2.5,-2.703125 c 0.34375,0 0.59375,0.125 0.59375,0.453125 0,0.109375 0,0.125 -0.015625,0.171875 L 2.640625,0 h 0.59375 l 0.3125,-1.453125 C 3.640625,-1.875 3.6875,-2.09375 3.921875,-2.375 c 0.171875,-0.21875 0.375,-0.328125 0.625,-0.328125 0.359375,0 0.609375,0.125 0.609375,0.453125 0,0.109375 -0.015625,0.125 -0.015625,0.171875 L 4.6875,0 h 0.609375 z m 0,0"
             id="id-b211da79-3062-4d5f-bbf0-0d0f38746010" />
        </g>
      </g>
      <g
         fill="#000000"
         fill-opacity="1"
         id="id-80f7f3e9-28ed-4544-9332-f97db2c865ff"
         transform="translate(-148.993,-127.843)">
        <g
           transform="translate(162.309,134.765)"
           id="g28019">
          <path
             d="m 6.84375,-3.296875 c 0.15625,0 0.34375,0 0.34375,-0.1875 C 7.1875,-3.6875 7,-3.6875 6.859375,-3.6875 h -5.96875 c -0.140625,0 -0.328125,0 -0.328125,0.203125 0,0.1875 0.1875,0.1875 0.328125,0.1875 z m 0.015625,2 C 7,-1.296875 7.1875,-1.296875 7.1875,-1.5 7.1875,-1.6875 7,-1.6875 6.84375,-1.6875 H 0.890625 c -0.140625,0 -0.328125,0 -0.328125,0.1875 0,0.203125 0.1875,0.203125 0.328125,0.203125 z m 0,0"
             id="id-d795ec93-4c4c-46e5-b5d3-02289b0172ec" />
        </g>
      </g>
      <g
         fill="#000000"
         fill-opacity="1"
         id="id-403297f5-6e6a-43c3-b4b6-cae5ebf303f8"
         transform="translate(-148.993,-127.843)">
        <g
           transform="translate(172.825,134.765)"
           id="g28023">
          <path
             d="m 4.75,-3.953125 c 0.09375,-0.078125 0.09375,-0.09375 0.125,-0.1875 l 0.046875,-0.28125 h -3.5625 l -0.125,0.578125 H 2.625 c 0.125,0 0.25,0 0.359375,0 h 0.84375 l -3.34375,3.3125 C 0.375,-0.421875 0.375,-0.40625 0.34375,-0.3125 0.328125,-0.265625 0.296875,-0.0625 0.28125,0 H 4 L 4.140625,-0.625 H 2.65625 c -0.109375,0 -0.234375,0.015625 -0.359375,0.015625 h -0.90625 z m 0,0"
             id="id-7ad4619c-5f79-4e36-aae3-4c11708da418" />
        </g>
      </g>
      <g
         fill="#000000"
         fill-opacity="1"
         id="id-f1c06365-4fc4-4805-85b0-ff964e1a5dc8"
         transform="translate(-148.993,-127.843)">
        <g
           transform="translate(177.156,136.259)"
           id="g28027">
          <path
             d="m 3.09375,-3.15625 c -0.8125,0 -1.328125,0.53125 -1.421875,0.640625 l 0.125,-0.625 H 1.265625 L 0.59375,0 H 1.171875 C 1.21875,-0.234375 1.484375,-1.4375 1.5,-1.546875 1.625,-2.09375 2.21875,-2.640625 2.984375,-2.640625 Z m 0,0"
             id="id-73403f0f-73e9-4fd9-8564-9324ed5d0084" />
        </g>
      </g>
      <g
         fill="#000000"
         fill-opacity="1"
         id="id-b0634409-3cad-44ed-ace3-6fd43e78dfff"
         transform="translate(-148.993,-127.843)">
        <g
           transform="translate(183.16,134.765)"
           id="g28031">
          <path
             d="m 4.078125,-2.296875 h 2.78125 C 7,-2.296875 7.1875,-2.296875 7.1875,-2.5 7.1875,-2.6875 7,-2.6875 6.859375,-2.6875 h -2.78125 v -2.796875 c 0,-0.140625 0,-0.328125 -0.203125,-0.328125 -0.203125,0 -0.203125,0.1875 -0.203125,0.328125 V -2.6875 h -2.78125 c -0.140625,0 -0.328125,0 -0.328125,0.1875 0,0.203125 0.1875,0.203125 0.328125,0.203125 h 2.78125 V 0.5 c 0,0.140625 0,0.328125 0.203125,0.328125 0.203125,0 0.203125,-0.1875 0.203125,-0.328125 z m 0,0"
             id="id-ad5c9ff7-0f26-4643-8622-0420e8f495f7" />
        </g>
      </g>
      <g
         fill="#000000"
         fill-opacity="1"
         id="id-0562019c-6c2a-4d22-9b3f-fc3880e25a54"
         transform="translate(-148.993,-127.843)">
        <g
           transform="translate(193.121,134.765)"
           id="g28035">
          <path
             d="M 4.59375,-6.921875 H 3.703125 L 0.421875,0 H 7.875 Z M 3,-3.875 c 0.5625,-1.1875 0.921875,-1.953125 1.03125,-2.359375 0.046875,0.140625 0.109375,0.34375 0.65625,1.515625 L 6.5,-0.828125 H 1.578125 Z m 0,0"
             id="id-dfded299-7ac7-42bb-b890-0f0cba2aa527" />
        </g>
      </g>
      <g
         fill="#000000"
         fill-opacity="1"
         id="id-182e6418-0bbc-482a-b5b0-2472f517ba79"
         transform="translate(-148.993,-127.843)">
        <g
           transform="translate(201.425,134.765)"
           id="g28039">
          <path
             d="m 4.75,-3.953125 c 0.09375,-0.078125 0.09375,-0.09375 0.125,-0.1875 l 0.046875,-0.28125 h -3.5625 l -0.125,0.578125 H 2.625 c 0.125,0 0.25,0 0.359375,0 h 0.84375 l -3.34375,3.3125 C 0.375,-0.421875 0.375,-0.40625 0.34375,-0.3125 0.328125,-0.265625 0.296875,-0.0625 0.28125,0 H 4 L 4.140625,-0.625 H 2.65625 c -0.109375,0 -0.234375,0.015625 -0.359375,0.015625 h -0.90625 z m 0,0"
             id="id-e0eb5615-e1b5-4502-bc14-2cbbdac65513" />
        </g>
      </g>
    </g>
    <g
       transform="matrix(1.41111,0,0,1.41111,209.438,26.8801)"
       ns15:version="1.8.2"
       ns15:texconverter="pdflatex"
       ns15:pdfconverter="inkscape"
       ns15:text="$x_r$"
       ns15:preamble="C:\Users\rcaspa\AppData\Roaming\inkscape\extensions\textext\default_packages.tex"
       ns15:scale="4.0"
       ns15:alignment="middle center"
       ns15:stroke-to-path="0"
       ns15:inkscapeversion="1.4"
       ns15:jacobian_sqrt="1.41111"
       id="g27">
      <defs
         id="id-8c44c189-592e-436f-94d9-5b0eaa535fec">
        <g
           id="id-a05ef6fa-6f74-4a60-85b4-72f5cefc327d">
          <g
             id="id-eadf3a14-9fc2-4549-850c-c96fa35a6428" />
          <g
             id="id-fde03b33-076f-4400-9cdf-b43d7cc75522">
            <path
               d="m 3.078125,-2.28125 2.28125,-2.140625 H 4.53125 L 2.859375,-2.78125 1.828125,-4.421875 H 1 L 2.421875,-2.28125 0,0 H 0.8125 L 2.65625,-1.875 3.765625,0 h 0.8125 z m 0,0"
               id="id-87a6e979-871e-4205-8300-daff636a54e8" />
          </g>
          <g
             id="id-1878ae6b-bb6d-4fce-b951-b7a313f5eadd" />
          <g
             id="id-c5f5ecf0-d59e-4acb-bbe6-0a6404f26de2">
            <path
               d="m 3.09375,-3.15625 c -0.8125,0 -1.328125,0.53125 -1.421875,0.640625 l 0.125,-0.625 H 1.265625 L 0.59375,0 H 1.171875 C 1.21875,-0.234375 1.484375,-1.4375 1.5,-1.546875 1.625,-2.09375 2.21875,-2.640625 2.984375,-2.640625 Z m 0,0"
               id="id-3b3288a1-60e7-4a08-add9-058a31a02e96" />
          </g>
        </g>
      </defs>
      <g
         fill="#000000"
         fill-opacity="1"
         id="id-53c98a66-40b2-4631-ab1c-444c204dc936"
         transform="translate(-148.712,-130.343)">
        <g
           transform="translate(148.712,134.765)"
           id="g28378">
          <path
             d="m 3.078125,-2.28125 2.28125,-2.140625 H 4.53125 L 2.859375,-2.78125 1.828125,-4.421875 H 1 L 2.421875,-2.28125 0,0 H 0.8125 L 2.65625,-1.875 3.765625,0 h 0.8125 z m 0,0"
             id="id-996abcf6-3b1b-4a73-8d21-ecae886ee777" />
        </g>
      </g>
      <g
         fill="#000000"
         fill-opacity="1"
         id="id-aa117dd2-8de4-4ca0-ae77-fcf8930e4fb6"
         transform="translate(-148.712,-130.343)">
        <g
           transform="translate(153.306,136.259)"
           id="g28382">
          <path
             d="m 3.09375,-3.15625 c -0.8125,0 -1.328125,0.53125 -1.421875,0.640625 l 0.125,-0.625 H 1.265625 L 0.59375,0 H 1.171875 C 1.21875,-0.234375 1.484375,-1.4375 1.5,-1.546875 1.625,-2.09375 2.21875,-2.640625 2.984375,-2.640625 Z m 0,0"
             id="id-8125d0d9-292f-4815-9c03-4b37462eca46" />
        </g>
      </g>
    </g>
    <g
       transform="matrix(1.41111,0,0,1.41111,266.53908,-11.173256)"
       ns15:version="1.8.2"
       ns15:texconverter="pdflatex"
       ns15:pdfconverter="inkscape"
       ns15:text="reference"
       ns15:preamble="C:\Users\rcaspa\AppData\Roaming\inkscape\extensions\textext\default_packages.tex"
       ns15:scale="4.0"
       ns15:alignment="middle center"
       ns15:stroke-to-path="0"
       ns15:inkscapeversion="1.4"
       ns15:jacobian_sqrt="1.41111"
       id="g28958">
      <defs
         id="id-c2523b40-2a68-42f5-9186-68b693bfc38c">
        <g
           id="id-880d268c-7c4c-40cd-a4f6-f1e1b451c77a">
          <g
             id="id-04bfe318-1d84-4050-bebc-8b347c20baaa" />
          <g
             id="id-72024afe-4165-4c5e-b84a-04b72ccba73c">
            <path
               d="M 1.5625,-2.140625 C 1.5625,-3.125 2.28125,-3.84375 3.265625,-3.875 v -0.65625 c -0.890625,0 -1.4375,0.5 -1.75,0.953125 v -0.90625 H 0.8125 V 0 h 0.75 z m 0,0"
               id="id-41549915-c165-49bf-9ad0-52a4b960295a" />
          </g>
          <g
             id="id-fd87fa86-a38c-4620-a527-5511a0717873">
            <path
               d="M 4.125,-2.1875 C 4.125,-2.515625 4.109375,-3.265625 3.734375,-3.875 3.3125,-4.484375 2.71875,-4.59375 2.359375,-4.59375 1.25,-4.59375 0.34375,-3.53125 0.34375,-2.25 c 0,1.3125 0.96875,2.359375 2.15625,2.359375 0.625,0 1.203125,-0.234375 1.59375,-0.515625 L 4.03125,-1.0625 C 3.40625,-0.53125 2.734375,-0.5 2.515625,-0.5 1.71875,-0.5 1.078125,-1.203125 1.046875,-2.1875 Z M 1.09375,-2.734375 c 0.15625,-0.75 0.6875,-1.25 1.265625,-1.25 0.515625,0 1.0625,0.328125 1.203125,1.25 z m 0,0"
               id="id-8f3b89e0-23bd-43b5-9a4d-c12a07222645" />
          </g>
          <g
             id="id-fd8775e9-ee18-4007-8941-1ac5461ad090">
            <path
               d="m 1.75,-3.84375 h 1.09375 v -0.578125 h -1.125 v -1.1875 c 0,-0.734375 0.671875,-0.8125 0.9375,-0.8125 0.1875,0 0.46875,0.015625 0.796875,0.171875 V -6.921875 C 3.34375,-6.953125 3.03125,-7.03125 2.65625,-7.03125 1.71875,-7.03125 1,-6.3125 1,-5.328125 v 0.90625 H 0.265625 V -3.84375 H 1 V 0 h 0.75 z m 0,0"
               id="id-cf080e99-55cf-46f5-8fcb-9e71aa6c6031" />
          </g>
          <g
             id="id-1c1ffe14-d9a4-4094-876d-69956ebdb04b">
            <path
               d="m 4.34375,-2.96875 c 0,-0.65625 -0.15625,-1.5625 -1.375,-1.5625 -0.890625,0 -1.390625,0.671875 -1.4375,0.75 V -4.484375 H 0.8125 V 0 h 0.765625 v -2.4375 c 0,-0.65625 0.25,-1.484375 1.015625,-1.484375 0.953125,0 0.96875,0.703125 0.96875,1.015625 V 0 h 0.78125 z m 0,0"
               id="id-00df74fe-ecb9-4b14-9192-f7011d86420e" />
          </g>
          <g
             id="id-7eb8d2c0-cbe3-42bd-8526-9a5dc64e4b3d">
            <path
               d="M 4.09375,-4.171875 C 3.5,-4.5 3.15625,-4.59375 2.546875,-4.59375 c -1.375,0 -2.1875,1.203125 -2.1875,2.375 0,1.234375 0.90625,2.328125 2.15625,2.328125 0.53125,0 1.078125,-0.140625 1.625,-0.515625 l -0.0625,-0.65625 c -0.515625,0.390625 -1.046875,0.53125 -1.5625,0.53125 -0.828125,0 -1.375,-0.71875 -1.375,-1.6875 C 1.140625,-3 1.5,-3.953125 2.5625,-3.953125 c 0.515625,0 0.859375,0.078125 1.40625,0.4375 z m 0,0"
               id="id-020427d1-643c-4223-966e-b39f62a48e1c" />
          </g>
        </g>
      </defs>
      <g
         fill="#000000"
         fill-opacity="1"
         id="id-7c70c276-1259-4a17-bf87-d91c81e95dc4"
         transform="translate(-149.525,-127.734)">
        <g
           transform="translate(148.712,134.765)"
           id="g28931">
          <path
             d="M 1.5625,-2.140625 C 1.5625,-3.125 2.28125,-3.84375 3.265625,-3.875 v -0.65625 c -0.890625,0 -1.4375,0.5 -1.75,0.953125 v -0.90625 H 0.8125 V 0 h 0.75 z m 0,0"
             id="id-0ea06b4e-1d17-4307-b2ab-3be31368606c" />
        </g>
        <g
           transform="translate(152.116,134.765)"
           id="g28934">
          <path
             d="M 4.125,-2.1875 C 4.125,-2.515625 4.109375,-3.265625 3.734375,-3.875 3.3125,-4.484375 2.71875,-4.59375 2.359375,-4.59375 1.25,-4.59375 0.34375,-3.53125 0.34375,-2.25 c 0,1.3125 0.96875,2.359375 2.15625,2.359375 0.625,0 1.203125,-0.234375 1.59375,-0.515625 L 4.03125,-1.0625 C 3.40625,-0.53125 2.734375,-0.5 2.515625,-0.5 1.71875,-0.5 1.078125,-1.203125 1.046875,-2.1875 Z M 1.09375,-2.734375 c 0.15625,-0.75 0.6875,-1.25 1.265625,-1.25 0.515625,0 1.0625,0.328125 1.203125,1.25 z m 0,0"
             id="id-819cf702-8cbb-423c-b5fb-2d26bed8601a" />
        </g>
        <g
           transform="translate(156.544,134.765)"
           id="g28937">
          <path
             d="m 1.75,-3.84375 h 1.09375 v -0.578125 h -1.125 v -1.1875 c 0,-0.734375 0.671875,-0.8125 0.9375,-0.8125 0.1875,0 0.46875,0.015625 0.796875,0.171875 V -6.921875 C 3.34375,-6.953125 3.03125,-7.03125 2.65625,-7.03125 1.71875,-7.03125 1,-6.3125 1,-5.328125 v 0.90625 H 0.265625 V -3.84375 H 1 V 0 h 0.75 z m 0,0"
             id="id-69baed18-ffad-4a69-9f00-adc8b49e4954" />
        </g>
        <g
           transform="translate(159.588,134.765)"
           id="g28940">
          <path
             d="M 4.125,-2.1875 C 4.125,-2.515625 4.109375,-3.265625 3.734375,-3.875 3.3125,-4.484375 2.71875,-4.59375 2.359375,-4.59375 1.25,-4.59375 0.34375,-3.53125 0.34375,-2.25 c 0,1.3125 0.96875,2.359375 2.15625,2.359375 0.625,0 1.203125,-0.234375 1.59375,-0.515625 L 4.03125,-1.0625 C 3.40625,-0.53125 2.734375,-0.5 2.515625,-0.5 1.71875,-0.5 1.078125,-1.203125 1.046875,-2.1875 Z M 1.09375,-2.734375 c 0.15625,-0.75 0.6875,-1.25 1.265625,-1.25 0.515625,0 1.0625,0.328125 1.203125,1.25 z m 0,0"
             id="id-40f9aa26-31cf-4f4a-a544-44bab9620175" />
        </g>
        <g
           transform="translate(164.016,134.765)"
           id="g28943">
          <path
             d="M 1.5625,-2.140625 C 1.5625,-3.125 2.28125,-3.84375 3.265625,-3.875 v -0.65625 c -0.890625,0 -1.4375,0.5 -1.75,0.953125 v -0.90625 H 0.8125 V 0 h 0.75 z m 0,0"
             id="id-a3a1012f-7dd2-4e6a-8fa3-40f31c0fe60a" />
        </g>
        <g
           transform="translate(167.42,134.765)"
           id="g28946">
          <path
             d="M 4.125,-2.1875 C 4.125,-2.515625 4.109375,-3.265625 3.734375,-3.875 3.3125,-4.484375 2.71875,-4.59375 2.359375,-4.59375 1.25,-4.59375 0.34375,-3.53125 0.34375,-2.25 c 0,1.3125 0.96875,2.359375 2.15625,2.359375 0.625,0 1.203125,-0.234375 1.59375,-0.515625 L 4.03125,-1.0625 C 3.40625,-0.53125 2.734375,-0.5 2.515625,-0.5 1.71875,-0.5 1.078125,-1.203125 1.046875,-2.1875 Z M 1.09375,-2.734375 c 0.15625,-0.75 0.6875,-1.25 1.265625,-1.25 0.515625,0 1.0625,0.328125 1.203125,1.25 z m 0,0"
             id="id-a3e4b561-7c36-4d50-adf6-4358879b4474" />
        </g>
        <g
           transform="translate(171.847,134.765)"
           id="g28949">
          <path
             d="m 4.34375,-2.96875 c 0,-0.65625 -0.15625,-1.5625 -1.375,-1.5625 -0.890625,0 -1.390625,0.671875 -1.4375,0.75 V -4.484375 H 0.8125 V 0 h 0.765625 v -2.4375 c 0,-0.65625 0.25,-1.484375 1.015625,-1.484375 0.953125,0 0.96875,0.703125 0.96875,1.015625 V 0 h 0.78125 z m 0,0"
             id="id-e74b0f78-1932-42b2-9b86-4188b4cd8eae" />
        </g>
        <g
           transform="translate(176.995,134.765)"
           id="g28952">
          <path
             d="M 4.09375,-4.171875 C 3.5,-4.5 3.15625,-4.59375 2.546875,-4.59375 c -1.375,0 -2.1875,1.203125 -2.1875,2.375 0,1.234375 0.90625,2.328125 2.15625,2.328125 0.53125,0 1.078125,-0.140625 1.625,-0.515625 l -0.0625,-0.65625 c -0.515625,0.390625 -1.046875,0.53125 -1.5625,0.53125 -0.828125,0 -1.375,-0.71875 -1.375,-1.6875 C 1.140625,-3 1.5,-3.953125 2.5625,-3.953125 c 0.515625,0 0.859375,0.078125 1.40625,0.4375 z m 0,0"
             id="id-eea7343f-1803-4b9d-92df-2a8440ad689b" />
        </g>
        <g
           transform="translate(181.422,134.765)"
           id="g28955">
          <path
             d="M 4.125,-2.1875 C 4.125,-2.515625 4.109375,-3.265625 3.734375,-3.875 3.3125,-4.484375 2.71875,-4.59375 2.359375,-4.59375 1.25,-4.59375 0.34375,-3.53125 0.34375,-2.25 c 0,1.3125 0.96875,2.359375 2.15625,2.359375 0.625,0 1.203125,-0.234375 1.59375,-0.515625 L 4.03125,-1.0625 C 3.40625,-0.53125 2.734375,-0.5 2.515625,-0.5 1.71875,-0.5 1.078125,-1.203125 1.046875,-2.1875 Z M 1.09375,-2.734375 c 0.15625,-0.75 0.6875,-1.25 1.265625,-1.25 0.515625,0 1.0625,0.328125 1.203125,1.25 z m 0,0"
             id="id-93d024c0-1d43-4d78-b9ef-fa0e288a42ca" />
        </g>
      </g>
    </g>
    <g
       transform="matrix(1.41111,0,0,1.41111,333.11739,60.137578)"
       ns15:version="1.8.2"
       ns15:texconverter="pdflatex"
       ns15:pdfconverter="inkscape"
       ns15:text="measurement"
       ns15:preamble="C:\Users\rcaspa\AppData\Roaming\inkscape\extensions\textext\default_packages.tex"
       ns15:scale="4.0"
       ns15:alignment="middle center"
       ns15:stroke-to-path="0"
       ns15:inkscapeversion="1.4"
       ns15:jacobian_sqrt="1.41111"
       id="g29973">
      <defs
         id="id-28d2461b-a968-4cb7-8af2-635f2dd11430">
        <g
           id="id-bbff73d1-2194-4495-80e1-fd2e89c4f2e9">
          <g
             id="id-39ab4661-3a14-4126-85f3-7d118d8e227f" />
          <g
             id="id-2837e78a-50ee-4c7f-9030-f66b3c001543">
            <path
               d="m 7.109375,-2.96875 c 0,-0.671875 -0.15625,-1.5625 -1.375,-1.5625 -0.59375,0 -1.109375,0.28125 -1.484375,0.8125 -0.25,-0.75 -0.953125,-0.8125 -1.265625,-0.8125 -0.71875,0 -1.1875,0.40625 -1.453125,0.765625 v -0.71875 H 0.8125 V 0 h 0.765625 v -2.4375 c 0,-0.6875 0.28125,-1.484375 1.015625,-1.484375 0.921875,0 0.96875,0.640625 0.96875,1.015625 V 0 h 0.78125 v -2.4375 c 0,-0.6875 0.265625,-1.484375 1.015625,-1.484375 0.921875,0 0.96875,0.640625 0.96875,1.015625 V 0 h 0.78125 z m 0,0"
               id="id-03d05d30-2282-4a12-a976-36eec360c0b5" />
          </g>
          <g
             id="id-8916ca76-4d16-411b-b7e1-e86ca1925544">
            <path
               d="M 4.125,-2.1875 C 4.125,-2.515625 4.109375,-3.265625 3.734375,-3.875 3.3125,-4.484375 2.71875,-4.59375 2.359375,-4.59375 1.25,-4.59375 0.34375,-3.53125 0.34375,-2.25 c 0,1.3125 0.96875,2.359375 2.15625,2.359375 0.625,0 1.203125,-0.234375 1.59375,-0.515625 L 4.03125,-1.0625 C 3.40625,-0.53125 2.734375,-0.5 2.515625,-0.5 1.71875,-0.5 1.078125,-1.203125 1.046875,-2.1875 Z M 1.09375,-2.734375 c 0.15625,-0.75 0.6875,-1.25 1.265625,-1.25 0.515625,0 1.0625,0.328125 1.203125,1.25 z m 0,0"
               id="id-babcfd8b-33e3-479c-9c32-9262715f6cb9" />
          </g>
          <g
             id="id-0b5e8368-65a6-4c97-bcfc-8b89438f5c27">
            <path
               d="m 3.984375,-2.875 c 0,-1.015625 -0.734375,-1.71875 -1.65625,-1.71875 -0.640625,0 -1.09375,0.15625 -1.5625,0.421875 l 0.0625,0.65625 C 1.34375,-3.875 1.84375,-4 2.328125,-4 c 0.46875,0 0.875,0.390625 0.875,1.125 v 0.4375 C 1.703125,-2.421875 0.4375,-2 0.4375,-1.125 c 0,0.421875 0.265625,1.234375 1.140625,1.234375 0.140625,0 1.078125,-0.015625 1.65625,-0.46875 V 0 h 0.75 z m -0.78125,1.5625 c 0,0.1875 0,0.4375 -0.34375,0.625 C 2.578125,-0.515625 2.1875,-0.5 2.078125,-0.5 1.609375,-0.5 1.15625,-0.734375 1.15625,-1.140625 c 0,-0.703125 1.609375,-0.765625 2.046875,-0.796875 z m 0,0"
               id="id-3b18ab62-bf6d-4fe3-b44d-a05e846209fb" />
          </g>
          <g
             id="id-e3897904-9b8e-4be9-907b-2cafcdd418c0">
            <path
               d="M 3.421875,-4.28125 C 2.90625,-4.515625 2.5,-4.59375 1.984375,-4.59375 c -0.25,0 -1.65625,0 -1.65625,1.296875 0,0.5 0.296875,0.8125 0.546875,1 0.296875,0.21875 0.515625,0.265625 1.0625,0.375 0.359375,0.0625 0.9375,0.1875 0.9375,0.71875 0,0.6875 -0.78125,0.6875 -0.9375,0.6875 -0.796875,0 -1.359375,-0.375 -1.53125,-0.484375 l -0.125,0.671875 c 0.3125,0.15625 0.859375,0.4375 1.671875,0.4375 0.1875,0 0.734375,0 1.15625,-0.3125 0.3125,-0.25 0.484375,-0.640625 0.484375,-1.078125 0,-0.546875 -0.375,-0.875 -0.390625,-0.90625 C 2.8125,-2.546875 2.546875,-2.609375 2.046875,-2.6875 1.5,-2.796875 1.03125,-2.90625 1.03125,-3.390625 1.03125,-4 1.75,-4 1.890625,-4 c 0.3125,0 0.84375,0.03125 1.40625,0.375 z m 0,0"
               id="id-badb82f1-ed67-4657-8080-529ae2e0ed0d" />
          </g>
          <g
             id="id-6205bce1-da31-4012-9cbf-76f04228b526">
            <path
               d="M 4.34375,-4.421875 H 3.5625 v 2.890625 c 0,0.75 -0.5625,1.09375 -1.203125,1.09375 -0.703125,0 -0.78125,-0.265625 -0.78125,-0.6875 V -4.421875 H 0.8125 v 3.328125 c 0,0.71875 0.21875,1.203125 1.046875,1.203125 0.53125,0 1.234375,-0.15625 1.734375,-0.59375 V 0 h 0.75 z m 0,0"
               id="id-fe2a6583-3c69-47e1-abce-5c5b0efb8ba8" />
          </g>
          <g
             id="id-cccb452f-c090-4ab6-8c35-8bb8cae39685">
            <path
               d="M 1.5625,-2.140625 C 1.5625,-3.125 2.28125,-3.84375 3.265625,-3.875 v -0.65625 c -0.890625,0 -1.4375,0.5 -1.75,0.953125 v -0.90625 H 0.8125 V 0 h 0.75 z m 0,0"
               id="id-0d4629d0-4907-48ab-abb3-83902b486749" />
          </g>
          <g
             id="id-4ec1da06-00c7-478c-949b-1c56843516bd">
            <path
               d="m 4.34375,-2.96875 c 0,-0.65625 -0.15625,-1.5625 -1.375,-1.5625 -0.890625,0 -1.390625,0.671875 -1.4375,0.75 V -4.484375 H 0.8125 V 0 h 0.765625 v -2.4375 c 0,-0.65625 0.25,-1.484375 1.015625,-1.484375 0.953125,0 0.96875,0.703125 0.96875,1.015625 V 0 h 0.78125 z m 0,0"
               id="id-9412985d-6d94-4b37-abf8-e62cc2a7b3bb" />
          </g>
          <g
             id="id-1c2ef9bd-5ff4-4363-984c-104639d83171">
            <path
               d="M 1.75,-3.84375 H 3.15625 V -4.421875 H 1.75 V -5.6875 H 1.0625 v 1.265625 h -0.875 v 0.578125 h 0.84375 v 2.65625 c 0,0.59375 0.140625,1.296875 0.828125,1.296875 0.6875,0 1.203125,-0.25 1.453125,-0.375 L 3.15625,-0.859375 C 2.890625,-0.640625 2.578125,-0.53125 2.25,-0.53125 c -0.359375,0 -0.5,-0.296875 -0.5,-0.828125 z m 0,0"
               id="id-36afd125-89d6-43f8-b796-012f920f473a" />
          </g>
        </g>
      </defs>
      <g
         fill="#000000"
         fill-opacity="1"
         id="id-5a91940f-a053-43ac-9b2e-6ff4e3d5057c"
         transform="translate(-149.525,-129.077)">
        <g
           transform="translate(148.712,134.765)"
           id="g29940">
          <path
             d="m 7.109375,-2.96875 c 0,-0.671875 -0.15625,-1.5625 -1.375,-1.5625 -0.59375,0 -1.109375,0.28125 -1.484375,0.8125 -0.25,-0.75 -0.953125,-0.8125 -1.265625,-0.8125 -0.71875,0 -1.1875,0.40625 -1.453125,0.765625 v -0.71875 H 0.8125 V 0 h 0.765625 v -2.4375 c 0,-0.6875 0.28125,-1.484375 1.015625,-1.484375 0.921875,0 0.96875,0.640625 0.96875,1.015625 V 0 h 0.78125 v -2.4375 c 0,-0.6875 0.265625,-1.484375 1.015625,-1.484375 0.921875,0 0.96875,0.640625 0.96875,1.015625 V 0 h 0.78125 z m 0,0"
             id="id-10ecf934-83d0-41e3-b2aa-c1ede6165b4b" />
        </g>
        <g
           transform="translate(156.626,134.765)"
           id="g29943">
          <path
             d="M 4.125,-2.1875 C 4.125,-2.515625 4.109375,-3.265625 3.734375,-3.875 3.3125,-4.484375 2.71875,-4.59375 2.359375,-4.59375 1.25,-4.59375 0.34375,-3.53125 0.34375,-2.25 c 0,1.3125 0.96875,2.359375 2.15625,2.359375 0.625,0 1.203125,-0.234375 1.59375,-0.515625 L 4.03125,-1.0625 C 3.40625,-0.53125 2.734375,-0.5 2.515625,-0.5 1.71875,-0.5 1.078125,-1.203125 1.046875,-2.1875 Z M 1.09375,-2.734375 c 0.15625,-0.75 0.6875,-1.25 1.265625,-1.25 0.515625,0 1.0625,0.328125 1.203125,1.25 z m 0,0"
             id="id-57026e14-c304-40e4-a46b-351f59fc5d93" />
        </g>
        <g
           transform="translate(161.054,134.765)"
           id="g29946">
          <path
             d="m 3.984375,-2.875 c 0,-1.015625 -0.734375,-1.71875 -1.65625,-1.71875 -0.640625,0 -1.09375,0.15625 -1.5625,0.421875 l 0.0625,0.65625 C 1.34375,-3.875 1.84375,-4 2.328125,-4 c 0.46875,0 0.875,0.390625 0.875,1.125 v 0.4375 C 1.703125,-2.421875 0.4375,-2 0.4375,-1.125 c 0,0.421875 0.265625,1.234375 1.140625,1.234375 0.140625,0 1.078125,-0.015625 1.65625,-0.46875 V 0 h 0.75 z m -0.78125,1.5625 c 0,0.1875 0,0.4375 -0.34375,0.625 C 2.578125,-0.515625 2.1875,-0.5 2.078125,-0.5 1.609375,-0.5 1.15625,-0.734375 1.15625,-1.140625 c 0,-0.703125 1.609375,-0.765625 2.046875,-0.796875 z m 0,0"
             id="id-243fea53-bc18-4bce-bf5f-c7954f487e8a" />
        </g>
        <g
           transform="translate(165.842,134.765)"
           id="g29949">
          <path
             d="M 3.421875,-4.28125 C 2.90625,-4.515625 2.5,-4.59375 1.984375,-4.59375 c -0.25,0 -1.65625,0 -1.65625,1.296875 0,0.5 0.296875,0.8125 0.546875,1 0.296875,0.21875 0.515625,0.265625 1.0625,0.375 0.359375,0.0625 0.9375,0.1875 0.9375,0.71875 0,0.6875 -0.78125,0.6875 -0.9375,0.6875 -0.796875,0 -1.359375,-0.375 -1.53125,-0.484375 l -0.125,0.671875 c 0.3125,0.15625 0.859375,0.4375 1.671875,0.4375 0.1875,0 0.734375,0 1.15625,-0.3125 0.3125,-0.25 0.484375,-0.640625 0.484375,-1.078125 0,-0.546875 -0.375,-0.875 -0.390625,-0.90625 C 2.8125,-2.546875 2.546875,-2.609375 2.046875,-2.6875 1.5,-2.796875 1.03125,-2.90625 1.03125,-3.390625 1.03125,-4 1.75,-4 1.890625,-4 c 0.3125,0 0.84375,0.03125 1.40625,0.375 z m 0,0"
             id="id-03c92d49-78a3-4ee2-bcec-a6721a0e9b4b" />
        </g>
        <g
           transform="translate(169.66,134.765)"
           id="g29952">
          <path
             d="M 4.34375,-4.421875 H 3.5625 v 2.890625 c 0,0.75 -0.5625,1.09375 -1.203125,1.09375 -0.703125,0 -0.78125,-0.265625 -0.78125,-0.6875 V -4.421875 H 0.8125 v 3.328125 c 0,0.71875 0.21875,1.203125 1.046875,1.203125 0.53125,0 1.234375,-0.15625 1.734375,-0.59375 V 0 h 0.75 z m 0,0"
             id="id-9b4cf7cf-19b3-4f47-a1f4-b24a5a7aaccf" />
        </g>
        <g
           transform="translate(174.808,134.765)"
           id="g29955">
          <path
             d="M 1.5625,-2.140625 C 1.5625,-3.125 2.28125,-3.84375 3.265625,-3.875 v -0.65625 c -0.890625,0 -1.4375,0.5 -1.75,0.953125 v -0.90625 H 0.8125 V 0 h 0.75 z m 0,0"
             id="id-802c7170-79a1-46f8-9986-b62b605c7b85" />
        </g>
        <g
           transform="translate(178.212,134.765)"
           id="g29958">
          <path
             d="M 4.125,-2.1875 C 4.125,-2.515625 4.109375,-3.265625 3.734375,-3.875 3.3125,-4.484375 2.71875,-4.59375 2.359375,-4.59375 1.25,-4.59375 0.34375,-3.53125 0.34375,-2.25 c 0,1.3125 0.96875,2.359375 2.15625,2.359375 0.625,0 1.203125,-0.234375 1.59375,-0.515625 L 4.03125,-1.0625 C 3.40625,-0.53125 2.734375,-0.5 2.515625,-0.5 1.71875,-0.5 1.078125,-1.203125 1.046875,-2.1875 Z M 1.09375,-2.734375 c 0.15625,-0.75 0.6875,-1.25 1.265625,-1.25 0.515625,0 1.0625,0.328125 1.203125,1.25 z m 0,0"
             id="id-ac3375b1-480b-4d86-83f6-0c2810a38bcd" />
        </g>
        <g
           transform="translate(182.64,134.765)"
           id="g29961">
          <path
             d="m 7.109375,-2.96875 c 0,-0.671875 -0.15625,-1.5625 -1.375,-1.5625 -0.59375,0 -1.109375,0.28125 -1.484375,0.8125 -0.25,-0.75 -0.953125,-0.8125 -1.265625,-0.8125 -0.71875,0 -1.1875,0.40625 -1.453125,0.765625 v -0.71875 H 0.8125 V 0 h 0.765625 v -2.4375 c 0,-0.6875 0.28125,-1.484375 1.015625,-1.484375 0.921875,0 0.96875,0.640625 0.96875,1.015625 V 0 h 0.78125 v -2.4375 c 0,-0.6875 0.265625,-1.484375 1.015625,-1.484375 0.921875,0 0.96875,0.640625 0.96875,1.015625 V 0 h 0.78125 z m 0,0"
             id="id-a714866a-08dc-421d-b68a-4f8e9077202b" />
        </g>
        <g
           transform="translate(190.554,134.765)"
           id="g29964">
          <path
             d="M 4.125,-2.1875 C 4.125,-2.515625 4.109375,-3.265625 3.734375,-3.875 3.3125,-4.484375 2.71875,-4.59375 2.359375,-4.59375 1.25,-4.59375 0.34375,-3.53125 0.34375,-2.25 c 0,1.3125 0.96875,2.359375 2.15625,2.359375 0.625,0 1.203125,-0.234375 1.59375,-0.515625 L 4.03125,-1.0625 C 3.40625,-0.53125 2.734375,-0.5 2.515625,-0.5 1.71875,-0.5 1.078125,-1.203125 1.046875,-2.1875 Z M 1.09375,-2.734375 c 0.15625,-0.75 0.6875,-1.25 1.265625,-1.25 0.515625,0 1.0625,0.328125 1.203125,1.25 z m 0,0"
             id="id-33136960-bd1d-441d-8b35-18dbcaa99728" />
        </g>
        <g
           transform="translate(194.981,134.765)"
           id="g29967">
          <path
             d="m 4.34375,-2.96875 c 0,-0.65625 -0.15625,-1.5625 -1.375,-1.5625 -0.890625,0 -1.390625,0.671875 -1.4375,0.75 V -4.484375 H 0.8125 V 0 h 0.765625 v -2.4375 c 0,-0.65625 0.25,-1.484375 1.015625,-1.484375 0.953125,0 0.96875,0.703125 0.96875,1.015625 V 0 h 0.78125 z m 0,0"
             id="id-31cb5239-ba36-436b-bcd6-7520f3353b1a" />
        </g>
        <g
           transform="translate(200.129,134.765)"
           id="g29970">
          <path
             d="M 1.75,-3.84375 H 3.15625 V -4.421875 H 1.75 V -5.6875 H 1.0625 v 1.265625 h -0.875 v 0.578125 h 0.84375 v 2.65625 c 0,0.59375 0.140625,1.296875 0.828125,1.296875 0.6875,0 1.203125,-0.25 1.453125,-0.375 L 3.15625,-0.859375 C 2.890625,-0.640625 2.578125,-0.53125 2.25,-0.53125 c -0.359375,0 -0.5,-0.296875 -0.5,-0.828125 z m 0,0"
             id="id-0dce1909-c68b-4007-bd96-774eecde5abd" />
        </g>
      </g>
    </g>
  </g>
  <g
     inkscape:groupmode="layer"
     id="layer2"
     inkscape:label="Ebene 2"
     transform="translate(-51.000008,-9.3263912)">
    <path
       style="fill:none;stroke:#000000;stroke-width:1;stroke-linecap:round;stroke-linejoin:round;stroke-dasharray:none;stroke-opacity:1;paint-order:stroke fill markers"
       d="m 260,54.999999 -20,20"
       id="path31"
       sodipodi:nodetypes="cc"
       transform="translate(-73.499993,20.5)" />
    <rect
       style="fill:none;stroke:#000000;stroke-width:1;stroke-linecap:round;stroke-linejoin:round;stroke-dashoffset:3.02362;stop-color:#000000"
       id="rect25183"
       width="30.000002"
       height="30.000002"
       x="235"
       y="50"
       transform="translate(-73.499993,20.5)" />
    <rect
       style="fill:none;stroke:#000000;stroke-width:1;stroke-linecap:round;stroke-linejoin:round;stroke-opacity:1;paint-order:stroke fill markers"
       id="rect27"
       width="35"
       height="10.000001"
       x="51.500008"
       y="80.5"
       ry="0" />
    <path
       style="fill:none;stroke:#000000;stroke-width:1;stroke-linecap:round;stroke-linejoin:round;stroke-dasharray:none;stroke-opacity:1;paint-order:stroke fill markers"
       d="m 186.50001,15.5 h -20"
       id="path29"
       sodipodi:nodetypes="cc" />
    <path
       style="fill:none;stroke:#000000;stroke-width:1;stroke-linecap:round;stroke-linejoin:round;stroke-dasharray:none;stroke-opacity:1;paint-order:stroke fill markers"
       d="m 246.50001,95.499999 v -20"
       id="path30"
       sodipodi:nodetypes="cc" />
    <path
       style="fill:none;stroke:#000000;stroke-width:1;stroke-linecap:round;stroke-linejoin:round;stroke-dasharray:2, 2;stroke-dashoffset:1;stroke-opacity:1;paint-order:stroke fill markers"
       d="m 252.50001,95.499999 v -20"
       id="path30-1"
       sodipodi:nodetypes="cc" />
    <path
       style="fill:#000000;fill-opacity:1;stroke:#000000;stroke-width:1;stroke-linecap:round;stroke-linejoin:round;stroke-dasharray:none;stroke-dashoffset:3.77953;stroke-opacity:1;stop-color:#000000"
       d="m 151.5,85.499997 3,-5.999998 h -5.99999 l 3,6 V 15.5 l -2.99999,6 h 5.99999 l -3,-6"
       id="path27597"
       sodipodi:nodetypes="cccccccc" />
    <path
       style="fill:#000000;fill-opacity:1;stroke:#000000;stroke-width:1;stroke-linecap:round;stroke-linejoin:round;stroke-dasharray:none;stroke-dashoffset:3.77953;stroke-opacity:1;stop-color:#000000"
       d="m 176.50001,110.49999 6.00001,3 V 107.5 l -6.00001,3 h 70 l -6,-2.99999 V 113.5 l 6,-3"
       id="path27597-7"
       sodipodi:nodetypes="cccccccc" />
  </g>
</svg>
