<?xml version="1.0" encoding="UTF-8" standalone="no"?>
<!-- Created with Inkscape (http://www.inkscape.org/) -->

<svg
   width="231.83702mm"
   height="73.138489mm"
   viewBox="0 0 231.83702 73.138489"
   version="1.1"
   id="svg1"
   inkscape:version="1.2.2 (732a01da63, 2022-12-09)"
   sodipodi:docname="img_temporalcoherence.svg"
   xmlns:inkscape="http://www.inkscape.org/namespaces/inkscape"
   xmlns:sodipodi="http://sodipodi.sourceforge.net/DTD/sodipodi-0.dtd"
   xmlns="http://www.w3.org/2000/svg"
   xmlns:svg="http://www.w3.org/2000/svg"
   xmlns:ns15="http://www.iki.fi/pav/software/textext/">
  <sodipodi:namedview
     id="namedview1"
     pagecolor="#ffffff"
     bordercolor="#000000"
     borderopacity="0.25"
     inkscape:showpageshadow="2"
     inkscape:pageopacity="0.0"
     inkscape:pagecheckerboard="0"
     inkscape:deskcolor="#d1d1d1"
     inkscape:document-units="mm"
     showgrid="true"
     inkscape:zoom="1"
     inkscape:cx="371"
     inkscape:cy="220"
     inkscape:window-width="1920"
     inkscape:window-height="1009"
     inkscape:window-x="1912"
     inkscape:window-y="-2"
     inkscape:window-maximized="1"
     inkscape:current-layer="layer1"
     showguides="false">
    <inkscape:grid
       id="grid1"
       units="mm"
       originx="-134.5"
       originy="-20.116234"
       spacingx="1"
       spacingy="0.99999998"
       empcolor="#0099e5"
       empopacity="0.30196078"
       color="#0099e5"
       opacity="0.14901961"
       empspacing="5"
       enabled="true"
       visible="true" />
  </sodipodi:namedview>
  <defs
     id="defs1">
    <defs
       id="id-15775824-969a-4fc9-9024-f45acb72688f">
      <g
         id="id-9abdb558-9233-4509-80f0-a60182b618d9">
        <g
           id="id-a9dbd4aa-1dec-4dd1-b894-91d3415dbaa2">
          <path
             d="M 3.296875,-6.921875 H 2.40625 L 0.9375,0 h 0.890625 z m 0,0"
             id="id-ecdde3e8-aabc-43f5-abbe-971fb00cd418" />
        </g>
      </g>
    </defs>
    <defs
       id="id-1a5ebf48-ecd4-4cc3-a820-5c8b258dc742">
      <g
         id="id-a46ee70c-903e-4d3d-89c6-a00ce115f7dd">
        <g
           id="id-fd505280-3d57-4069-ba09-0ca809f06f9d">
          <path
             d="M 2.984375,-6.765625 H 2.78125 C 2.1875,-6.15625 1.359375,-6.125 0.890625,-6.09375 v 0.578125 C 1.21875,-5.53125 1.6875,-5.546875 2.1875,-5.765625 v 5.1875 H 0.953125 V 0 h 3.28125 v -0.578125 h -1.25 z m 0,0"
             id="id-220fa69c-41ce-440e-91ee-a1c4b5f47d5e" />
        </g>
      </g>
    </defs>
  </defs>
  <g
     inkscape:label="Ebene 1"
     inkscape:groupmode="layer"
     id="layer1"
     transform="translate(-134.5,-20.116236)"
     style="display:inline">
    <path
       style="fill:none;fill-opacity:1;stroke:#000000;stroke-width:1;stroke-linecap:round;stroke-linejoin:round;stroke-dasharray:none;stroke-dashoffset:3.77953;stroke-opacity:1;stop-color:#000000"
       d="m 139,74.999999 c 0,0 7.94486,-0.341942 12,-1 4.05514,-0.658058 7.98618,-1.003063 12,-2 4.01382,-0.996937 7.94534,-1.681494 12,-3.000005 4.05466,-1.318511 7.98702,-3.671171 12,-5.999995 4.01298,-2.328824 7.98791,-5.004271 12,-8 4.01209,-2.995729 7.97226,-7.176499 12,-10 4.02774,-2.823501 7.94595,-5.350002 12,-7 4.05405,-1.649998 7.87689,-3 12,-3 4.12311,0 7.94595,1.350002 12,3 4.05405,1.649998 7.97226,4.176499 12,7 4.02774,2.823501 7.98791,7.004271 12,10 4.01209,2.995729 7.98702,5.671176 12,8 4.01298,2.328824 7.96933,4.508957 12,6 4.03067,1.491043 7.99654,2.16733 12,3 4.00346,0.83267 7.99653,1.500421 12,2 4.00347,0.499579 12,1 12,1"
       id="path34124"
       sodipodi:nodetypes="czzzzzzzzzzzzzzzc" />
    <path
       style="fill:#000000;fill-opacity:1;stroke:#000000;stroke-width:1;stroke-linecap:round;stroke-linejoin:round;stroke-dasharray:3, 2;stroke-dashoffset:1.5;stroke-opacity:1;stop-color:#000000"
       d="M 180,60 H 290"
       id="path34491"
       sodipodi:nodetypes="cc" />
    <path
       style="display:inline;fill:#000000;fill-opacity:1;stroke:#000000;stroke-width:1;stroke-linecap:round;stroke-linejoin:round;stroke-dasharray:3, 2;stroke-dashoffset:1.5;stroke-opacity:1;stop-color:#000000"
       d="m 220,35 h 30"
       id="path34491-1"
       sodipodi:nodetypes="cc" />
    <path
       style="fill:#000000;fill-opacity:1;stroke:#000000;stroke-width:1;stroke-linecap:round;stroke-linejoin:round;stroke-dasharray:3, 2;stroke-dashoffset:1.5;stroke-opacity:1;stop-color:#000000"
       d="M 192,55 V 79.999999"
       id="path34491-6"
       sodipodi:nodetypes="cc" />
    <path
       style="fill:#000000;fill-opacity:1;stroke:#000000;stroke-width:1;stroke-linecap:round;stroke-linejoin:round;stroke-dasharray:3, 2;stroke-dashoffset:1.5;stroke-opacity:1;stop-color:#000000"
       d="M 278,55 V 80"
       id="path34491-6-7"
       sodipodi:nodetypes="cc" />
    <path
       style="fill:#000000;fill-opacity:1;stroke:#000000;stroke-width:1;stroke-linecap:round;stroke-linejoin:round;stroke-dasharray:none;stroke-dashoffset:5.66929;stroke-opacity:1;stop-color:#000000"
       d="m 192,84.999998 6,-2.999999 V 88 l -6,-3.000001 86,-10e-7 -6,-2.999999 V 88 l 6,-3.000002"
       id="path36883"
       sodipodi:nodetypes="cccccccc" />
    <path
       style="display:inline;fill:#000000;fill-opacity:1;stroke:#000000;stroke-width:1;stroke-linecap:round;stroke-linejoin:round;stroke-dasharray:none;stroke-dashoffset:3.77953;stroke-opacity:1;stop-color:#000000"
       d="M 235,80 V 25.000001 L 232,31 h 6 l -3,-5.999999"
       id="path35947" />
    <path
       style="display:inline;fill:#000000;fill-opacity:1;stroke:#000000;stroke-width:1;stroke-linecap:round;stroke-linejoin:round;stroke-dasharray:none;stroke-dashoffset:3.77953;stroke-opacity:1;stop-color:#000000"
       d="m 135,75 h 210 l -6,-2.999999 V 78 l 6,-3"
       id="path36012"
       sodipodi:nodetypes="cc" />
    <g
       transform="matrix(1.41111,0,0,1.41111,223.96442,20.11606)"
       ns15:version="1.8.2"
       ns15:texconverter="pdflatex"
       ns15:pdfconverter="inkscape"
       ns15:text="$I$"
       ns15:preamble="C:\Users\rcaspa\AppData\Roaming\inkscape\extensions\textext\default_packages.tex"
       ns15:scale="4.0"
       ns15:alignment="middle center"
       ns15:stroke-to-path="0"
       ns15:inkscapeversion="1.2.2"
       ns15:jacobian_sqrt="1.41111"
       id="g37054">
      <defs
         id="id-e2c54371-e64b-410c-bd05-8bee75e5fca9">
        <g
           id="id-6afedad3-549b-4e57-aeed-7ea17d99a6c8">
          <g
             id="id-bba4bf80-91e1-463e-a7cb-26d42a44eac0" />
          <g
             id="id-4673fc7b-2fca-4ba0-911b-d91211bf49aa">
            <path
               d="M 3.296875,-6.921875 H 2.40625 L 0.9375,0 h 0.890625 z m 0,0"
               id="id-454f9e7e-3e78-497c-91e0-336bf6c71645" />
          </g>
        </g>
      </defs>
      <g
         fill="#000000"
         fill-opacity="1"
         id="id-8279b719-1eff-4ea8-b107-224ba929ddb0"
         transform="translate(-149.65,-127.843)">
        <g
           transform="translate(148.712,134.765)"
           id="g37051">
          <path
             d="M 3.296875,-6.921875 H 2.40625 L 0.9375,0 h 0.890625 z m 0,0"
             id="id-2c90bf5b-334e-4951-9f62-8cb0a08797d0" />
        </g>
      </g>
    </g>
    <g
       transform="matrix(1.41111,0,0,1.41111,281.66632,81.290629)"
       ns15:version="1.8.2"
       ns15:texconverter="pdflatex"
       ns15:pdfconverter="inkscape"
       ns15:text="$L_c$"
       ns15:preamble="C:\Users\rcaspa\AppData\Roaming\inkscape\extensions\textext\default_packages.tex"
       ns15:scale="4.0"
       ns15:alignment="middle center"
       ns15:stroke-to-path="0"
       ns15:inkscapeversion="1.2.2"
       ns15:jacobian_sqrt="1.41111"
       id="g37155">
      <defs
         id="id-157ea0d9-73b8-4eca-84e9-bcfdad38a6c8">
        <g
           id="id-604a5661-1d8a-4490-b785-a345ce0a96af">
          <g
             id="id-2a226153-0070-493f-924f-c70883d1d99f" />
          <g
             id="id-c69d3eaf-286a-41d1-ba08-af63a76ef00d">
            <path
               d="M 3.296875,-6.921875 H 2.40625 L 0.9375,0 h 4.03125 l 0.140625,-0.65625 c -0.875,0.015625 -1.78125,0.015625 -2.671875,0.015625 H 1.96875 Z m 0,0"
               id="id-4b04c2cb-0665-46a8-87d6-c4dffb46542b" />
          </g>
          <g
             id="id-54e51d08-e3ba-4b78-bb28-d0e40434a130" />
          <g
             id="id-b3d2c971-84af-4ff0-829e-b6fadce0c4e7">
            <path
               d="m 3.1875,-0.765625 c -0.359375,0.21875 -0.765625,0.359375 -1.21875,0.359375 -0.65625,0 -0.8125,-0.5 -0.8125,-0.84375 0,-0.5625 0.390625,-1.46875 1.3125,-1.46875 0.4375,0 0.671875,0.078125 0.984375,0.328125 L 3.65625,-2.90625 c -0.359375,-0.203125 -0.5625,-0.296875 -1.078125,-0.296875 -1.1875,0 -2.03125,1.078125 -2.03125,1.984375 0,0.71875 0.484375,1.28125 1.3125,1.28125 0.609375,0 1.109375,-0.21875 1.265625,-0.3125 z m 0,0"
               id="id-3dfac730-2785-4529-9a89-d91dd4ad945f" />
          </g>
        </g>
      </defs>
      <g
         fill="#000000"
         fill-opacity="1"
         id="id-1ccb69ca-c345-4ba2-840b-1fcb10e164e4"
         transform="translate(-149.65,-127.843)">
        <g
           transform="translate(148.712,134.765)"
           id="g37148">
          <path
             d="M 3.296875,-6.921875 H 2.40625 L 0.9375,0 h 4.03125 l 0.140625,-0.65625 c -0.875,0.015625 -1.78125,0.015625 -2.671875,0.015625 H 1.96875 Z m 0,0"
             id="id-96d191ec-33d2-4955-8d99-67298ff4d4bf" />
        </g>
      </g>
      <g
         fill="#000000"
         fill-opacity="1"
         id="id-c9e06bab-c3c1-4b0d-b83d-3bdfd4e29a47"
         transform="translate(-149.65,-127.843)">
        <g
           transform="translate(154.109,136.259)"
           id="g37152">
          <path
             d="m 3.1875,-0.765625 c -0.359375,0.21875 -0.765625,0.359375 -1.21875,0.359375 -0.65625,0 -0.8125,-0.5 -0.8125,-0.84375 0,-0.5625 0.390625,-1.46875 1.3125,-1.46875 0.4375,0 0.671875,0.078125 0.984375,0.328125 L 3.65625,-2.90625 c -0.359375,-0.203125 -0.5625,-0.296875 -1.078125,-0.296875 -1.1875,0 -2.03125,1.078125 -2.03125,1.984375 0,0.71875 0.484375,1.28125 1.3125,1.28125 0.609375,0 1.109375,-0.21875 1.265625,-0.3125 z m 0,0"
             id="id-b4616c6b-88bb-4f57-8f41-1d000e786034" />
        </g>
      </g>
    </g>
    <g
       transform="matrix(1.41111,0,0,1.41111,348.27076,69.761462)"
       ns15:version="1.8.2"
       ns15:texconverter="pdflatex"
       ns15:pdfconverter="inkscape"
       ns15:text="$\\Delta z$"
       ns15:preamble="C:\Users\rcaspa\AppData\Roaming\inkscape\extensions\textext\default_packages.tex"
       ns15:scale="4.0"
       ns15:alignment="middle center"
       ns15:stroke-to-path="0"
       ns15:inkscapeversion="1.2.2"
       ns15:jacobian_sqrt="1.41111"
       id="g37283">
      <defs
         id="id-3f9f4fb0-eaec-4995-b82f-e801b6ab8f17">
        <g
           id="id-3166db2f-4ff7-41b1-8170-20976b2badf6">
          <g
             id="id-dc973f33-edf0-4e8d-9ec2-b3a4a90d4806" />
          <g
             id="id-04a05e16-c96e-4a41-9f4e-f06d18930250">
            <path
               d="M 4.59375,-6.921875 H 3.703125 L 0.421875,0 H 7.875 Z M 3,-3.875 c 0.5625,-1.1875 0.921875,-1.953125 1.03125,-2.359375 0.046875,0.140625 0.109375,0.34375 0.65625,1.515625 L 6.5,-0.828125 H 1.578125 Z m 0,0"
               id="id-fa441ec7-8175-4e89-9131-bd7e916221d4" />
          </g>
          <g
             id="id-0458968c-f88c-4fa0-bc35-b79f1c1f6d58" />
          <g
             id="id-33586a86-2956-41c3-bdf0-1987e889ac69">
            <path
               d="m 4.75,-3.953125 c 0.09375,-0.078125 0.09375,-0.09375 0.125,-0.1875 l 0.046875,-0.28125 h -3.5625 l -0.125,0.578125 H 2.625 c 0.125,0 0.25,0 0.359375,0 h 0.84375 l -3.34375,3.3125 C 0.375,-0.421875 0.375,-0.40625 0.34375,-0.3125 0.328125,-0.265625 0.296875,-0.0625 0.28125,0 H 4 L 4.140625,-0.625 H 2.65625 c -0.109375,0 -0.234375,0.015625 -0.359375,0.015625 h -0.90625 z m 0,0"
               id="id-bb701b45-f4ef-4bfa-b68f-b5fcdc695a16" />
          </g>
        </g>
      </defs>
      <g
         fill="#000000"
         fill-opacity="1"
         id="id-7ae97170-56c2-401b-a1e0-d37aed433020"
         transform="translate(-149.134,-127.843)">
        <g
           transform="translate(148.712,134.765)"
           id="g37276">
          <path
             d="M 4.59375,-6.921875 H 3.703125 L 0.421875,0 H 7.875 Z M 3,-3.875 c 0.5625,-1.1875 0.921875,-1.953125 1.03125,-2.359375 0.046875,0.140625 0.109375,0.34375 0.65625,1.515625 L 6.5,-0.828125 H 1.578125 Z m 0,0"
             id="id-5f4e0685-448e-4183-b654-4d49e6f51618" />
        </g>
      </g>
      <g
         fill="#000000"
         fill-opacity="1"
         id="id-3b93ec81-0420-4203-9ab9-c1a57ef4314e"
         transform="translate(-149.134,-127.843)">
        <g
           transform="translate(157.015,134.765)"
           id="g37280">
          <path
             d="m 4.75,-3.953125 c 0.09375,-0.078125 0.09375,-0.09375 0.125,-0.1875 l 0.046875,-0.28125 h -3.5625 l -0.125,0.578125 H 2.625 c 0.125,0 0.25,0 0.359375,0 h 0.84375 l -3.34375,3.3125 C 0.375,-0.421875 0.375,-0.40625 0.34375,-0.3125 0.328125,-0.265625 0.296875,-0.0625 0.28125,0 H 4 L 4.140625,-0.625 H 2.65625 c -0.109375,0 -0.234375,0.015625 -0.359375,0.015625 h -0.90625 z m 0,0"
             id="id-c9bc5589-3a94-4730-81b9-80d00b61ed5d" />
        </g>
      </g>
    </g>
    <g
       transform="matrix(1.41111,0,0,1.41111,258.1705,28.58836)"
       ns15:version="1.8.2"
       ns15:texconverter="pdflatex"
       ns15:pdfconverter="inkscape"
       ns15:text="$1$"
       ns15:preamble="C:\Users\rcaspa\AppData\Roaming\inkscape\extensions\textext\default_packages.tex"
       ns15:scale="4.0"
       ns15:alignment="middle center"
       ns15:stroke-to-path="0"
       ns15:inkscapeversion="1.2.2"
       ns15:jacobian_sqrt="1.41111"
       id="g37434">
      <defs
         id="id-fbbeb82f-1a30-4a90-af67-c59a7f222779">
        <g
           id="id-c7ade9b7-4085-4335-8237-5b85f5248d7a">
          <g
             id="id-574e024b-7621-4579-adbd-f8b305d1e0d7" />
          <g
             id="id-5d5d0883-75d5-4dd8-a310-beeb641b3a29">
            <path
               d="M 2.984375,-6.765625 H 2.78125 C 2.1875,-6.15625 1.359375,-6.125 0.890625,-6.09375 v 0.578125 C 1.21875,-5.53125 1.6875,-5.546875 2.1875,-5.765625 v 5.1875 H 0.953125 V 0 h 3.28125 v -0.578125 h -1.25 z m 0,0"
               id="id-72c9fa1e-1054-4f87-bf35-0d663994901e" />
          </g>
        </g>
      </defs>
      <g
         fill="#000000"
         fill-opacity="1"
         id="id-04225b96-4b29-4e42-8697-39f6160b288e"
         transform="translate(-149.603,-127.999)">
        <g
           transform="translate(148.712,134.765)"
           id="g37431">
          <path
             d="M 2.984375,-6.765625 H 2.78125 C 2.1875,-6.15625 1.359375,-6.125 0.890625,-6.09375 v 0.578125 C 1.21875,-5.53125 1.6875,-5.546875 2.1875,-5.765625 v 5.1875 H 0.953125 V 0 h 3.28125 v -0.578125 h -1.25 z m 0,0"
             id="id-c08f6fa5-0717-4067-928d-9c187cbfc5d2" />
        </g>
      </g>
    </g>
    <g
       transform="matrix(1.41111,0,0,1.41111,295.78589,50.683158)"
       ns15:version="1.8.2"
       ns15:texconverter="pdflatex"
       ns15:pdfconverter="inkscape"
       ns15:text="$\\frac{1}{\\mathrm{e}}$"
       ns15:preamble="C:\Users\rcaspa\AppData\Roaming\inkscape\extensions\textext\default_packages.tex"
       ns15:scale="4.0"
       ns15:alignment="middle center"
       ns15:stroke-to-path="0"
       ns15:inkscapeversion="1.2.2"
       ns15:jacobian_sqrt="1.41111"
       id="g37604">
      <defs
         id="id-b21df0b7-f8db-4d42-acd9-9e2a817a9a68">
        <g
           id="id-9a2b268a-a982-4fab-9d6d-8608c368a08e">
          <g
             id="id-0960d49c-f4da-46a4-94e4-fc91b1b3c033" />
          <g
             id="id-ee9dd196-c5e3-4bca-86c2-2dacb8e4fa84">
            <path
               d="M 2.234375,-4.71875 H 2.078125 C 1.625,-4.296875 1.0625,-4.265625 0.640625,-4.265625 V -3.8125 c 0.265625,-0.015625 0.625,-0.03125 0.96875,-0.171875 V -0.4375 H 0.6875 V 0 H 3.15625 V -0.4375 H 2.234375 Z m 0,0"
               id="id-0ac5c758-27c2-4054-a80c-76772a751746" />
          </g>
          <g
             id="id-42b4d5c0-312b-4d1b-8193-c4c004baedd0">
            <path
               d="m 3,-0.765625 c -0.390625,0.28125 -0.828125,0.375 -1.125,0.375 -0.609375,0 -1.078125,-0.5 -1.09375,-1.140625 H 3.0625 c 0,-0.3125 -0.03125,-0.78125 -0.296875,-1.171875 -0.25,-0.359375 -0.671875,-0.5 -1.015625,-0.5 -0.84375,0 -1.5,0.75 -1.5,1.640625 0,0.890625 0.6875,1.625 1.609375,1.625 0.40625,0 0.828125,-0.109375 1.171875,-0.328125 z M 0.828125,-1.9375 C 0.984375,-2.5 1.40625,-2.734375 1.75,-2.734375 c 0.3125,0 0.765625,0.140625 0.890625,0.796875 z m 0,0"
               id="id-47c3d8d2-c3b1-4e8d-a91d-7d6a593ee319" />
          </g>
        </g>
      </defs>
      <g
         fill="#000000"
         fill-opacity="1"
         id="id-771e5e3c-18c7-4f5d-834e-515792ee16bf"
         transform="translate(-149.906,-126.123)">
        <g
           transform="translate(149.908,130.842)"
           id="g37596">
          <path
             d="M 2.234375,-4.71875 H 2.078125 C 1.625,-4.296875 1.0625,-4.265625 0.640625,-4.265625 V -3.8125 c 0.265625,-0.015625 0.625,-0.03125 0.96875,-0.171875 V -0.4375 H 0.6875 V 0 H 3.15625 V -0.4375 H 2.234375 Z m 0,0"
             id="id-93ace412-7293-4905-99d5-126244b6e6a2" />
        </g>
      </g>
      <path
         fill="none"
         stroke-width="0.398"
         stroke-linecap="butt"
         stroke-linejoin="miter"
         stroke="#000000"
         stroke-opacity="1"
         stroke-miterlimit="10"
         d="M 0,6.1501923 H 3.707031"
         id="id-841e78d1-5604-4987-812b-11a8e8506426" />
      <g
         fill="#000000"
         fill-opacity="1"
         id="id-815cce74-08b1-49bc-beca-f12235f2bc25"
         transform="translate(-149.906,-126.123)">
        <g
           transform="translate(150.114,138.2)"
           id="g37601">
          <path
             d="m 3,-0.765625 c -0.390625,0.28125 -0.828125,0.375 -1.125,0.375 -0.609375,0 -1.078125,-0.5 -1.09375,-1.140625 H 3.0625 c 0,-0.3125 -0.03125,-0.78125 -0.296875,-1.171875 -0.25,-0.359375 -0.671875,-0.5 -1.015625,-0.5 -0.84375,0 -1.5,0.75 -1.5,1.640625 0,0.890625 0.6875,1.625 1.609375,1.625 0.40625,0 0.828125,-0.109375 1.171875,-0.328125 z M 0.828125,-1.9375 C 0.984375,-2.5 1.40625,-2.734375 1.75,-2.734375 c 0.3125,0 0.765625,0.140625 0.890625,0.796875 z m 0,0"
             id="id-6e80f4c3-80f6-4c17-a8cb-fb1665010d18" />
        </g>
      </g>
    </g>
  </g>
  <g
     inkscape:groupmode="layer"
     id="layer3"
     inkscape:label="Ebene 2"
     transform="translate(-61.00001,-40.616237)"
     style="display:inline">
    <path
       style="fill:none;fill-opacity:1;stroke:#c20052;stroke-width:1;stroke-linecap:round;stroke-linejoin:round;stroke-dasharray:none;stroke-dashoffset:3.77953;stroke-opacity:1;stop-color:#000000"
       d="m 139,74.999999 c 6,0 9,-1 12,-1 3,0 3.16442,1.249495 6,1 2.83558,-0.249495 3,-3.000002 6,-3 3,2e-6 3,3.000001 6,3 3,0 3,-6.00001 6,-6.000005 3,5e-6 3,6.000006 6,6.000005 3,0 3,-12.000004 6,-12.000002 3,2e-6 3,12.000002 6,12.000002 3,10e-7 3,-20.000004 6,-20.000002 3,2e-6 2.8419,19.929844 6,20.000002 3.1581,0.07016 3,-30 6,-30.000005 3,-5e-6 3,30.000006 6,30.000005 3,0 3,-36.999996 6,-37 3,-4e-6 3,37.000001 6,37 3,0 3,-40 6,-40 3,0 4,40 6,40 2,0 3,-36.999996 6,-37 3,-4e-6 3,36.999999 6,37 3,10e-7 3,-30.00001 6,-30.000005 3,5e-6 3,30.000004 6,30.000005 3,10e-7 3,-20 6,-20.000002 3,-2e-6 3,20.000002 6,20.000002 3,10e-7 3,-12 6,-12.000002 3,-2e-6 3,12.000003 6,12.000002 3,0 3,-6 6,-6.000005 3,-5e-6 3,6.000005 6,6.000005 3,10e-7 3,-2.999998 6,-3 3,-2e-6 3,2.999999 6,3 3,10e-7 3,-1 6,-1 3,0 6,0.999999 12,1"
       id="path34489"
       sodipodi:nodetypes="czzzzzzzzzzzzzzzzzzzzzzzzzzzzzc"
       transform="translate(-73.499995,20.499999)" />
  </g>
</svg>
