<?xml version="1.0" encoding="UTF-8" standalone="no"?>
<svg
   width="600"
   height="300"
   version="1.1"
   id="svg255"
   sodipodi:docname="Double-slit.svg"
   inkscape:version="1.2.2 (732a01da63, 2022-12-09)"
   xmlns:inkscape="http://www.inkscape.org/namespaces/inkscape"
   xmlns:sodipodi="http://sodipodi.sourceforge.net/DTD/sodipodi-0.dtd"
   xmlns:xlink="http://www.w3.org/1999/xlink"
   xmlns="http://www.w3.org/2000/svg"
   xmlns:svg="http://www.w3.org/2000/svg">
  <sodipodi:namedview
     id="namedview257"
     pagecolor="#ffffff"
     bordercolor="#666666"
     borderopacity="1.0"
     inkscape:showpageshadow="2"
     inkscape:pageopacity="0.0"
     inkscape:pagecheckerboard="0"
     inkscape:deskcolor="#d1d1d1"
     showgrid="false"
     inkscape:zoom="2.2250294"
     inkscape:cx="305.61394"
     inkscape:cy="130.78479"
     inkscape:window-width="1920"
     inkscape:window-height="1009"
     inkscape:window-x="1912"
     inkscape:window-y="-2"
     inkscape:window-maximized="1"
     inkscape:current-layer="svg255" />
  <defs
     id="defs22">
    <radialGradient
       id="e"
       cx="107.5"
       cy="92"
       r="3.5"
       gradientTransform="matrix(1.363 0 0 1.363 11.363 37.846)"
       gradientUnits="userSpaceOnUse">
      <stop
         stop-color="#00f"
         offset="0"
         id="stop2" />
      <stop
         stop-color="#00f"
         stop-opacity="0"
         offset="1"
         id="stop4" />
    </radialGradient>
    <radialGradient
       id="v"
       cx="318.5"
       cy="101"
       r="4.5"
       gradientTransform="matrix(1.363 0 0 26.576 48.163 -2508.7)"
       gradientUnits="userSpaceOnUse">
      <stop
         stop-color="#00f"
         offset="0"
         id="stop7" />
      <stop
         stop-opacity="0"
         offset="1"
         id="stop9" />
    </radialGradient>
    <linearGradient
       id="s"
       x1="38.5"
       x2="58.5"
       y1="93"
       y2="93"
       gradientTransform="matrix(0 1.363 -1.363 0 227.4 97.136)"
       gradientUnits="userSpaceOnUse">
      <stop
         stop-color="#000064"
         stop-opacity=".39216"
         offset="0"
         id="stop12" />
      <stop
         stop-color="#6464ff"
         stop-opacity=".39216"
         offset=".44844"
         id="stop14" />
      <stop
         stop-color="#000064"
         stop-opacity=".39216"
         offset="1"
         id="stop16" />
    </linearGradient>
    <radialGradient
       id="i"
       cx="318.5"
       cy="101"
       r="4.5"
       gradientTransform="matrix(1.363 0 0 26.576 31.807 -2525.1)"
       gradientUnits="userSpaceOnUse"
       xlink:href="#v" />
    <radialGradient
       id="d"
       cx="318.5"
       cy="101"
       r="4.5"
       gradientTransform="matrix(1.363 0 0 26.576 15.451 -2541.4)"
       gradientUnits="userSpaceOnUse"
       xlink:href="#v" />
    <radialGradient
       id="a"
       cx="318.5"
       cy="101"
       r="4.5"
       gradientTransform="matrix(1.363,0,0,26.576,48.163,-2508.7)"
       gradientUnits="userSpaceOnUse"
       xlink:href="#v" />
  </defs>
  <g
     id="b">
    <circle
       id="c"
       cx="157.89"
       cy="163.24"
       r="4.7705"
       fill="url(#e)" />
    <use
       transform="translate(16.35)"
       xlink:href="#c"
       id="use25" />
  </g>
  <g
     stroke-width="2"
     id="g50">
    <path
       d="m149.03 163.73c15.688-25.442 17.024 23.484 32.712 0 15.688-25.442 17.024 23.484 32.712 0 15.688-25.442 17.024 23.484 32.712 0"
       fill="none"
       stroke="#00f"
       stroke-linecap="round"
       id="path28" />
    <g
       stroke="#000"
       id="g36">
      <path
         d="m56.343 149.61c3.7638 0 6.815 6.1024 6.815 13.63s-3.0512 13.63-6.815 13.63h95.41c3.7638 0 6.815-6.1024 6.815-13.63 0-7.5275-3.0512-13.63-6.815-13.63z"
         fill="#fff"
         id="path30" />
      <path
         d="m443.43 63.736 77.956 77.956v140.96l-77.956-77.957z"
         fill="#fff"
         id="path32" />
      <path
         d="m277.15 204.7 77.955 77.957v-140.96l-77.955-77.956zm25.898-90.519 5.4512 5.4531v96.771l-5.4512-5.4512v-96.773zm19.082 19.082 5.4512 5.4531v96.771l-5.4512-5.4512v-96.773z"
         fill="#747474"
         id="path34" />
    </g>
    <g
       fill="none"
       stroke-linecap="round"
       id="g44">
      <path
         d="m427.52 256.91 29.826-24.835"
         stroke="#000"
         id="path38" />
      <path
         d="m368.62 163.24h43.776"
         stroke="#00f"
         stroke-dasharray="4"
         id="path40" />
      <path
         d="m212.3 163.24h42.874"
         stroke="#00f"
         id="path42" />
    </g>
    <ellipse
       cx="56.343"
       cy="163.24"
       rx="6.815"
       ry="13.63"
       fill="#00f"
       fill-opacity=".39216"
       stroke="#000"
       id="ellipse46" />
    <path
       d="m56.343 149.61c3.7638 0 6.815 6.1024 6.815 13.63s-3.0512 13.63-6.815 13.63h95.41c3.7638 0 6.815-6.1024 6.815-13.63 0-7.5275-3.0512-13.63-6.815-13.63z"
       fill="url(#s)"
       stroke="#000"
       id="path48" />
  </g>
  <path
     id="j"
     d="m476.14 120.99 12.267 12.267v96.773l-12.267-12.267z"
     fill="url(#a)" />
  <g
     id="h">
    <path
       id="g"
       d="m459.78 104.63 12.267 12.267v96.773l-12.267-12.267z"
       fill="url(#i)" />
    <path
       d="m443.43 88.278 12.267 12.267v96.773l-12.267-12.267z"
       fill="url(#d)"
       fill-opacity=".39216"
       id="path54" />
  </g>
  <use
     transform="rotate(180,482.27,175.51)"
     xlink:href="#h"
     id="use57" />
  <path
     d="m403.09 153.79c4.725 5.5282 4.725 13.396 0 18.9l25.986-9.4492z"
     fill="#00f"
     id="path59" />
  <path
     d="m245.85 153.79c4.725 5.5282 4.725 13.396 0 18.9l25.986-9.4492z"
     fill="#00f"
     id="path61" />
  <path
     d="m471.83 219.39-26.016 9.3672c7.1675 1.2256 12.2 7.2705 12.092 14.523z"
     id="path63" />
  <use
     transform="translate(32.03)"
     xlink:href="#b"
     id="use65" />
  <switch
     transform="translate(212.55,131.15)"
     id="switch83"
     style="font-size:15px;font-family:'Liberation Sans';text-anchor:middle">
    <text
       systemLanguage="de"
       id="text71"
       style="-inkscape-font-specification:Arial;font-family:Arial;font-weight:normal;font-style:normal;font-stretch:normal;font-variant:normal">Elektronen</text>
  </switch>
  <switch
     transform="translate(482.29,40.441)"
     id="switch101"
     style="font-size:15px;font-family:'Liberation Sans';text-anchor:middle">
    <text
       systemLanguage="de"
       id="text89"><tspan
         style="font-style:normal;font-variant:normal;font-weight:normal;font-stretch:normal;font-family:Arial;-inkscape-font-specification:Arial"
         id="tspan539">Beobachtungsschirm</tspan></text>
  </switch>
  <switch
     transform="translate(315.85,32.941)"
     id="switch151"
     style="font-size:15px;font-family:'Liberation Sans';text-anchor:middle">
    <text
       systemLanguage="de"
       id="text119"><tspan
         x="0"
         y="0"
         id="tspan115"
         style="-inkscape-font-specification:Arial;font-family:Arial;font-weight:normal;font-style:normal;font-stretch:normal;font-variant:normal">Doppel-</tspan><tspan
         x="0"
         y="15"
         id="tspan117"
         style="-inkscape-font-specification:Arial;font-family:Arial;font-weight:normal;font-style:normal;font-stretch:normal;font-variant:normal">spalt</tspan></text>
  </switch>
  <switch
     transform="translate(422.75,272.16)"
     id="switch201"
     style="font-size:15px;font-family:'Liberation Sans';text-anchor:middle">
    <text
       systemLanguage="de"
       id="text169"><tspan
         x="0"
         y="0"
         id="tspan165">Interferenz-</tspan><tspan
         x="0"
         y="15"
         id="tspan167">muster</tspan></text>
  </switch>
  <switch
     transform="translate(101.96,123.65)"
     id="switch251"
     style="font-size:15px;font-family:'Liberation Sans';text-anchor:middle">
    <text
       systemLanguage="de"
       id="text219"><tspan
         x="0"
         y="0"
         id="tspan215"
         style="-inkscape-font-specification:Arial;font-family:Arial;font-weight:normal;font-style:normal;font-stretch:normal;font-variant:normal">Elektron-</tspan><tspan
         x="0"
         y="15"
         id="tspan217"
         style="-inkscape-font-specification:Arial;font-family:Arial;font-weight:normal;font-style:normal;font-stretch:normal;font-variant:normal">kanone</tspan></text>
  </switch>
</svg>
