<?xml version="1.0" encoding="UTF-8" standalone="no"?>
<!-- Created with Inkscape (http://www.inkscape.org/) -->

<svg
   width="122.24023mm"
   height="60.496487mm"
   viewBox="0 0 122.24023 60.496487"
   version="1.1"
   id="svg1"
   inkscape:version="1.2.2 (732a01da63, 2022-12-09)"
   sodipodi:docname="img_resonator_folded.svg"
   xmlns:inkscape="http://www.inkscape.org/namespaces/inkscape"
   xmlns:sodipodi="http://sodipodi.sourceforge.net/DTD/sodipodi-0.dtd"
   xmlns="http://www.w3.org/2000/svg"
   xmlns:svg="http://www.w3.org/2000/svg">
  <sodipodi:namedview
     id="namedview1"
     pagecolor="#ffffff"
     bordercolor="#000000"
     borderopacity="0.25"
     inkscape:showpageshadow="2"
     inkscape:pageopacity="0.0"
     inkscape:pagecheckerboard="0"
     inkscape:deskcolor="#d1d1d1"
     inkscape:document-units="mm"
     showgrid="true"
     inkscape:zoom="1.5233586"
     inkscape:cx="132.27352"
     inkscape:cy="118.15997"
     inkscape:window-width="1920"
     inkscape:window-height="1009"
     inkscape:window-x="1912"
     inkscape:window-y="-2"
     inkscape:window-maximized="1"
     inkscape:current-layer="layer3">
    <inkscape:grid
       id="grid1"
       units="mm"
       originx="-158.25977"
       originy="-93.917096"
       spacingx="0.99999998"
       spacingy="1"
       empcolor="#0099e5"
       empopacity="0.30196078"
       color="#0099e5"
       opacity="0.14901961"
       empspacing="5"
       enabled="true"
       visible="true" />
  </sodipodi:namedview>
  <defs
     id="defs1">
    <defs
       id="id-f19a54b6-ee39-419e-82c0-e0021035c81e">
      <g
         id="id-fb1d843b-983e-48e3-8525-73b3708f35f9">
        <g
           id="id-b63cb82a-168b-4983-bc5f-17219704f45b">
          <path
             d="m 7.75,-3.03125 c 0.03125,-0.171875 0.0625,-0.28125 0.0625,-0.5 0,-0.609375 -0.3125,-1 -1.109375,-1 -0.875,0 -1.421875,0.578125 -1.671875,0.828125 C 5,-4.109375 4.796875,-4.53125 3.9375,-4.53125 c -0.796875,0 -1.390625,0.515625 -1.609375,0.75 l 0.15625,-0.703125 H 1.765625 L 0.8125,0 H 1.578125 L 2.0625,-2.265625 c 0.203125,-0.921875 0.609375,-1.65625 1.359375,-1.65625 0.421875,0 0.8125,0.125 0.8125,0.65625 0,0.03125 -0.015625,0.1875 -0.015625,0.203125 L 3.5625,0 H 4.34375 L 4.828125,-2.265625 C 5.03125,-3.1875 5.4375,-3.921875 6.1875,-3.921875 c 0.421875,0 0.8125,0.125 0.8125,0.65625 0,0.03125 -0.015625,0.1875 -0.015625,0.203125 L 6.328125,0 h 0.78125 z m 0,0"
             id="id-42bf7d84-1f7d-4c6c-b681-e0a382ea2bff" />
        </g>
        <g
           id="id-88eb800e-829c-471e-b3e6-05c94bea8af0">
          <path
             d="M 3.0625,-6.78125 H 2.171875 l -0.1875,0.890625 H 2.875 Z M 0.8125,0 h 0.75 L 2.5,-4.421875 H 1.75 Z m 0,0"
             id="id-63d41902-664b-4fe6-ab99-6de2787f8459" />
        </g>
        <g
           id="id-bd92a33a-7484-4d44-9d92-56e10f813e47">
          <path
             d="M 4.234375,-4.53125 C 3.046875,-4.515625 2.3125,-3.625 2.296875,-3.609375 H 2.28125 l 0.1875,-0.875 H 1.78125 L 0.8125,0 h 0.75 c 0.265625,-1.21875 0.46875,-2.1875 0.5,-2.328125 C 2.25,-2.984375 2.984375,-3.84375 4.078125,-3.875 Z m 0,0"
             id="id-05cd6535-e484-41ff-81c1-224d34d514eb" />
        </g>
        <g
           id="id-5629e4a7-9180-40c0-be4d-26f7584c80fe">
          <path
             d="m 5.203125,-2.734375 c 0,-1.015625 -0.671875,-1.859375 -1.75,-1.859375 -1.421875,0 -2.75,1.484375 -2.75,2.90625 0,1.015625 0.703125,1.796875 1.765625,1.796875 1.34375,0 2.734375,-1.3125 2.734375,-2.84375 z M 2.609375,-0.53125 C 2.140625,-0.53125 1.5,-0.796875 1.5,-1.765625 c 0,-1.171875 0.796875,-2.21875 1.828125,-2.21875 0.671875,0 1.125,0.453125 1.125,1.1875 0,1 -0.71875,2.265625 -1.84375,2.265625 z m 0,0"
             id="id-03999e75-50a6-45d6-82aa-4d1ffef85b82" />
        </g>
        <g
           id="id-e7f7ab53-7435-4fa9-843e-7c9d74c7e449">
          <path
             d="m 4.59375,-2.1875 c 0.046875,-0.171875 0.09375,-0.546875 0.09375,-0.875 0,-0.171875 0,-0.703125 -0.3125,-1.09375 -0.1875,-0.234375 -0.546875,-0.4375 -1.0625,-0.4375 -1.28125,0 -2.546875,1.4375 -2.546875,2.890625 0,1.03125 0.65625,1.8125 1.71875,1.8125 0.671875,0 1.296875,-0.265625 1.6875,-0.515625 0.03125,-0.125 0.0625,-0.5 0.078125,-0.65625 C 3.890625,-0.796875 3.265625,-0.5 2.609375,-0.5 1.9375,-0.5 1.46875,-1 1.46875,-1.8125 c 0,-0.125 0,-0.234375 0.03125,-0.375 z M 1.671875,-2.734375 c 0.359375,-0.796875 0.984375,-1.25 1.53125,-1.25 0.9375,0 0.9375,0.9375 0.9375,1.25 z m 0,0"
             id="id-7ac6d519-24e9-4d0d-a763-9e3da193cd2b" />
        </g>
        <g
           id="id-fc43d2af-5c97-457c-9c86-8a86ed50ed34">
          <path
             d="M 4.328125,-4.28125 C 3.875,-4.5 3.515625,-4.59375 2.953125,-4.59375 c -0.375,0 -0.90625,0.03125 -1.375,0.390625 C 1.171875,-3.875 1,-3.34375 1,-3.046875 c 0,0.296875 0.125,0.53125 0.328125,0.71875 0.25,0.25 0.5,0.296875 1.09375,0.421875 C 2.6875,-1.859375 3.15625,-1.75 3.15625,-1.3125 c 0,0 0,0.796875 -1.109375,0.796875 C 1.6875,-0.515625 1.109375,-0.59375 0.625,-1 l -0.21875,0.53125 c -0.015625,0.03125 -0.046875,0.09375 -0.046875,0.125 0,0.03125 0.625,0.453125 1.578125,0.453125 1.640625,0 1.953125,-1.234375 1.953125,-1.640625 0,-0.484375 -0.296875,-0.734375 -0.375,-0.828125 -0.28125,-0.21875 -0.453125,-0.25 -1,-0.359375 C 2.109375,-2.796875 1.75,-2.875 1.75,-3.28125 1.75,-3.296875 1.75,-4 2.734375,-4 c 0.546875,0 0.9375,0.109375 1.328125,0.375 h 0.015625 z m 0,0"
             id="id-068dfab8-3277-4e28-aab2-9b9d7e636665" />
        </g>
        <g
           id="id-673095f3-546a-4f9d-94b0-a2852a545f34">
          <path
             d="m 4.96875,-3.03125 c 0.0625,-0.28125 0.0625,-0.359375 0.0625,-0.5 0,-0.609375 -0.296875,-1 -1.09375,-1 -0.625,0 -1.1875,0.296875 -1.609375,0.75 l 0.15625,-0.703125 H 1.765625 L 0.8125,0 H 1.578125 L 2.0625,-2.265625 c 0.234375,-1.09375 0.703125,-1.65625 1.359375,-1.65625 0.46875,0 0.8125,0.15625 0.8125,0.65625 0,0.03125 -0.03125,0.1875 -0.03125,0.203125 L 3.5625,0 h 0.78125 z m 0,0"
             id="id-b8ea1614-c9b5-46fd-9a88-c6833876e7b3" />
        </g>
        <g
           id="id-45a87e28-a2a0-4598-8f8b-1afe74bca0db">
          <path
             d="m 4.609375,-2.9375 c 0.03125,-0.140625 0.03125,-0.21875 0.03125,-0.359375 0,-0.71875 -0.484375,-1.296875 -1.328125,-1.296875 -0.71875,0 -1.21875,0.203125 -1.65625,0.421875 C 1.625,-3.875 1.578125,-3.546875 1.578125,-3.515625 2.03125,-3.796875 2.546875,-4 3.1875,-4 c 0.609375,0 0.671875,0.609375 0.671875,0.78125 0,0.171875 -0.125,0.75 -0.15625,0.765625 -0.03125,0.015625 -0.1875,0.015625 -0.234375,0.015625 -0.734375,0.03125 -2.828125,0.234375 -2.828125,1.59375 0,0.15625 0.046875,0.953125 0.921875,0.953125 0.25,0 1.09375,-0.046875 1.734375,-0.453125 C 3.28125,-0.265625 3.25,-0.078125 3.234375,0 h 0.75 z m -1.125,1.640625 C 3.296875,-0.5 2.328125,-0.5 2.1875,-0.5 c -0.5,0 -0.796875,-0.21875 -0.796875,-0.53125 0,-0.796875 1.765625,-0.875 2.21875,-0.90625 z m 0,0"
             id="id-aef9d3ec-a996-4c35-b65f-d496c57aa707" />
        </g>
        <g
           id="id-a5309ae0-20f5-46cb-92d7-04f020550d39">
          <path
             d="m 2.5625,-3.84375 h 1.40625 l 0.125,-0.578125 H 2.6875 L 2.953125,-5.6875 h -0.6875 L 2,-4.421875 H 1.125 L 1,-3.84375 h 0.84375 c -0.125,0.5625 -0.625,2.8125 -0.625,3.1875 0,0.5625 0.234375,0.765625 0.609375,0.765625 0.53125,0 1.046875,-0.15625 1.546875,-0.375 l -0.046875,-0.59375 c -0.359375,0.25 -0.703125,0.328125 -0.96875,0.328125 -0.109375,0 -0.375,0 -0.375,-0.46875 0,-0.09375 0.015625,-0.171875 0.03125,-0.234375 z m 0,0"
             id="id-8cfcd283-9a60-44c9-82c7-c5da55a8a92c" />
        </g>
        <g
           id="id-f180c7dc-225e-4793-9486-4734bf38d830">
          <path
             d="m 1.6875,-0.453125 c 0.15625,0.15625 0.515625,0.5625 1.21875,0.5625 1.1875,0 2.421875,-1.375 2.421875,-3.03125 0,-0.84375 -0.375,-1.609375 -1.15625,-1.609375 -0.625,0 -1.296875,0.25 -1.765625,0.59375 L 2.5,-4.421875 H 1.75 L 0.40625,1.9375 H 1.1875 Z m 0.578125,-2.71875 C 2.3125,-3.34375 2.328125,-3.34375 2.4375,-3.46875 c 0.4375,-0.375 0.84375,-0.421875 1.046875,-0.421875 0.609375,0 1.046875,0.5 1.046875,1.25 0,1.125 -0.953125,2.140625 -1.875,2.140625 -0.671875,0 -0.8125,-0.609375 -0.8125,-0.65625 0,-0.015625 0.03125,-0.125 0.03125,-0.140625 z m 0,0"
             id="id-82fef101-86fa-413b-8f27-39934d10a2e1" />
        </g>
        <g
           id="id-ff64ae46-cd74-44b9-a602-7ae4c2cf8c30">
          <path
             d="m 5.390625,-4.421875 h -0.75 l -1.15625,1.96875 c -0.9375,1.578125 -1.015625,1.8125 -1.0625,1.9375 L 2.40625,-0.53125 c 0,-0.59375 -0.1875,-1.734375 -0.1875,-1.765625 l -0.359375,-2.125 H 1.078125 L 1.859375,0 h 0.875 z m 0,0"
             id="id-3aaa177e-9ff1-4b8d-ae99-d57e8dcfbbe0" />
        </g>
        <g
           id="id-07ab008b-bdce-4fe7-9084-dd4b4ab31e43">
          <path
             d="m 5.796875,-6.921875 h -0.75 l -0.625,2.9375 C 4.0625,-4.375 3.53125,-4.53125 3.09375,-4.53125 1.890625,-4.53125 0.75,-3.0625 0.75,-1.5625 c 0,0.9375 0.484375,1.671875 1.296875,1.671875 0.3125,0 0.921875,-0.0625 1.609375,-0.625 L 3.546875,0 h 0.78125 z M 3.84375,-1.328125 C 3.78125,-1.078125 3.234375,-0.5 2.59375,-0.5 2.1875,-0.5 1.546875,-0.71875 1.546875,-1.671875 c 0,-1.171875 0.796875,-2.25 1.875,-2.25 0.65625,0 0.828125,0.53125 0.828125,0.546875 0,0.03125 0,0.0625 -0.015625,0.140625 z m 0,0"
             id="id-fc2d8139-8f55-4c95-879b-8b43a2e54fa9" />
        </g>
        <g
           id="id-0b5edbab-a28b-49fb-a66a-cbe9ed39fe5f">
          <path
             d="m 2.578125,-3.84375 h 1.09375 L 3.78125,-4.421875 h -1.125 L 2.921875,-5.65625 c 0.09375,-0.5 0.59375,-0.765625 1.09375,-0.765625 0.125,0 0.4375,0.015625 0.765625,0.171875 l 0.140625,-0.671875 c -0.25,-0.0625 -0.515625,-0.109375 -0.765625,-0.109375 -0.984375,0 -1.8125,0.765625 -2,1.65625 L 1.9375,-4.421875 H 1.203125 L 1.09375,-3.84375 H 1.828125 L 1,0 h 0.75 z m 0,0"
             id="id-430a412c-4699-431d-90e4-f37cb3a7e0ee" />
        </g>
        <g
           id="id-dbe2e97a-8068-4cfc-bbf1-2da2fef1c829">
          <path
             d="m 3.046875,-6.921875 h -0.75 L 0.8125,0 H 1.59375 L 1.6875,-0.453125 c 0.28125,0.328125 0.671875,0.5625 1.21875,0.5625 1.1875,0 2.421875,-1.390625 2.421875,-3.015625 0,-0.8125 -0.359375,-1.625 -1.203125,-1.625 -0.578125,0 -1.234375,0.21875 -1.71875,0.578125 z M 2.3125,-3.34375 c 0.09375,-0.109375 0.546875,-0.578125 1.171875,-0.578125 0.59375,0 1.0625,0.390625 1.0625,1.15625 0,1.125 -0.765625,2.265625 -1.890625,2.265625 -0.421875,0 -0.6875,-0.234375 -0.8125,-0.640625 z m 0,0"
             id="id-8d1accd9-9dc4-4905-a533-7817d72f9d86" />
        </g>
        <g
           id="id-e4697ee7-a81c-49d0-8f1c-084736f03b28">
          <path
             d="m 4.96875,-4.15625 c -0.515625,-0.375 -0.90625,-0.4375 -1.4375,-0.4375 -1.59375,0 -2.765625,1.578125 -2.765625,2.90625 0,0.90625 0.578125,1.796875 1.734375,1.796875 0.515625,0 1.09375,-0.140625 1.734375,-0.515625 L 4.3125,-1.0625 c -0.390625,0.25 -0.953125,0.53125 -1.6875,0.53125 -0.6875,0 -1.0625,-0.5 -1.0625,-1.21875 0,-0.859375 0.59375,-2.203125 1.84375,-2.203125 0.59375,0 0.859375,0.109375 1.3125,0.4375 z m 0,0"
             id="id-74b62240-64e3-455f-8676-a47acd08f972" />
        </g>
        <g
           id="id-9ea4d27c-8685-4c9d-a013-7ae0a79626e1">
          <path
             d="m 3.375,-2.71875 2.03125,-1.703125 h -0.875 l -2.484375,2.0625 0.984375,-4.5625 H 2.3125 L 0.84375,0 h 0.6875 L 1.828125,-1.421875 2.796875,-2.21875 3.875,0 h 0.8125 z m 0,0"
             id="id-0ac65291-8f27-4f9b-99e9-81fb1e906799" />
        </g>
        <g
           id="id-9be4268c-c484-4a6c-add8-4074f00fa8ef">
          <path
             d="M 2.703125,-7.484375 C 2.375,-7.171875 1.71875,-6.5625 1.25,-5.34375 0.859375,-4.28125 0.78125,-3.21875 0.78125,-2.5 c 0,3.234375 1.4375,4.546875 1.921875,5 H 3.3125 c -0.484375,-0.484375 -1.75,-1.765625 -1.75,-5 0,-0.546875 0.03125,-1.71875 0.4375,-2.890625 0.40625,-1.15625 0.984375,-1.75 1.3125,-2.09375 z m 0,0"
             id="id-16e11217-d219-43f3-8b31-9c3eb6484f7d" />
        </g>
        <g
           id="id-701ede65-0a1d-4ddf-b0f3-a39b4591e36b">
          <path
             d="m 1.171875,2.5 c 0.3125,-0.3125 0.984375,-0.921875 1.4375,-2.140625 0.40625,-1.0625 0.46875,-2.125 0.46875,-2.859375 0,-3.21875 -1.4375,-4.53125 -1.90625,-4.984375 H 0.5625 C 1.03125,-7 2.296875,-5.71875 2.296875,-2.5 c 0,0.5625 -0.03125,1.734375 -0.4375,2.90625 C 1.453125,1.5625 0.890625,2.15625 0.5625,2.5 Z m 0,0"
             id="id-a3e0ca47-d0bb-4591-8c63-cfd7bb3f4302" />
        </g>
      </g>
    </defs>
    <defs
       id="id-040d3bbc-f719-4ee0-8069-7cba23448060">
      <g
         id="id-1cad1773-6f00-41ea-88cd-74bef88c9e1f">
        <g
           id="id-119b5579-6274-4cb7-8ac0-a90974264055">
          <path
             d="m 5.203125,-2.734375 c 0,-1.015625 -0.671875,-1.859375 -1.75,-1.859375 -1.421875,0 -2.75,1.484375 -2.75,2.90625 0,1.015625 0.703125,1.796875 1.765625,1.796875 1.34375,0 2.734375,-1.3125 2.734375,-2.84375 z M 2.609375,-0.53125 C 2.140625,-0.53125 1.5,-0.796875 1.5,-1.765625 c 0,-1.171875 0.796875,-2.21875 1.828125,-2.21875 0.671875,0 1.125,0.453125 1.125,1.1875 0,1 -0.71875,2.265625 -1.84375,2.265625 z m 0,0"
             id="id-5a9b399c-e544-4a8b-8b6d-de1520646a1e" />
        </g>
        <g
           id="id-17568dbd-3552-4448-b37b-9997b26ecc0d">
          <path
             d="m 1.6875,-0.453125 c 0.15625,0.15625 0.515625,0.5625 1.21875,0.5625 1.1875,0 2.421875,-1.375 2.421875,-3.03125 0,-0.84375 -0.375,-1.609375 -1.15625,-1.609375 -0.625,0 -1.296875,0.25 -1.765625,0.59375 L 2.5,-4.421875 H 1.75 L 0.40625,1.9375 H 1.1875 Z m 0.578125,-2.71875 C 2.3125,-3.34375 2.328125,-3.34375 2.4375,-3.46875 c 0.4375,-0.375 0.84375,-0.421875 1.046875,-0.421875 0.609375,0 1.046875,0.5 1.046875,1.25 0,1.125 -0.953125,2.140625 -1.875,2.140625 -0.671875,0 -0.8125,-0.609375 -0.8125,-0.65625 0,-0.015625 0.03125,-0.125 0.03125,-0.140625 z m 0,0"
             id="id-3d7f0156-8920-4bb2-9ca5-a8df32f9ad76" />
        </g>
        <g
           id="id-ceae8f7e-6d1c-4685-8a96-ce8e0a01428b">
          <path
             d="m 2.5625,-3.84375 h 1.40625 l 0.125,-0.578125 H 2.6875 L 2.953125,-5.6875 h -0.6875 L 2,-4.421875 H 1.125 L 1,-3.84375 h 0.84375 c -0.125,0.5625 -0.625,2.8125 -0.625,3.1875 0,0.5625 0.234375,0.765625 0.609375,0.765625 0.53125,0 1.046875,-0.15625 1.546875,-0.375 l -0.046875,-0.59375 c -0.359375,0.25 -0.703125,0.328125 -0.96875,0.328125 -0.109375,0 -0.375,0 -0.375,-0.46875 0,-0.09375 0.015625,-0.171875 0.03125,-0.234375 z m 0,0"
             id="id-85239e55-4bf0-465a-9758-34fb9fab7260" />
        </g>
        <g
           id="id-8fdca4f7-daac-4e04-b2d0-57e9f47613c2">
          <path
             d="M 3.0625,-6.78125 H 2.171875 l -0.1875,0.890625 H 2.875 Z M 0.8125,0 h 0.75 L 2.5,-4.421875 H 1.75 Z m 0,0"
             id="id-ab2f3a0c-08c2-4986-a579-cc26772efbad" />
        </g>
        <g
           id="id-60fc15a2-5aab-472f-9a91-03b3dad8dba2">
          <path
             d="m 4.96875,-4.15625 c -0.515625,-0.375 -0.90625,-0.4375 -1.4375,-0.4375 -1.59375,0 -2.765625,1.578125 -2.765625,2.90625 0,0.90625 0.578125,1.796875 1.734375,1.796875 0.515625,0 1.09375,-0.140625 1.734375,-0.515625 L 4.3125,-1.0625 c -0.390625,0.25 -0.953125,0.53125 -1.6875,0.53125 -0.6875,0 -1.0625,-0.5 -1.0625,-1.21875 0,-0.859375 0.59375,-2.203125 1.84375,-2.203125 0.59375,0 0.859375,0.109375 1.3125,0.4375 z m 0,0"
             id="id-28c9f29a-df47-4027-ba72-9eb43b513509" />
        </g>
        <g
           id="id-98291cf6-66b2-4334-93d0-a918c6db1365">
          <path
             d="m 4.609375,-2.9375 c 0.03125,-0.140625 0.03125,-0.21875 0.03125,-0.359375 0,-0.71875 -0.484375,-1.296875 -1.328125,-1.296875 -0.71875,0 -1.21875,0.203125 -1.65625,0.421875 C 1.625,-3.875 1.578125,-3.546875 1.578125,-3.515625 2.03125,-3.796875 2.546875,-4 3.1875,-4 c 0.609375,0 0.671875,0.609375 0.671875,0.78125 0,0.171875 -0.125,0.75 -0.15625,0.765625 -0.03125,0.015625 -0.1875,0.015625 -0.234375,0.015625 -0.734375,0.03125 -2.828125,0.234375 -2.828125,1.59375 0,0.15625 0.046875,0.953125 0.921875,0.953125 0.25,0 1.09375,-0.046875 1.734375,-0.453125 C 3.28125,-0.265625 3.25,-0.078125 3.234375,0 h 0.75 z m -1.125,1.640625 C 3.296875,-0.5 2.328125,-0.5 2.1875,-0.5 c -0.5,0 -0.796875,-0.21875 -0.796875,-0.53125 0,-0.796875 1.765625,-0.875 2.21875,-0.90625 z m 0,0"
             id="id-cda3a260-3a4a-4794-a791-80153b8e78c7" />
        </g>
        <g
           id="id-044e859f-ffb9-4055-90d9-2cc6be21ad7f">
          <path
             d="m 3.03125,-6.921875 h -0.75 L 0.8125,0 h 0.75 z m 0,0"
             id="id-854357ac-3369-4148-9a13-8fe593f82394" />
        </g>
        <g
           id="id-dff09b99-d9a8-4112-8c10-b1e5cd4435f1">
          <path
             d="m 1.90625,-0.6875 c -0.15625,0 -0.46875,0 -0.46875,-0.40625 0,-0.171875 0.0625,-0.359375 0.1875,-0.484375 0.28125,0.21875 0.578125,0.296875 0.875,0.296875 1,0 1.953125,-0.96875 1.953125,-1.96875 0,-0.28125 -0.09375,-0.53125 -0.171875,-0.671875 0.015625,0 0.046875,0.03125 0.0625,0.03125 0.21875,0 0.5,-0.046875 0.734375,-0.046875 0.171875,0 0.375,0.015625 0.53125,0.015625 0.046875,0 0.046875,0 0.0625,-0.109375 0.015625,-0.0625 0.015625,-0.421875 0.015625,-0.5 -0.703125,0 -1.25,0.171875 -1.640625,0.3125 -0.28125,-0.25 -0.609375,-0.3125 -0.875,-0.3125 -1.03125,0 -1.96875,0.984375 -1.96875,1.953125 0,0.234375 0.046875,0.46875 0.15625,0.671875 -0.453125,0.46875 -0.5,0.90625 -0.5,1.09375 0,0.140625 0.03125,0.359375 0.125,0.5 -0.59375,0.296875 -0.875,0.828125 -0.875,1.203125 0,0.640625 0.765625,1.15625 1.9375,1.15625 1.109375,0 2.53125,-0.515625 2.53125,-1.625 0,-0.765625 -0.609375,-1.109375 -1.78125,-1.109375 z m 0.703125,-1.171875 c -0.390625,0 -0.71875,-0.21875 -0.71875,-0.71875 0,-0.59375 0.375,-1.390625 1.15625,-1.390625 0.375,0 0.71875,0.21875 0.71875,0.734375 0,0.59375 -0.390625,1.375 -1.15625,1.375 z m 0.03125,1.890625 c 0.609375,0 1.21875,0.109375 1.21875,0.59375 0,0.484375 -0.8125,0.859375 -1.6875,0.859375 C 1.40625,1.484375 0.8125,1.203125 0.8125,0.8125 0.8125,0.640625 1,0.03125 1.75,0.03125 Z m 0,0"
             id="id-ccb335bf-3aea-4671-b34c-8e0696d213bd" />
        </g>
        <g
           id="id-92453300-3052-4382-845d-58b58bd27813">
          <path
             d="m 4.96875,-3.03125 c 0.0625,-0.28125 0.0625,-0.359375 0.0625,-0.5 0,-0.609375 -0.296875,-1 -1.09375,-1 -0.625,0 -1.1875,0.296875 -1.609375,0.75 l 0.15625,-0.703125 H 1.765625 L 0.8125,0 H 1.578125 L 2.0625,-2.265625 c 0.234375,-1.09375 0.703125,-1.65625 1.359375,-1.65625 0.46875,0 0.8125,0.15625 0.8125,0.65625 0,0.03125 -0.03125,0.1875 -0.03125,0.203125 L 3.5625,0 h 0.78125 z m 0,0"
             id="id-4b03d89a-48cd-478a-86ec-84c42830c086" />
        </g>
        <g
           id="id-41986204-da8c-4591-94fa-7f6f77795bd6">
          <path
             d="m 7.75,-3.03125 c 0.03125,-0.171875 0.0625,-0.28125 0.0625,-0.5 0,-0.609375 -0.3125,-1 -1.109375,-1 -0.875,0 -1.421875,0.578125 -1.671875,0.828125 C 5,-4.109375 4.796875,-4.53125 3.9375,-4.53125 c -0.796875,0 -1.390625,0.515625 -1.609375,0.75 l 0.15625,-0.703125 H 1.765625 L 0.8125,0 H 1.578125 L 2.0625,-2.265625 c 0.203125,-0.921875 0.609375,-1.65625 1.359375,-1.65625 0.421875,0 0.8125,0.125 0.8125,0.65625 0,0.03125 -0.015625,0.1875 -0.015625,0.203125 L 3.5625,0 H 4.34375 L 4.828125,-2.265625 C 5.03125,-3.1875 5.4375,-3.921875 6.1875,-3.921875 c 0.421875,0 0.8125,0.125 0.8125,0.65625 0,0.03125 -0.015625,0.1875 -0.015625,0.203125 L 6.328125,0 h 0.78125 z m 0,0"
             id="id-82f1b4c2-6706-4811-9fa2-c0fc7c8d4b54" />
        </g>
        <g
           id="id-7fbdfabe-9a79-4c9d-8974-71775b42a2cd">
          <path
             d="m 4.59375,-2.1875 c 0.046875,-0.171875 0.09375,-0.546875 0.09375,-0.875 0,-0.171875 0,-0.703125 -0.3125,-1.09375 -0.1875,-0.234375 -0.546875,-0.4375 -1.0625,-0.4375 -1.28125,0 -2.546875,1.4375 -2.546875,2.890625 0,1.03125 0.65625,1.8125 1.71875,1.8125 0.671875,0 1.296875,-0.265625 1.6875,-0.515625 0.03125,-0.125 0.0625,-0.5 0.078125,-0.65625 C 3.890625,-0.796875 3.265625,-0.5 2.609375,-0.5 1.9375,-0.5 1.46875,-1 1.46875,-1.8125 c 0,-0.125 0,-0.234375 0.03125,-0.375 z M 1.671875,-2.734375 c 0.359375,-0.796875 0.984375,-1.25 1.53125,-1.25 0.9375,0 0.9375,0.9375 0.9375,1.25 z m 0,0"
             id="id-a0a8d65c-7441-40cc-be6e-a5d10c60731c" />
        </g>
        <g
           id="id-c0a7f166-fae1-4221-af65-29774c3ed654">
          <path
             d="m 5.796875,-6.921875 h -0.75 l -0.625,2.9375 C 4.0625,-4.375 3.53125,-4.53125 3.09375,-4.53125 1.890625,-4.53125 0.75,-3.0625 0.75,-1.5625 c 0,0.9375 0.484375,1.671875 1.296875,1.671875 0.3125,0 0.921875,-0.0625 1.609375,-0.625 L 3.546875,0 h 0.78125 z M 3.84375,-1.328125 C 3.78125,-1.078125 3.234375,-0.5 2.59375,-0.5 2.1875,-0.5 1.546875,-0.71875 1.546875,-1.671875 c 0,-1.171875 0.796875,-2.25 1.875,-2.25 0.65625,0 0.828125,0.53125 0.828125,0.546875 0,0.03125 0,0.0625 -0.015625,0.140625 z m 0,0"
             id="id-aa5ae4f4-9646-4408-8e4e-1f79fbecc6a3" />
        </g>
        <g
           id="id-d58edce4-0e8a-44e7-8f6a-4cb0e6eb9ad1">
          <path
             d="M 5.28125,-4.421875 H 4.5 L 3.875,-1.46875 c -0.09375,0.421875 -0.546875,1.03125 -1.40625,1.03125 -0.515625,0 -0.6875,-0.125 -0.6875,-0.40625 0,-0.03125 0,-0.09375 0.03125,-0.234375 l 0.703125,-3.34375 H 1.75 L 1.03125,-1.0625 C 1,-0.921875 0.984375,-0.78125 0.984375,-0.640625 c 0,0.359375 0.109375,0.75 0.859375,0.75 0.5625,0 1.296875,-0.171875 1.84375,-0.59375 L 3.59375,0 h 0.75 z m 0,0"
             id="id-a3882d7c-4875-43d6-8990-3078e141685e" />
        </g>
      </g>
    </defs>
    <g
       id="id-d55875c6-d70a-4770-8636-aa83bf5b1fed-3">
      <g
         id="id-434779c8-3848-43d9-9d8e-72ecf61810be-6" />
      <g
         id="id-f8b07a66-0c0c-4bcc-8e33-e06116dc8c6c-0">
        <path
           d="m 1.59375,-0.453125 c 0.3125,0.28125 0.75,0.5625 1.34375,0.5625 0.96875,0 1.84375,-0.984375 1.84375,-2.328125 0,-1.203125 -0.625,-2.3125 -1.578125,-2.3125 -0.59375,0 -1.171875,0.203125 -1.640625,0.59375 v -0.484375 h -0.75 V 1.9375 h 0.78125 z m 0,-2.859375 c 0.234375,-0.359375 0.625,-0.578125 1.0625,-0.578125 0.75,0 1.34375,0.75 1.34375,1.671875 C 4,-1.203125 3.296875,-0.5 2.546875,-0.5 2.15625,-0.5 1.890625,-0.703125 1.6875,-0.96875 1.59375,-1.109375 1.59375,-1.140625 1.59375,-1.3125 Z m 0,0"
           id="id-f27d9db7-d644-424e-b411-07efcb577e0b-5" />
      </g>
      <g
         id="id-9311fe08-30e9-4f7b-956a-0a9a93ab226e-2">
        <path
           d="M 4.34375,-4.421875 H 3.5625 v 2.890625 c 0,0.75 -0.5625,1.09375 -1.203125,1.09375 -0.703125,0 -0.78125,-0.265625 -0.78125,-0.6875 V -4.421875 H 0.8125 v 3.328125 c 0,0.71875 0.21875,1.203125 1.046875,1.203125 0.53125,0 1.234375,-0.15625 1.734375,-0.59375 V 0 h 0.75 z m 0,0"
           id="id-6ba48951-8956-4f01-8e45-d6f6dddd26c4-1" />
      </g>
      <g
         id="id-65f24438-e238-4daf-89f1-ad2c460bb3d2-0">
        <path
           d="m 7.109375,-2.96875 c 0,-0.671875 -0.15625,-1.5625 -1.375,-1.5625 -0.59375,0 -1.109375,0.28125 -1.484375,0.8125 -0.25,-0.75 -0.953125,-0.8125 -1.265625,-0.8125 -0.71875,0 -1.1875,0.40625 -1.453125,0.765625 v -0.71875 H 0.8125 V 0 h 0.765625 v -2.4375 c 0,-0.6875 0.28125,-1.484375 1.015625,-1.484375 0.921875,0 0.96875,0.640625 0.96875,1.015625 V 0 h 0.78125 v -2.4375 c 0,-0.6875 0.265625,-1.484375 1.015625,-1.484375 0.921875,0 0.96875,0.640625 0.96875,1.015625 V 0 h 0.78125 z m 0,0"
           id="id-57812473-3a39-4fc4-99cf-442283f31c17-3" />
      </g>
    </g>
    <g
       id="id-d55875c6-d70a-4770-8636-aa83bf5b1fed-1">
      <g
         id="id-434779c8-3848-43d9-9d8e-72ecf61810be-0" />
      <g
         id="id-f8b07a66-0c0c-4bcc-8e33-e06116dc8c6c-4">
        <path
           d="m 1.59375,-0.453125 c 0.3125,0.28125 0.75,0.5625 1.34375,0.5625 0.96875,0 1.84375,-0.984375 1.84375,-2.328125 0,-1.203125 -0.625,-2.3125 -1.578125,-2.3125 -0.59375,0 -1.171875,0.203125 -1.640625,0.59375 v -0.484375 h -0.75 V 1.9375 h 0.78125 z m 0,-2.859375 c 0.234375,-0.359375 0.625,-0.578125 1.0625,-0.578125 0.75,0 1.34375,0.75 1.34375,1.671875 C 4,-1.203125 3.296875,-0.5 2.546875,-0.5 2.15625,-0.5 1.890625,-0.703125 1.6875,-0.96875 1.59375,-1.109375 1.59375,-1.140625 1.59375,-1.3125 Z m 0,0"
           id="id-f27d9db7-d644-424e-b411-07efcb577e0b-9" />
      </g>
      <g
         id="id-9311fe08-30e9-4f7b-956a-0a9a93ab226e-3">
        <path
           d="M 4.34375,-4.421875 H 3.5625 v 2.890625 c 0,0.75 -0.5625,1.09375 -1.203125,1.09375 -0.703125,0 -0.78125,-0.265625 -0.78125,-0.6875 V -4.421875 H 0.8125 v 3.328125 c 0,0.71875 0.21875,1.203125 1.046875,1.203125 0.53125,0 1.234375,-0.15625 1.734375,-0.59375 V 0 h 0.75 z m 0,0"
           id="id-6ba48951-8956-4f01-8e45-d6f6dddd26c4-8" />
      </g>
      <g
         id="id-65f24438-e238-4daf-89f1-ad2c460bb3d2-6">
        <path
           d="m 7.109375,-2.96875 c 0,-0.671875 -0.15625,-1.5625 -1.375,-1.5625 -0.59375,0 -1.109375,0.28125 -1.484375,0.8125 -0.25,-0.75 -0.953125,-0.8125 -1.265625,-0.8125 -0.71875,0 -1.1875,0.40625 -1.453125,0.765625 v -0.71875 H 0.8125 V 0 h 0.765625 v -2.4375 c 0,-0.6875 0.28125,-1.484375 1.015625,-1.484375 0.921875,0 0.96875,0.640625 0.96875,1.015625 V 0 h 0.78125 v -2.4375 c 0,-0.6875 0.265625,-1.484375 1.015625,-1.484375 0.921875,0 0.96875,0.640625 0.96875,1.015625 V 0 h 0.78125 z m 0,0"
           id="id-57812473-3a39-4fc4-99cf-442283f31c17-30" />
      </g>
    </g>
    <g
       id="id-cdc2957d-0525-40bd-b810-e0c8b2882598-7">
      <g
         id="id-1924ad49-d441-45a1-988c-d8f4e2706fd0-1" />
      <g
         id="id-8d8ac6c0-a91b-4bcb-a2b2-e1b60a89b747-4">
        <path
           d="M 3.515625,-3.890625 C 3.734375,-3.890625 4,-3.9375 4.25,-3.9375 c 0.171875,0 0.5625,0.03125 0.578125,0.03125 l -0.109375,-0.625 c -0.6875,0 -1.265625,0.1875 -1.5625,0.3125 -0.21875,-0.171875 -0.546875,-0.3125 -0.953125,-0.3125 -0.859375,0 -1.578125,0.71875 -1.578125,1.625 0,0.359375 0.125,0.71875 0.328125,0.984375 C 0.65625,-1.515625 0.65625,-1.125 0.65625,-1.078125 0.65625,-0.8125 0.75,-0.53125 0.921875,-0.3125 0.40625,-0.015625 0.28125,0.453125 0.28125,0.703125 c 0,0.75 0.984375,1.34375 2.203125,1.34375 1.21875,0 2.203125,-0.578125 2.203125,-1.34375 C 4.6875,-0.6875 3.03125,-0.6875 2.640625,-0.6875 h -0.875 c -0.125,0 -0.578125,0 -0.578125,-0.53125 0,-0.109375 0.03125,-0.265625 0.109375,-0.359375 0.203125,0.15625 0.53125,0.296875 0.90625,0.296875 0.890625,0 1.59375,-0.75 1.59375,-1.625 0,-0.484375 -0.21875,-0.859375 -0.328125,-1 z m -1.3125,2.03125 c -0.375,0 -0.890625,-0.21875 -0.890625,-1.046875 0,-0.828125 0.515625,-1.0625 0.890625,-1.0625 0.421875,0 0.890625,0.28125 0.890625,1.0625 0,0.765625 -0.46875,1.046875 -0.890625,1.046875 z M 2.65625,0.03125 c 0.21875,0 1.34375,0 1.34375,0.6875 0,0.4375 -0.6875,0.765625 -1.5,0.765625 -0.8125,0 -1.515625,-0.3125 -1.515625,-0.78125 0,-0.03125 0,-0.671875 0.765625,-0.671875 z m 0,0"
           id="id-70185aa7-3dd3-4869-8124-688ae24b93d7-3" />
      </g>
      <g
         id="id-d66c1070-a877-4219-8d06-9d7b40b5893e-7">
        <path
           d="m 3.984375,-2.875 c 0,-1.015625 -0.734375,-1.71875 -1.65625,-1.71875 -0.640625,0 -1.09375,0.15625 -1.5625,0.421875 l 0.0625,0.65625 C 1.34375,-3.875 1.84375,-4 2.328125,-4 c 0.46875,0 0.875,0.390625 0.875,1.125 v 0.4375 C 1.703125,-2.421875 0.4375,-2 0.4375,-1.125 c 0,0.421875 0.265625,1.234375 1.140625,1.234375 0.140625,0 1.078125,-0.015625 1.65625,-0.46875 V 0 h 0.75 z m -0.78125,1.5625 c 0,0.1875 0,0.4375 -0.34375,0.625 C 2.578125,-0.515625 2.1875,-0.5 2.078125,-0.5 1.609375,-0.5 1.15625,-0.734375 1.15625,-1.140625 c 0,-0.703125 1.609375,-0.765625 2.046875,-0.796875 z m 0,0"
           id="id-72b19f38-dad6-44f4-8b44-1192431a4c07-0" />
      </g>
      <g
         id="id-160002b8-aec2-42e5-8431-2bc5944b5f5d-4">
        <path
           d="M 1.625,-6.78125 H 0.734375 v 0.890625 H 1.625 Z m -0.0625,2.359375 h -0.75 V 0 h 0.75 z m 0,0"
           id="id-58bfebad-3566-4279-9834-fe25b9b093e5-8" />
      </g>
      <g
         id="id-2f515c87-7b2b-42a4-a78b-70a68053c982-3">
        <path
           d="m 4.34375,-2.96875 c 0,-0.65625 -0.15625,-1.5625 -1.375,-1.5625 -0.890625,0 -1.390625,0.671875 -1.4375,0.75 V -4.484375 H 0.8125 V 0 h 0.765625 v -2.4375 c 0,-0.65625 0.25,-1.484375 1.015625,-1.484375 0.953125,0 0.96875,0.703125 0.96875,1.015625 V 0 h 0.78125 z m 0,0"
           id="id-da321a27-c58c-4826-9f8f-574c9b6f13cf-0" />
      </g>
      <g
         id="id-b00fdb6d-37e2-4f01-a28f-5c08ea06ec58-9">
        <path
           d="m 7.109375,-2.96875 c 0,-0.671875 -0.15625,-1.5625 -1.375,-1.5625 -0.59375,0 -1.109375,0.28125 -1.484375,0.8125 -0.25,-0.75 -0.953125,-0.8125 -1.265625,-0.8125 -0.71875,0 -1.1875,0.40625 -1.453125,0.765625 v -0.71875 H 0.8125 V 0 h 0.765625 v -2.4375 c 0,-0.6875 0.28125,-1.484375 1.015625,-1.484375 0.921875,0 0.96875,0.640625 0.96875,1.015625 V 0 h 0.78125 v -2.4375 c 0,-0.6875 0.265625,-1.484375 1.015625,-1.484375 0.921875,0 0.96875,0.640625 0.96875,1.015625 V 0 h 0.78125 z m 0,0"
           id="id-7f30b9b2-c51f-4b2b-9284-42ddfd09a4fc-8" />
      </g>
      <g
         id="id-675d6512-195b-416f-9627-115fc52cb157-5">
        <path
           d="M 4.125,-2.1875 C 4.125,-2.515625 4.109375,-3.265625 3.734375,-3.875 3.3125,-4.484375 2.71875,-4.59375 2.359375,-4.59375 1.25,-4.59375 0.34375,-3.53125 0.34375,-2.25 c 0,1.3125 0.96875,2.359375 2.15625,2.359375 0.625,0 1.203125,-0.234375 1.59375,-0.515625 L 4.03125,-1.0625 C 3.40625,-0.53125 2.734375,-0.5 2.515625,-0.5 1.71875,-0.5 1.078125,-1.203125 1.046875,-2.1875 Z M 1.09375,-2.734375 c 0.15625,-0.75 0.6875,-1.25 1.265625,-1.25 0.515625,0 1.0625,0.328125 1.203125,1.25 z m 0,0"
           id="id-949566dd-0544-4b06-b2b7-585acbf29960-6" />
      </g>
      <g
         id="id-6ace4ce9-17cb-4108-9699-f70e2a4c5c41-2">
        <path
           d="m 4.328125,-6.921875 h -0.75 v 2.9375 C 3.046875,-4.421875 2.5,-4.53125 2.125,-4.53125 c -0.984375,0 -1.765625,1.03125 -1.765625,2.3125 0,1.3125 0.765625,2.328125 1.71875,2.328125 0.328125,0 0.90625,-0.09375 1.46875,-0.625 V 0 h 0.78125 z m -0.78125,5.53125 C 3.546875,-1.25 3.53125,-1.0625 3.21875,-0.78125 2.984375,-0.578125 2.734375,-0.5 2.484375,-0.5 c -0.625,0 -1.34375,-0.46875 -1.34375,-1.703125 0,-1.3125 0.859375,-1.71875 1.4375,-1.71875 0.453125,0 0.75,0.21875 0.96875,0.546875 z m 0,0"
           id="id-bea61c00-ea1d-4d37-9118-d665d0d5b420-0" />
      </g>
      <g
         id="id-fc42bcb8-d1b9-4b1f-82e0-e734bfd81ac9-0">
        <path
           d="M 4.34375,-4.421875 H 3.5625 v 2.890625 c 0,0.75 -0.5625,1.09375 -1.203125,1.09375 -0.703125,0 -0.78125,-0.265625 -0.78125,-0.6875 V -4.421875 H 0.8125 v 3.328125 c 0,0.71875 0.21875,1.203125 1.046875,1.203125 0.53125,0 1.234375,-0.15625 1.734375,-0.59375 V 0 h 0.75 z m 0,0"
           id="id-47b5897a-8040-4a72-9f4a-0cc90f247444-5" />
      </g>
    </g>
    <g
       id="id-b39e5f56-310f-49b9-92a2-af844bc16e1f-1">
      <g
         id="id-22679acd-69c1-4f38-a2de-63c28e5a7775-2" />
      <g
         id="id-2b6ea29b-b91b-4585-86e5-d620e9ba61bf-3">
        <path
           d="m 1.5625,-6.921875 h -0.75 V 0 h 0.75 z m 0,0"
           id="id-20bdf767-eeab-4605-afa0-abae90fe33d7-4" />
      </g>
      <g
         id="id-fd40e3fe-f02d-4cc1-8bd8-8ae19db487aa-2">
        <path
           d="M 1.625,-6.78125 H 0.734375 v 0.890625 H 1.625 Z m -0.0625,2.359375 h -0.75 V 0 h 0.75 z m 0,0"
           id="id-29791872-0ecd-4d9d-9651-179fe5b1d198-0" />
      </g>
      <g
         id="id-3566f262-68e9-40c7-aba5-1be2c89b6ff7-6">
        <path
           d="m 4.34375,-2.96875 c 0,-0.65625 -0.15625,-1.5625 -1.375,-1.5625 -0.890625,0 -1.390625,0.671875 -1.4375,0.75 V -4.484375 H 0.8125 V 0 h 0.765625 v -2.4375 c 0,-0.65625 0.25,-1.484375 1.015625,-1.484375 0.953125,0 0.96875,0.703125 0.96875,1.015625 V 0 h 0.78125 z m 0,0"
           id="id-0ebb6ee7-a3d2-493f-bdea-6ceca931a0db-9" />
      </g>
      <g
         id="id-dd461784-2e40-4ed1-9c1e-223d86b86a66-9">
        <path
           d="M 4.125,-2.1875 C 4.125,-2.515625 4.109375,-3.265625 3.734375,-3.875 3.3125,-4.484375 2.71875,-4.59375 2.359375,-4.59375 1.25,-4.59375 0.34375,-3.53125 0.34375,-2.25 c 0,1.3125 0.96875,2.359375 2.15625,2.359375 0.625,0 1.203125,-0.234375 1.59375,-0.515625 L 4.03125,-1.0625 C 3.40625,-0.53125 2.734375,-0.5 2.515625,-0.5 1.71875,-0.5 1.078125,-1.203125 1.046875,-2.1875 Z M 1.09375,-2.734375 c 0.15625,-0.75 0.6875,-1.25 1.265625,-1.25 0.515625,0 1.0625,0.328125 1.203125,1.25 z m 0,0"
           id="id-d243d807-85f3-4814-a627-91b3916cbd84-7" />
      </g>
      <g
         id="id-cf830ef1-d716-4877-8ca4-f662f52b1f97-3">
        <path
           d="m 3.984375,-2.875 c 0,-1.015625 -0.734375,-1.71875 -1.65625,-1.71875 -0.640625,0 -1.09375,0.15625 -1.5625,0.421875 l 0.0625,0.65625 C 1.34375,-3.875 1.84375,-4 2.328125,-4 c 0.46875,0 0.875,0.390625 0.875,1.125 v 0.4375 C 1.703125,-2.421875 0.4375,-2 0.4375,-1.125 c 0,0.421875 0.265625,1.234375 1.140625,1.234375 0.140625,0 1.078125,-0.015625 1.65625,-0.46875 V 0 h 0.75 z m -0.78125,1.5625 c 0,0.1875 0,0.4375 -0.34375,0.625 C 2.578125,-0.515625 2.1875,-0.5 2.078125,-0.5 1.609375,-0.5 1.15625,-0.734375 1.15625,-1.140625 c 0,-0.703125 1.609375,-0.765625 2.046875,-0.796875 z m 0,0"
           id="id-3232c772-86fa-4a6f-8478-75001b36bffd-0" />
      </g>
      <g
         id="id-f2f65af2-d8cd-475d-b618-043b487b1390-0">
        <path
           d="M 1.5625,-2.140625 C 1.5625,-3.125 2.28125,-3.84375 3.265625,-3.875 v -0.65625 c -0.890625,0 -1.4375,0.5 -1.75,0.953125 v -0.90625 H 0.8125 V 0 h 0.75 z m 0,0"
           id="id-5113a9a4-37b2-4f9d-8b29-2f840a18e382-6" />
      </g>
      <g
         id="id-bf9ab31b-494d-4803-80cf-16ef897dd128-4">
        <path
           d="M 3.421875,-4.28125 C 2.90625,-4.515625 2.5,-4.59375 1.984375,-4.59375 c -0.25,0 -1.65625,0 -1.65625,1.296875 0,0.5 0.296875,0.8125 0.546875,1 0.296875,0.21875 0.515625,0.265625 1.0625,0.375 0.359375,0.0625 0.9375,0.1875 0.9375,0.71875 0,0.6875 -0.78125,0.6875 -0.9375,0.6875 -0.796875,0 -1.359375,-0.375 -1.53125,-0.484375 l -0.125,0.671875 c 0.3125,0.15625 0.859375,0.4375 1.671875,0.4375 0.1875,0 0.734375,0 1.15625,-0.3125 0.3125,-0.25 0.484375,-0.640625 0.484375,-1.078125 0,-0.546875 -0.375,-0.875 -0.390625,-0.90625 C 2.8125,-2.546875 2.546875,-2.609375 2.046875,-2.6875 1.5,-2.796875 1.03125,-2.90625 1.03125,-3.390625 1.03125,-4 1.75,-4 1.890625,-4 c 0.3125,0 0.84375,0.03125 1.40625,0.375 z m 0,0"
           id="id-d4f4deb2-d9dd-43f5-89ac-f0a155115ee0-4" />
      </g>
      <g
         id="id-065f2cb3-71e7-45b6-b6dc-4b6a639f6817-6">
        <path
           d="m 4.671875,-2.1875 c 0,-1.34375 -1,-2.40625 -2.171875,-2.40625 -1.234375,0 -2.203125,1.09375 -2.203125,2.40625 0,1.3125 1.015625,2.296875 2.1875,2.296875 1.1875,0 2.1875,-1 2.1875,-2.296875 z m -2.1875,1.65625 c -0.6875,0 -1.40625,-0.5625 -1.40625,-1.765625 0,-1.203125 0.75,-1.6875 1.40625,-1.6875 0.703125,0 1.40625,0.515625 1.40625,1.6875 0,1.1875 -0.671875,1.765625 -1.40625,1.765625 z m 0,0"
           id="id-e1f25611-e2f1-4f83-89ed-ea9416195bc3-2" />
      </g>
      <g
         id="id-6bdecb1a-a067-46c0-990d-71938553f5f5-2">
        <path
           d="M 1.75,-3.84375 H 3.15625 V -4.421875 H 1.75 V -5.6875 H 1.0625 v 1.265625 h -0.875 v 0.578125 h 0.84375 v 2.65625 c 0,0.59375 0.140625,1.296875 0.828125,1.296875 0.6875,0 1.203125,-0.25 1.453125,-0.375 L 3.15625,-0.859375 C 2.890625,-0.640625 2.578125,-0.53125 2.25,-0.53125 c -0.359375,0 -0.5,-0.296875 -0.5,-0.828125 z m 0,0"
           id="id-1320d265-2fc0-41ff-8b03-17d0da673a51-2" />
      </g>
    </g>
    <g
       id="id-bf967abe-75cb-4eab-b6f6-58634f9f1597-7">
      <g
         id="id-78d7bfb1-6d37-4300-8750-50d20e39226d-2" />
      <g
         id="id-cc5bc2f7-1c5e-4f4b-8413-bfa6487e01cb-9">
        <path
           d="m 1.75,-3.84375 h 1.09375 v -0.578125 h -1.125 v -1.1875 c 0,-0.734375 0.671875,-0.8125 0.9375,-0.8125 0.1875,0 0.46875,0.015625 0.796875,0.171875 V -6.921875 C 3.34375,-6.953125 3.03125,-7.03125 2.65625,-7.03125 1.71875,-7.03125 1,-6.3125 1,-5.328125 v 0.90625 H 0.265625 V -3.84375 H 1 V 0 h 0.75 z m 0,0"
           id="id-0f7d6230-4b11-47e5-b0db-70acb99af05d-9" />
      </g>
      <g
         id="id-cf8041c4-b8d7-4b70-94e2-80a733ad66c9-9">
        <path
           d="m 4.671875,-2.1875 c 0,-1.34375 -1,-2.40625 -2.171875,-2.40625 -1.234375,0 -2.203125,1.09375 -2.203125,2.40625 0,1.3125 1.015625,2.296875 2.1875,2.296875 1.1875,0 2.1875,-1 2.1875,-2.296875 z m -2.1875,1.65625 c -0.6875,0 -1.40625,-0.5625 -1.40625,-1.765625 0,-1.203125 0.75,-1.6875 1.40625,-1.6875 0.703125,0 1.40625,0.515625 1.40625,1.6875 0,1.1875 -0.671875,1.765625 -1.40625,1.765625 z m 0,0"
           id="id-ad81b1b2-fc7f-4503-b491-a80b747616c8-9" />
      </g>
      <g
         id="id-0744406a-93b5-4d80-a8c8-159b49442a85-1">
        <path
           d="m 1.5625,-6.921875 h -0.75 V 0 h 0.75 z m 0,0"
           id="id-4b7b9a26-f7ea-4bda-8695-208bd7b6db9e-2" />
      </g>
      <g
         id="id-7629a366-fa48-4af9-8b1b-de2e057b98b4-4">
        <path
           d="m 4.328125,-6.921875 h -0.75 v 2.9375 C 3.046875,-4.421875 2.5,-4.53125 2.125,-4.53125 c -0.984375,0 -1.765625,1.03125 -1.765625,2.3125 0,1.3125 0.765625,2.328125 1.71875,2.328125 0.328125,0 0.90625,-0.09375 1.46875,-0.625 V 0 h 0.78125 z m -0.78125,5.53125 C 3.546875,-1.25 3.53125,-1.0625 3.21875,-0.78125 2.984375,-0.578125 2.734375,-0.5 2.484375,-0.5 c -0.625,0 -1.34375,-0.46875 -1.34375,-1.703125 0,-1.3125 0.859375,-1.71875 1.4375,-1.71875 0.453125,0 0.75,0.21875 0.96875,0.546875 z m 0,0"
           id="id-17dbeb49-9e72-40e4-8406-b01dba8d27b0-3" />
      </g>
      <g
         id="id-4a4c4a55-3423-4fe6-926f-591dfde2401b-3">
        <path
           d="M 4.125,-2.1875 C 4.125,-2.515625 4.109375,-3.265625 3.734375,-3.875 3.3125,-4.484375 2.71875,-4.59375 2.359375,-4.59375 1.25,-4.59375 0.34375,-3.53125 0.34375,-2.25 c 0,1.3125 0.96875,2.359375 2.15625,2.359375 0.625,0 1.203125,-0.234375 1.59375,-0.515625 L 4.03125,-1.0625 C 3.40625,-0.53125 2.734375,-0.5 2.515625,-0.5 1.71875,-0.5 1.078125,-1.203125 1.046875,-2.1875 Z M 1.09375,-2.734375 c 0.15625,-0.75 0.6875,-1.25 1.265625,-1.25 0.515625,0 1.0625,0.328125 1.203125,1.25 z m 0,0"
           id="id-18371728-e5f0-4001-986c-e6e79650e5cb-6" />
      </g>
      <g
         id="id-94db9a2c-646a-4db2-9648-9a0cc9ef6038-0">
        <path
           d="M 1.5625,-2.140625 C 1.5625,-3.125 2.28125,-3.84375 3.265625,-3.875 v -0.65625 c -0.890625,0 -1.4375,0.5 -1.75,0.953125 v -0.90625 H 0.8125 V 0 h 0.75 z m 0,0"
           id="id-186bbe52-1129-4c43-a739-b311cf06264b-2" />
      </g>
      <g
         id="id-d2c8c00c-592a-4bc0-b055-77e90ec40f8e-9">
        <path
           d="M 3.421875,-4.28125 C 2.90625,-4.515625 2.5,-4.59375 1.984375,-4.59375 c -0.25,0 -1.65625,0 -1.65625,1.296875 0,0.5 0.296875,0.8125 0.546875,1 0.296875,0.21875 0.515625,0.265625 1.0625,0.375 0.359375,0.0625 0.9375,0.1875 0.9375,0.71875 0,0.6875 -0.78125,0.6875 -0.9375,0.6875 -0.796875,0 -1.359375,-0.375 -1.53125,-0.484375 l -0.125,0.671875 c 0.3125,0.15625 0.859375,0.4375 1.671875,0.4375 0.1875,0 0.734375,0 1.15625,-0.3125 0.3125,-0.25 0.484375,-0.640625 0.484375,-1.078125 0,-0.546875 -0.375,-0.875 -0.390625,-0.90625 C 2.8125,-2.546875 2.546875,-2.609375 2.046875,-2.6875 1.5,-2.796875 1.03125,-2.90625 1.03125,-3.390625 1.03125,-4 1.75,-4 1.890625,-4 c 0.3125,0 0.84375,0.03125 1.40625,0.375 z m 0,0"
           id="id-85536ed1-5cc8-463f-bda7-cc0f570b3b3f-9" />
      </g>
      <g
         id="id-8dfce7cb-c2a5-4322-a26c-f1151cbc003f-3">
        <path
           d="m 4.34375,-2.96875 c 0,-0.65625 -0.15625,-1.5625 -1.375,-1.5625 -0.890625,0 -1.390625,0.671875 -1.4375,0.75 V -4.484375 H 0.8125 V 0 h 0.765625 v -2.4375 c 0,-0.65625 0.25,-1.484375 1.015625,-1.484375 0.953125,0 0.96875,0.703125 0.96875,1.015625 V 0 h 0.78125 z m 0,0"
           id="id-30cba932-0a1f-4292-adf2-81e1fa36c5c9-2" />
      </g>
      <g
         id="id-af7cf41b-2c14-4528-abcf-1081144f6627-7">
        <path
           d="m 3.984375,-2.875 c 0,-1.015625 -0.734375,-1.71875 -1.65625,-1.71875 -0.640625,0 -1.09375,0.15625 -1.5625,0.421875 l 0.0625,0.65625 C 1.34375,-3.875 1.84375,-4 2.328125,-4 c 0.46875,0 0.875,0.390625 0.875,1.125 v 0.4375 C 1.703125,-2.421875 0.4375,-2 0.4375,-1.125 c 0,0.421875 0.265625,1.234375 1.140625,1.234375 0.140625,0 1.078125,-0.015625 1.65625,-0.46875 V 0 h 0.75 z m -0.78125,1.5625 c 0,0.1875 0,0.4375 -0.34375,0.625 C 2.578125,-0.515625 2.1875,-0.5 2.078125,-0.5 1.609375,-0.5 1.15625,-0.734375 1.15625,-1.140625 c 0,-0.703125 1.609375,-0.765625 2.046875,-0.796875 z m 0,0"
           id="id-5591a038-89c6-4db6-86b7-a46b650a69ff-5" />
      </g>
      <g
         id="id-64fefaef-3d5d-4d0c-b880-30831ce7b4af-4">
        <path
           d="M 1.75,-3.84375 H 3.15625 V -4.421875 H 1.75 V -5.6875 H 1.0625 v 1.265625 h -0.875 v 0.578125 h 0.84375 v 2.65625 c 0,0.59375 0.140625,1.296875 0.828125,1.296875 0.6875,0 1.203125,-0.25 1.453125,-0.375 L 3.15625,-0.859375 C 2.890625,-0.640625 2.578125,-0.53125 2.25,-0.53125 c -0.359375,0 -0.5,-0.296875 -0.5,-0.828125 z m 0,0"
           id="id-bcdcc061-1da3-44c3-9499-a682a13cf66b-6" />
      </g>
    </g>
  </defs>
  <g
     inkscape:groupmode="layer"
     id="layer2"
     inkscape:label="Ebene 0"
     transform="translate(-187.55601,-47.965894)" />
  <g
     inkscape:label="Ebene 1"
     inkscape:groupmode="layer"
     id="layer1"
     transform="translate(-158.25977,-93.917135)">
    <path
       style="fill:#000000;stroke:#00509b;stroke-width:1;stroke-linecap:round;stroke-linejoin:round;stop-color:#000000"
       d="M 259.29623,99.302124 189.29625,59.048804"
       id="path18463"
       transform="translate(-29.296241,45.95124)"
       sodipodi:nodetypes="cc" />
  </g>
  <g
     inkscape:groupmode="layer"
     id="layer3"
     inkscape:label="Ebene 2"
     transform="translate(-187.55601,-47.965894)">
    <path
       style="fill:#c20052;stroke:#00509b;stroke-width:1;stroke-linecap:round;stroke-linejoin:round;stroke-dasharray:2, 2;stroke-dashoffset:0;stroke-opacity:1;stop-color:#000000"
       d="m 279.29623,59.048809 30,-2e-6"
       id="path2860-3"
       sodipodi:nodetypes="cc" />
    <path
       style="fill:#00509b;fill-opacity:1;stroke:#00509b;stroke-width:1;stroke-linecap:round;stroke-linejoin:round;stroke-dasharray:none;stroke-dashoffset:0;stroke-opacity:1;stop-color:#000000"
       d="m 309.29623,59.048809 -6.00001,-2.999999 v 5.999993 z"
       id="path2862-0" />
    <rect
       style="fill:#99cdff;fill-opacity:1;stroke:none;stroke-width:1;stroke-linecap:round;stroke-linejoin:round;stroke-dasharray:none;stroke-opacity:1;paint-order:stroke fill markers"
       id="rect106-4-2"
       width="30"
       height="19.999998"
       x="219.29623"
       y="49.048809" />
    <path
       style="fill:#c20052;stroke:#00509b;stroke-width:1;stroke-linecap:round;stroke-linejoin:round;stroke-dasharray:none;stroke-opacity:1;stop-color:#000000"
       d="m 189.29623,59.048804 h 90.00001"
       id="path2067-3"
       sodipodi:nodetypes="cc" />
    <rect
       style="fill:none;stroke:#000000;stroke-width:1;stroke-linecap:round;stroke-linejoin:round;stroke-dasharray:none;stroke-opacity:1;paint-order:stroke fill markers"
       id="rect106-0"
       width="30.000002"
       height="19.999994"
       x="219.29623"
       y="49.048809" />
    <path
       style="fill:none;stroke:#000000;stroke-width:1;stroke-linecap:round;stroke-linejoin:round;stroke-dasharray:none;stroke-dashoffset:0;stroke-opacity:1;stop-color:#000000"
       d="m 279.29623,49.048799 v 20"
       id="path9382"
       sodipodi:nodetypes="cc" />
    <path
       style="fill:none;stroke:#000000;stroke-width:1;stroke-linecap:round;stroke-linejoin:round;stroke-opacity:1;stop-color:#000000"
       id="path8881-4-5"
       transform="rotate(-165)"
       sodipodi:type="arc"
       sodipodi:cx="-298.12909"
       sodipodi:cy="-8.0432978"
       sodipodi:rx="100"
       sodipodi:ry="60"
       sodipodi:start="6.0911991"
       sodipodi:end="0.19198622"
       sodipodi:arc-type="arc"
       d="m -199.96637,-19.491837 a 100,60 0 0 1 0,22.8970791"
       sodipodi:open="true" />
    <path
       style="fill:none;stroke:#000000;stroke-width:1;stroke-linecap:round;stroke-linejoin:round;stroke-dasharray:none;stroke-dashoffset:0;stroke-opacity:1;stop-color:#000000"
       d="m 264.29623,90.641866 -10,17.320514"
       id="path9382-9"
       sodipodi:nodetypes="cc" />
  </g>
</svg>
