<?xml version="1.0" encoding="UTF-8" standalone="no"?>
<!-- Created with Inkscape (http://www.inkscape.org/) -->

<svg
   width="249.9995mm"
   height="42.999996mm"
   viewBox="0 0 249.99949 42.999997"
   version="1.1"
   id="svg1"
   inkscape:version="1.2.2 (732a01da63, 2022-12-09)"
   sodipodi:docname="img_rayvector.svg"
   xmlns:inkscape="http://www.inkscape.org/namespaces/inkscape"
   xmlns:sodipodi="http://sodipodi.sourceforge.net/DTD/sodipodi-0.dtd"
   xmlns="http://www.w3.org/2000/svg"
   xmlns:svg="http://www.w3.org/2000/svg"
   xmlns:ns1="http://www.iki.fi/pav/software/textext/">
  <sodipodi:namedview
     id="namedview1"
     pagecolor="#ffffff"
     bordercolor="#000000"
     borderopacity="0.25"
     inkscape:showpageshadow="2"
     inkscape:pageopacity="0.0"
     inkscape:pagecheckerboard="0"
     inkscape:deskcolor="#d1d1d1"
     inkscape:document-units="mm"
     showgrid="true"
     inkscape:zoom="1.5233586"
     inkscape:cx="620.33982"
     inkscape:cy="127.35018"
     inkscape:window-width="1920"
     inkscape:window-height="1009"
     inkscape:window-x="1912"
     inkscape:window-y="-2"
     inkscape:window-maximized="1"
     inkscape:current-layer="layer1">
    <inkscape:grid
       id="grid1"
       units="mm"
       originx="30.933329"
       originy="-62.499994"
       spacingx="0.99999998"
       spacingy="1"
       empcolor="#0099e5"
       empopacity="0.30196078"
       color="#0099e5"
       opacity="0.14901961"
       empspacing="5"
       enabled="true"
       visible="true" />
  </sodipodi:namedview>
  <defs
     id="defs1">
    <defs
       id="id-4bae067f-a093-44af-9141-9aa34e43488f">
      <g
         id="id-b629e744-ec0d-45f2-b069-870dbcadaeaf">
        <g
           id="id-3697faec-3779-4df0-8501-7510e79dd2e1">
          <path
             d="m 4.75,-3.953125 c 0.09375,-0.078125 0.09375,-0.09375 0.125,-0.1875 l 0.046875,-0.28125 h -3.5625 l -0.125,0.578125 H 2.625 c 0.125,0 0.25,0 0.359375,0 h 0.84375 l -3.34375,3.3125 C 0.375,-0.421875 0.375,-0.40625 0.34375,-0.3125 0.328125,-0.265625 0.296875,-0.0625 0.28125,0 H 4 L 4.140625,-0.625 H 2.65625 c -0.109375,0 -0.234375,0.015625 -0.359375,0.015625 h -0.90625 z m 0,0"
             id="id-0838e943-41b2-4c4d-90d8-5d4c6a22abf9" />
        </g>
        <g
           id="id-3e712525-fde2-417b-903b-5aa1766c644a">
          <path
             d="m 3.40625,-2.265625 c 0,-0.328125 0,-1.15625 -0.328125,-1.71875 C 2.71875,-4.609375 2.1875,-4.71875 1.84375,-4.71875 c -0.3125,0 -0.859375,0.09375 -1.203125,0.703125 -0.328125,0.546875 -0.34375,1.3125 -0.34375,1.75 0,0.515625 0.03125,1.15625 0.3125,1.6875 0.3125,0.5625 0.828125,0.71875 1.234375,0.71875 0.703125,0 1.078125,-0.40625 1.296875,-0.84375 C 3.375,-1.1875 3.40625,-1.828125 3.40625,-2.265625 Z M 1.84375,-0.3125 c -0.296875,0 -0.625,-0.171875 -0.796875,-0.671875 C 0.90625,-1.40625 0.90625,-1.84375 0.90625,-2.359375 c 0,-0.640625 0,-1.90625 0.9375,-1.90625 0.953125,0 0.953125,1.265625 0.953125,1.90625 0,0.46875 0,0.984375 -0.171875,1.4375 -0.1875,0.5 -0.546875,0.609375 -0.78125,0.609375 z m 0,0"
             id="id-4033c8a1-0fec-4458-8ae2-5d82f2011462" />
        </g>
      </g>
    </defs>
  </defs>
  <g
     inkscape:label="Ebene 1"
     inkscape:groupmode="layer"
     id="layer1"
     transform="translate(30.933344,-62.500002)">
    <g
       transform="matrix(1.41111,0,0,1.41111,154.87012,76.370151)"
       ns1:version="1.11.1"
       ns1:texconverter="pdflatex"
       ns1:pdfconverter="inkscape"
       ns1:text="$\\alpha$"
       ns1:preamble="C:\Users\Lars\AppData\Roaming\inkscape\extensions\textext\default_packages.tex"
       ns1:scale="4.0"
       ns1:alignment="middle center"
       ns1:jacobian_sqrt="1.41111"
       id="g2"
       style="fill:#ff0000;fill-opacity:1">
      <defs
         id="id-1c0ebf2f-0bd7-4381-87bb-37a9de4ea6b1">
        <g
           id="id-e8ce2025-9852-4173-ad27-81c7f3b6aca0">
          <g
             id="id-003ee358-ad2f-4c33-899a-e11f97a029bc">
            <path
               d="m 4.75,-2.359375 c 0,-1.5625 -0.921875,-2.046875 -1.65625,-2.046875 -1.375,0 -2.6875,1.421875 -2.6875,2.828125 0,0.9375 0.59375,1.6875 1.625,1.6875 0.625,0 1.34375,-0.234375 2.09375,-0.84375 0.125,0.53125 0.453125,0.84375 0.90625,0.84375 0.53125,0 0.84375,-0.546875 0.84375,-0.703125 0,-0.078125 -0.0625,-0.109375 -0.125,-0.109375 -0.0625,0 -0.09375,0.03125 -0.125,0.109375 -0.1875,0.484375 -0.546875,0.484375 -0.5625,0.484375 -0.3125,0 -0.3125,-0.78125 -0.3125,-1.015625 0,-0.203125 0,-0.234375 0.109375,-0.34375 C 5.796875,-2.65625 6,-3.8125 6,-3.8125 6,-3.84375 5.984375,-3.921875 5.875,-3.921875 c -0.09375,0 -0.09375,0.03125 -0.140625,0.21875 -0.1875,0.625 -0.515625,1.375 -0.984375,1.96875 z m -0.65625,1.375 c -0.890625,0.765625 -1.65625,0.875 -2.046875,0.875 -0.59375,0 -0.90625,-0.453125 -0.90625,-1.09375 0,-0.484375 0.265625,-1.5625 0.578125,-2.0625 C 2.1875,-4 2.734375,-4.1875 3.078125,-4.1875 c 0.984375,0 0.984375,1.3125 0.984375,2.078125 0,0.375 0,0.953125 0.03125,1.125 z m 0,0"
               id="id-9df1e8c7-4fc9-46e1-a2b1-42f7036198af" />
          </g>
        </g>
      </defs>
      <g
         fill="#000000"
         fill-opacity="1"
         id="id-17d5c2c7-e285-4108-a20c-3b890475383d"
         transform="translate(-149.118,-130.359)"
         style="fill:#ff0000;fill-opacity:1">
        <g
           transform="translate(148.712,134.765)"
           id="g1"
           style="fill:#ff0000;fill-opacity:1">
          <path
             d="m 4.75,-2.359375 c 0,-1.5625 -0.921875,-2.046875 -1.65625,-2.046875 -1.375,0 -2.6875,1.421875 -2.6875,2.828125 0,0.9375 0.59375,1.6875 1.625,1.6875 0.625,0 1.34375,-0.234375 2.09375,-0.84375 0.125,0.53125 0.453125,0.84375 0.90625,0.84375 0.53125,0 0.84375,-0.546875 0.84375,-0.703125 0,-0.078125 -0.0625,-0.109375 -0.125,-0.109375 -0.0625,0 -0.09375,0.03125 -0.125,0.109375 -0.1875,0.484375 -0.546875,0.484375 -0.5625,0.484375 -0.3125,0 -0.3125,-0.78125 -0.3125,-1.015625 0,-0.203125 0,-0.234375 0.109375,-0.34375 C 5.796875,-2.65625 6,-3.8125 6,-3.8125 6,-3.84375 5.984375,-3.921875 5.875,-3.921875 c -0.09375,0 -0.09375,0.03125 -0.140625,0.21875 -0.1875,0.625 -0.515625,1.375 -0.984375,1.96875 z m -0.65625,1.375 c -0.890625,0.765625 -1.65625,0.875 -2.046875,0.875 -0.59375,0 -0.90625,-0.453125 -0.90625,-1.09375 0,-0.484375 0.265625,-1.5625 0.578125,-2.0625 C 2.1875,-4 2.734375,-4.1875 3.078125,-4.1875 c 0.984375,0 0.984375,1.3125 0.984375,2.078125 0,0.375 0,0.953125 0.03125,1.125 z m 0,0"
             id="id-10774cde-e191-4a6e-9e16-7cacab592a8f"
             style="fill:#000000;fill-opacity:1" />
        </g>
      </g>
    </g>
    <g
       transform="matrix(1.41111,0,0,1.41111,212.51736,96.879953)"
       ns1:version="1.11.1"
       ns1:texconverter="pdflatex"
       ns1:pdfconverter="inkscape"
       ns1:text="$z$"
       ns1:preamble="C:\Users\Lars\AppData\Roaming\inkscape\extensions\textext\default_packages.tex"
       ns1:scale="4.0"
       ns1:alignment="middle center"
       ns1:jacobian_sqrt="1.0"
       id="g9"
       style="fill:#ff0000;fill-opacity:1">
      <defs
         id="id-e1a751de-0288-45e5-816e-313055458de2">
        <g
           id="id-1241f316-50c9-4370-b3e1-f4519b8ca5aa">
          <g
             id="id-f4cea706-cce1-4d3f-8765-4c28a79f3bd2">
            <path
               d="m 4.75,-3.953125 c 0.09375,-0.078125 0.09375,-0.09375 0.125,-0.1875 l 0.046875,-0.28125 h -3.5625 l -0.125,0.578125 H 2.625 c 0.125,0 0.25,0 0.359375,0 h 0.84375 l -3.34375,3.3125 C 0.375,-0.421875 0.375,-0.40625 0.34375,-0.3125 0.328125,-0.265625 0.296875,-0.0625 0.28125,0 H 4 L 4.140625,-0.625 H 2.65625 c -0.109375,0 -0.234375,0.015625 -0.359375,0.015625 h -0.90625 z m 0,0"
               id="id-070cf4bc-dac6-438c-b7b8-f87485c83a6b" />
          </g>
        </g>
      </defs>
      <g
         fill="#000000"
         fill-opacity="1"
         id="id-1b3b1cbd-9627-419c-9bc9-a7419520c577"
         transform="translate(-148.993,-130.343)"
         style="fill:#ff0000;fill-opacity:1">
        <g
           transform="translate(148.712,134.765)"
           id="g8"
           style="fill:#ff0000;fill-opacity:1">
          <path
             d="m 4.75,-3.953125 c 0.09375,-0.078125 0.09375,-0.09375 0.125,-0.1875 l 0.046875,-0.28125 h -3.5625 l -0.125,0.578125 H 2.625 c 0.125,0 0.25,0 0.359375,0 h 0.84375 l -3.34375,3.3125 C 0.375,-0.421875 0.375,-0.40625 0.34375,-0.3125 0.328125,-0.265625 0.296875,-0.0625 0.28125,0 H 4 L 4.140625,-0.625 H 2.65625 c -0.109375,0 -0.234375,0.015625 -0.359375,0.015625 h -0.90625 z m 0,0"
             id="id-928557d4-3c04-4233-8f91-43d02defede3"
             style="fill:#000000;fill-opacity:1" />
        </g>
      </g>
    </g>
    <path
       style="fill:#000000;fill-opacity:1;stroke:#000000;stroke-width:1;stroke-linecap:round;stroke-linejoin:round;stroke-dasharray:none;stroke-dashoffset:0;stroke-opacity:1;paint-order:stroke fill markers"
       d="M 64.999999,99.999999 209.99998,100"
       id="path24"
       sodipodi:nodetypes="cc" />
    <path
       style="fill:#000000;fill-opacity:1;stroke:#000000;stroke-width:1;stroke-linecap:round;stroke-linejoin:round;stroke-dasharray:none;stroke-dashoffset:0;stroke-opacity:1;paint-order:stroke fill markers"
       d="M 69.999985,105 V 63.000002"
       id="path25"
       sodipodi:nodetypes="cc" />
    <path
       style="fill:#000000;fill-opacity:1;stroke:#000000;stroke-width:1;stroke-linecap:round;stroke-linejoin:round;stroke-dasharray:3,2;stroke-dashoffset:0;stroke-opacity:1;paint-order:stroke fill markers"
       d="m 66.999985,85.000002 142.999995,1e-6"
       id="path26"
       sodipodi:nodetypes="cc" />
    <path
       style="fill:#000000;fill-opacity:1;stroke:#000000;stroke-width:1;stroke-linecap:round;stroke-linejoin:round;stroke-dasharray:3, 2;stroke-dashoffset:0;stroke-opacity:1;paint-order:stroke fill markers"
       d="m 98.999987,103 -4e-6,-22.999992"
       id="path27"
       sodipodi:nodetypes="cc" />
    <path
       style="fill:#000000;fill-opacity:1;stroke:#000000;stroke-width:1;stroke-linecap:round;stroke-linejoin:round;stroke-dasharray:none;stroke-opacity:1"
       d="m 209.99998,100 -6,-2.999995 V 103 Z"
       id="path5-6-2-7-4-0-4-3-0-0-3-2-7-2-19-2-9"
       sodipodi:nodetypes="cccc"
       inkscape:transform-center-x="2.6560074"
       inkscape:transform-center-y="0.1587872" />
    <path
       style="fill:#000000;fill-opacity:1;stroke:#000000;stroke-width:1;stroke-linecap:round;stroke-linejoin:round;stroke-dasharray:none;stroke-opacity:1"
       d="m 69.999985,63.000002 -3,6 h 6 z"
       id="path5-6-2-7-4-0-4-3-0-0-3-2-7-2-19-2-9-5"
       sodipodi:nodetypes="cccc"
       inkscape:transform-center-x="-0.1587871"
       inkscape:transform-center-y="2.6560077" />
    <path
       style="fill:none;fill-opacity:1;stroke:#000000;stroke-width:1;stroke-linecap:round;stroke-linejoin:round;stroke-dasharray:none;stroke-dashoffset:0;stroke-opacity:1;paint-order:stroke fill markers"
       id="path55"
       sodipodi:type="arc"
       sodipodi:cx="98.999985"
       sodipodi:cy="85"
       sodipodi:rx="70"
       sodipodi:ry="70"
       sodipodi:start="6.1086524"
       sodipodi:end="0"
       sodipodi:arc-type="arc"
       d="M 167.93653,72.844629 A 70,70 0 0 1 168.99998,85"
       sodipodi:open="true" />
    <g
       transform="matrix(1.41111,0,0,1.41111,-30.933873,67.844962)"
       ns1:version="1.8.2"
       ns1:texconverter="pdflatex"
       ns1:pdfconverter="inkscape"
       ns1:text="$$\\mathbf{r}=\\begin{pmatrix}r \\\\ \\alpha\\end{pmatrix}$$"
       ns1:preamble="C:\Users\rcaspa\AppData\Roaming\inkscape\extensions\textext\default_packages.tex"
       ns1:scale="4.0"
       ns1:alignment="middle center"
       ns1:stroke-to-path="0"
       ns1:inkscapeversion="1.4"
       ns1:jacobian_sqrt="1.41111"
       id="g21483">
      <defs
         id="id-25c8691b-2719-4270-a8be-0fca1a0a7c5a">
        <g
           id="id-79f4f0f4-2187-4970-be7f-3e7747cd764a">
          <g
             id="id-82b1794c-44af-4b2a-87c3-7ed42f096bc7" />
          <g
             id="id-f7acbb85-3777-4c61-ac39-5864c0aec6cb">
            <path
               d="m 1.9375,-2.296875 c 0,-0.9375 0.78125,-1.328125 1.40625,-1.375 0.1875,0 0.203125,0 0.203125,-0.265625 v -0.46875 c 0,-0.203125 0,-0.265625 -0.171875,-0.265625 -0.28125,0 -1.015625,0.09375 -1.484375,1.171875 V -4.140625 C 1.890625,-4.46875 1.8125,-4.625 1.40625,-4.625 h -0.3125 c -0.359375,0 -0.484375,0.109375 -0.484375,0.484375 v 3.65625 C 0.609375,-0.125 0.71875,0 1.09375,0 H 1.453125 C 1.828125,0 1.9375,-0.125 1.9375,-0.484375 Z m 0,0"
               id="id-9bd35b9d-6f48-412d-b47a-cd11ce9f5fa4" />
          </g>
          <g
             id="id-fa544f3c-10ea-42a5-b3fa-35ddddbee12c" />
          <g
             id="id-48ff4847-cde3-46f6-9a98-b8b9e9e7eae4">
            <path
               d="m 6.84375,-3.296875 c 0.15625,0 0.34375,0 0.34375,-0.1875 C 7.1875,-3.6875 7,-3.6875 6.859375,-3.6875 h -5.96875 c -0.140625,0 -0.328125,0 -0.328125,0.203125 0,0.1875 0.1875,0.1875 0.328125,0.1875 z m 0.015625,2 C 7,-1.296875 7.1875,-1.296875 7.1875,-1.5 7.1875,-1.6875 7,-1.6875 6.84375,-1.6875 H 0.890625 c -0.140625,0 -0.328125,0 -0.328125,0.1875 0,0.203125 0.1875,0.203125 0.328125,0.203125 z m 0,0"
               id="id-394e534c-b6a4-4514-942f-e36ae3a90057" />
          </g>
          <g
             id="id-a6e359f4-43da-429a-a1b8-833b07c42088" />
          <g
             id="id-4f766582-c4a4-4a16-9f5c-c06f234b2b07">
            <path
               d="m 6.984375,23.421875 c 0,-0.04687 -0.03125,-0.0625 -0.046875,-0.09375 -0.375,-0.375 -1.03125,-1.03125 -1.703125,-2.109375 C 3.625,18.640625 2.90625,15.40625 2.90625,11.5625 c 0,-2.6875 0.359375,-6.140625 2,-9.109375 C 5.6875,1.03125 6.515625,0.21875 6.953125,-0.21875 c 0.03125,-0.03125 0.03125,-0.046875 0.03125,-0.078125 0,-0.109375 -0.078125,-0.109375 -0.21875,-0.109375 -0.140625,0 -0.15625,0 -0.3125,0.15625 -3.328125,3.046875 -4.375,7.609375 -4.375,11.796875 0,3.921875 0.890625,7.875 3.421875,10.859375 0.203125,0.21875 0.578125,0.625 0.984375,0.984375 0.125,0.125 0.140625,0.125 0.28125,0.125 0.140625,0 0.21875,0 0.21875,-0.09375 z m 0,0"
               id="id-2f7db26d-cd69-4513-a770-68cb635d6b27" />
          </g>
          <g
             id="id-46412910-b92b-45c8-b285-3734152bd98f">
            <path
               d="M 5.25,11.5625 C 5.25,7.640625 4.359375,3.703125 1.828125,0.71875 1.625,0.484375 1.25,0.078125 0.84375,-0.28125 c -0.125,-0.125 -0.140625,-0.125 -0.28125,-0.125 -0.125,0 -0.21875,0 -0.21875,0.109375 0,0.03125 0.046875,0.078125 0.0625,0.09375 0.34375,0.359375 1.015625,1.03125 1.6875,2.109375 1.609375,2.5625 2.328125,5.8125 2.328125,9.640625 0,2.6875 -0.359375,6.140625 -2,9.125 -0.78125,1.40625 -1.609375,2.234375 -2.03125,2.65625 -0.015625,0.03125 -0.046875,0.0625 -0.046875,0.09375 0,0.09375 0.09375,0.09375 0.21875,0.09375 0.140625,0 0.15625,0 0.3125,-0.15625 C 4.203125,20.328125 5.25,15.765625 5.25,11.5625 Z m 0,0"
               id="id-2ae210ad-9ce5-40fa-a6bf-3afc0b7465aa" />
          </g>
          <g
             id="id-21d96abe-dfc0-439b-bee7-0cdec694ef9e" />
          <g
             id="id-303dd9a1-37a3-4714-aa37-22b1c1ce2067">
            <path
               d="M 4.234375,-4.53125 C 3.046875,-4.515625 2.3125,-3.625 2.296875,-3.609375 H 2.28125 l 0.1875,-0.875 H 1.78125 L 0.8125,0 h 0.75 c 0.265625,-1.21875 0.46875,-2.1875 0.5,-2.328125 C 2.25,-2.984375 2.984375,-3.84375 4.078125,-3.875 Z m 0,0"
               id="id-103b2d7d-fc26-4607-9b68-48140f51747f" />
          </g>
          <g
             id="id-8d74a3c1-fab2-435d-b327-61e85d233820" />
          <g
             id="id-5c472dce-74cb-4045-9e21-9d70b673e730">
            <path
               d="m 4.75,-2.359375 c 0,-1.5625 -0.921875,-2.046875 -1.65625,-2.046875 -1.375,0 -2.6875,1.421875 -2.6875,2.828125 0,0.9375 0.59375,1.6875 1.625,1.6875 0.625,0 1.34375,-0.234375 2.09375,-0.84375 0.125,0.53125 0.453125,0.84375 0.90625,0.84375 0.53125,0 0.84375,-0.546875 0.84375,-0.703125 0,-0.078125 -0.0625,-0.109375 -0.125,-0.109375 -0.0625,0 -0.09375,0.03125 -0.125,0.109375 -0.1875,0.484375 -0.546875,0.484375 -0.5625,0.484375 -0.3125,0 -0.3125,-0.78125 -0.3125,-1.015625 0,-0.203125 0,-0.234375 0.109375,-0.34375 C 5.796875,-2.65625 6,-3.8125 6,-3.8125 6,-3.84375 5.984375,-3.921875 5.875,-3.921875 c -0.09375,0 -0.09375,0.03125 -0.140625,0.21875 -0.1875,0.625 -0.515625,1.375 -0.984375,1.96875 z m -0.65625,1.375 c -0.890625,0.765625 -1.65625,0.875 -2.046875,0.875 -0.59375,0 -0.90625,-0.453125 -0.90625,-1.09375 0,-0.484375 0.265625,-1.5625 0.578125,-2.0625 C 2.1875,-4 2.734375,-4.1875 3.078125,-4.1875 c 0.984375,0 0.984375,1.3125 0.984375,2.078125 0,0.375 0,0.953125 0.03125,1.125 z m 0,0"
               id="id-d879cced-47eb-464e-8e3c-4e9536eb8150" />
          </g>
        </g>
      </defs>
      <g
         fill="#000000"
         fill-opacity="1"
         id="id-862932f0-f658-42f2-9aea-101d5870a02b"
         transform="translate(-287.122,-135.753)">
        <g
           transform="translate(286.513,150.207)"
           id="g21877">
          <path
             d="m 1.9375,-2.296875 c 0,-0.9375 0.78125,-1.328125 1.40625,-1.375 0.1875,0 0.203125,0 0.203125,-0.265625 v -0.46875 c 0,-0.203125 0,-0.265625 -0.171875,-0.265625 -0.28125,0 -1.015625,0.09375 -1.484375,1.171875 V -4.140625 C 1.890625,-4.46875 1.8125,-4.625 1.40625,-4.625 h -0.3125 c -0.359375,0 -0.484375,0.109375 -0.484375,0.484375 v 3.65625 C 0.609375,-0.125 0.71875,0 1.09375,0 H 1.453125 C 1.828125,0 1.9375,-0.125 1.9375,-0.484375 Z m 0,0"
             id="id-52f996ef-5fe8-46b0-86c2-3c9fa6b054e7" />
        </g>
      </g>
      <g
         fill="#000000"
         fill-opacity="1"
         id="id-13723362-5987-4d53-a28a-3a038d6b4115"
         transform="translate(-287.122,-135.753)">
        <g
           transform="translate(293.141,150.207)"
           id="g21881">
          <path
             d="m 6.84375,-3.296875 c 0.15625,0 0.34375,0 0.34375,-0.1875 C 7.1875,-3.6875 7,-3.6875 6.859375,-3.6875 h -5.96875 c -0.140625,0 -0.328125,0 -0.328125,0.203125 0,0.1875 0.1875,0.1875 0.328125,0.1875 z m 0.015625,2 C 7,-1.296875 7.1875,-1.296875 7.1875,-1.5 7.1875,-1.6875 7,-1.6875 6.84375,-1.6875 H 0.890625 c -0.140625,0 -0.328125,0 -0.328125,0.1875 0,0.203125 0.1875,0.203125 0.328125,0.203125 z m 0,0"
             id="id-3cc96a34-2955-4331-91d5-21e8ac60bbb3" />
        </g>
      </g>
      <g
         fill="#000000"
         fill-opacity="1"
         id="id-7fc2f7e1-690d-4a55-9e71-f183b0c0c3a4"
         transform="translate(-287.122,-135.753)">
        <g
           transform="translate(303.657,136.159)"
           id="g21885">
          <path
             d="m 6.984375,23.421875 c 0,-0.04687 -0.03125,-0.0625 -0.046875,-0.09375 -0.375,-0.375 -1.03125,-1.03125 -1.703125,-2.109375 C 3.625,18.640625 2.90625,15.40625 2.90625,11.5625 c 0,-2.6875 0.359375,-6.140625 2,-9.109375 C 5.6875,1.03125 6.515625,0.21875 6.953125,-0.21875 c 0.03125,-0.03125 0.03125,-0.046875 0.03125,-0.078125 0,-0.109375 -0.078125,-0.109375 -0.21875,-0.109375 -0.140625,0 -0.15625,0 -0.3125,0.15625 -3.328125,3.046875 -4.375,7.609375 -4.375,11.796875 0,3.921875 0.890625,7.875 3.421875,10.859375 0.203125,0.21875 0.578125,0.625 0.984375,0.984375 0.125,0.125 0.140625,0.125 0.28125,0.125 0.140625,0 0.21875,0 0.21875,-0.09375 z m 0,0"
             id="id-8d7d701a-ca88-472e-9eee-b2ae8d61f76f" />
        </g>
      </g>
      <g
         fill="#000000"
         fill-opacity="1"
         id="id-b5ab3f09-9d32-4084-a8f3-f61c74d45b0f"
         transform="translate(-287.122,-135.753)">
        <g
           transform="translate(311.954,144.13)"
           id="g21889">
          <path
             d="M 4.234375,-4.53125 C 3.046875,-4.515625 2.3125,-3.625 2.296875,-3.609375 H 2.28125 l 0.1875,-0.875 H 1.78125 L 0.8125,0 h 0.75 c 0.265625,-1.21875 0.46875,-2.1875 0.5,-2.328125 C 2.25,-2.984375 2.984375,-3.84375 4.078125,-3.875 Z m 0,0"
             id="id-57d88e5b-36c8-4563-b5f0-58ab0e099b86" />
        </g>
      </g>
      <g
         fill="#000000"
         fill-opacity="1"
         id="id-35d8d425-8258-4ba4-a2d1-06402de0aa39"
         transform="translate(-287.122,-135.753)">
        <g
           transform="translate(310.991,156.085)"
           id="g21893">
          <path
             d="m 4.75,-2.359375 c 0,-1.5625 -0.921875,-2.046875 -1.65625,-2.046875 -1.375,0 -2.6875,1.421875 -2.6875,2.828125 0,0.9375 0.59375,1.6875 1.625,1.6875 0.625,0 1.34375,-0.234375 2.09375,-0.84375 0.125,0.53125 0.453125,0.84375 0.90625,0.84375 0.53125,0 0.84375,-0.546875 0.84375,-0.703125 0,-0.078125 -0.0625,-0.109375 -0.125,-0.109375 -0.0625,0 -0.09375,0.03125 -0.125,0.109375 -0.1875,0.484375 -0.546875,0.484375 -0.5625,0.484375 -0.3125,0 -0.3125,-0.78125 -0.3125,-1.015625 0,-0.203125 0,-0.234375 0.109375,-0.34375 C 5.796875,-2.65625 6,-3.8125 6,-3.8125 6,-3.84375 5.984375,-3.921875 5.875,-3.921875 c -0.09375,0 -0.09375,0.03125 -0.140625,0.21875 -0.1875,0.625 -0.515625,1.375 -0.984375,1.96875 z m -0.65625,1.375 c -0.890625,0.765625 -1.65625,0.875 -2.046875,0.875 -0.59375,0 -0.90625,-0.453125 -0.90625,-1.09375 0,-0.484375 0.265625,-1.5625 0.578125,-2.0625 C 2.1875,-4 2.734375,-4.1875 3.078125,-4.1875 c 0.984375,0 0.984375,1.3125 0.984375,2.078125 0,0.375 0,0.953125 0.03125,1.125 z m 0,0"
             id="id-f5630bf4-eda6-4c26-bce6-49f2de3fe486" />
        </g>
      </g>
      <g
         fill="#000000"
         fill-opacity="1"
         id="id-35b6471d-6487-4d03-8f10-60808788e0ed"
         transform="translate(-287.122,-135.753)">
        <g
           transform="translate(317.401,136.159)"
           id="g21897">
          <path
             d="M 5.25,11.5625 C 5.25,7.640625 4.359375,3.703125 1.828125,0.71875 1.625,0.484375 1.25,0.078125 0.84375,-0.28125 c -0.125,-0.125 -0.140625,-0.125 -0.28125,-0.125 -0.125,0 -0.21875,0 -0.21875,0.109375 0,0.03125 0.046875,0.078125 0.0625,0.09375 0.34375,0.359375 1.015625,1.03125 1.6875,2.109375 1.609375,2.5625 2.328125,5.8125 2.328125,9.640625 0,2.6875 -0.359375,6.140625 -2,9.125 -0.78125,1.40625 -1.609375,2.234375 -2.03125,2.65625 -0.015625,0.03125 -0.046875,0.0625 -0.046875,0.09375 0,0.09375 0.09375,0.09375 0.21875,0.09375 0.140625,0 0.15625,0 0.3125,-0.15625 C 4.203125,20.328125 5.25,15.765625 5.25,11.5625 Z m 0,0"
             id="id-e43c4a02-5016-4e28-bd10-69d9d6059375" />
        </g>
      </g>
    </g>
    <g
       transform="matrix(1.41111,0,0,1.41111,58.906063,81.803311)"
       ns1:version="1.8.2"
       ns1:texconverter="pdflatex"
       ns1:pdfconverter="inkscape"
       ns1:text="$r$"
       ns1:preamble="C:\Users\rcaspa\AppData\Roaming\inkscape\extensions\textext\default_packages.tex"
       ns1:scale="4.0"
       ns1:alignment="middle center"
       ns1:stroke-to-path="0"
       ns1:inkscapeversion="1.4"
       ns1:jacobian_sqrt="1.41111"
       style="fill:#000000;fill-opacity:1;stroke-width:0"
       id="g5">
      <defs
         id="id-2db3a3e2-ed29-4ca6-9158-beafecdb1cf6"
         style="fill:#ff0000;fill-opacity:1;stroke-width:0">
        <g
           id="id-ad4be6fd-1917-41ea-a2cc-644598bebee2"
           style="fill:#ff0000;fill-opacity:1;stroke-width:0">
          <g
             id="id-2354ca76-ba0d-4fbc-a026-cf8e449b0ec4"
             style="fill:#ff0000;fill-opacity:1;stroke-width:0" />
          <g
             id="id-916855db-e378-4508-9ede-c1ce936fc498"
             style="fill:#ff0000;fill-opacity:1;stroke-width:0">
            <path
               d="M 4.234375,-4.53125 C 3.046875,-4.515625 2.3125,-3.625 2.296875,-3.609375 H 2.28125 l 0.1875,-0.875 H 1.78125 L 0.8125,0 h 0.75 c 0.265625,-1.21875 0.46875,-2.1875 0.5,-2.328125 C 2.25,-2.984375 2.984375,-3.84375 4.078125,-3.875 Z m 0,0"
               id="id-29fea253-dfb7-4971-a5a6-a180d24f5459"
               style="fill:#ff0000;fill-opacity:1;stroke-width:0" />
          </g>
        </g>
      </defs>
      <g
         fill-opacity="1"
         id="id-85a52e13-3b6f-483e-a061-85db36aef8fe"
         transform="translate(-149.525,-130.234)"
         style="fill:#000000;fill-opacity:1;stroke-width:0">
        <g
           transform="translate(148.712,134.765)"
           style="fill:#000000;fill-opacity:1;stroke-width:0"
           id="g22227">
          <path
             d="M 4.234375,-4.53125 C 3.046875,-4.515625 2.3125,-3.625 2.296875,-3.609375 H 2.28125 l 0.1875,-0.875 H 1.78125 L 0.8125,0 h 0.75 c 0.265625,-1.21875 0.46875,-2.1875 0.5,-2.328125 C 2.25,-2.984375 2.984375,-3.84375 4.078125,-3.875 Z m 0,0"
             id="id-14342453-4ae3-4698-8192-4d4572842ee2"
             style="fill:#000000;fill-opacity:1;stroke-width:0" />
        </g>
      </g>
    </g>
    <path
       style="fill:#000000;fill-opacity:1;stroke:#000000;stroke-width:1;stroke-linecap:round;stroke-linejoin:round;stroke-dasharray:none;stroke-opacity:1;stop-color:#000000"
       d="M 98.999984,85.000003 202.4048,66.766949 l -6.42979,-1.912535 1.04189,5.908845 5.3879,-3.996311"
       id="path22243"
       sodipodi:nodetypes="ccccc" />
  </g>
</svg>
