<?xml version="1.0" encoding="utf-8" standalone="no"?>
<!DOCTYPE svg PUBLIC "-//W3C//DTD SVG 1.1//EN"
  "http://www.w3.org/Graphics/SVG/1.1/DTD/svg11.dtd">
<svg xmlns:xlink="http://www.w3.org/1999/xlink" width="1152pt" height="432pt" viewBox="0 0 1152 432" xmlns="http://www.w3.org/2000/svg" version="1.1">
 <metadata>
  <rdf:RDF xmlns:dc="http://purl.org/dc/elements/1.1/" xmlns:cc="http://creativecommons.org/ns#" xmlns:rdf="http://www.w3.org/1999/02/22-rdf-syntax-ns#">
   <cc:Work>
    <dc:type rdf:resource="http://purl.org/dc/dcmitype/StillImage"/>
    <dc:date>2025-11-30T10:17:51.825834</dc:date>
    <dc:format>image/svg+xml</dc:format>
    <dc:creator>
     <cc:Agent>
      <dc:title>Matplotlib v3.9.0, https://matplotlib.org/</dc:title>
     </cc:Agent>
    </dc:creator>
   </cc:Work>
  </rdf:RDF>
 </metadata>
 <defs>
  <style type="text/css">*{stroke-linejoin: round; stroke-linecap: butt}</style>
 </defs>
 <g id="figure_1">
  <g id="patch_1">
   <path d="M 0 432 
L 1152 432 
L 1152 0 
L 0 0 
z
" style="fill: #ffffff"/>
  </g>
  <g id="axes_1">
   <g id="patch_2">
    <path d="M 144 384.48 
L 1036.8 384.48 
L 1036.8 51.84 
L 144 51.84 
z
" style="fill: #ffffff"/>
   </g>
   <g id="matplotlib.axis_1">
    <g id="xtick_1">
     <g id="line2d_1">
      <defs>
       <path id="m708b9737c5" d="M 0 0 
L 0 3.5 
" style="stroke: #000000; stroke-width: 0.8"/>
      </defs>
      <g>
       <use xlink:href="#m708b9737c5" x="209.945455" y="384.48" style="stroke: #000000; stroke-width: 0.8"/>
      </g>
     </g>
     <g id="text_1">
      <!-- −150 -->
      <g transform="translate(196.211861 399.078438) scale(0.1 -0.1)">
       <defs>
        <path id="DejaVuSans-2212" d="M 678 2272 
L 4684 2272 
L 4684 1741 
L 678 1741 
L 678 2272 
z
" transform="scale(0.015625)"/>
        <path id="DejaVuSans-31" d="M 794 531 
L 1825 531 
L 1825 4091 
L 703 3866 
L 703 4441 
L 1819 4666 
L 2450 4666 
L 2450 531 
L 3481 531 
L 3481 0 
L 794 0 
L 794 531 
z
" transform="scale(0.015625)"/>
        <path id="DejaVuSans-35" d="M 691 4666 
L 3169 4666 
L 3169 4134 
L 1269 4134 
L 1269 2991 
Q 1406 3038 1543 3061 
Q 1681 3084 1819 3084 
Q 2600 3084 3056 2656 
Q 3513 2228 3513 1497 
Q 3513 744 3044 326 
Q 2575 -91 1722 -91 
Q 1428 -91 1123 -41 
Q 819 9 494 109 
L 494 744 
Q 775 591 1075 516 
Q 1375 441 1709 441 
Q 2250 441 2565 725 
Q 2881 1009 2881 1497 
Q 2881 1984 2565 2268 
Q 2250 2553 1709 2553 
Q 1456 2553 1204 2497 
Q 953 2441 691 2322 
L 691 4666 
z
" transform="scale(0.015625)"/>
        <path id="DejaVuSans-30" d="M 2034 4250 
Q 1547 4250 1301 3770 
Q 1056 3291 1056 2328 
Q 1056 1369 1301 889 
Q 1547 409 2034 409 
Q 2525 409 2770 889 
Q 3016 1369 3016 2328 
Q 3016 3291 2770 3770 
Q 2525 4250 2034 4250 
z
M 2034 4750 
Q 2819 4750 3233 4129 
Q 3647 3509 3647 2328 
Q 3647 1150 3233 529 
Q 2819 -91 2034 -91 
Q 1250 -91 836 529 
Q 422 1150 422 2328 
Q 422 3509 836 4129 
Q 1250 4750 2034 4750 
z
" transform="scale(0.015625)"/>
       </defs>
       <use xlink:href="#DejaVuSans-2212"/>
       <use xlink:href="#DejaVuSans-31" x="83.789062"/>
       <use xlink:href="#DejaVuSans-35" x="147.412109"/>
       <use xlink:href="#DejaVuSans-30" x="211.035156"/>
      </g>
     </g>
    </g>
    <g id="xtick_2">
     <g id="line2d_2">
      <g>
       <use xlink:href="#m708b9737c5" x="336.763636" y="384.48" style="stroke: #000000; stroke-width: 0.8"/>
      </g>
     </g>
     <g id="text_2">
      <!-- −100 -->
      <g transform="translate(323.030043 399.078438) scale(0.1 -0.1)">
       <use xlink:href="#DejaVuSans-2212"/>
       <use xlink:href="#DejaVuSans-31" x="83.789062"/>
       <use xlink:href="#DejaVuSans-30" x="147.412109"/>
       <use xlink:href="#DejaVuSans-30" x="211.035156"/>
      </g>
     </g>
    </g>
    <g id="xtick_3">
     <g id="line2d_3">
      <g>
       <use xlink:href="#m708b9737c5" x="463.581818" y="384.48" style="stroke: #000000; stroke-width: 0.8"/>
      </g>
     </g>
     <g id="text_3">
      <!-- −50 -->
      <g transform="translate(453.029474 399.078438) scale(0.1 -0.1)">
       <use xlink:href="#DejaVuSans-2212"/>
       <use xlink:href="#DejaVuSans-35" x="83.789062"/>
       <use xlink:href="#DejaVuSans-30" x="147.412109"/>
      </g>
     </g>
    </g>
    <g id="xtick_4">
     <g id="line2d_4">
      <g>
       <use xlink:href="#m708b9737c5" x="590.4" y="384.48" style="stroke: #000000; stroke-width: 0.8"/>
      </g>
     </g>
     <g id="text_4">
      <!-- 0 -->
      <g transform="translate(587.21875 399.078438) scale(0.1 -0.1)">
       <use xlink:href="#DejaVuSans-30"/>
      </g>
     </g>
    </g>
    <g id="xtick_5">
     <g id="line2d_5">
      <g>
       <use xlink:href="#m708b9737c5" x="717.218182" y="384.48" style="stroke: #000000; stroke-width: 0.8"/>
      </g>
     </g>
     <g id="text_5">
      <!-- 50 -->
      <g transform="translate(710.855682 399.078438) scale(0.1 -0.1)">
       <use xlink:href="#DejaVuSans-35"/>
       <use xlink:href="#DejaVuSans-30" x="63.623047"/>
      </g>
     </g>
    </g>
    <g id="xtick_6">
     <g id="line2d_6">
      <g>
       <use xlink:href="#m708b9737c5" x="844.036364" y="384.48" style="stroke: #000000; stroke-width: 0.8"/>
      </g>
     </g>
     <g id="text_6">
      <!-- 100 -->
      <g transform="translate(834.492614 399.078438) scale(0.1 -0.1)">
       <use xlink:href="#DejaVuSans-31"/>
       <use xlink:href="#DejaVuSans-30" x="63.623047"/>
       <use xlink:href="#DejaVuSans-30" x="127.246094"/>
      </g>
     </g>
    </g>
    <g id="xtick_7">
     <g id="line2d_7">
      <g>
       <use xlink:href="#m708b9737c5" x="970.854545" y="384.48" style="stroke: #000000; stroke-width: 0.8"/>
      </g>
     </g>
     <g id="text_7">
      <!-- 150 -->
      <g transform="translate(961.310795 399.078438) scale(0.1 -0.1)">
       <use xlink:href="#DejaVuSans-31"/>
       <use xlink:href="#DejaVuSans-35" x="63.623047"/>
       <use xlink:href="#DejaVuSans-30" x="127.246094"/>
      </g>
     </g>
    </g>
   </g>
   <g id="matplotlib.axis_2">
    <g id="ytick_1">
     <g id="line2d_8">
      <defs>
       <path id="mf08a728ef8" d="M 0 0 
L -3.5 0 
" style="stroke: #000000; stroke-width: 0.8"/>
      </defs>
      <g>
       <use xlink:href="#mf08a728ef8" x="144" y="369.36" style="stroke: #000000; stroke-width: 0.8"/>
      </g>
     </g>
     <g id="text_8">
      <!-- 0.0 -->
      <g transform="translate(121.096875 373.159219) scale(0.1 -0.1)">
       <defs>
        <path id="DejaVuSans-2e" d="M 684 794 
L 1344 794 
L 1344 0 
L 684 0 
L 684 794 
z
" transform="scale(0.015625)"/>
       </defs>
       <use xlink:href="#DejaVuSans-30"/>
       <use xlink:href="#DejaVuSans-2e" x="63.623047"/>
       <use xlink:href="#DejaVuSans-30" x="95.410156"/>
      </g>
     </g>
    </g>
    <g id="ytick_2">
     <g id="line2d_9">
      <g>
       <use xlink:href="#mf08a728ef8" x="144" y="218.16" style="stroke: #000000; stroke-width: 0.8"/>
      </g>
     </g>
     <g id="text_9">
      <!-- 0.5 -->
      <g transform="translate(121.096875 221.959219) scale(0.1 -0.1)">
       <use xlink:href="#DejaVuSans-30"/>
       <use xlink:href="#DejaVuSans-2e" x="63.623047"/>
       <use xlink:href="#DejaVuSans-35" x="95.410156"/>
      </g>
     </g>
    </g>
    <g id="ytick_3">
     <g id="line2d_10">
      <g>
       <use xlink:href="#mf08a728ef8" x="144" y="66.96" style="stroke: #000000; stroke-width: 0.8"/>
      </g>
     </g>
     <g id="text_10">
      <!-- 1.0 -->
      <g transform="translate(121.096875 70.759219) scale(0.1 -0.1)">
       <use xlink:href="#DejaVuSans-31"/>
       <use xlink:href="#DejaVuSans-2e" x="63.623047"/>
       <use xlink:href="#DejaVuSans-30" x="95.410156"/>
      </g>
     </g>
    </g>
   </g>
   <g id="line2d_11">
    <path d="M 184.581818 369.36 
L 996.218182 369.36 
L 996.218182 369.36 
" clip-path="url(#pf46bfe63b4)" style="fill: none; stroke: #000000; stroke-width: 1.5; stroke-linecap: square"/>
   </g>
   <g id="line2d_12">
    <path d="M 184.581818 369.355865 
L 197.568 369.359983 
L 215.424 369.247567 
L 218.670545 368.926671 
L 226.786909 367.911018 
L 229.221818 367.962396 
L 231.656727 368.267345 
L 238.149818 369.335989 
L 239.773091 369.336649 
L 241.396364 369.135123 
L 243.019636 368.725631 
L 245.454545 367.792316 
L 249.512727 366.016548 
L 251.136 365.511065 
L 252.759273 365.251747 
L 254.382545 365.285501 
L 256.005818 365.61646 
L 257.629091 366.202684 
L 260.875636 367.775451 
L 263.310545 368.828089 
L 264.933818 369.249238 
L 266.557091 369.353447 
L 268.180364 369.114227 
L 269.803636 368.558687 
L 271.426909 367.764265 
L 275.485091 365.540622 
L 277.108364 364.906289 
L 278.731636 364.576389 
L 280.354909 364.598114 
L 281.978182 364.964545 
L 283.601455 365.616733 
L 286.848 367.352925 
L 289.282909 368.539934 
L 290.906182 369.074986 
L 292.529455 369.335662 
L 294.152727 369.315025 
L 295.776 369.05165 
L 298.210909 368.370982 
L 301.457455 367.437663 
L 303.080727 367.151443 
L 304.704 367.050973 
L 306.327273 367.14171 
L 308.762182 367.569374 
L 315.255273 369.049524 
L 317.690182 369.301043 
L 320.936727 369.351579 
L 329.053091 369.304977 
L 335.546182 369.337023 
L 342.850909 369.288768 
L 347.720727 369.334445 
L 350.155636 369.101407 
L 351.778909 368.769085 
L 354.213818 368.003098 
L 359.083636 366.205367 
L 360.706909 365.870068 
L 362.330182 365.816036 
L 363.953455 366.08067 
L 365.576727 366.641503 
L 368.011636 367.828342 
L 370.446545 368.944179 
L 372.069818 369.331237 
L 372.881455 369.352674 
L 373.693091 369.238132 
L 374.504727 368.977891 
L 375.316364 368.568192 
L 376.128 368.011778 
L 377.751273 366.503566 
L 379.374545 364.607446 
L 382.621091 360.673797 
L 384.244364 359.230571 
L 385.056 358.758438 
L 385.867636 358.485091 
L 386.679273 358.425687 
L 387.490909 358.586808 
L 388.302545 358.965847 
L 389.114182 359.5508 
L 389.925818 360.320475 
L 391.549091 362.28755 
L 394.795636 366.715724 
L 396.418909 368.401515 
L 397.230545 368.958437 
L 398.042182 369.282401 
L 398.853818 369.353176 
L 399.665455 369.161099 
L 400.477091 368.70769 
L 401.288727 368.005775 
L 402.100364 367.079097 
L 403.723636 364.695239 
L 407.781818 357.984343 
L 408.593455 356.949766 
L 409.405091 356.130071 
L 410.216727 355.558853 
L 411.028364 355.259337 
L 411.84 355.243369 
L 412.651636 355.51092 
L 413.463273 356.050129 
L 414.274909 356.837884 
L 415.898182 359.017331 
L 418.333091 363.081387 
L 419.956364 365.695364 
L 421.579636 367.770902 
L 422.391273 368.513952 
L 423.202909 369.029405 
L 424.014545 369.307081 
L 424.826182 369.347663 
L 425.637818 369.162386 
L 426.449455 368.772225 
L 427.261091 368.206646 
L 428.884364 366.699525 
L 432.130909 363.392325 
L 433.754182 362.236358 
L 434.565818 361.884609 
L 435.377455 361.702434 
L 436.189091 361.693259 
L 437.000727 361.85222 
L 437.812364 362.166826 
L 439.435636 363.181358 
L 441.870545 365.255086 
L 444.305455 367.291497 
L 445.928727 368.322167 
L 447.552 368.990048 
L 449.175273 369.30638 
L 450.798545 369.351951 
L 458.103273 369.074093 
L 463.784727 369.352297 
L 467.031273 369.126463 
L 470.277818 368.932027 
L 472.712727 369.070997 
L 475.959273 369.359982 
L 477.582545 369.171941 
L 478.394182 368.894726 
L 479.205818 368.458563 
L 480.017455 367.841299 
L 480.829091 367.02787 
L 481.640727 366.012357 
L 483.264 363.406961 
L 484.887273 360.212546 
L 487.322182 355.194993 
L 488.133818 353.734494 
L 488.945455 352.504372 
L 489.757091 351.575479 
L 490.568727 351.009928 
L 491.380364 350.856579 
L 492.192 351.146809 
L 493.003636 351.890845 
L 493.815273 353.074885 
L 494.626909 354.659277 
L 496.250182 358.739071 
L 498.685091 365.432079 
L 499.496727 367.240625 
L 500.308364 368.574983 
L 501.12 369.282975 
L 501.931636 369.227572 
L 502.743273 368.295093 
L 503.554909 366.402888 
L 504.366545 363.506063 
L 505.178182 359.60284 
L 505.989818 354.738173 
L 507.613091 342.545112 
L 512.482909 301.121656 
L 513.294545 296.288076 
L 514.106182 292.740438 
L 514.917818 290.671144 
L 515.729455 290.217267 
L 516.541091 291.450602 
L 517.352727 294.370203 
L 518.164364 298.897897 
L 518.976 304.877167 
L 520.599273 320.191314 
L 523.845818 353.985218 
L 524.657455 360.576736 
L 525.469091 365.562927 
L 526.280727 368.5756 
L 527.092364 369.313926 
L 527.904 367.561404 
L 528.715636 363.199803 
L 529.527273 356.219294 
L 530.338909 346.724114 
L 531.150545 334.933322 
L 532.773818 305.883512 
L 536.832 226.302861 
L 537.643636 214.131223 
L 538.455273 204.565515 
L 539.266909 198.047034 
L 540.078545 194.902539 
L 540.890182 195.325632 
L 541.701818 199.363411 
L 542.513455 206.909148 
L 543.325091 217.701539 
L 544.136727 231.33079 
L 545.76 264.801839 
L 548.194909 319.426695 
L 549.006545 335.520588 
L 549.818182 349.209253 
L 550.629818 359.782206 
L 551.441455 366.641883 
L 552.253091 369.332674 
L 553.064727 367.564525 
L 553.876364 361.229924 
L 554.688 350.413325 
L 555.499636 335.39244 
L 556.311273 316.631108 
L 557.934545 270.57279 
L 561.181091 169.533039 
L 561.992727 148.222082 
L 562.804364 130.369884 
L 563.616 116.735028 
L 564.427636 107.913552 
L 565.239273 104.310535 
L 566.050909 106.119456 
L 566.862545 113.310346 
L 567.674182 125.627411 
L 568.485818 142.596365 
L 569.297455 163.541311 
L 570.920727 213.810471 
L 573.355636 294.007361 
L 574.167273 317.455391 
L 574.978909 337.479149 
L 575.790545 353.182932 
L 576.602182 363.844278 
L 577.413818 368.946328 
L 578.225455 368.201679 
L 579.037091 361.566584 
L 579.848727 349.24483 
L 580.660364 331.681025 
L 581.472 309.543517 
L 583.095273 255.170143 
L 586.341818 137.923773 
L 587.153455 113.831064 
L 587.965091 93.976027 
L 588.776727 79.177393 
L 589.588364 70.046252 
L 590.4 66.96 
L 591.211636 70.046252 
L 592.023273 79.177393 
L 592.834909 93.976027 
L 593.646545 113.831064 
L 595.269818 165.262628 
L 599.328 309.543517 
L 600.139636 331.681025 
L 600.951273 349.24483 
L 601.762909 361.566584 
L 602.574545 368.201679 
L 603.386182 368.946328 
L 604.197818 363.844278 
L 605.009455 353.182932 
L 605.821091 337.479149 
L 606.632727 317.455391 
L 608.256 268.164582 
L 610.690909 187.610572 
L 612.314182 142.596365 
L 613.125818 125.627411 
L 613.937455 113.310346 
L 614.749091 106.119456 
L 615.560727 104.310535 
L 616.372364 107.913552 
L 617.184 116.735028 
L 617.995636 130.369884 
L 618.807273 148.222082 
L 620.430545 193.416433 
L 623.677091 294.763878 
L 624.488727 316.631108 
L 625.300364 335.39244 
L 626.112 350.413325 
L 626.923636 361.229924 
L 627.735273 367.564525 
L 628.546909 369.332674 
L 629.358545 366.641883 
L 630.170182 359.782206 
L 630.981818 349.209253 
L 631.793455 335.520588 
L 633.416727 301.717902 
L 635.851636 247.251479 
L 636.663273 231.33079 
L 637.474909 217.701539 
L 638.286545 206.909148 
L 639.098182 199.363411 
L 639.909818 195.325632 
L 640.721455 194.902539 
L 641.533091 198.047034 
L 642.344727 204.565515 
L 643.156364 214.131223 
L 643.968 226.302861 
L 645.591273 256.266296 
L 648.837818 321.176375 
L 649.649455 334.933322 
L 650.461091 346.724114 
L 651.272727 356.219294 
L 652.084364 363.199803 
L 652.896 367.561404 
L 653.707636 369.313926 
L 654.519273 368.5756 
L 655.330909 365.562927 
L 656.142545 360.576736 
L 656.954182 353.985218 
L 658.577455 337.679897 
L 661.012364 312.075648 
L 661.824 304.877167 
L 662.635636 298.897897 
L 663.447273 294.370203 
L 664.258909 291.450602 
L 665.070545 290.217267 
L 665.882182 290.671144 
L 666.693818 292.740438 
L 667.505455 296.288076 
L 668.317091 301.121656 
L 669.940364 313.672626 
L 673.998545 349.005315 
L 674.810182 354.738173 
L 675.621818 359.60284 
L 676.433455 363.506063 
L 677.245091 366.402888 
L 678.056727 368.295093 
L 678.868364 369.227572 
L 679.68 369.282975 
L 680.491636 368.574983 
L 681.303273 367.240625 
L 682.114909 365.432079 
L 683.738182 361.027534 
L 685.361455 356.577924 
L 686.173091 354.659277 
L 686.984727 353.074885 
L 687.796364 351.890845 
L 688.608 351.146809 
L 689.419636 350.856579 
L 690.231273 351.009928 
L 691.042909 351.575479 
L 691.854545 352.504372 
L 692.666182 353.734494 
L 694.289455 356.810806 
L 697.536 363.406961 
L 699.159273 366.012357 
L 699.970909 367.02787 
L 700.782545 367.841299 
L 701.594182 368.458563 
L 702.405818 368.894726 
L 703.217455 369.171941 
L 704.840727 369.359982 
L 707.275636 369.162831 
L 709.710545 368.94824 
L 712.145455 368.989921 
L 717.826909 369.359494 
L 721.073455 369.190579 
L 724.32 369.016903 
L 726.754909 369.106146 
L 730.813091 369.356054 
L 732.436364 369.188415 
L 734.059636 368.702679 
L 735.682909 367.849555 
L 737.306182 366.660365 
L 742.176 362.617992 
L 742.987636 362.166826 
L 743.799273 361.85222 
L 744.610909 361.693259 
L 745.422545 361.702434 
L 746.234182 361.884609 
L 747.045818 362.236358 
L 747.857455 362.745706 
L 749.480727 364.148163 
L 753.538909 368.206646 
L 754.350545 368.772225 
L 755.162182 369.162386 
L 755.973818 369.347663 
L 756.785455 369.307081 
L 757.597091 369.029405 
L 758.408727 368.513952 
L 759.220364 367.770902 
L 760.032 366.821106 
L 761.655273 364.433234 
L 765.713455 357.840913 
L 766.525091 356.837884 
L 767.336727 356.050129 
L 768.148364 355.51092 
L 768.96 355.243369 
L 769.771636 355.259337 
L 770.583273 355.558853 
L 771.394909 356.130071 
L 772.206545 356.949766 
L 773.829818 359.191319 
L 778.699636 367.079097 
L 779.511273 368.005775 
L 780.322909 368.70769 
L 781.134545 369.161099 
L 781.946182 369.353176 
L 782.757818 369.282401 
L 783.569455 368.958437 
L 784.381091 368.401515 
L 785.192727 367.641361 
L 786.816 365.668576 
L 790.062545 361.245137 
L 791.685818 359.5508 
L 792.497455 358.965847 
L 793.309091 358.586808 
L 794.120727 358.425687 
L 794.932364 358.485091 
L 795.744 358.758438 
L 796.555636 359.230571 
L 797.367273 359.878724 
L 798.990545 361.581856 
L 803.860364 367.318159 
L 805.483636 368.568192 
L 806.295273 368.977891 
L 807.106909 369.238132 
L 807.918545 369.352674 
L 808.730182 369.331237 
L 810.353455 368.944179 
L 811.976727 368.239616 
L 815.223273 366.641503 
L 816.846545 366.08067 
L 818.469818 365.816036 
L 820.093091 365.870068 
L 821.716364 366.205367 
L 824.151273 367.051884 
L 828.209455 368.546506 
L 830.644364 369.101407 
L 833.079273 369.334445 
L 836.325818 369.330435 
L 842.007273 369.272463 
L 850.935273 369.320897 
L 857.428364 369.30013 
L 862.298182 369.338192 
L 864.733091 369.158425 
L 867.168 368.75731 
L 871.226182 367.762823 
L 873.661091 367.251291 
L 875.284364 367.073461 
L 876.907636 367.076812 
L 878.530909 367.273083 
L 880.965818 367.868464 
L 885.024 369.05165 
L 886.647273 369.315025 
L 888.270545 369.335662 
L 889.893818 369.074986 
L 891.517091 368.539934 
L 893.140364 367.784705 
L 898.010182 365.260397 
L 899.633455 364.740792 
L 901.256727 364.542443 
L 902.88 364.699106 
L 904.503273 365.190334 
L 906.126545 365.943942 
L 910.996364 368.558687 
L 912.619636 369.114227 
L 914.242909 369.353447 
L 915.866182 369.249238 
L 917.489455 368.828089 
L 919.112727 368.164637 
L 923.982545 365.882021 
L 925.605818 365.415384 
L 927.229091 365.230655 
L 928.852364 365.346789 
L 930.475636 365.737406 
L 932.910545 366.688402 
L 936.968727 368.450383 
L 938.592 368.95542 
L 940.215273 369.262292 
L 941.838545 369.359987 
L 943.461818 369.269972 
L 945.896727 368.890869 
L 950.766545 368.038313 
L 953.201455 367.898623 
L 955.636364 368.015864 
L 958.882909 368.443861 
L 963.752727 369.114658 
L 966.999273 369.325284 
L 971.869091 369.34223 
L 980.797091 369.34969 
L 996.218182 369.355865 
L 996.218182 369.355865 
" clip-path="url(#pf46bfe63b4)" style="fill: none; stroke: #ff0000; stroke-width: 3; stroke-linecap: square"/>
   </g>
   <g id="line2d_13">
    <path d="M 184.581818 369.099911 
L 193.509818 369.333648 
L 201.626182 369.329668 
L 209.742545 369.090115 
L 217.858909 368.616121 
L 226.786909 367.864411 
L 240.584727 366.438705 
L 252.759273 365.251092 
L 260.875636 364.682122 
L 267.368727 364.428267 
L 273.861818 364.388033 
L 280.354909 364.575172 
L 286.848 364.983022 
L 294.152727 365.669241 
L 303.892364 366.83069 
L 317.690182 368.481502 
L 324.183273 369.039787 
L 329.864727 369.314224 
L 334.734545 369.349241 
L 339.604364 369.172948 
L 344.474182 368.769344 
L 349.344 368.132806 
L 354.213818 367.269274 
L 359.083636 366.19694 
L 364.765091 364.723423 
L 372.069818 362.586125 
L 385.867636 358.478458 
L 391.549091 357.056907 
L 396.418909 356.090976 
L 400.477091 355.512524 
L 404.535273 355.172991 
L 408.593455 355.096177 
L 411.84 355.234525 
L 415.086545 355.554415 
L 419.144727 356.207481 
L 423.202909 357.129442 
L 427.261091 358.295025 
L 432.130909 359.96042 
L 438.624 362.478085 
L 447.552 365.981211 
L 451.610182 367.3576 
L 454.856727 368.262194 
L 458.103273 368.930207 
L 460.538182 369.240548 
L 462.973091 369.359493 
L 465.408 369.261831 
L 467.842909 368.922556 
L 470.277818 368.317105 
L 472.712727 367.421603 
L 475.147636 366.213101 
L 477.582545 364.669828 
L 480.017455 362.771429 
L 482.452364 360.499206 
L 484.887273 357.83635 
L 487.322182 354.768162 
L 489.757091 351.282269 
L 492.192 347.368813 
L 494.626909 343.02064 
L 497.061818 338.233458 
L 499.496727 333.005981 
L 501.931636 327.340052 
L 505.178182 319.112669 
L 508.424727 310.136334 
L 511.671273 300.442754 
L 514.917818 290.074222 
L 518.976 276.245704 
L 523.034182 261.570812 
L 527.904 243.054032 
L 534.397091 217.31977 
L 548.194909 162.218881 
L 553.064727 143.888645 
L 557.122909 129.518113 
L 560.369455 118.769422 
L 563.616 108.79932 
L 566.050909 101.892248 
L 568.485818 95.517531 
L 570.920727 89.71126 
L 573.355636 84.506527 
L 575.790545 79.933172 
L 577.413818 77.248197 
L 579.037091 74.862526 
L 580.660364 72.782307 
L 582.283636 71.012915 
L 583.906909 69.558928 
L 585.530182 68.424116 
L 587.153455 67.611424 
L 588.776727 67.122962 
L 590.4 66.96 
L 592.023273 67.122962 
L 593.646545 67.611424 
L 595.269818 68.424116 
L 596.893091 69.558928 
L 598.516364 71.012915 
L 600.139636 72.782307 
L 601.762909 74.862526 
L 603.386182 77.248197 
L 605.009455 79.933172 
L 607.444364 84.506527 
L 609.879273 89.71126 
L 612.314182 95.517531 
L 614.749091 101.892248 
L 617.184 108.79932 
L 620.430545 118.769422 
L 623.677091 129.518113 
L 627.735273 143.888645 
L 631.793455 159.096381 
L 637.474909 181.369128 
L 655.330909 252.4204 
L 660.200727 270.469507 
L 664.258909 284.652927 
L 668.317091 297.912015 
L 671.563636 307.778709 
L 674.810182 316.937742 
L 678.056727 325.354756 
L 681.303273 333.005981 
L 683.738182 338.233458 
L 686.173091 343.02064 
L 688.608 347.368813 
L 691.042909 351.282269 
L 693.477818 354.768162 
L 695.912727 357.83635 
L 698.347636 360.499206 
L 700.782545 362.771429 
L 703.217455 364.669828 
L 705.652364 366.213101 
L 708.087273 367.421603 
L 710.522182 368.317105 
L 712.957091 368.922556 
L 715.392 369.261831 
L 717.826909 369.359493 
L 720.261818 369.240548 
L 722.696727 368.930207 
L 725.943273 368.262194 
L 729.189818 367.3576 
L 733.248 365.981211 
L 738.929455 363.784189 
L 749.480727 359.66591 
L 754.350545 358.044068 
L 758.408727 356.924566 
L 762.466909 356.054773 
L 766.525091 355.457402 
L 769.771636 355.182978 
L 773.018182 355.089651 
L 777.076364 355.22053 
L 781.134545 355.609994 
L 785.192727 356.23274 
L 790.062545 357.242743 
L 795.744 358.701482 
L 803.048727 360.84806 
L 816.846545 364.946366 
L 822.528 366.389017 
L 827.397818 367.428342 
L 832.267636 368.254969 
L 837.137455 368.852773 
L 842.007273 369.217805 
L 846.877091 369.357509 
L 851.746909 369.289473 
L 857.428364 368.982731 
L 863.921455 368.397472 
L 872.849455 367.34497 
L 888.270545 365.499017 
L 895.575273 364.861553 
L 902.068364 364.507067 
L 908.561455 364.376982 
L 915.054545 364.472652 
L 922.359273 364.826507 
L 930.475636 365.464557 
L 941.838545 366.611113 
L 958.071273 368.231638 
L 966.999273 368.881112 
L 975.115636 369.24 
L 983.232 369.359983 
L 991.348364 369.255026 
L 996.218182 369.099911 
L 996.218182 369.099911 
" clip-path="url(#pf46bfe63b4)" style="fill: none; stroke: #000000; stroke-width: 3; stroke-linecap: square"/>
   </g>
   <g id="patch_3">
    <path d="M 144 384.48 
L 144 51.84 
" style="fill: none; stroke: #000000; stroke-width: 0.8; stroke-linejoin: miter; stroke-linecap: square"/>
   </g>
   <g id="patch_4">
    <path d="M 1036.8 384.48 
L 1036.8 51.84 
" style="fill: none; stroke: #000000; stroke-width: 0.8; stroke-linejoin: miter; stroke-linecap: square"/>
   </g>
   <g id="patch_5">
    <path d="M 144 384.48 
L 1036.8 384.48 
" style="fill: none; stroke: #000000; stroke-width: 0.8; stroke-linejoin: miter; stroke-linecap: square"/>
   </g>
   <g id="patch_6">
    <path d="M 144 51.84 
L 1036.8 51.84 
" style="fill: none; stroke: #000000; stroke-width: 0.8; stroke-linejoin: miter; stroke-linecap: square"/>
   </g>
  </g>
 </g>
 <defs>
  <clipPath id="pf46bfe63b4">
   <rect x="144" y="51.84" width="892.8" height="332.64"/>
  </clipPath>
 </defs>
</svg>
